<?xml version="1.0" encoding="UTF-8" standalone="no"?>
<!DOCTYPE svg PUBLIC "-//W3C//DTD SVG 1.1//EN"
 "http://www.w3.org/Graphics/SVG/1.1/DTD/svg11.dtd">
<!-- Generated by graphviz version 2.40.1 (20161225.0304)
 -->
<!-- Title: %3 Pages: 1 -->
<svg width="2215pt" height="2044pt"
 viewBox="0.00 0.00 2215.00 2044.00" xmlns="http://www.w3.org/2000/svg" xmlns:xlink="http://www.w3.org/1999/xlink">
<g id="graph0" class="graph" transform="scale(1 1) rotate(0) translate(4 2040)">
<title>%3</title>
<polygon fill="#ffffff" stroke="transparent" points="-4,4 -4,-2040 2211,-2040 2211,4 -4,4"/>
<g id="clust1" class="cluster">
<title>cluster_0</title>
<polygon fill="none" stroke="#000000" points="1799.7381,-.1409 1799.7381,-291.1409 2206.7381,-291.1409 2206.7381,-.1409 1799.7381,-.1409"/>
<text text-anchor="middle" x="2003.2381" y="-275.9409" font-family="Times,serif" font-size="14.00" fill="#000000">legend</text>
</g>
<!-- for_programmer -->
<g id="node1" class="node">
<title>for_programmer</title>
<ellipse fill="#bc80bd" stroke="#bc80bd" cx="2119.9762" cy="-241.7818" rx="69.5877" ry="18"/>
<text text-anchor="middle" x="2119.9762" y="-238.0818" font-family="Times,serif" font-size="14.00" fill="#000000">for_programmer</text>
</g>
<!-- active -->
<g id="node2" class="node">
<title>active</title>
<ellipse fill="#ccebc5" stroke="#ccebc5" cx="2118.9762" cy="-25.7818" rx="31.6951" ry="18"/>
<text text-anchor="middle" x="2118.9762" y="-22.0818" font-family="Times,serif" font-size="14.00" fill="#000000">active</text>
</g>
<!-- ready_to_go -->
<g id="node3" class="node">
<title>ready_to_go</title>
<ellipse fill="#b3de69" stroke="#b3de69" cx="2014.9762" cy="-25.7818" rx="54.6905" ry="18"/>
<text text-anchor="middle" x="2014.9762" y="-22.0818" font-family="Times,serif" font-size="14.00" fill="#000000">ready_to_go</text>
</g>
<!-- needing_logistics -->
<g id="node4" class="node">
<title>needing_logistics</title>
<ellipse fill="#fdb462" stroke="#fdb462" cx="1960.9762" cy="-241.7818" rx="72.2875" ry="18"/>
<text text-anchor="middle" x="1960.9762" y="-238.0818" font-family="Times,serif" font-size="14.00" fill="#000000">needing_logistics</text>
</g>
<!-- needing_consideration -->
<g id="node5" class="node">
<title>needing_consideration</title>
<ellipse fill="#8dd3c7" stroke="#8dd3c7" cx="2050.9762" cy="-79.7818" rx="90.1842" ry="18"/>
<text text-anchor="middle" x="2050.9762" y="-76.0818" font-family="Times,serif" font-size="14.00" fill="#000000">needing_consideration</text>
</g>
<!-- eventually -->
<g id="node6" class="node">
<title>eventually</title>
<ellipse fill="#d9d9d9" stroke="#d9d9d9" cx="1899.9762" cy="-79.7818" rx="47.3916" ry="18"/>
<text text-anchor="middle" x="1899.9762" y="-76.0818" font-family="Times,serif" font-size="14.00" fill="#000000">eventually</text>
</g>
<!-- topic -->
<g id="node7" class="node">
<title>topic</title>
<polygon fill="none" stroke="#000000" points="1888.9762,-43.7818 1834.9762,-43.7818 1834.9762,-7.7818 1888.9762,-7.7818 1888.9762,-43.7818"/>
<text text-anchor="middle" x="1861.9762" y="-22.0818" font-family="Times,serif" font-size="14.00" fill="#000000">topic</text>
</g>
<!-- significant_work_already_done -->
<g id="node8" class="node">
<title>significant_work_already_done</title>
<polygon fill="none" stroke="#000000" points="2110.0445,-139.3441 1958.9762,-151.7818 1807.908,-139.3441 1808.049,-119.2195 2109.9034,-119.2195 2110.0445,-139.3441"/>
<text text-anchor="middle" x="1958.9762" y="-130.0818" font-family="Times,serif" font-size="14.00" fill="#000000">significant_work_already_done</text>
</g>
<!-- proposed_project -->
<g id="node9" class="node">
<title>proposed_project</title>
<polygon fill="none" stroke="#000000" points="2097.9762,-205.7818 1996.7615,-187.7818 2097.9762,-169.7818 2199.1909,-187.7818 2097.9762,-205.7818"/>
<text text-anchor="middle" x="2097.9762" y="-184.0818" font-family="Times,serif" font-size="14.00" fill="#000000">proposed_project</text>
</g>
<!-- active_project -->
<g id="node10" class="node">
<title>active_project</title>
<ellipse fill="none" stroke="#000000" cx="1921.9762" cy="-187.7818" rx="60.3893" ry="18"/>
<text text-anchor="middle" x="1921.9762" y="-184.0818" font-family="Times,serif" font-size="14.00" fill="#000000">active_project</text>
</g>
<!-- Bayesian_GCtree -->
<g id="node11" class="node">
<title>Bayesian_GCtree</title>
<g id="a_node11"><a xlink:title="Do posterior estimation using Will&#39;s GCtree framework.">
<ellipse fill="#ccebc5" stroke="#ccebc5" cx="943.6437" cy="-837.5005" rx="72.5877" ry="18"/>
<text text-anchor="middle" x="943.6437" y="-833.8005" font-family="Times,serif" font-size="14.00" fill="#000000">Bayesian_GCtree</text>
</a>
</g>
</g>
<!-- GCreplay -->
<g id="node12" class="node">
<title>GCreplay</title>
<g id="a_node12"><a xlink:title="A big collaboration with the Victora and Bloom labs to understand GC maturation with replicate samples.">
<ellipse fill="#ccebc5" stroke="#ccebc5" cx="870.3622" cy="-1107.3419" rx="44.6926" ry="18"/>
<text text-anchor="middle" x="870.3622" y="-1103.6419" font-family="Times,serif" font-size="14.00" fill="#000000">GCreplay</text>
</a>
</g>
</g>
<!-- Bayesian_GCtree&#45;&#45;GCreplay -->
<g id="edge30" class="edge">
<title>Bayesian_GCtree&#45;&#45;GCreplay</title>
<path fill="none" stroke="#000000" d="M938.7217,-855.6245C925.3718,-904.7822 888.5875,-1040.2315 875.2627,-1089.2967"/>
</g>
<!-- GCtree_with_heritable -->
<g id="node51" class="node">
<title>GCtree_with_heritable</title>
<g id="a_node51"><a xlink:title="GCtree operates under the assumption of a neutral branching process, the parameters of which do not change through the tree. Can we extend this to a process with a heritable component?">
<polygon fill="#b3de69" stroke="#b3de69" points="1051.9196,-1148.0821 923.0553,-1130.0821 1051.9196,-1112.0821 1180.7839,-1130.0821 1051.9196,-1148.0821"/>
<text text-anchor="middle" x="1051.9196" y="-1126.3821" font-family="Times,serif" font-size="14.00" fill="#000000">GCtree_with_heritable</text>
</a>
</g>
</g>
<!-- Bayesian_GCtree&#45;&#45;GCtree_with_heritable -->
<g id="edge31" class="edge">
<title>Bayesian_GCtree&#45;&#45;GCtree_with_heritable</title>
<path fill="none" stroke="#000000" d="M950.4168,-855.8028C970.0006,-908.7218 1026.507,-1061.4125 1045.56,-1112.8974"/>
</g>
<!-- antibody_DMS -->
<g id="node25" class="node">
<title>antibody_DMS</title>
<g id="a_node25"><a xlink:title="What can we learn from deep mutational scanning on antibodies?">
<ellipse fill="#ccebc5" stroke="#ccebc5" cx="891.9154" cy="-1395.2497" rx="65.7887" ry="18"/>
<text text-anchor="middle" x="891.9154" y="-1391.5497" font-family="Times,serif" font-size="14.00" fill="#000000">antibody_DMS</text>
</a>
</g>
</g>
<!-- GCreplay&#45;&#45;antibody_DMS -->
<g id="edge33" class="edge">
<title>GCreplay&#45;&#45;antibody_DMS</title>
<path fill="none" stroke="#000000" d="M871.7104,-1125.3518C875.5811,-1177.0561 886.6976,-1325.5508 890.5677,-1377.2466"/>
</g>
<!-- torchdms -->
<g id="node28" class="node">
<title>torchdms</title>
<g id="a_node28"><a xlink:title="Develop a DMS analysis package using a modern machine&#45;learning library.">
<ellipse fill="#ccebc5" stroke="#ccebc5" cx="663.0609" cy="-1279.3577" rx="44.393" ry="18"/>
<text text-anchor="middle" x="663.0609" y="-1275.6577" font-family="Times,serif" font-size="14.00" fill="#000000">torchdms</text>
</a>
</g>
</g>
<!-- GCreplay&#45;&#45;torchdms -->
<g id="edge32" class="edge">
<title>GCreplay&#45;&#45;torchdms</title>
<path fill="none" stroke="#000000" d="M850.4852,-1123.8355C810.7602,-1156.7988 721.9994,-1230.4513 682.575,-1263.1652"/>
</g>
<!-- HLA_effects -->
<g id="node13" class="node">
<title>HLA_effects</title>
<g id="a_node13"><a xlink:title="Assya&#39;s project understanding the effects of HLA on repertoire.">
<ellipse fill="#ccebc5" stroke="#ccebc5" cx="187.7744" cy="-1058.9037" rx="56.59" ry="18"/>
<text text-anchor="middle" x="187.7744" y="-1055.2037" font-family="Times,serif" font-size="14.00" fill="#000000">HLA_effects</text>
</a>
</g>
</g>
<!-- PhIP_seq -->
<g id="node14" class="node">
<title>PhIP_seq</title>
<g id="a_node14"><a xlink:title="Develop statistics and software tools for PhIP&#45;seq analyses.">
<ellipse fill="#ccebc5" stroke="#ccebc5" cx="744.2491" cy="-1464.0311" rx="44.393" ry="18"/>
<text text-anchor="middle" x="744.2491" y="-1460.3311" font-family="Times,serif" font-size="14.00" fill="#000000">PhIP_seq</text>
</a>
</g>
</g>
<!-- TCR_GWAS -->
<g id="node15" class="node">
<title>TCR_GWAS</title>
<g id="a_node15"><a xlink:title="GWAS to infer TCR&#45;repertoire features.">
<ellipse fill="#ccebc5" stroke="#ccebc5" cx="277.8809" cy="-677.5521" rx="58.4896" ry="18"/>
<text text-anchor="middle" x="277.8809" y="-673.8521" font-family="Times,serif" font-size="14.00" fill="#000000">TCR_GWAS</text>
</a>
</g>
</g>
<!-- TCR_trimming_motifs -->
<g id="node16" class="node">
<title>TCR_trimming_motifs</title>
<g id="a_node16"><a xlink:title="What sequence&#45;level features determine trimming of TCRs in VDJ recombination?">
<ellipse fill="#ccebc5" stroke="#ccebc5" cx="93.2927" cy="-750.4527" rx="92.8835" ry="18"/>
<text text-anchor="middle" x="93.2927" y="-746.7527" font-family="Times,serif" font-size="14.00" fill="#000000">TCR_trimming_motifs</text>
</a>
</g>
</g>
<!-- bito -->
<g id="node17" class="node">
<title>bito</title>
<g id="a_node17"><a xlink:title="Bayesian Inference of Trees via Optimization: a C++/python package">
<ellipse fill="#ccebc5" stroke="#ccebc5" cx="1475.8286" cy="-1219.5376" rx="27" ry="18"/>
<text text-anchor="middle" x="1475.8286" y="-1215.8376" font-family="Times,serif" font-size="14.00" fill="#000000">bito</text>
</a>
</g>
</g>
<!-- autodiff_gradients -->
<g id="node18" class="node">
<title>autodiff_gradients</title>
<g id="a_node18"><a xlink:title="How fast is autodiff for phylogenetically&#45;relevant gradients?">
<ellipse fill="#ccebc5" stroke="#ccebc5" cx="1470.9044" cy="-1419.5584" rx="75.2868" ry="18"/>
<text text-anchor="middle" x="1470.9044" y="-1415.8584" font-family="Times,serif" font-size="14.00" fill="#000000">autodiff_gradients</text>
</a>
</g>
</g>
<!-- bito&#45;&#45;autodiff_gradients -->
<g id="edge4" class="edge">
<title>bito&#45;&#45;autodiff_gradients</title>
<path fill="none" stroke="#000000" d="M1475.3829,-1237.6409C1474.4478,-1275.6264 1472.29,-1363.2766 1471.3526,-1401.3519"/>
</g>
<!-- phylogenetic_VI -->
<g id="node23" class="node">
<title>phylogenetic_VI</title>
<g id="a_node23"><a xlink:title="Do variational inference of continuous parameters in phylogenetics.">
<ellipse fill="#ccebc5" stroke="#ccebc5" cx="1765.2659" cy="-1266.8675" rx="69.5877" ry="18"/>
<text text-anchor="middle" x="1765.2659" y="-1263.1675" font-family="Times,serif" font-size="14.00" fill="#000000">phylogenetic_VI</text>
</a>
</g>
</g>
<!-- bito&#45;&#45;phylogenetic_VI -->
<g id="edge2" class="edge">
<title>bito&#45;&#45;phylogenetic_VI</title>
<path fill="none" stroke="#000000" d="M1502.2815,-1223.8633C1548.2641,-1231.3825 1643.9804,-1247.0344 1706.3734,-1257.2372"/>
</g>
<!-- subsplit_DAG -->
<g id="node27" class="node">
<title>subsplit_DAG</title>
<g id="a_node27"><a xlink:title="Formalize definitions of and basic lemmas for the subsplit DAG.">
<ellipse fill="#ccebc5" stroke="#ccebc5" cx="1568.7814" cy="-791.2933" rx="61.99" ry="18"/>
<text text-anchor="middle" x="1568.7814" y="-787.5933" font-family="Times,serif" font-size="14.00" fill="#000000">subsplit_DAG</text>
</a>
</g>
</g>
<!-- bito&#45;&#45;subsplit_DAG -->
<g id="edge7" class="edge">
<title>bito&#45;&#45;subsplit_DAG</title>
<path fill="none" stroke="#000000" d="M1479.7043,-1201.6817C1494.7881,-1132.189 1549.4926,-880.1593 1564.7853,-809.7041"/>
</g>
<!-- variational_branch_lengths -->
<g id="node53" class="node">
<title>variational_branch_lengths</title>
<g id="a_node53"><a xlink:title="Get Cheng&#39;s normalizing flow code working.">
<polygon fill="#b3de69" stroke="#b3de69" points="1290.0293,-1217.4617 1139.0453,-1199.4617 1290.0293,-1181.4617 1441.0132,-1199.4617 1290.0293,-1217.4617"/>
<text text-anchor="middle" x="1290.0293" y="-1195.7617" font-family="Times,serif" font-size="14.00" fill="#000000">variational_branch_lengths</text>
</a>
</g>
</g>
<!-- bito&#45;&#45;variational_branch_lengths -->
<g id="edge6" class="edge">
<title>bito&#45;&#45;variational_branch_lengths</title>
<path fill="none" stroke="#000000" d="M1448.8118,-1216.6184C1427.8773,-1214.3564 1397.7468,-1211.1008 1369.347,-1208.0321"/>
</g>
<!-- bito_vimco -->
<g id="node54" class="node">
<title>bito_vimco</title>
<g id="a_node54"><a xlink:title="Get VIMCO working in bito.">
<polygon fill="#b3de69" stroke="#b3de69" points="1280.4503,-1406.7699 1207.7233,-1388.7699 1280.4503,-1370.7699 1353.1773,-1388.7699 1280.4503,-1406.7699"/>
<text text-anchor="middle" x="1280.4503" y="-1385.0699" font-family="Times,serif" font-size="14.00" fill="#000000">bito_vimco</text>
</a>
</g>
</g>
<!-- bito&#45;&#45;bito_vimco -->
<g id="edge5" class="edge">
<title>bito&#45;&#45;bito_vimco</title>
<path fill="none" stroke="#000000" d="M1459.1708,-1233.9663C1422.166,-1266.0189 1333.4973,-1342.8218 1296.7904,-1374.6165"/>
</g>
<!-- generalized_pruning -->
<g id="node19" class="node">
<title>generalized_pruning</title>
<g id="a_node19"><a xlink:title="Generalization of the Felsenstein pruning algorithm to the subsplit DAG.">
<ellipse fill="#ccebc5" stroke="#ccebc5" cx="1484.4668" cy="-497.8497" rx="83.3857" ry="18"/>
<text text-anchor="middle" x="1484.4668" y="-494.1497" font-family="Times,serif" font-size="14.00" fill="#000000">generalized_pruning</text>
</a>
</g>
</g>
<!-- fix_generalized_pruning -->
<g id="node50" class="node">
<title>fix_generalized_pruning</title>
<g id="a_node50"><a xlink:title="How could we fix marginalization issues with generalized pruning?">
<polygon fill="none" stroke="#000000" points="1564.8834,-266.1993 1427.9745,-248.1993 1564.8834,-230.1993 1701.7922,-248.1993 1564.8834,-266.1993"/>
<text text-anchor="middle" x="1564.8834" y="-244.4993" font-family="Times,serif" font-size="14.00" fill="#000000">fix_generalized_pruning</text>
</a>
</g>
</g>
<!-- generalized_pruning&#45;&#45;fix_generalized_pruning -->
<g id="edge20" class="edge">
<title>generalized_pruning&#45;&#45;fix_generalized_pruning</title>
<path fill="none" stroke="#000000" d="M1490.38,-479.4923C1505.3603,-432.9865 1544.6502,-311.0125 1559.2843,-265.5816"/>
</g>
<!-- linearham_empirical_uncertainty -->
<g id="node20" class="node">
<title>linearham_empirical_uncertainty</title>
<g id="a_node20"><a xlink:title="linearham is our Bayesian method for doing inference of BCR lineage evolution. If we apply it to well&#45;known data sets from the literature, how much uncertainty is there in ancestral sequence inference?">
<ellipse fill="#ccebc5" stroke="#ccebc5" cx="735.6612" cy="-329.2323" rx="128.0773" ry="18"/>
<text text-anchor="middle" x="735.6612" y="-325.5323" font-family="Times,serif" font-size="14.00" fill="#000000">linearham_empirical_uncertainty</text>
</a>
</g>
</g>
<!-- mechanistic_SHM -->
<g id="node21" class="node">
<title>mechanistic_SHM</title>
<g id="a_node21"><a xlink:title="Design and fit mechanistically&#45;based probabilistic models of the somatic hypermutation process.">
<ellipse fill="#ccebc5" stroke="#ccebc5" cx="1085.0505" cy="-385.1794" rx="77.1866" ry="18"/>
<text text-anchor="middle" x="1085.0505" y="-381.4794" font-family="Times,serif" font-size="14.00" fill="#000000">mechanistic_SHM</text>
</a>
</g>
</g>
<!-- context_sensitive_phylo -->
<g id="node40" class="node">
<title>context_sensitive_phylo</title>
<g id="a_node40"><a xlink:title="Develop phyogenetic methods that enable inference under context&#45;sensitive models.">
<polygon fill="#b3de69" stroke="#b3de69" points="1257.087,-508.273 1121.0165,-490.273 1257.087,-472.273 1393.1576,-490.273 1257.087,-508.273"/>
<text text-anchor="middle" x="1257.087" y="-486.573" font-family="Times,serif" font-size="14.00" fill="#000000">context_sensitive_phylo</text>
</a>
</g>
</g>
<!-- mechanistic_SHM&#45;&#45;context_sensitive_phylo -->
<g id="edge62" class="edge">
<title>mechanistic_SHM&#45;&#45;context_sensitive_phylo</title>
<path fill="none" stroke="#000000" d="M1112.6912,-402.0645C1145.9348,-422.3724 1201.2044,-456.1355 1232.8516,-475.4681"/>
</g>
<!-- SHM_across_ages -->
<g id="node42" class="node">
<title>SHM_across_ages</title>
<g id="a_node42"><a xlink:title="Perform a detailed investigation of how SHM changes as people age.">
<polygon fill="#fdb462" stroke="#fdb462" points="1204.3119,-302.4735 1095.8907,-284.4735 1204.3119,-266.4735 1312.733,-284.4735 1204.3119,-302.4735"/>
<text text-anchor="middle" x="1204.3119" y="-280.7735" font-family="Times,serif" font-size="14.00" fill="#000000">SHM_across_ages</text>
</a>
</g>
</g>
<!-- mechanistic_SHM&#45;&#45;SHM_across_ages -->
<g id="edge54" class="edge">
<title>mechanistic_SHM&#45;&#45;SHM_across_ages</title>
<path fill="none" stroke="#000000" d="M1105.8243,-367.6377C1128.6482,-348.3649 1164.9242,-317.733 1186.4975,-299.5162"/>
</g>
<!-- paired_HL -->
<g id="node22" class="node">
<title>paired_HL</title>
<g id="a_node22"><a xlink:title="Perform clonal family inference with paired heavy and light chain sequences.">
<ellipse fill="#ccebc5" stroke="#ccebc5" cx="923.0111" cy="-374.7747" rx="48.9926" ry="18"/>
<text text-anchor="middle" x="923.0111" y="-371.0747" font-family="Times,serif" font-size="14.00" fill="#000000">paired_HL</text>
</a>
</g>
</g>
<!-- B_cell_CONGA -->
<g id="node39" class="node">
<title>B_cell_CONGA</title>
<g id="a_node39"><a xlink:title="Adapt CONGA (https://paperpile.com/shared/w2jo9E) for BCR sequences.">
<polygon fill="#b3de69" stroke="#b3de69" points="992.1307,-126.4375 893.9308,-108.4375 992.1307,-90.4375 1090.3306,-108.4375 992.1307,-126.4375"/>
<text text-anchor="middle" x="992.1307" y="-104.7375" font-family="Times,serif" font-size="14.00" fill="#000000">B_cell_CONGA</text>
</a>
</g>
</g>
<!-- paired_HL&#45;&#45;B_cell_CONGA -->
<g id="edge63" class="edge">
<title>paired_HL&#45;&#45;B_cell_CONGA</title>
<path fill="none" stroke="#000000" d="M927.762,-356.4683C940.4805,-307.4601 975.1797,-173.7544 987.6185,-125.8243"/>
</g>
<!-- benchmark_phylogenetic_VI -->
<g id="node24" class="node">
<title>benchmark_phylogenetic_VI</title>
<g id="a_node24"><a xlink:title="How well are existing phylo VI tools doing?">
<ellipse fill="#bc80bd" stroke="#bc80bd" cx="1911.2643" cy="-1360.7964" rx="113.9803" ry="18"/>
<text text-anchor="middle" x="1911.2643" y="-1357.0964" font-family="Times,serif" font-size="14.00" fill="#000000">benchmark_phylogenetic_VI</text>
</a>
</g>
</g>
<!-- phylogenetic_VI&#45;&#45;benchmark_phylogenetic_VI -->
<g id="edge9" class="edge">
<title>phylogenetic_VI&#45;&#45;benchmark_phylogenetic_VI</title>
<path fill="none" stroke="#000000" d="M1791.3675,-1283.6601C1817.4499,-1300.4404 1857.3842,-1326.1323 1883.9022,-1343.1929"/>
</g>
<!-- adaptive_MCMC -->
<g id="node58" class="node">
<title>adaptive_MCMC</title>
<g id="a_node58"><a xlink:title="Use variational inference as a proposal distribution for MCMC.">
<polygon fill="none" stroke="#000000" points="1937.0752,-1187.6695 1833.3455,-1169.6695 1937.0752,-1151.6695 2040.8049,-1169.6695 1937.0752,-1187.6695"/>
<text text-anchor="middle" x="1937.0752" y="-1165.9695" font-family="Times,serif" font-size="14.00" fill="#000000">adaptive_MCMC</text>
</a>
</g>
</g>
<!-- phylogenetic_VI&#45;&#45;adaptive_MCMC -->
<g id="edge1" class="edge">
<title>phylogenetic_VI&#45;&#45;adaptive_MCMC</title>
<path fill="none" stroke="#000000" d="M1794.411,-1250.3792C1827.6322,-1231.5849 1881.3522,-1201.1938 1912.5262,-1183.5576"/>
</g>
<!-- online_phylo_VI -->
<g id="node60" class="node">
<title>online_phylo_VI</title>
<g id="a_node60"><a xlink:title="Online (i.e. incremental) phylogenetic variational inference.">
<polygon fill="#d9d9d9" stroke="#d9d9d9" points="1727.2245,-1121.3519 1626.8478,-1103.3519 1727.2245,-1085.3519 1827.6011,-1103.3519 1727.2245,-1121.3519"/>
<text text-anchor="middle" x="1727.2245" y="-1099.6519" font-family="Times,serif" font-size="14.00" fill="#000000">online_phylo_VI</text>
</a>
</g>
</g>
<!-- phylogenetic_VI&#45;&#45;online_phylo_VI -->
<g id="edge8" class="edge">
<title>phylogenetic_VI&#45;&#45;online_phylo_VI</title>
<path fill="none" stroke="#000000" d="M1761.0495,-1248.7437C1753.6985,-1217.1464 1738.6269,-1152.3634 1731.3442,-1121.0599"/>
</g>
<!-- antibody_DMS&#45;&#45;PhIP_seq -->
<g id="edge36" class="edge">
<title>antibody_DMS&#45;&#45;PhIP_seq</title>
<path fill="none" stroke="#000000" d="M858.4076,-1410.8573C832.8797,-1422.7479 798.0741,-1438.96 773.6274,-1450.347"/>
</g>
<!-- antibody_DMS&#45;&#45;torchdms -->
<g id="edge35" class="edge">
<title>antibody_DMS&#45;&#45;torchdms</title>
<path fill="none" stroke="#000000" d="M860.574,-1379.3784C815.647,-1356.6274 733.6453,-1315.1017 690.8023,-1293.406"/>
</g>
<!-- dms_view2 -->
<g id="node41" class="node">
<title>dms_view2</title>
<g id="a_node41"><a xlink:title="Develop the next version of dms&#45;view, with abilities to compare between data sets and also show K_D inferences.">
<polygon fill="#bc80bd" stroke="#bc80bd" points="980.0392,-1554.6056 906.474,-1536.6056 980.0392,-1518.6056 1053.6043,-1536.6056 980.0392,-1554.6056"/>
<text text-anchor="middle" x="980.0392" y="-1532.9056" font-family="Times,serif" font-size="14.00" fill="#000000">dms_view2</text>
</a>
</g>
</g>
<!-- antibody_DMS&#45;&#45;dms_view2 -->
<g id="edge37" class="edge">
<title>antibody_DMS&#45;&#45;dms_view2</title>
<path fill="none" stroke="#000000" d="M903.0763,-1413.1525C920.3979,-1440.9373 953.4799,-1494.0029 970.0548,-1520.5901"/>
</g>
<!-- SARS2_parsimony_plateau -->
<g id="node26" class="node">
<title>SARS2_parsimony_plateau</title>
<g id="a_node26"><a xlink:title="Use a graph to capture the ensemble of maximally&#45;parsimonious trees for SARS&#45;Cov&#45;2 data. How much uncertainty is there? How does PANGO look?">
<ellipse fill="#ccebc5" stroke="#ccebc5" cx="1180.4531" cy="-963.0294" rx="108.5808" ry="18"/>
<text text-anchor="middle" x="1180.4531" y="-959.3294" font-family="Times,serif" font-size="14.00" fill="#000000">SARS2_parsimony_plateau</text>
</a>
</g>
</g>
<!-- subsplit_DAG&#45;&#45;generalized_pruning -->
<g id="edge12" class="edge">
<title>subsplit_DAG&#45;&#45;generalized_pruning</title>
<path fill="none" stroke="#000000" d="M1563.5072,-772.9371C1548.3294,-720.1132 1504.6711,-568.1676 1489.6314,-515.8243"/>
</g>
<!-- hillclimber -->
<g id="node32" class="node">
<title>hillclimber</title>
<g id="a_node32"><a xlink:title="What happens when we start ML algorithms at random starting points? What does it tell us about the phylogenetic likelihood surface?">
<polygon fill="#b3de69" stroke="#b3de69" points="1713.5545,-511.8671 1651.8348,-524.3048 1590.115,-511.8671 1590.1726,-491.7425 1713.4969,-491.7425 1713.5545,-511.8671"/>
<text text-anchor="middle" x="1651.8348" y="-502.6048" font-family="Times,serif" font-size="14.00" fill="#000000">hillclimber</text>
</a>
</g>
</g>
<!-- subsplit_DAG&#45;&#45;hillclimber -->
<g id="edge11" class="edge">
<title>subsplit_DAG&#45;&#45;hillclimber</title>
<path fill="none" stroke="#000000" d="M1574.1031,-773.0325C1589.2117,-721.1892 1632.2207,-573.6084 1646.8742,-523.3265"/>
</g>
<!-- Bayesian_subtree_optimality -->
<g id="node44" class="node">
<title>Bayesian_subtree_optimality</title>
<g id="a_node44"><a xlink:title="How does the Bayesian posterior distribution of n taxa change when an n+1st taxon is added to the tree?">
<polygon fill="#b3de69" stroke="#b3de69" points="1480.7875,-626.56 1320.0824,-608.56 1480.7875,-590.56 1641.4927,-608.56 1480.7875,-626.56"/>
<text text-anchor="middle" x="1480.7875" y="-604.86" font-family="Times,serif" font-size="14.00" fill="#000000">Bayesian_subtree_optimality</text>
</a>
</g>
</g>
<!-- subsplit_DAG&#45;&#45;Bayesian_subtree_optimality -->
<g id="edge16" class="edge">
<title>subsplit_DAG&#45;&#45;Bayesian_subtree_optimality</title>
<path fill="none" stroke="#000000" d="M1560.184,-773.4394C1543.2319,-738.2356 1505.6969,-660.2883 1489.0337,-625.6844"/>
</g>
<!-- fasdag -->
<g id="node45" class="node">
<title>fasdag</title>
<g id="a_node45"><a xlink:title="Develop NJ and parsimony approaches to reconstructing the sDAG.">
<polygon fill="#b3de69" stroke="#b3de69" points="1334.0246,-778.7156 1286.4314,-760.7156 1334.0246,-742.7156 1381.6178,-760.7156 1334.0246,-778.7156"/>
<text text-anchor="middle" x="1334.0246" y="-757.0156" font-family="Times,serif" font-size="14.00" fill="#000000">fasdag</text>
</a>
</g>
</g>
<!-- subsplit_DAG&#45;&#45;fasdag -->
<g id="edge17" class="edge">
<title>subsplit_DAG&#45;&#45;fasdag</title>
<path fill="none" stroke="#000000" d="M1512.2526,-783.9303C1467.8877,-778.1516 1407.4925,-770.285 1369.6397,-765.3546"/>
</g>
<!-- variational_on_time_tree_samples -->
<g id="node46" class="node">
<title>variational_on_time_tree_samples</title>
<g id="a_node46"><a xlink:title="Develop variational models and fit them to time&#45;tree MCMC samples. How well do they fit?">
<polygon fill="#b3de69" stroke="#b3de69" points="1868.1244,-859.3071 1680.6082,-841.3071 1868.1244,-823.3071 2055.6406,-841.3071 1868.1244,-859.3071"/>
<text text-anchor="middle" x="1868.1244" y="-837.6071" font-family="Times,serif" font-size="14.00" fill="#000000">variational_on_time_tree_samples</text>
</a>
</g>
</g>
<!-- subsplit_DAG&#45;&#45;variational_on_time_tree_samples -->
<g id="edge19" class="edge">
<title>subsplit_DAG&#45;&#45;variational_on_time_tree_samples</title>
<path fill="none" stroke="#000000" d="M1622.6437,-800.2926C1672.2156,-808.575 1745.9776,-820.899 1799.7009,-829.875"/>
</g>
<!-- local_EM -->
<g id="node52" class="node">
<title>local_EM</title>
<g id="a_node52"><a xlink:title="Develop an EM algorithm for variational inference that uses local computation. Go Hogwild.">
<polygon fill="#b3de69" stroke="#b3de69" points="1618.2872,-714.4558 1553.2659,-696.4558 1618.2872,-678.4558 1683.3084,-696.4558 1618.2872,-714.4558"/>
<text text-anchor="middle" x="1618.2872" y="-692.7558" font-family="Times,serif" font-size="14.00" fill="#000000">local_EM</text>
</a>
</g>
</g>
<!-- subsplit_DAG&#45;&#45;local_EM -->
<g id="edge13" class="edge">
<title>subsplit_DAG&#45;&#45;local_EM</title>
<path fill="none" stroke="#000000" d="M1578.0931,-773.4551C1587.28,-755.8558 1601.1919,-729.2051 1610.0045,-712.3228"/>
</g>
<!-- find_MAP_tree_in_subsplit_DAG -->
<g id="node56" class="node">
<title>find_MAP_tree_in_subsplit_DAG</title>
<g id="a_node56"><a xlink:title="Can we quickly find the MAP tree in the subsplit DAG?">
<polygon fill="#b3de69" stroke="#b3de69" points="1507.294,-1067.4806 1319.7778,-1049.4806 1507.294,-1031.4806 1694.8102,-1049.4806 1507.294,-1067.4806"/>
<text text-anchor="middle" x="1507.294" y="-1045.7806" font-family="Times,serif" font-size="14.00" fill="#000000">find_MAP_tree_in_subsplit_DAG</text>
</a>
</g>
</g>
<!-- subsplit_DAG&#45;&#45;find_MAP_tree_in_subsplit_DAG -->
<g id="edge18" class="edge">
<title>subsplit_DAG&#45;&#45;find_MAP_tree_in_subsplit_DAG</title>
<path fill="none" stroke="#000000" d="M1564.4578,-809.4486C1553.1408,-856.9687 1522.7505,-984.5786 1511.5313,-1031.6882"/>
</g>
<!-- how_big_of_sDAG -->
<g id="node59" class="node">
<title>how_big_of_sDAG</title>
<g id="a_node59"><a xlink:title="How big of a subsplit DAG is actually required to get reasonable estimates (with uncertaintly quantification) of key parameters?">
<polygon fill="none" stroke="#000000" points="1856.5619,-727.3657 1743.4491,-709.3657 1856.5619,-691.3657 1969.6746,-709.3657 1856.5619,-727.3657"/>
<text text-anchor="middle" x="1856.5619" y="-705.6657" font-family="Times,serif" font-size="14.00" fill="#000000">how_big_of_sDAG</text>
</a>
</g>
</g>
<!-- subsplit_DAG&#45;&#45;how_big_of_sDAG -->
<g id="edge15" class="edge">
<title>subsplit_DAG&#45;&#45;how_big_of_sDAG</title>
<path fill="none" stroke="#000000" d="M1613.1164,-778.6717C1668.457,-762.9169 1762.3336,-736.1913 1815.9011,-720.9413"/>
</g>
<!-- subsplit_DAG&#45;&#45;online_phylo_VI -->
<g id="edge10" class="edge">
<title>subsplit_DAG&#45;&#45;online_phylo_VI</title>
<path fill="none" stroke="#000000" d="M1577.9849,-809.4198C1606.2526,-865.094 1691.5476,-1033.0852 1718.7741,-1086.7087"/>
</g>
<!-- Bayesian_histories -->
<g id="node64" class="node">
<title>Bayesian_histories</title>
<polygon fill="none" stroke="#000000" points="1238.1331,-851.3074 1119.1331,-851.3074 1119.1331,-815.3074 1238.1331,-815.3074 1238.1331,-851.3074"/>
<text text-anchor="middle" x="1178.6331" y="-829.6074" font-family="Times,serif" font-size="14.00" fill="#000000">Bayesian_histories</text>
</g>
<!-- subsplit_DAG&#45;&#45;Bayesian_histories -->
<g id="edge14" class="edge">
<title>subsplit_DAG&#45;&#45;Bayesian_histories</title>
<path fill="none" stroke="#000000" d="M1510.7936,-797.5379C1437.5598,-805.4243 1312.2044,-818.9234 1238.2208,-826.8905"/>
</g>
<!-- benchmark_torchdms -->
<g id="node62" class="node">
<title>benchmark_torchdms</title>
<g id="a_node62"><a xlink:title="Perform futher benchmarking of torchdms and other methods.">
<polygon fill="#b3de69" stroke="#b3de69" points="520.6418,-1346.1355 396.4693,-1328.1355 520.6418,-1310.1355 644.8143,-1328.1355 520.6418,-1346.1355"/>
<text text-anchor="middle" x="520.6418" y="-1324.4355" font-family="Times,serif" font-size="14.00" fill="#000000">benchmark_torchdms</text>
</a>
</g>
</g>
<!-- torchdms&#45;&#45;benchmark_torchdms -->
<g id="edge34" class="edge">
<title>torchdms&#45;&#45;benchmark_torchdms</title>
<path fill="none" stroke="#000000" d="M628.948,-1291.0412C607.4698,-1298.3974 579.7447,-1307.893 557.723,-1315.4354"/>
</g>
<!-- transport -->
<g id="node29" class="node">
<title>transport</title>
<g id="a_node29"><a xlink:title="Compare TCR repertoires via optimal transport.">
<ellipse fill="#ccebc5" stroke="#ccebc5" cx="437.0635" cy="-1072.7859" rx="42.4939" ry="18"/>
<text text-anchor="middle" x="437.0635" y="-1069.0859" font-family="Times,serif" font-size="14.00" fill="#000000">transport</text>
</a>
</g>
</g>
<!-- VI_diagnostics -->
<g id="node30" class="node">
<title>VI_diagnostics</title>
<g id="a_node30"><a xlink:title="How will we know if VI is giving a good approximation?">
<ellipse fill="#ccebc5" stroke="#ccebc5" cx="1777.4854" cy="-1488.9458" rx="63.8893" ry="18"/>
<text text-anchor="middle" x="1777.4854" y="-1485.2458" font-family="Times,serif" font-size="14.00" fill="#000000">VI_diagnostics</text>
</a>
</g>
</g>
<!-- VI_diagnostics&#45;&#45;phylogenetic_VI -->
<g id="edge3" class="edge">
<title>VI_diagnostics&#45;&#45;phylogenetic_VI</title>
<path fill="none" stroke="#000000" d="M1776.4854,-1470.7722C1774.1884,-1429.0248 1768.5564,-1326.6696 1766.2626,-1284.9807"/>
</g>
<!-- CFT -->
<g id="node31" class="node">
<title>CFT</title>
<g id="a_node31"><a xlink:title="The Clonal Family Tree pipeline to do clonal family inference and then phylogenetics.">
<polygon fill="#bc80bd" stroke="#bc80bd" points="642.7554,-441.3933 609.8787,-453.831 577.002,-441.3933 577.0327,-421.2687 642.7247,-421.2687 642.7554,-441.3933"/>
<text text-anchor="middle" x="609.8787" y="-432.131" font-family="Times,serif" font-size="14.00" fill="#000000">CFT</text>
</a>
</g>
</g>
<!-- olmsted -->
<g id="node33" class="node">
<title>olmsted</title>
<g id="a_node33"><a xlink:title="A visualization tool for BCR lineages.">
<polygon fill="none" stroke="#000000" points="478.2654,-233.4154 429.8598,-245.8531 381.4542,-233.4154 381.4994,-213.2908 478.2202,-213.2908 478.2654,-233.4154"/>
<text text-anchor="middle" x="429.8598" y="-224.1531" font-family="Times,serif" font-size="14.00" fill="#000000">olmsted</text>
</a>
</g>
</g>
<!-- CFT&#45;&#45;olmsted -->
<g id="edge52" class="edge">
<title>CFT&#45;&#45;olmsted</title>
<path fill="none" stroke="#000000" d="M597.2202,-421.2064C564.2472,-383.1123 475.9706,-281.1254 442.7454,-242.7399"/>
</g>
<!-- find_posterior_modes -->
<g id="node47" class="node">
<title>find_posterior_modes</title>
<g id="a_node47"><a xlink:title="Can we do something to quickly find posterior modes in the phylogenetic posterior? Can we do better than hillclimbing?">
<polygon fill="#b3de69" stroke="#b3de69" points="1912.102,-476.4754 1787.0913,-458.4754 1912.102,-440.4754 2037.1128,-458.4754 1912.102,-476.4754"/>
<text text-anchor="middle" x="1912.102" y="-454.7754" font-family="Times,serif" font-size="14.00" fill="#000000">find_posterior_modes</text>
</a>
</g>
</g>
<!-- hillclimber&#45;&#45;find_posterior_modes -->
<g id="edge21" class="edge">
<title>hillclimber&#45;&#45;find_posterior_modes</title>
<path fill="none" stroke="#000000" d="M1713.5145,-494.9699C1757.1077,-486.9588 1815.028,-476.3147 1857.0602,-468.5905"/>
</g>
<!-- BCR_GWAS -->
<g id="node34" class="node">
<title>BCR_GWAS</title>
<g id="a_node34"><a xlink:title="Do a GWAS for BCR repertoire features. Can we learn about SHM too?">
<polygon fill="#fdb462" stroke="#fdb462" points="505.7314,-598.5984 421.9446,-580.5984 505.7314,-562.5984 589.5183,-580.5984 505.7314,-598.5984"/>
<text text-anchor="middle" x="505.7314" y="-576.8984" font-family="Times,serif" font-size="14.00" fill="#000000">BCR_GWAS</text>
</a>
</g>
</g>
<!-- BCR_GWAS&#45;&#45;TCR_GWAS -->
<g id="edge56" class="edge">
<title>BCR_GWAS&#45;&#45;TCR_GWAS</title>
<path fill="none" stroke="#000000" d="M477.3347,-592.6816C435.462,-610.4991 357.2625,-643.7741 312.2228,-662.9392"/>
</g>
<!-- BCR_indels -->
<g id="node35" class="node">
<title>BCR_indels</title>
<g id="a_node35"><a xlink:title="What sequence features lead to indels in BCR sequences?">
<polygon fill="#8dd3c7" stroke="#8dd3c7" points="802.3544,-477.5078 726.2737,-459.5078 802.3544,-441.5078 878.435,-459.5078 802.3544,-477.5078"/>
<text text-anchor="middle" x="802.3544" y="-455.8078" font-family="Times,serif" font-size="14.00" fill="#000000">BCR_indels</text>
</a>
</g>
</g>
<!-- clonal_families_with_indels -->
<g id="node36" class="node">
<title>clonal_families_with_indels</title>
<g id="a_node36"><a xlink:title="Can we do better clonal family clustering in the presence of indels?">
<polygon fill="#8dd3c7" stroke="#8dd3c7" points="964.0616,-601.1496 808.0478,-583.1496 964.0616,-565.1496 1120.0755,-583.1496 964.0616,-601.1496"/>
<text text-anchor="middle" x="964.0616" y="-579.4496" font-family="Times,serif" font-size="14.00" fill="#000000">clonal_families_with_indels</text>
</a>
</g>
</g>
<!-- BCR_selection_analysis -->
<g id="node37" class="node">
<title>BCR_selection_analysis</title>
<g id="a_node37"><a xlink:title="Improve dN/dS analysis for BCR lineages, looking site&#45;wise and per&#45;lineage.">
<polygon fill="#8dd3c7" stroke="#8dd3c7" points="644.6574,-642.6258 507.7486,-624.6258 644.6574,-606.6258 781.5663,-624.6258 644.6574,-642.6258"/>
<text text-anchor="middle" x="644.6574" y="-620.9258" font-family="Times,serif" font-size="14.00" fill="#000000">BCR_selection_analysis</text>
</a>
</g>
</g>
<!-- BCR_trajectories -->
<g id="node38" class="node">
<title>BCR_trajectories</title>
<g id="a_node38"><a xlink:title="Look for patterns in BCR sequence evolution. Do they fall into &#39;trajectories&#39;?">
<polygon fill="#8dd3c7" stroke="#8dd3c7" points="761.7246,-830.4316 660.5099,-812.4316 761.7246,-794.4316 862.9394,-812.4316 761.7246,-830.4316"/>
<text text-anchor="middle" x="761.7246" y="-808.7316" font-family="Times,serif" font-size="14.00" fill="#000000">BCR_trajectories</text>
</a>
</g>
</g>
<!-- Bayesian_VDJ_recombination -->
<g id="node43" class="node">
<title>Bayesian_VDJ_recombination</title>
<g id="a_node43"><a xlink:title="Can we do Bayesian estimation of VDJ recombination models?">
<polygon fill="none" stroke="#000000" points="484.3218,-814.494 315.91,-796.494 484.3218,-778.494 652.7337,-796.494 484.3218,-814.494"/>
<text text-anchor="middle" x="484.3218" y="-792.794" font-family="Times,serif" font-size="14.00" fill="#000000">Bayesian_VDJ_recombination</text>
</a>
</g>
</g>
<!-- help_PANGO -->
<g id="node48" class="node">
<title>help_PANGO</title>
<g id="a_node48"><a xlink:title="What sort of tooling would actually help PANGO do their job better?">
<polygon fill="none" stroke="#000000" points="1022.2136,-721.698 936.7504,-703.698 1022.2136,-685.698 1107.6769,-703.698 1022.2136,-721.698"/>
<text text-anchor="middle" x="1022.2136" y="-699.998" font-family="Times,serif" font-size="14.00" fill="#000000">help_PANGO</text>
</a>
</g>
</g>
<!-- big_tree_likelihoods -->
<g id="node49" class="node">
<title>big_tree_likelihoods</title>
<g id="a_node49"><a xlink:title="How can we bridge the gap between parsimony and full Felsenstein likelihoods?">
<polygon fill="none" stroke="#000000" points="1233.4419,-701.5716 1115.6374,-683.5716 1233.4419,-665.5716 1351.2464,-683.5716 1233.4419,-701.5716"/>
<text text-anchor="middle" x="1233.4419" y="-679.8716" font-family="Times,serif" font-size="14.00" fill="#000000">big_tree_likelihoods</text>
</a>
</g>
</g>
<!-- fast_TreeTime -->
<g id="node55" class="node">
<title>fast_TreeTime</title>
<g id="a_node55"><a xlink:title="Speed up ML inference of time trees.">
<polygon fill="#8dd3c7" stroke="#8dd3c7" points="1386.2634,-945.6202 1296.9466,-927.6202 1386.2634,-909.6202 1475.5802,-927.6202 1386.2634,-945.6202"/>
<text text-anchor="middle" x="1386.2634" y="-923.9202" font-family="Times,serif" font-size="14.00" fill="#000000">fast_TreeTime</text>
</a>
</g>
</g>
<!-- polytomy_resolution -->
<g id="node57" class="node">
<title>polytomy_resolution</title>
<g id="a_node57"><a xlink:title="Can we quickly resolve sequence&#45;level polytomies using timing/geography?">
<polygon fill="none" stroke="#000000" points="1607.4699,-903.3308 1487.989,-885.3308 1607.4699,-867.3308 1726.9508,-885.3308 1607.4699,-903.3308"/>
<text text-anchor="middle" x="1607.4699" y="-881.6308" font-family="Times,serif" font-size="14.00" fill="#000000">polytomy_resolution</text>
</a>
</g>
</g>
<!-- fast_TreeTime&#45;&#45;polytomy_resolution -->
<g id="edge29" class="edge">
<title>fast_TreeTime&#45;&#45;polytomy_resolution</title>
<path fill="none" stroke="#000000" d="M1432.3663,-918.8064C1467.9464,-912.0043 1517.2151,-902.5853 1554.4299,-895.4708"/>
</g>
<!-- how_big_of_sDAG&#45;&#45;find_posterior_modes -->
<g id="edge22" class="edge">
<title>how_big_of_sDAG&#45;&#45;find_posterior_modes</title>
<path fill="none" stroke="#000000" d="M1860.4673,-691.7236C1870.665,-645.658 1898.0081,-522.1418 1908.2009,-476.098"/>
</g>
<!-- SARS2_lineage_prediction -->
<g id="node61" class="node">
<title>SARS2_lineage_prediction</title>
<g id="a_node61"><a xlink:title="Predict future dominant clades of SARS&#45;Cov&#45;2.">
<polygon fill="#b3de69" stroke="#b3de69" points="732.4661,-1007.4925 581.4821,-989.4925 732.4661,-971.4925 883.45,-989.4925 732.4661,-1007.4925"/>
<text text-anchor="middle" x="732.4661" y="-985.7925" font-family="Times,serif" font-size="14.00" fill="#000000">SARS2_lineage_prediction</text>
</a>
</g>
</g>
<!-- BCR_analysis -->
<g id="node63" class="node">
<title>BCR_analysis</title>
<polygon fill="none" stroke="#000000" points="905.269,-657.079 811.269,-657.079 811.269,-621.079 905.269,-621.079 905.269,-657.079"/>
<text text-anchor="middle" x="858.269" y="-635.379" font-family="Times,serif" font-size="14.00" fill="#000000">BCR_analysis</text>
</g>
<!-- BCR_analysis&#45;&#45;Bayesian_GCtree -->
<g id="edge46" class="edge">
<title>BCR_analysis&#45;&#45;Bayesian_GCtree</title>
<path fill="none" stroke="#000000" d="M866.1478,-657.3903C882.4533,-695.2864 919.7246,-781.9094 935.9072,-819.52"/>
</g>
<!-- BCR_analysis&#45;&#45;linearham_empirical_uncertainty -->
<g id="edge45" class="edge">
<title>BCR_analysis&#45;&#45;linearham_empirical_uncertainty</title>
<path fill="none" stroke="#000000" d="M850.9665,-620.6246C829.1596,-565.5154 764.6824,-402.5729 742.9255,-347.59"/>
</g>
<!-- BCR_analysis&#45;&#45;mechanistic_SHM -->
<g id="edge53" class="edge">
<title>BCR_analysis&#45;&#45;mechanistic_SHM</title>
<path fill="none" stroke="#000000" d="M874.5786,-620.8191C916.5231,-573.859 1027.7469,-449.3353 1069.191,-402.9353"/>
</g>
<!-- BCR_analysis&#45;&#45;paired_HL -->
<g id="edge43" class="edge">
<title>BCR_analysis&#45;&#45;paired_HL</title>
<path fill="none" stroke="#000000" d="M862.719,-620.9123C874.575,-572.5114 906.8224,-440.8639 918.6156,-392.7191"/>
</g>
<!-- BCR_analysis&#45;&#45;CFT -->
<g id="edge44" class="edge">
<title>BCR_analysis&#45;&#45;CFT</title>
<path fill="none" stroke="#000000" d="M836.2261,-621.0421C786.5964,-580.4321 667.1378,-482.6839 624.947,-448.1608"/>
</g>
<!-- BCR_analysis&#45;&#45;BCR_GWAS -->
<g id="edge55" class="edge">
<title>BCR_analysis&#45;&#45;BCR_GWAS</title>
<path fill="none" stroke="#000000" d="M811.09,-631.2527C743.7332,-620.0792 620.7067,-599.671 553.194,-588.4717"/>
</g>
<!-- BCR_analysis&#45;&#45;BCR_indels -->
<g id="edge40" class="edge">
<title>BCR_analysis&#45;&#45;BCR_indels</title>
<path fill="none" stroke="#000000" d="M852.5999,-620.8725C841.7442,-586.0092 818.166,-510.2871 807.6279,-476.4437"/>
</g>
<!-- BCR_analysis&#45;&#45;clonal_families_with_indels -->
<g id="edge41" class="edge">
<title>BCR_analysis&#45;&#45;clonal_families_with_indels</title>
<path fill="none" stroke="#000000" d="M892.3248,-621.0747C906.4592,-613.6023 922.6581,-605.0384 936.082,-597.9415"/>
</g>
<!-- BCR_analysis&#45;&#45;BCR_selection_analysis -->
<g id="edge38" class="edge">
<title>BCR_analysis&#45;&#45;BCR_selection_analysis</title>
<path fill="none" stroke="#000000" d="M811.1266,-635.8893C788.7654,-634.3763 761.2669,-632.5157 735.1089,-630.7458"/>
</g>
<!-- BCR_analysis&#45;&#45;BCR_trajectories -->
<g id="edge39" class="edge">
<title>BCR_analysis&#45;&#45;BCR_trajectories</title>
<path fill="none" stroke="#000000" d="M848.1196,-657.3031C829.2385,-691.2054 788.9939,-763.4676 770.8869,-795.9802"/>
</g>
<!-- BCR_analysis&#45;&#45;Bayesian_VDJ_recombination -->
<g id="edge47" class="edge">
<title>BCR_analysis&#45;&#45;Bayesian_VDJ_recombination</title>
<path fill="none" stroke="#000000" d="M815.3725,-657.1365C740.3618,-688.7127 586.8512,-753.3337 518.4829,-782.1137"/>
</g>
<!-- BCR_analysis&#45;&#45;Bayesian_histories -->
<g id="edge42" class="edge">
<title>BCR_analysis&#45;&#45;Bayesian_histories</title>
<path fill="none" stroke="#000000" d="M888.1204,-657.1771C949.1662,-694.1876 1087.6604,-778.1529 1148.7408,-815.1844"/>
</g>
<!-- Bayesian_histories&#45;&#45;Bayesian_GCtree -->
<g id="edge24" class="edge">
<title>Bayesian_histories&#45;&#45;Bayesian_GCtree</title>
<path fill="none" stroke="#000000" d="M1119.0316,-834.3709C1087.8938,-834.9265 1049.524,-835.6112 1016.6205,-836.1983"/>
</g>
<!-- Bayesian_histories&#45;&#45;SARS2_parsimony_plateau -->
<g id="edge25" class="edge">
<title>Bayesian_histories&#45;&#45;SARS2_parsimony_plateau</title>
<path fill="none" stroke="#000000" d="M1178.8862,-851.3447C1179.232,-875.9892 1179.8487,-919.945 1180.1963,-944.7271"/>
</g>
<!-- Bayesian_histories&#45;&#45;context_sensitive_phylo -->
<g id="edge23" class="edge">
<title>Bayesian_histories&#45;&#45;context_sensitive_phylo</title>
<path fill="none" stroke="#000000" d="M1182.8512,-814.8643C1196.537,-755.024 1239.5962,-566.7503 1253.0376,-507.9788"/>
</g>
<!-- Bayesian_histories&#45;&#45;help_PANGO -->
<g id="edge26" class="edge">
<title>Bayesian_histories&#45;&#45;help_PANGO</title>
<path fill="none" stroke="#000000" d="M1156.8837,-815.2857C1125.6562,-789.4106 1068.7147,-742.2289 1039.9097,-718.361"/>
</g>
<!-- Bayesian_histories&#45;&#45;big_tree_likelihoods -->
<g id="edge28" class="edge">
<title>Bayesian_histories&#45;&#45;big_tree_likelihoods</title>
<path fill="none" stroke="#000000" d="M1185.2444,-815.2457C1195.8927,-786.1547 1216.702,-729.3046 1227.1459,-700.7722"/>
</g>
<!-- Bayesian_histories&#45;&#45;fast_TreeTime -->
<g id="edge27" class="edge">
<title>Bayesian_histories&#45;&#45;fast_TreeTime</title>
<path fill="none" stroke="#000000" d="M1218.6663,-851.4918C1259.7931,-870.173 1322.7238,-898.7583 1358.6246,-915.0657"/>
</g>
<!-- TCR_analysis -->
<g id="node65" class="node">
<title>TCR_analysis</title>
<polygon fill="none" stroke="#000000" points="375.0622,-861.8839 282.0622,-861.8839 282.0622,-825.8839 375.0622,-825.8839 375.0622,-861.8839"/>
<text text-anchor="middle" x="328.5622" y="-840.1839" font-family="Times,serif" font-size="14.00" fill="#000000">TCR_analysis</text>
</g>
<!-- TCR_analysis&#45;&#45;HLA_effects -->
<g id="edge58" class="edge">
<title>TCR_analysis&#45;&#45;HLA_effects</title>
<path fill="none" stroke="#000000" d="M316.5587,-862.2164C289.8269,-903.0428 225.6807,-1001.0109 199.3518,-1041.2221"/>
</g>
<!-- TCR_analysis&#45;&#45;TCR_GWAS -->
<g id="edge57" class="edge">
<title>TCR_analysis&#45;&#45;TCR_GWAS</title>
<path fill="none" stroke="#000000" d="M323.0419,-825.7669C313.2929,-793.7715 293.1385,-727.6263 283.3944,-695.6468"/>
</g>
<!-- TCR_analysis&#45;&#45;TCR_trimming_motifs -->
<g id="edge60" class="edge">
<title>TCR_analysis&#45;&#45;TCR_trimming_motifs</title>
<path fill="none" stroke="#000000" d="M283.1999,-825.8695C240.0702,-808.7416 175.7781,-783.2097 134.1895,-766.6939"/>
</g>
<!-- TCR_analysis&#45;&#45;transport -->
<g id="edge59" class="edge">
<title>TCR_analysis&#45;&#45;transport</title>
<path fill="none" stroke="#000000" d="M337.2579,-862.229C357.6744,-905.3012 408.4693,-1012.4617 428.6265,-1054.9866"/>
</g>
<!-- TCR_analysis&#45;&#45;Bayesian_VDJ_recombination -->
<g id="edge61" class="edge">
<title>TCR_analysis&#45;&#45;Bayesian_VDJ_recombination</title>
<path fill="none" stroke="#000000" d="M375.2952,-829.6654C395.9054,-823.3947 419.9999,-816.064 440.2892,-809.891"/>
</g>
<!-- trees_and_fitness -->
<g id="node66" class="node">
<title>trees_and_fitness</title>
<polygon fill="none" stroke="#000000" points="1001.2809,-1038.9207 891.2809,-1038.9207 891.2809,-1002.9207 1001.2809,-1002.9207 1001.2809,-1038.9207"/>
<text text-anchor="middle" x="946.2809" y="-1017.2207" font-family="Times,serif" font-size="14.00" fill="#000000">trees_and_fitness</text>
</g>
<!-- trees_and_fitness&#45;&#45;GCreplay -->
<g id="edge49" class="edge">
<title>trees_and_fitness&#45;&#45;GCreplay</title>
<path fill="none" stroke="#000000" d="M930.1805,-1039.2484C916.9486,-1054.3107 898.3413,-1075.4922 885.4066,-1090.2162"/>
</g>
<!-- trees_and_fitness&#45;&#45;GCtree_with_heritable -->
<g id="edge48" class="edge">
<title>trees_and_fitness&#45;&#45;GCtree_with_heritable</title>
<path fill="none" stroke="#000000" d="M963.725,-1038.9465C984.0013,-1059.899 1017.1497,-1094.1528 1036.5129,-1114.1617"/>
</g>
<!-- trees_and_fitness&#45;&#45;SARS2_lineage_prediction -->
<g id="edge50" class="edge">
<title>trees_and_fitness&#45;&#45;SARS2_lineage_prediction</title>
<path fill="none" stroke="#000000" d="M891.2182,-1012.8271C863.5018,-1008.7532 829.6511,-1003.7775 800.3387,-999.469"/>
</g>
<!-- trees_and_fitness&#45;&#45;Bayesian_histories -->
<g id="edge51" class="edge">
<title>trees_and_fitness&#45;&#45;Bayesian_histories</title>
<path fill="none" stroke="#000000" d="M968.9828,-1002.5899C1013.5174,-966.6304 1111.8487,-887.2326 1156.1811,-851.4363"/>
</g>
<!-- train_awesome_researchers -->
<g id="node67" class="node">
<title>train_awesome_researchers</title>
<polygon fill="none" stroke="#000000" points="1786.9498,-1876.6989 1619.869,-1876.6989 1568.2381,-2035.4539 1516.6073,-1876.6989 1349.5264,-1876.6989 1484.6977,-1778.5829 1433.0668,-1619.8278 1568.2381,-1717.9438 1703.4094,-1619.8278 1651.7786,-1778.5829 1786.9498,-1876.6989"/>
<text text-anchor="middle" x="1568.2381" y="-1823.9409" font-family="Times,serif" font-size="14.00" fill="#000000">train_awesome_researchers</text>
</g>
<!-- diversify_comp_bio -->
<g id="node68" class="node">
<title>diversify_comp_bio</title>
<polygon fill="none" stroke="#000000" points="600.1104,-1723.6392 474.1592,-1723.6392 435.2381,-1843.3682 396.317,-1723.6392 270.3658,-1723.6392 372.2625,-1649.6426 333.3414,-1529.9136 435.2381,-1603.9102 537.1348,-1529.9136 498.2137,-1649.6426 600.1104,-1723.6392"/>
<text text-anchor="middle" x="435.2381" y="-1682.9409" font-family="Times,serif" font-size="14.00" fill="#000000">diversify_comp_bio</text>
</g>
<!-- eradicate_disease -->
<g id="node69" class="node">
<title>eradicate_disease</title>
<polygon fill="none" stroke="#000000" points="2180.3402,-1881.3077 2069.4921,-1881.3077 2035.2381,-1987.0199 2000.9842,-1881.3077 1890.1361,-1881.3077 1979.8141,-1815.974 1945.5601,-1710.2619 2035.2381,-1775.5956 2124.9161,-1710.2619 2090.6622,-1815.974 2180.3402,-1881.3077"/>
<text text-anchor="middle" x="2035.2381" y="-1844.9409" font-family="Times,serif" font-size="14.00" fill="#000000">eradicate_disease</text>
</g>
</g>
</svg>
