<?xml version="1.0" encoding="UTF-8" standalone="no"?>
<!DOCTYPE svg PUBLIC "-//W3C//DTD SVG 1.1//EN"
 "http://www.w3.org/Graphics/SVG/1.1/DTD/svg11.dtd">
<!-- Generated by graphviz version 2.40.1 (20161225.0304)
 -->
<!-- Title: %3 Pages: 1 -->
<svg width="1742pt" height="1689pt"
 viewBox="0.00 0.00 1742.00 1689.00" xmlns="http://www.w3.org/2000/svg" xmlns:xlink="http://www.w3.org/1999/xlink">
<g id="graph0" class="graph" transform="scale(1 1) rotate(0) translate(4 1685)">
<title>%3</title>
<polygon fill="#ffffff" stroke="transparent" points="-4,4 -4,-1685 1738,-1685 1738,4 -4,4"/>
<g id="clust1" class="cluster">
<title>cluster_0</title>
<polygon fill="none" stroke="#000000" points="155.7381,-78.1409 155.7381,-321.1409 464.7381,-321.1409 464.7381,-78.1409 155.7381,-78.1409"/>
<text text-anchor="middle" x="310.2381" y="-305.9409" font-family="Times,serif" font-size="14.00" fill="#000000">legend</text>
</g>
<!-- for_programmer -->
<g id="node1" class="node">
<title>for_programmer</title>
<ellipse fill="#bc80bd" stroke="#bc80bd" cx="328.9762" cy="-103.7818" rx="69.5877" ry="18"/>
<text text-anchor="middle" x="328.9762" y="-100.0818" font-family="Times,serif" font-size="14.00" fill="#000000">for_programmer</text>
</g>
<!-- active -->
<g id="node2" class="node">
<title>active</title>
<ellipse fill="#ccebc5" stroke="#ccebc5" cx="211.9762" cy="-103.7818" rx="31.6951" ry="18"/>
<text text-anchor="middle" x="211.9762" y="-100.0818" font-family="Times,serif" font-size="14.00" fill="#000000">active</text>
</g>
<!-- ready_to_go -->
<g id="node3" class="node">
<title>ready_to_go</title>
<ellipse fill="#b3de69" stroke="#b3de69" cx="401.9762" cy="-271.7818" rx="54.6905" ry="18"/>
<text text-anchor="middle" x="401.9762" y="-268.0818" font-family="Times,serif" font-size="14.00" fill="#000000">ready_to_go</text>
</g>
<!-- needing_logistics -->
<g id="node4" class="node">
<title>needing_logistics</title>
<ellipse fill="#fdb462" stroke="#fdb462" cx="363.9762" cy="-215.7818" rx="72.2875" ry="18"/>
<text text-anchor="middle" x="363.9762" y="-212.0818" font-family="Times,serif" font-size="14.00" fill="#000000">needing_logistics</text>
</g>
<!-- needing_consideration -->
<g id="node5" class="node">
<title>needing_consideration</title>
<ellipse fill="#8dd3c7" stroke="#8dd3c7" cx="253.9762" cy="-159.7818" rx="90.1842" ry="18"/>
<text text-anchor="middle" x="253.9762" y="-156.0818" font-family="Times,serif" font-size="14.00" fill="#000000">needing_consideration</text>
</g>
<!-- eventually -->
<g id="node6" class="node">
<title>eventually</title>
<ellipse fill="#d9d9d9" stroke="#d9d9d9" cx="226.9762" cy="-263.7818" rx="47.3916" ry="18"/>
<text text-anchor="middle" x="226.9762" y="-260.0818" font-family="Times,serif" font-size="14.00" fill="#000000">eventually</text>
</g>
<!-- Bayesian_GCtree -->
<g id="node7" class="node">
<title>Bayesian_GCtree</title>
<g id="a_node7"><a xlink:title="Do posterior estimation using Will&#39;s GCtree framework.">
<ellipse fill="#ccebc5" stroke="#ccebc5" cx="923.6502" cy="-917.296" rx="72.5877" ry="18"/>
<text text-anchor="middle" x="923.6502" y="-913.596" font-family="Times,serif" font-size="14.00" fill="#000000">Bayesian_GCtree</text>
</a>
</g>
</g>
<!-- GCreplay -->
<g id="node8" class="node">
<title>GCreplay</title>
<g id="a_node8"><a xlink:title="A big collaboration with the Victora and Bloom labs to understand GC maturation with replicate samples.">
<ellipse fill="#ccebc5" stroke="#ccebc5" cx="1123.0029" cy="-791.9206" rx="44.6926" ry="18"/>
<text text-anchor="middle" x="1123.0029" y="-788.2206" font-family="Times,serif" font-size="14.00" fill="#000000">GCreplay</text>
</a>
</g>
</g>
<!-- Bayesian_GCtree&#45;&#45;GCreplay -->
<g id="edge25" class="edge">
<title>Bayesian_GCtree&#45;&#45;GCreplay</title>
<path fill="none" stroke="#000000" d="M950.5358,-900.3873C989.5401,-875.857 1061.2413,-830.7633 1098.725,-807.1893"/>
</g>
<!-- GCtree_with_heritable -->
<g id="node44" class="node">
<title>GCtree_with_heritable</title>
<g id="a_node44"><a xlink:title="GCtree operates under the assumption of a neutral branching process, the parameters of which do not change through the tree. Can we extend this to a process with a heritable component?">
<polygon fill="#b3de69" stroke="#b3de69" points="1069.5162,-1011.1272 940.6519,-993.1272 1069.5162,-975.1272 1198.3805,-993.1272 1069.5162,-1011.1272"/>
<text text-anchor="middle" x="1069.5162" y="-989.4272" font-family="Times,serif" font-size="14.00" fill="#000000">GCtree_with_heritable</text>
</a>
</g>
</g>
<!-- Bayesian_GCtree&#45;&#45;GCtree_with_heritable -->
<g id="edge26" class="edge">
<title>Bayesian_GCtree&#45;&#45;GCtree_with_heritable</title>
<path fill="none" stroke="#000000" d="M954.9421,-933.5637C980.8927,-947.0546 1017.4207,-966.0444 1042.2043,-978.9286"/>
</g>
<!-- antibody_DMS -->
<g id="node20" class="node">
<title>antibody_DMS</title>
<g id="a_node20"><a xlink:title="What can we learn from deep mutational scanning on antibodies?">
<ellipse fill="#ccebc5" stroke="#ccebc5" cx="1364.0955" cy="-830.059" rx="65.7887" ry="18"/>
<text text-anchor="middle" x="1364.0955" y="-826.359" font-family="Times,serif" font-size="14.00" fill="#000000">antibody_DMS</text>
</a>
</g>
</g>
<!-- GCreplay&#45;&#45;antibody_DMS -->
<g id="edge28" class="edge">
<title>GCreplay&#45;&#45;antibody_DMS</title>
<path fill="none" stroke="#000000" d="M1164.998,-798.5638C1204.3922,-804.7956 1263.6101,-814.1633 1307.2271,-821.063"/>
</g>
<!-- torchdms -->
<g id="node23" class="node">
<title>torchdms</title>
<g id="a_node23"><a xlink:title="Develop a DMS analysis package using a modern machine&#45;learning library.">
<ellipse fill="#ccebc5" stroke="#ccebc5" cx="1283.6879" cy="-638.6513" rx="44.393" ry="18"/>
<text text-anchor="middle" x="1283.6879" y="-634.9513" font-family="Times,serif" font-size="14.00" fill="#000000">torchdms</text>
</a>
</g>
</g>
<!-- GCreplay&#45;&#45;torchdms -->
<g id="edge27" class="edge">
<title>GCreplay&#45;&#45;torchdms</title>
<path fill="none" stroke="#000000" d="M1140.5049,-775.2263C1171.4141,-745.7436 1235.3137,-684.793 1266.2075,-655.325"/>
</g>
<!-- HLA_effects -->
<g id="node9" class="node">
<title>HLA_effects</title>
<g id="a_node9"><a xlink:title="Assya&#39;s project understanding the effects of HLA on repertoire.">
<ellipse fill="#ccebc5" stroke="#ccebc5" cx="57.0127" cy="-1230.3705" rx="56.59" ry="18"/>
<text text-anchor="middle" x="57.0127" y="-1226.6705" font-family="Times,serif" font-size="14.00" fill="#000000">HLA_effects</text>
</a>
</g>
</g>
<!-- PhIP_seq -->
<g id="node10" class="node">
<title>PhIP_seq</title>
<g id="a_node10"><a xlink:title="Develop statistics and software tools for PhIP&#45;seq analyses.">
<ellipse fill="#ccebc5" stroke="#ccebc5" cx="1434.3221" cy="-920.7472" rx="44.393" ry="18"/>
<text text-anchor="middle" x="1434.3221" y="-917.0472" font-family="Times,serif" font-size="14.00" fill="#000000">PhIP_seq</text>
</a>
</g>
</g>
<!-- TCR_GWAS -->
<g id="node11" class="node">
<title>TCR_GWAS</title>
<g id="a_node11"><a xlink:title="GWAS to infer TCR&#45;repertoire features.">
<ellipse fill="#ccebc5" stroke="#ccebc5" cx="201.5641" cy="-1055.7309" rx="58.4896" ry="18"/>
<text text-anchor="middle" x="201.5641" y="-1052.0309" font-family="Times,serif" font-size="14.00" fill="#000000">TCR_GWAS</text>
</a>
</g>
</g>
<!-- TCR_trimming_motifs -->
<g id="node12" class="node">
<title>TCR_trimming_motifs</title>
<g id="a_node12"><a xlink:title="What sequence&#45;level features determine trimming of TCRs in VDJ recombination?">
<ellipse fill="#ccebc5" stroke="#ccebc5" cx="324.6581" cy="-1363.1374" rx="92.8835" ry="18"/>
<text text-anchor="middle" x="324.6581" y="-1359.4374" font-family="Times,serif" font-size="14.00" fill="#000000">TCR_trimming_motifs</text>
</a>
</g>
</g>
<!-- bito -->
<g id="node13" class="node">
<title>bito</title>
<g id="a_node13"><a xlink:title="Bayesian Inference of Trees via Optimization: a C++/python package">
<ellipse fill="#ccebc5" stroke="#ccebc5" cx="867.3131" cy="-229.195" rx="27" ry="18"/>
<text text-anchor="middle" x="867.3131" y="-225.495" font-family="Times,serif" font-size="14.00" fill="#000000">bito</text>
</a>
</g>
</g>
<!-- autodiff_gradients -->
<g id="node14" class="node">
<title>autodiff_gradients</title>
<g id="a_node14"><a xlink:title="How fast is autodiff for phylogenetically&#45;relevant gradients?">
<ellipse fill="#ccebc5" stroke="#ccebc5" cx="753.8908" cy="-74.7235" rx="75.2868" ry="18"/>
<text text-anchor="middle" x="753.8908" y="-71.0235" font-family="Times,serif" font-size="14.00" fill="#000000">autodiff_gradients</text>
</a>
</g>
</g>
<!-- bito&#45;&#45;autodiff_gradients -->
<g id="edge4" class="edge">
<title>bito&#45;&#45;autodiff_gradients</title>
<path fill="none" stroke="#000000" d="M855.3893,-212.9558C834.0038,-183.8305 789.2894,-122.9334 767.0438,-92.6368"/>
</g>
<!-- phylogenetic_VI -->
<g id="node19" class="node">
<title>phylogenetic_VI</title>
<g id="a_node19"><a xlink:title="Do variational inference of continuous parameters in phylogenetics.">
<ellipse fill="#ccebc5" stroke="#ccebc5" cx="978.3287" cy="-206.1023" rx="69.5877" ry="18"/>
<text text-anchor="middle" x="978.3287" y="-202.4023" font-family="Times,serif" font-size="14.00" fill="#000000">phylogenetic_VI</text>
</a>
</g>
</g>
<!-- bito&#45;&#45;phylogenetic_VI -->
<g id="edge2" class="edge">
<title>bito&#45;&#45;phylogenetic_VI</title>
<path fill="none" stroke="#000000" d="M893.3413,-223.7808C902.5699,-221.8611 913.3301,-219.6228 924.0303,-217.3971"/>
</g>
<!-- subsplit_DAG -->
<g id="node22" class="node">
<title>subsplit_DAG</title>
<g id="a_node22"><a xlink:title="Formalize definitions of and basic lemmas for the subsplit DAG.">
<ellipse fill="#ccebc5" stroke="#ccebc5" cx="804.1978" cy="-474.5918" rx="61.99" ry="18"/>
<text text-anchor="middle" x="804.1978" y="-470.8918" font-family="Times,serif" font-size="14.00" fill="#000000">subsplit_DAG</text>
</a>
</g>
</g>
<!-- bito&#45;&#45;subsplit_DAG -->
<g id="edge5" class="edge">
<title>bito&#45;&#45;subsplit_DAG</title>
<path fill="none" stroke="#000000" d="M862.6721,-247.2396C851.0001,-292.621 820.5249,-411.111 808.8457,-456.5207"/>
</g>
<!-- generalized_pruning -->
<g id="node15" class="node">
<title>generalized_pruning</title>
<g id="a_node15"><a xlink:title="Generalization of the Felsenstein pruning algorithm to the subsplit DAG.">
<ellipse fill="#ccebc5" stroke="#ccebc5" cx="650.0995" cy="-472.583" rx="83.3857" ry="18"/>
<text text-anchor="middle" x="650.0995" y="-468.883" font-family="Times,serif" font-size="14.00" fill="#000000">generalized_pruning</text>
</a>
</g>
</g>
<!-- linearham_empirical_uncertainty -->
<g id="node16" class="node">
<title>linearham_empirical_uncertainty</title>
<g id="a_node16"><a xlink:title="linearham is our Bayesian method for doing inference of BCR lineage evolution. If we apply it to well&#45;known data sets from the literature, how much uncertainty is there in ancestral sequence inference?">
<ellipse fill="#ccebc5" stroke="#ccebc5" cx="903.7384" cy="-779.531" rx="128.0773" ry="18"/>
<text text-anchor="middle" x="903.7384" y="-775.831" font-family="Times,serif" font-size="14.00" fill="#000000">linearham_empirical_uncertainty</text>
</a>
</g>
</g>
<!-- mechanistic_SHM -->
<g id="node17" class="node">
<title>mechanistic_SHM</title>
<g id="a_node17"><a xlink:title="Design and fit mechanistically&#45;based probabilistic models of the somatic hypermutation process.">
<ellipse fill="#ccebc5" stroke="#ccebc5" cx="934.3193" cy="-1115.1672" rx="77.1866" ry="18"/>
<text text-anchor="middle" x="934.3193" y="-1111.4672" font-family="Times,serif" font-size="14.00" fill="#000000">mechanistic_SHM</text>
</a>
</g>
</g>
<!-- context_sensitive_phylo -->
<g id="node35" class="node">
<title>context_sensitive_phylo</title>
<g id="a_node35"><a xlink:title="Develop phyogenetic methods that enable inference under context&#45;sensitive models.">
<polygon fill="#b3de69" stroke="#b3de69" points="796.7339,-1040.6776 660.6634,-1022.6776 796.7339,-1004.6776 932.8045,-1022.6776 796.7339,-1040.6776"/>
<text text-anchor="middle" x="796.7339" y="-1018.9776" font-family="Times,serif" font-size="14.00" fill="#000000">context_sensitive_phylo</text>
</a>
</g>
</g>
<!-- mechanistic_SHM&#45;&#45;context_sensitive_phylo -->
<g id="edge56" class="edge">
<title>mechanistic_SHM&#45;&#45;context_sensitive_phylo</title>
<path fill="none" stroke="#000000" d="M908.763,-1097.9874C883.1179,-1080.7479 843.9918,-1054.4459 819.416,-1037.9252"/>
</g>
<!-- SHM_across_ages -->
<g id="node37" class="node">
<title>SHM_across_ages</title>
<g id="a_node37"><a xlink:title="Perform a detailed investigation of how SHM changes as people age.">
<polygon fill="#fdb462" stroke="#fdb462" points="975.3538,-1281.0806 866.9327,-1263.0806 975.3538,-1245.0806 1083.7749,-1263.0806 975.3538,-1281.0806"/>
<text text-anchor="middle" x="975.3538" y="-1259.3806" font-family="Times,serif" font-size="14.00" fill="#000000">SHM_across_ages</text>
</a>
</g>
</g>
<!-- mechanistic_SHM&#45;&#45;SHM_across_ages -->
<g id="edge48" class="edge">
<title>mechanistic_SHM&#45;&#45;SHM_across_ages</title>
<path fill="none" stroke="#000000" d="M939.3509,-1133.3043C947.3121,-1162.0014 962.7104,-1217.506 970.5361,-1245.7145"/>
</g>
<!-- paired_HL -->
<g id="node18" class="node">
<title>paired_HL</title>
<g id="a_node18"><a xlink:title="Perform clonal family inference with paired heavy and light chain sequences.">
<ellipse fill="#ccebc5" stroke="#ccebc5" cx="675.6446" cy="-1214.374" rx="48.9926" ry="18"/>
<text text-anchor="middle" x="675.6446" y="-1210.674" font-family="Times,serif" font-size="14.00" fill="#000000">paired_HL</text>
</a>
</g>
</g>
<!-- B_cell_CONGA -->
<g id="node34" class="node">
<title>B_cell_CONGA</title>
<g id="a_node34"><a xlink:title="Adapt CONGA (https://paperpile.com/shared/w2jo9E) for BCR sequences.">
<polygon fill="#b3de69" stroke="#b3de69" points="661.3606,-1428.0409 563.1607,-1410.0409 661.3606,-1392.0409 759.5604,-1410.0409 661.3606,-1428.0409"/>
<text text-anchor="middle" x="661.3606" y="-1406.3409" font-family="Times,serif" font-size="14.00" fill="#000000">B_cell_CONGA</text>
</a>
</g>
</g>
<!-- paired_HL&#45;&#45;B_cell_CONGA -->
<g id="edge57" class="edge">
<title>paired_HL&#45;&#45;B_cell_CONGA</title>
<path fill="none" stroke="#000000" d="M674.3264,-1232.4312C671.6052,-1269.7065 665.394,-1354.7894 662.6756,-1392.0274"/>
</g>
<!-- adaptive_MCMC -->
<g id="node49" class="node">
<title>adaptive_MCMC</title>
<g id="a_node49"><a xlink:title="Use variational inference as a proposal distribution for MCMC.">
<polygon fill="none" stroke="#000000" points="1182.2335,-254.4873 1078.5038,-236.4873 1182.2335,-218.4873 1285.9633,-236.4873 1182.2335,-254.4873"/>
<text text-anchor="middle" x="1182.2335" y="-232.7873" font-family="Times,serif" font-size="14.00" fill="#000000">adaptive_MCMC</text>
</a>
</g>
</g>
<!-- phylogenetic_VI&#45;&#45;adaptive_MCMC -->
<g id="edge1" class="edge">
<title>phylogenetic_VI&#45;&#45;adaptive_MCMC</title>
<path fill="none" stroke="#000000" d="M1038.6792,-215.0955C1066.3938,-219.2254 1099.0591,-224.093 1126.2227,-228.1408"/>
</g>
<!-- online_phylo_VI -->
<g id="node51" class="node">
<title>online_phylo_VI</title>
<g id="a_node51"><a xlink:title="Online (i.e. incremental) phylogenetic variational inference.">
<polygon fill="#d9d9d9" stroke="#d9d9d9" points="1009.7099,-337.055 909.3333,-319.055 1009.7099,-301.055 1110.0865,-319.055 1009.7099,-337.055"/>
<text text-anchor="middle" x="1009.7099" y="-315.355" font-family="Times,serif" font-size="14.00" fill="#000000">online_phylo_VI</text>
</a>
</g>
</g>
<!-- phylogenetic_VI&#45;&#45;online_phylo_VI -->
<g id="edge6" class="edge">
<title>phylogenetic_VI&#45;&#45;online_phylo_VI</title>
<path fill="none" stroke="#000000" d="M983.3706,-224.2501C989.296,-245.5777 999.0575,-280.7132 1004.8866,-301.6941"/>
</g>
<!-- antibody_DMS&#45;&#45;PhIP_seq -->
<g id="edge30" class="edge">
<title>antibody_DMS&#45;&#45;PhIP_seq</title>
<path fill="none" stroke="#000000" d="M1377.97,-847.9761C1390.4416,-864.0815 1408.6391,-887.5811 1420.9529,-903.4827"/>
</g>
<!-- antibody_DMS&#45;&#45;torchdms -->
<g id="edge29" class="edge">
<title>antibody_DMS&#45;&#45;torchdms</title>
<path fill="none" stroke="#000000" d="M1356.5309,-812.0519C1341.1668,-775.4781 1306.4716,-692.8873 1291.1738,-656.4711"/>
</g>
<!-- dms_view2 -->
<g id="node36" class="node">
<title>dms_view2</title>
<g id="a_node36"><a xlink:title="Develop the next version of dms&#45;view, with abilities to compare between data sets and also show K_D inferences.">
<polygon fill="#bc80bd" stroke="#bc80bd" points="1449.2432,-762.7674 1375.6781,-744.7674 1449.2432,-726.7674 1522.8084,-744.7674 1449.2432,-762.7674"/>
<text text-anchor="middle" x="1449.2432" y="-741.0674" font-family="Times,serif" font-size="14.00" fill="#000000">dms_view2</text>
</a>
</g>
</g>
<!-- antibody_DMS&#45;&#45;dms_view2 -->
<g id="edge31" class="edge">
<title>antibody_DMS&#45;&#45;dms_view2</title>
<path fill="none" stroke="#000000" d="M1381.7382,-812.3866C1397.4233,-796.6749 1420.0793,-773.9806 1434.7343,-759.3009"/>
</g>
<!-- SARS2_parsimony_plateau -->
<g id="node21" class="node">
<title>SARS2_parsimony_plateau</title>
<g id="a_node21"><a xlink:title="Use a graph to capture the ensemble of maximally&#45;parsimonious trees for SARS&#45;Cov&#45;2 data. How much uncertainty is there? How does PANGO look?">
<ellipse fill="#ccebc5" stroke="#ccebc5" cx="539.7486" cy="-670.0259" rx="108.5808" ry="18"/>
<text text-anchor="middle" x="539.7486" y="-666.3259" font-family="Times,serif" font-size="14.00" fill="#000000">SARS2_parsimony_plateau</text>
</a>
</g>
</g>
<!-- subsplit_DAG&#45;&#45;generalized_pruning -->
<g id="edge9" class="edge">
<title>subsplit_DAG&#45;&#45;generalized_pruning</title>
<path fill="none" stroke="#000000" d="M742.408,-473.7863C739.3937,-473.747 736.3468,-473.7073 733.287,-473.6674"/>
</g>
<!-- hillclimber -->
<g id="node27" class="node">
<title>hillclimber</title>
<g id="a_node27"><a xlink:title="What happens when we start ML algorithms at random starting points? What does it tell us about the phylogenetic likelihood surface?">
<polygon fill="#b3de69" stroke="#b3de69" points="1144.8244,-572.637 1083.1047,-585.0747 1021.3849,-572.637 1021.4426,-552.5124 1144.7668,-552.5124 1144.8244,-572.637"/>
<text text-anchor="middle" x="1083.1047" y="-563.3747" font-family="Times,serif" font-size="14.00" fill="#000000">hillclimber</text>
</a>
</g>
</g>
<!-- subsplit_DAG&#45;&#45;hillclimber -->
<g id="edge8" class="edge">
<title>subsplit_DAG&#45;&#45;hillclimber</title>
<path fill="none" stroke="#000000" d="M845.052,-488.1386C896.7989,-505.2974 985.6301,-534.753 1038.9147,-552.4217"/>
</g>
<!-- Bayesian_subtree_optimality -->
<g id="node39" class="node">
<title>Bayesian_subtree_optimality</title>
<g id="a_node39"><a xlink:title="How does the Bayesian posterior distribution of n taxa change when an n+1st taxon is added to the tree?">
<polygon fill="#b3de69" stroke="#b3de69" points="491.0571,-446.4693 330.352,-428.4693 491.0571,-410.4693 651.7623,-428.4693 491.0571,-446.4693"/>
<text text-anchor="middle" x="491.0571" y="-424.7693" font-family="Times,serif" font-size="14.00" fill="#000000">Bayesian_subtree_optimality</text>
</a>
</g>
</g>
<!-- subsplit_DAG&#45;&#45;Bayesian_subtree_optimality -->
<g id="edge13" class="edge">
<title>subsplit_DAG&#45;&#45;Bayesian_subtree_optimality</title>
<path fill="none" stroke="#000000" d="M748.9354,-466.4522C696.4372,-458.7197 617.3091,-447.065 560.5578,-438.7061"/>
</g>
<!-- fasdag -->
<g id="node40" class="node">
<title>fasdag</title>
<g id="a_node40"><a xlink:title="Develop NJ and parsimony approaches to reconstructing the sDAG.">
<polygon fill="#b3de69" stroke="#b3de69" points="605.6743,-335.3496 558.0811,-317.3496 605.6743,-299.3496 653.2675,-317.3496 605.6743,-335.3496"/>
<text text-anchor="middle" x="605.6743" y="-313.6496" font-family="Times,serif" font-size="14.00" fill="#000000">fasdag</text>
</a>
</g>
</g>
<!-- subsplit_DAG&#45;&#45;fasdag -->
<g id="edge14" class="edge">
<title>subsplit_DAG&#45;&#45;fasdag</title>
<path fill="none" stroke="#000000" d="M782.5744,-457.4648C742.1758,-425.4668 656.162,-357.3388 621.0676,-329.542"/>
</g>
<!-- local_EM -->
<g id="node45" class="node">
<title>local_EM</title>
<g id="a_node45"><a xlink:title="Develop an EM algorithm for variational inference that uses local computation. Go Hogwild.">
<polygon fill="#b3de69" stroke="#b3de69" points="787.8831,-393.9019 722.8619,-375.9019 787.8831,-357.9019 852.9043,-375.9019 787.8831,-393.9019"/>
<text text-anchor="middle" x="787.8831" y="-372.2019" font-family="Times,serif" font-size="14.00" fill="#000000">local_EM</text>
</a>
</g>
</g>
<!-- subsplit_DAG&#45;&#45;local_EM -->
<g id="edge10" class="edge">
<title>subsplit_DAG&#45;&#45;local_EM</title>
<path fill="none" stroke="#000000" d="M801.2055,-456.4905C798.225,-438.4611 793.6817,-410.9784 790.7471,-393.2265"/>
</g>
<!-- find_MAP_tree_in_subsplit_DAG -->
<g id="node47" class="node">
<title>find_MAP_tree_in_subsplit_DAG</title>
<g id="a_node47"><a xlink:title="Can we quickly find the MAP tree in the subsplit DAG?">
<polygon fill="#b3de69" stroke="#b3de69" points="933.2478,-629.0935 745.7316,-611.0935 933.2478,-593.0935 1120.764,-611.0935 933.2478,-629.0935"/>
<text text-anchor="middle" x="933.2478" y="-607.3935" font-family="Times,serif" font-size="14.00" fill="#000000">find_MAP_tree_in_subsplit_DAG</text>
</a>
</g>
</g>
<!-- subsplit_DAG&#45;&#45;find_MAP_tree_in_subsplit_DAG -->
<g id="edge15" class="edge">
<title>subsplit_DAG&#45;&#45;find_MAP_tree_in_subsplit_DAG</title>
<path fill="none" stroke="#000000" d="M820.8047,-492.1576C845.8562,-518.6557 892.9845,-568.5052 917.5125,-594.4496"/>
</g>
<!-- how_big_of_sDAG -->
<g id="node50" class="node">
<title>how_big_of_sDAG</title>
<g id="a_node50"><a xlink:title="How big of a subsplit DAG is actually required to get reasonable estimates (with uncertaintly quantification) of key parameters?">
<polygon fill="none" stroke="#000000" points="987.3262,-466.8368 874.2135,-448.8368 987.3262,-430.8368 1100.4389,-448.8368 987.3262,-466.8368"/>
<text text-anchor="middle" x="987.3262" y="-445.1368" font-family="Times,serif" font-size="14.00" fill="#000000">how_big_of_sDAG</text>
</a>
</g>
</g>
<!-- subsplit_DAG&#45;&#45;how_big_of_sDAG -->
<g id="edge12" class="edge">
<title>subsplit_DAG&#45;&#45;how_big_of_sDAG</title>
<path fill="none" stroke="#000000" d="M860.1375,-466.7245C881.3848,-463.7363 905.6642,-460.3216 927.276,-457.2822"/>
</g>
<!-- subsplit_DAG&#45;&#45;online_phylo_VI -->
<g id="edge7" class="edge">
<title>subsplit_DAG&#45;&#45;online_phylo_VI</title>
<path fill="none" stroke="#000000" d="M826.5825,-457.6505C867.1548,-426.9443 952.1711,-362.6018 990.383,-333.682"/>
</g>
<!-- Bayesian_histories -->
<g id="node54" class="node">
<title>Bayesian_histories</title>
<polygon fill="none" stroke="#000000" points="762.663,-758.5149 643.663,-758.5149 643.663,-722.5149 762.663,-722.5149 762.663,-758.5149"/>
<text text-anchor="middle" x="703.163" y="-736.8149" font-family="Times,serif" font-size="14.00" fill="#000000">Bayesian_histories</text>
</g>
<!-- subsplit_DAG&#45;&#45;Bayesian_histories -->
<g id="edge11" class="edge">
<title>subsplit_DAG&#45;&#45;Bayesian_histories</title>
<path fill="none" stroke="#000000" d="M797.2533,-492.8698C778.7512,-541.5671 728.4267,-674.0209 710.0225,-722.4606"/>
</g>
<!-- transport -->
<g id="node24" class="node">
<title>transport</title>
<g id="a_node24"><a xlink:title="Compare TCR repertoires via optimal transport.">
<ellipse fill="#ccebc5" stroke="#ccebc5" cx="158.7398" cy="-1362.3858" rx="42.4939" ry="18"/>
<text text-anchor="middle" x="158.7398" y="-1358.6858" font-family="Times,serif" font-size="14.00" fill="#000000">transport</text>
</a>
</g>
</g>
<!-- VI_diagnostics -->
<g id="node25" class="node">
<title>VI_diagnostics</title>
<g id="a_node25"><a xlink:title="How will we know if VI is giving a good approximation?">
<ellipse fill="#ccebc5" stroke="#ccebc5" cx="981.8637" cy="-17.8299" rx="63.8893" ry="18"/>
<text text-anchor="middle" x="981.8637" y="-14.1299" font-family="Times,serif" font-size="14.00" fill="#000000">VI_diagnostics</text>
</a>
</g>
</g>
<!-- VI_diagnostics&#45;&#45;phylogenetic_VI -->
<g id="edge3" class="edge">
<title>VI_diagnostics&#45;&#45;phylogenetic_VI</title>
<path fill="none" stroke="#000000" d="M981.5247,-35.8823C980.8508,-71.7768 979.3491,-151.7525 978.6718,-187.828"/>
</g>
<!-- CFT -->
<g id="node26" class="node">
<title>CFT</title>
<g id="a_node26"><a xlink:title="The Clonal Family Tree pipeline to do clonal family inference and then phylogenetics.">
<polygon fill="#bc80bd" stroke="#bc80bd" points="569.6617,-767.7903 536.7851,-780.228 503.9084,-767.7903 503.939,-747.6657 569.6311,-747.6657 569.6617,-767.7903"/>
<text text-anchor="middle" x="536.7851" y="-758.528" font-family="Times,serif" font-size="14.00" fill="#000000">CFT</text>
</a>
</g>
</g>
<!-- olmsted -->
<g id="node28" class="node">
<title>olmsted</title>
<g id="a_node28"><a xlink:title="A visualization tool for BCR lineages.">
<polygon fill="none" stroke="#000000" points="420.2601,-689.3215 371.8545,-701.7592 323.4489,-689.3215 323.4941,-669.1969 420.2149,-669.1969 420.2601,-689.3215"/>
<text text-anchor="middle" x="371.8545" y="-680.0592" font-family="Times,serif" font-size="14.00" fill="#000000">olmsted</text>
</a>
</g>
</g>
<!-- CFT&#45;&#45;olmsted -->
<g id="edge46" class="edge">
<title>CFT&#45;&#45;olmsted</title>
<path fill="none" stroke="#000000" d="M506.1494,-747.6525C474.569,-732.6276 425.9346,-709.4888 396.6739,-695.5675"/>
</g>
<!-- find_posterior_modes -->
<g id="node41" class="node">
<title>find_posterior_modes</title>
<g id="a_node41"><a xlink:title="Can we do something to quickly find posterior modes in the phylogenetic posterior? Can we do better than hillclimbing?">
<polygon fill="#b3de69" stroke="#b3de69" points="1108.8952,-510.859 983.8845,-492.859 1108.8952,-474.859 1233.906,-492.859 1108.8952,-510.859"/>
<text text-anchor="middle" x="1108.8952" y="-489.159" font-family="Times,serif" font-size="14.00" fill="#000000">find_posterior_modes</text>
</a>
</g>
</g>
<!-- hillclimber&#45;&#45;find_posterior_modes -->
<g id="edge16" class="edge">
<title>hillclimber&#45;&#45;find_posterior_modes</title>
<path fill="none" stroke="#000000" d="M1088.2001,-552.4121C1092.4279,-540.2459 1098.4475,-522.9237 1102.9054,-510.0955"/>
</g>
<!-- BCR_GWAS -->
<g id="node29" class="node">
<title>BCR_GWAS</title>
<g id="a_node29"><a xlink:title="Do a GWAS for BCR repertoire features. Can we learn about SHM too?">
<polygon fill="#fdb462" stroke="#fdb462" points="315.6439,-1005.1848 231.857,-987.1848 315.6439,-969.1848 399.4308,-987.1848 315.6439,-1005.1848"/>
<text text-anchor="middle" x="315.6439" y="-983.4848" font-family="Times,serif" font-size="14.00" fill="#000000">BCR_GWAS</text>
</a>
</g>
</g>
<!-- BCR_GWAS&#45;&#45;TCR_GWAS -->
<g id="edge50" class="edge">
<title>BCR_GWAS&#45;&#45;TCR_GWAS</title>
<path fill="none" stroke="#000000" d="M293.3773,-1000.5639C274.8324,-1011.7068 248.3574,-1027.6146 228.5983,-1039.4871"/>
</g>
<!-- BCR_indels -->
<g id="node30" class="node">
<title>BCR_indels</title>
<g id="a_node30"><a xlink:title="What sequence features lead to indels in BCR sequences?">
<polygon fill="#8dd3c7" stroke="#8dd3c7" points="571.2373,-1135.5409 495.1566,-1117.5409 571.2373,-1099.5409 647.318,-1117.5409 571.2373,-1135.5409"/>
<text text-anchor="middle" x="571.2373" y="-1113.8409" font-family="Times,serif" font-size="14.00" fill="#000000">BCR_indels</text>
</a>
</g>
</g>
<!-- clonal_families_with_indels -->
<g id="node31" class="node">
<title>clonal_families_with_indels</title>
<g id="a_node31"><a xlink:title="Can we do better clonal family clustering in the presence of indels?">
<polygon fill="#8dd3c7" stroke="#8dd3c7" points="514.7703,-960.7889 358.7565,-942.7889 514.7703,-924.7889 670.7842,-942.7889 514.7703,-960.7889"/>
<text text-anchor="middle" x="514.7703" y="-939.0889" font-family="Times,serif" font-size="14.00" fill="#000000">clonal_families_with_indels</text>
</a>
</g>
</g>
<!-- BCR_selection_analysis -->
<g id="node32" class="node">
<title>BCR_selection_analysis</title>
<g id="a_node32"><a xlink:title="Improve dN/dS analysis for BCR lineages, looking site&#45;wise and per&#45;lineage.">
<polygon fill="#8dd3c7" stroke="#8dd3c7" points="711.9106,-1091.5211 575.0017,-1073.5211 711.9106,-1055.5211 848.8195,-1073.5211 711.9106,-1091.5211"/>
<text text-anchor="middle" x="711.9106" y="-1069.8211" font-family="Times,serif" font-size="14.00" fill="#000000">BCR_selection_analysis</text>
</a>
</g>
</g>
<!-- BCR_trajectories -->
<g id="node33" class="node">
<title>BCR_trajectories</title>
<g id="a_node33"><a xlink:title="Look for patterns in BCR sequence evolution. Do they fall into &#39;trajectories&#39;?">
<polygon fill="#8dd3c7" stroke="#8dd3c7" points="465.3745,-1077.8785 364.1597,-1059.8785 465.3745,-1041.8785 566.5892,-1059.8785 465.3745,-1077.8785"/>
<text text-anchor="middle" x="465.3745" y="-1056.1785" font-family="Times,serif" font-size="14.00" fill="#000000">BCR_trajectories</text>
</a>
</g>
</g>
<!-- Bayesian_VDJ_recombination -->
<g id="node38" class="node">
<title>Bayesian_VDJ_recombination</title>
<g id="a_node38"><a xlink:title="Can we do Bayesian estimation of VDJ recombination models?">
<polygon fill="none" stroke="#000000" points="356.288,-1179.5589 187.8762,-1161.5589 356.288,-1143.5589 524.6998,-1161.5589 356.288,-1179.5589"/>
<text text-anchor="middle" x="356.288" y="-1157.8589" font-family="Times,serif" font-size="14.00" fill="#000000">Bayesian_VDJ_recombination</text>
</a>
</g>
</g>
<!-- help_PANGO -->
<g id="node42" class="node">
<title>help_PANGO</title>
<g id="a_node42"><a xlink:title="What sort of tooling would actually help PANGO do their job better?">
<polygon fill="none" stroke="#000000" points="679.0706,-916.7845 593.6074,-898.7845 679.0706,-880.7845 764.5339,-898.7845 679.0706,-916.7845"/>
<text text-anchor="middle" x="679.0706" y="-895.0845" font-family="Times,serif" font-size="14.00" fill="#000000">help_PANGO</text>
</a>
</g>
</g>
<!-- big_tree_likelihoods -->
<g id="node43" class="node">
<title>big_tree_likelihoods</title>
<g id="a_node43"><a xlink:title="How can we bridge the gap between parsimony and full Felsenstein likelihoods?">
<polygon fill="none" stroke="#000000" points="778.7379,-673.1098 660.9334,-655.1098 778.7379,-637.1098 896.5424,-655.1098 778.7379,-673.1098"/>
<text text-anchor="middle" x="778.7379" y="-651.4098" font-family="Times,serif" font-size="14.00" fill="#000000">big_tree_likelihoods</text>
</a>
</g>
</g>
<!-- fast_TreeTime -->
<g id="node46" class="node">
<title>fast_TreeTime</title>
<g id="a_node46"><a xlink:title="Speed up ML inference of time trees.">
<polygon fill="#8dd3c7" stroke="#8dd3c7" points="403.6508,-787.2374 314.334,-769.2374 403.6508,-751.2374 492.9675,-769.2374 403.6508,-787.2374"/>
<text text-anchor="middle" x="403.6508" y="-765.5374" font-family="Times,serif" font-size="14.00" fill="#000000">fast_TreeTime</text>
</a>
</g>
</g>
<!-- polytomy_resolution -->
<g id="node48" class="node">
<title>polytomy_resolution</title>
<g id="a_node48"><a xlink:title="Can we quickly resolve sequence&#45;level polytomies using timing/geography?">
<polygon fill="none" stroke="#000000" points="284.9294,-832.003 165.4486,-814.003 284.9294,-796.003 404.4103,-814.003 284.9294,-832.003"/>
<text text-anchor="middle" x="284.9294" y="-810.303" font-family="Times,serif" font-size="14.00" fill="#000000">polytomy_resolution</text>
</a>
</g>
</g>
<!-- fast_TreeTime&#45;&#45;polytomy_resolution -->
<g id="edge24" class="edge">
<title>fast_TreeTime&#45;&#45;polytomy_resolution</title>
<path fill="none" stroke="#000000" d="M372.4581,-780.9991C356.1072,-787.1644 336.0444,-794.7294 319.2536,-801.0606"/>
</g>
<!-- how_big_of_sDAG&#45;&#45;find_posterior_modes -->
<g id="edge17" class="edge">
<title>how_big_of_sDAG&#45;&#45;find_posterior_modes</title>
<path fill="none" stroke="#000000" d="M1022.163,-461.4518C1038.1602,-467.2446 1057.1091,-474.1064 1073.2087,-479.9363"/>
</g>
<!-- SARS2_lineage_prediction -->
<g id="node52" class="node">
<title>SARS2_lineage_prediction</title>
<g id="a_node52"><a xlink:title="Predict future dominant clades of SARS&#45;Cov&#45;2.">
<polygon fill="#b3de69" stroke="#b3de69" points="1230.546,-967.0996 1079.5621,-949.0996 1230.546,-931.0996 1381.53,-949.0996 1230.546,-967.0996"/>
<text text-anchor="middle" x="1230.546" y="-945.3996" font-family="Times,serif" font-size="14.00" fill="#000000">SARS2_lineage_prediction</text>
</a>
</g>
</g>
<!-- BCR_analysis -->
<g id="node53" class="node">
<title>BCR_analysis</title>
<polygon fill="none" stroke="#000000" points="629.7047,-1033.8669 535.7047,-1033.8669 535.7047,-997.8669 629.7047,-997.8669 629.7047,-1033.8669"/>
<text text-anchor="middle" x="582.7047" y="-1012.1669" font-family="Times,serif" font-size="14.00" fill="#000000">BCR_analysis</text>
</g>
<!-- BCR_analysis&#45;&#45;Bayesian_GCtree -->
<g id="edge40" class="edge">
<title>BCR_analysis&#45;&#45;Bayesian_GCtree</title>
<path fill="none" stroke="#000000" d="M629.7538,-1002.2645C694.6952,-983.4893 811.1425,-949.8232 876.2625,-930.9963"/>
</g>
<!-- BCR_analysis&#45;&#45;linearham_empirical_uncertainty -->
<g id="edge39" class="edge">
<title>BCR_analysis&#45;&#45;linearham_empirical_uncertainty</title>
<path fill="none" stroke="#000000" d="M607.3626,-997.7145C667.2669,-953.6146 819.9003,-841.2502 879.4359,-797.4218"/>
</g>
<!-- BCR_analysis&#45;&#45;mechanistic_SHM -->
<g id="edge47" class="edge">
<title>BCR_analysis&#45;&#45;mechanistic_SHM</title>
<path fill="none" stroke="#000000" d="M629.7602,-1029.156C696.2857,-1047.9436 817.2578,-1082.1076 884.9959,-1101.2377"/>
</g>
<!-- BCR_analysis&#45;&#45;paired_HL -->
<g id="edge37" class="edge">
<title>BCR_analysis&#45;&#45;paired_HL</title>
<path fill="none" stroke="#000000" d="M591.2817,-1034.1862C609.0321,-1072.0986 649.606,-1158.759 667.2226,-1196.3857"/>
</g>
<!-- BCR_analysis&#45;&#45;CFT -->
<g id="edge38" class="edge">
<title>BCR_analysis&#45;&#45;CFT</title>
<path fill="none" stroke="#000000" d="M579.4023,-997.6258C570.8681,-950.4868 548.1697,-825.1114 539.8754,-779.2978"/>
</g>
<!-- BCR_analysis&#45;&#45;BCR_GWAS -->
<g id="edge49" class="edge">
<title>BCR_analysis&#45;&#45;BCR_GWAS</title>
<path fill="none" stroke="#000000" d="M535.5744,-1010.8051C489.7533,-1005.884 420.1451,-998.4081 371.5498,-993.189"/>
</g>
<!-- BCR_analysis&#45;&#45;BCR_indels -->
<g id="edge34" class="edge">
<title>BCR_analysis&#45;&#45;BCR_indels</title>
<path fill="none" stroke="#000000" d="M580.6546,-1034.0442C578.5544,-1052.665 575.3108,-1081.4238 573.2313,-1099.8615"/>
</g>
<!-- BCR_analysis&#45;&#45;clonal_families_with_indels -->
<g id="edge35" class="edge">
<title>BCR_analysis&#45;&#45;clonal_families_with_indels</title>
<path fill="none" stroke="#000000" d="M565.912,-997.8027C554.9103,-985.968 540.6467,-970.6244 529.9791,-959.1492"/>
</g>
<!-- BCR_analysis&#45;&#45;BCR_selection_analysis -->
<g id="edge32" class="edge">
<title>BCR_analysis&#45;&#45;BCR_selection_analysis</title>
<path fill="none" stroke="#000000" d="M623.2318,-1033.9509C641.7337,-1042.2068 663.31,-1051.8345 680.5472,-1059.5261"/>
</g>
<!-- BCR_analysis&#45;&#45;BCR_trajectories -->
<g id="edge33" class="edge">
<title>BCR_analysis&#45;&#45;BCR_trajectories</title>
<path fill="none" stroke="#000000" d="M535.6581,-1033.5145C523.0347,-1038.2496 509.6637,-1043.2652 498.0112,-1047.6361"/>
</g>
<!-- BCR_analysis&#45;&#45;Bayesian_VDJ_recombination -->
<g id="edge41" class="edge">
<title>BCR_analysis&#45;&#45;Bayesian_VDJ_recombination</title>
<path fill="none" stroke="#000000" d="M554.4867,-1034.0243C509.5582,-1062.9344 422.5426,-1118.9262 380.3669,-1146.0648"/>
</g>
<!-- BCR_analysis&#45;&#45;Bayesian_histories -->
<g id="edge36" class="edge">
<title>BCR_analysis&#45;&#45;Bayesian_histories</title>
<path fill="none" stroke="#000000" d="M590.6083,-997.8003C612.4346,-947.9082 673.3693,-808.6195 695.2303,-758.648"/>
</g>
<!-- Bayesian_histories&#45;&#45;Bayesian_GCtree -->
<g id="edge19" class="edge">
<title>Bayesian_histories&#45;&#45;Bayesian_GCtree</title>
<path fill="none" stroke="#000000" d="M725.9285,-758.7677C768.6192,-792.996 860.1544,-866.3867 901.9877,-899.9276"/>
</g>
<!-- Bayesian_histories&#45;&#45;SARS2_parsimony_plateau -->
<g id="edge20" class="edge">
<title>Bayesian_histories&#45;&#45;SARS2_parsimony_plateau</title>
<path fill="none" stroke="#000000" d="M661.0797,-722.3622C635.7357,-711.43 603.6806,-697.603 578.884,-686.907"/>
</g>
<!-- Bayesian_histories&#45;&#45;context_sensitive_phylo -->
<g id="edge18" class="edge">
<title>Bayesian_histories&#45;&#45;context_sensitive_phylo</title>
<path fill="none" stroke="#000000" d="M709.1586,-758.5946C726.0998,-809.6806 774.1774,-954.6584 790.9083,-1005.1103"/>
</g>
<!-- Bayesian_histories&#45;&#45;help_PANGO -->
<g id="edge21" class="edge">
<title>Bayesian_histories&#45;&#45;help_PANGO</title>
<path fill="none" stroke="#000000" d="M700.3993,-758.6704C695.7272,-789.3625 686.3284,-851.1063 681.7287,-881.323"/>
</g>
<!-- Bayesian_histories&#45;&#45;big_tree_likelihoods -->
<g id="edge23" class="edge">
<title>Bayesian_histories&#45;&#45;big_tree_likelihoods</title>
<path fill="none" stroke="#000000" d="M719.1905,-722.4026C732.6224,-707.2236 751.6187,-685.7564 764.5173,-671.1801"/>
</g>
<!-- Bayesian_histories&#45;&#45;fast_TreeTime -->
<g id="edge22" class="edge">
<title>Bayesian_histories&#45;&#45;fast_TreeTime</title>
<path fill="none" stroke="#000000" d="M643.6309,-746.2239C591.6834,-751.2055 516.6441,-758.4016 464.3535,-763.4162"/>
</g>
<!-- TCR_analysis -->
<g id="node55" class="node">
<title>TCR_analysis</title>
<polygon fill="none" stroke="#000000" points="257.2069,-1279.982 164.2069,-1279.982 164.2069,-1243.982 257.2069,-1243.982 257.2069,-1279.982"/>
<text text-anchor="middle" x="210.7069" y="-1258.282" font-family="Times,serif" font-size="14.00" fill="#000000">TCR_analysis</text>
</g>
<!-- TCR_analysis&#45;&#45;HLA_effects -->
<g id="edge52" class="edge">
<title>TCR_analysis&#45;&#45;HLA_effects</title>
<path fill="none" stroke="#000000" d="M164.1764,-1252.4118C145.3575,-1248.5411 123.6498,-1244.0763 104.7138,-1240.1816"/>
</g>
<!-- TCR_analysis&#45;&#45;TCR_GWAS -->
<g id="edge51" class="edge">
<title>TCR_analysis&#45;&#45;TCR_GWAS</title>
<path fill="none" stroke="#000000" d="M209.8955,-1243.6786C208.1605,-1204.5389 204.107,-1113.0964 202.3736,-1073.9933"/>
</g>
<!-- TCR_analysis&#45;&#45;TCR_trimming_motifs -->
<g id="edge54" class="edge">
<title>TCR_analysis&#45;&#45;TCR_trimming_motifs</title>
<path fill="none" stroke="#000000" d="M231.0791,-1280.0666C251.9484,-1298.5925 284.1799,-1327.2046 304.8439,-1345.5482"/>
</g>
<!-- TCR_analysis&#45;&#45;transport -->
<g id="edge53" class="edge">
<title>TCR_analysis&#45;&#45;transport</title>
<path fill="none" stroke="#000000" d="M201.1753,-1280.3976C191.6816,-1298.7402 177.21,-1326.7002 167.8624,-1344.7603"/>
</g>
<!-- TCR_analysis&#45;&#45;Bayesian_VDJ_recombination -->
<g id="edge55" class="edge">
<title>TCR_analysis&#45;&#45;Bayesian_VDJ_recombination</title>
<path fill="none" stroke="#000000" d="M237.0705,-1243.7962C264.6018,-1224.8048 307.341,-1195.323 333.471,-1177.2983"/>
</g>
<!-- trees_and_fitness -->
<g id="node56" class="node">
<title>trees_and_fitness</title>
<polygon fill="none" stroke="#000000" points="1117.2276,-910.9866 1007.2276,-910.9866 1007.2276,-874.9866 1117.2276,-874.9866 1117.2276,-910.9866"/>
<text text-anchor="middle" x="1062.2276" y="-889.2866" font-family="Times,serif" font-size="14.00" fill="#000000">trees_and_fitness</text>
</g>
<!-- trees_and_fitness&#45;&#45;GCreplay -->
<g id="edge43" class="edge">
<title>trees_and_fitness&#45;&#45;GCreplay</title>
<path fill="none" stroke="#000000" d="M1073.093,-874.918C1084.2236,-856.4085 1101.4141,-827.8217 1112.4351,-809.4943"/>
</g>
<!-- trees_and_fitness&#45;&#45;GCtree_with_heritable -->
<g id="edge42" class="edge">
<title>trees_and_fitness&#45;&#45;GCtree_with_heritable</title>
<path fill="none" stroke="#000000" d="M1063.5644,-911.3539C1064.8877,-929.5354 1066.9006,-957.1912 1068.2124,-975.2133"/>
</g>
<!-- trees_and_fitness&#45;&#45;SARS2_lineage_prediction -->
<g id="edge44" class="edge">
<title>trees_and_fitness&#45;&#45;SARS2_lineage_prediction</title>
<path fill="none" stroke="#000000" d="M1116.4111,-911.05C1140.533,-919.0916 1168.4341,-928.3931 1190.6119,-935.7866"/>
</g>
<!-- trees_and_fitness&#45;&#45;Bayesian_histories -->
<g id="edge45" class="edge">
<title>trees_and_fitness&#45;&#45;Bayesian_histories</title>
<path fill="none" stroke="#000000" d="M1019.6281,-874.8973C950.523,-845.5528 814.7765,-787.91 745.707,-758.5806"/>
</g>
<!-- train_awesome_researchers -->
<g id="node57" class="node">
<title>train_awesome_researchers</title>
<polygon fill="none" stroke="#000000" points="1684.9498,-1426.6989 1517.869,-1426.6989 1466.2381,-1585.4539 1414.6073,-1426.6989 1247.5264,-1426.6989 1382.6977,-1328.5829 1331.0668,-1169.8278 1466.2381,-1267.9438 1601.4094,-1169.8278 1549.7786,-1328.5829 1684.9498,-1426.6989"/>
<text text-anchor="middle" x="1466.2381" y="-1373.9409" font-family="Times,serif" font-size="14.00" fill="#000000">train_awesome_researchers</text>
</g>
<!-- diversify_comp_bio -->
<g id="node58" class="node">
<title>diversify_comp_bio</title>
<polygon fill="none" stroke="#000000" points="1734.1104,-271.6392 1608.1592,-271.6392 1569.2381,-391.3682 1530.317,-271.6392 1404.3658,-271.6392 1506.2625,-197.6426 1467.3414,-77.9136 1569.2381,-151.9102 1671.1348,-77.9136 1632.2137,-197.6426 1734.1104,-271.6392"/>
<text text-anchor="middle" x="1569.2381" y="-230.9409" font-family="Times,serif" font-size="14.00" fill="#000000">diversify_comp_bio</text>
</g>
<!-- eradicate_disease -->
<g id="node59" class="node">
<title>eradicate_disease</title>
<polygon fill="none" stroke="#000000" points="1148.3402,-1575.3077 1037.4921,-1575.3077 1003.2381,-1681.0199 968.9842,-1575.3077 858.1361,-1575.3077 947.8141,-1509.974 913.5601,-1404.2619 1003.2381,-1469.5956 1092.9161,-1404.2619 1058.6622,-1509.974 1148.3402,-1575.3077"/>
<text text-anchor="middle" x="1003.2381" y="-1538.9409" font-family="Times,serif" font-size="14.00" fill="#000000">eradicate_disease</text>
</g>
</g>
</svg>
