<?xml version="1.0" encoding="UTF-8" standalone="no"?>
<!DOCTYPE svg PUBLIC "-//W3C//DTD SVG 1.1//EN"
 "http://www.w3.org/Graphics/SVG/1.1/DTD/svg11.dtd">
<!-- Generated by graphviz version 2.40.1 (20161225.0304)
 -->
<!-- Title: %3 Pages: 1 -->
<svg width="1903pt" height="1449pt"
 viewBox="0.00 0.00 1902.51 1449.40" xmlns="http://www.w3.org/2000/svg" xmlns:xlink="http://www.w3.org/1999/xlink">
<g id="graph0" class="graph" transform="scale(1 1) rotate(0) translate(4 1445.3996)">
<title>%3</title>
<polygon fill="#ffffff" stroke="transparent" points="-4,4 -4,-1445.3996 1898.5138,-1445.3996 1898.5138,4 -4,4"/>
<!-- Bayesian_GCtree -->
<g id="node1" class="node">
<title>Bayesian_GCtree</title>
<ellipse fill="#ccebc5" stroke="#ccebc5" cx="1176.8826" cy="-848.4115" rx="72.5877" ry="18"/>
<text text-anchor="middle" x="1176.8826" y="-844.7115" font-family="Times,serif" font-size="14.00" fill="#000000">Bayesian_GCtree</text>
</g>
<!-- GCreplay -->
<g id="node2" class="node">
<title>GCreplay</title>
<ellipse fill="#ccebc5" stroke="#ccebc5" cx="1263.8785" cy="-1045.9072" rx="44.6926" ry="18"/>
<text text-anchor="middle" x="1263.8785" y="-1042.2072" font-family="Times,serif" font-size="14.00" fill="#000000">GCreplay</text>
</g>
<!-- Bayesian_GCtree&#45;&#45;GCreplay -->
<g id="edge21" class="edge">
<title>Bayesian_GCtree&#45;&#45;GCreplay</title>
<path fill="none" stroke="#000000" d="M1184.9111,-866.6374C1201.5262,-904.3566 1239.5052,-990.5755 1255.9951,-1028.0106"/>
</g>
<!-- GCtree_with_heritable -->
<g id="node25" class="node">
<title>GCtree_with_heritable</title>
<polygon fill="none" stroke="#000000" points="1062.1661,-1019.2864 933.3018,-1001.2864 1062.1661,-983.2864 1191.0304,-1001.2864 1062.1661,-1019.2864"/>
<text text-anchor="middle" x="1062.1661" y="-997.5864" font-family="Times,serif" font-size="14.00" fill="#000000">GCtree_with_heritable</text>
</g>
<!-- Bayesian_GCtree&#45;&#45;GCtree_with_heritable -->
<g id="edge22" class="edge">
<title>Bayesian_GCtree&#45;&#45;GCtree_with_heritable</title>
<path fill="none" stroke="#000000" d="M1163.4987,-866.2474C1141.0394,-896.1774 1096.0998,-956.0653 1074.4207,-984.9556"/>
</g>
<!-- antibody_DMS -->
<g id="node12" class="node">
<title>antibody_DMS</title>
<ellipse fill="#ccebc5" stroke="#ccebc5" cx="1285.0372" cy="-1248.131" rx="65.7887" ry="18"/>
<text text-anchor="middle" x="1285.0372" y="-1244.431" font-family="Times,serif" font-size="14.00" fill="#000000">antibody_DMS</text>
</g>
<!-- GCreplay&#45;&#45;antibody_DMS -->
<g id="edge24" class="edge">
<title>GCreplay&#45;&#45;antibody_DMS</title>
<path fill="none" stroke="#000000" d="M1265.7935,-1064.2099C1269.8219,-1102.711 1279.1305,-1191.6784 1283.1417,-1230.0154"/>
</g>
<!-- torchdms -->
<g id="node14" class="node">
<title>torchdms</title>
<ellipse fill="#ccebc5" stroke="#ccebc5" cx="1410.99" cy="-1156.3005" rx="44.393" ry="18"/>
<text text-anchor="middle" x="1410.99" y="-1152.6005" font-family="Times,serif" font-size="14.00" fill="#000000">torchdms</text>
</g>
<!-- GCreplay&#45;&#45;torchdms -->
<g id="edge23" class="edge">
<title>GCreplay&#45;&#45;torchdms</title>
<path fill="none" stroke="#000000" d="M1285.2697,-1061.9593C1313.1611,-1082.8891 1361.6688,-1119.2896 1389.5729,-1140.229"/>
</g>
<!-- HLA_effects -->
<g id="node3" class="node">
<title>HLA_effects</title>
<ellipse fill="#ccebc5" stroke="#ccebc5" cx="144.1419" cy="-462.764" rx="56.59" ry="18"/>
<text text-anchor="middle" x="144.1419" y="-459.064" font-family="Times,serif" font-size="14.00" fill="#000000">HLA_effects</text>
</g>
<!-- PhIP_seq -->
<g id="node4" class="node">
<title>PhIP_seq</title>
<ellipse fill="#ccebc5" stroke="#ccebc5" cx="1434.379" cy="-1386.1964" rx="44.393" ry="18"/>
<text text-anchor="middle" x="1434.379" y="-1382.4964" font-family="Times,serif" font-size="14.00" fill="#000000">PhIP_seq</text>
</g>
<!-- TCR_GWAS -->
<g id="node5" class="node">
<title>TCR_GWAS</title>
<ellipse fill="#ccebc5" stroke="#ccebc5" cx="464.6396" cy="-614.6752" rx="58.4896" ry="18"/>
<text text-anchor="middle" x="464.6396" y="-610.9752" font-family="Times,serif" font-size="14.00" fill="#000000">TCR_GWAS</text>
</g>
<!-- TCR_trimming_motifs -->
<g id="node6" class="node">
<title>TCR_trimming_motifs</title>
<ellipse fill="#ccebc5" stroke="#ccebc5" cx="92.9418" cy="-646.3932" rx="92.8835" ry="18"/>
<text text-anchor="middle" x="92.9418" y="-642.6932" font-family="Times,serif" font-size="14.00" fill="#000000">TCR_trimming_motifs</text>
</g>
<!-- bito -->
<g id="node7" class="node">
<title>bito</title>
<ellipse fill="#ccebc5" stroke="#ccebc5" cx="1433.9699" cy="-223.2135" rx="27" ry="18"/>
<text text-anchor="middle" x="1433.9699" y="-219.5135" font-family="Times,serif" font-size="14.00" fill="#000000">bito</text>
</g>
<!-- autodiff_gradients -->
<g id="node8" class="node">
<title>autodiff_gradients</title>
<ellipse fill="#ccebc5" stroke="#ccebc5" cx="1410.8668" cy="-18" rx="75.2868" ry="18"/>
<text text-anchor="middle" x="1410.8668" y="-14.3" font-family="Times,serif" font-size="14.00" fill="#000000">autodiff_gradients</text>
</g>
<!-- bito&#45;&#45;autodiff_gradients -->
<g id="edge3" class="edge">
<title>bito&#45;&#45;autodiff_gradients</title>
<path fill="none" stroke="#000000" d="M1431.9197,-205.0021C1427.5355,-166.0594 1417.2926,-75.0769 1412.9125,-36.1705"/>
</g>
<!-- subsplit_DAG -->
<g id="node13" class="node">
<title>subsplit_DAG</title>
<ellipse fill="#ccebc5" stroke="#ccebc5" cx="1350.2748" cy="-444.9445" rx="61.99" ry="18"/>
<text text-anchor="middle" x="1350.2748" y="-441.2445" font-family="Times,serif" font-size="14.00" fill="#000000">subsplit_DAG</text>
</g>
<!-- bito&#45;&#45;subsplit_DAG -->
<g id="edge4" class="edge">
<title>bito&#45;&#45;subsplit_DAG</title>
<path fill="none" stroke="#000000" d="M1427.2623,-240.9838C1411.6299,-282.3983 1372.9094,-384.9794 1357.1314,-426.7795"/>
</g>
<!-- phylogenetic_VI -->
<g id="node37" class="node">
<title>phylogenetic_VI</title>
<polygon fill="none" stroke="#000000" points="1624.7773,-179.8237 1526.5774,-161.8237 1624.7773,-143.8237 1722.9772,-161.8237 1624.7773,-179.8237"/>
<text text-anchor="middle" x="1624.7773" y="-158.1237" font-family="Times,serif" font-size="14.00" fill="#000000">phylogenetic_VI</text>
</g>
<!-- bito&#45;&#45;phylogenetic_VI -->
<g id="edge2" class="edge">
<title>bito&#45;&#45;phylogenetic_VI</title>
<path fill="none" stroke="#000000" d="M1458.524,-215.3135C1491.6387,-204.6593 1550.8429,-185.6111 1588.9343,-173.3557"/>
</g>
<!-- generalized_pruning -->
<g id="node9" class="node">
<title>generalized_pruning</title>
<ellipse fill="#ccebc5" stroke="#ccebc5" cx="1332.2583" cy="-294.8245" rx="83.3857" ry="18"/>
<text text-anchor="middle" x="1332.2583" y="-291.1245" font-family="Times,serif" font-size="14.00" fill="#000000">generalized_pruning</text>
</g>
<!-- mechanistic_SHM -->
<g id="node10" class="node">
<title>mechanistic_SHM</title>
<ellipse fill="#ccebc5" stroke="#ccebc5" cx="913.4397" cy="-331.3332" rx="77.1866" ry="18"/>
<text text-anchor="middle" x="913.4397" y="-327.6332" font-family="Times,serif" font-size="14.00" fill="#000000">mechanistic_SHM</text>
</g>
<!-- context_sensitive_phylo -->
<g id="node28" class="node">
<title>context_sensitive_phylo</title>
<polygon fill="none" stroke="#000000" points="1100.9911,-459.2965 964.9205,-441.2965 1100.9911,-423.2965 1237.0617,-441.2965 1100.9911,-459.2965"/>
<text text-anchor="middle" x="1100.9911" y="-437.5965" font-family="Times,serif" font-size="14.00" fill="#000000">context_sensitive_phylo</text>
</g>
<!-- mechanistic_SHM&#45;&#45;context_sensitive_phylo -->
<g id="edge43" class="edge">
<title>mechanistic_SHM&#45;&#45;context_sensitive_phylo</title>
<path fill="none" stroke="#000000" d="M942.3336,-348.274C978.811,-369.661 1040.9787,-406.1106 1075.675,-426.4534"/>
</g>
<!-- SHM_across_ages -->
<g id="node39" class="node">
<title>SHM_across_ages</title>
<polygon fill="none" stroke="#000000" points="825.8421,-145.2549 717.4209,-127.2549 825.8421,-109.2549 934.2632,-127.2549 825.8421,-145.2549"/>
<text text-anchor="middle" x="825.8421" y="-123.5549" font-family="Times,serif" font-size="14.00" fill="#000000">SHM_across_ages</text>
</g>
<!-- mechanistic_SHM&#45;&#45;SHM_across_ages -->
<g id="edge36" class="edge">
<title>mechanistic_SHM&#45;&#45;SHM_across_ages</title>
<path fill="none" stroke="#000000" d="M905.666,-313.2226C888.8754,-274.105 849.4211,-182.1876 833.1032,-144.1713"/>
</g>
<!-- paired_HL -->
<g id="node11" class="node">
<title>paired_HL</title>
<ellipse fill="#ccebc5" stroke="#ccebc5" cx="808.9716" cy="-759.9572" rx="48.9926" ry="18"/>
<text text-anchor="middle" x="808.9716" y="-756.2572" font-family="Times,serif" font-size="14.00" fill="#000000">paired_HL</text>
</g>
<!-- B_cell_CONGA -->
<g id="node23" class="node">
<title>B_cell_CONGA</title>
<polygon fill="none" stroke="#000000" points="687.554,-941.9788 589.3541,-923.9788 687.554,-905.9788 785.7539,-923.9788 687.554,-941.9788"/>
<text text-anchor="middle" x="687.554" y="-920.2788" font-family="Times,serif" font-size="14.00" fill="#000000">B_cell_CONGA</text>
</g>
<!-- paired_HL&#45;&#45;B_cell_CONGA -->
<g id="edge44" class="edge">
<title>paired_HL&#45;&#45;B_cell_CONGA</title>
<path fill="none" stroke="#000000" d="M795.9777,-777.5104C772.2412,-809.5758 722.2148,-877.1559 699.3755,-908.0092"/>
</g>
<!-- antibody_DMS&#45;&#45;PhIP_seq -->
<g id="edge26" class="edge">
<title>antibody_DMS&#45;&#45;PhIP_seq</title>
<path fill="none" stroke="#000000" d="M1303.9514,-1265.6171C1332.9919,-1292.4648 1388.1733,-1343.4796 1416.5479,-1369.7117"/>
</g>
<!-- antibody_DMS&#45;&#45;torchdms -->
<g id="edge25" class="edge">
<title>antibody_DMS&#45;&#45;torchdms</title>
<path fill="none" stroke="#000000" d="M1308.4327,-1231.0736C1331.625,-1214.1645 1366.8611,-1188.4742 1389.4017,-1172.0402"/>
</g>
<!-- interactive_DMS_viz -->
<g id="node34" class="node">
<title>interactive_DMS_viz</title>
<polygon fill="none" stroke="#000000" points="1204.3877,-1441.3996 1081.0533,-1423.3996 1204.3877,-1405.3996 1327.7221,-1423.3996 1204.3877,-1441.3996"/>
<text text-anchor="middle" x="1204.3877" y="-1419.6996" font-family="Times,serif" font-size="14.00" fill="#000000">interactive_DMS_viz</text>
</g>
<!-- antibody_DMS&#45;&#45;interactive_DMS_viz -->
<g id="edge27" class="edge">
<title>antibody_DMS&#45;&#45;interactive_DMS_viz</title>
<path fill="none" stroke="#000000" d="M1276.71,-1266.2277C1261.0544,-1300.2506 1227.4404,-1373.3012 1212.1934,-1406.4361"/>
</g>
<!-- subsplit_DAG&#45;&#45;generalized_pruning -->
<g id="edge8" class="edge">
<title>subsplit_DAG&#45;&#45;generalized_pruning</title>
<path fill="none" stroke="#000000" d="M1348.1016,-426.8365C1344.6387,-397.9828 1337.9069,-341.8908 1334.4392,-312.9967"/>
</g>
<!-- hillclimber -->
<g id="node17" class="node">
<title>hillclimber</title>
<polygon fill="none" stroke="#000000" points="1635.2302,-535.5863 1573.5105,-548.024 1511.7907,-535.5863 1511.8483,-515.4617 1635.1726,-515.4617 1635.2302,-535.5863"/>
<text text-anchor="middle" x="1573.5105" y="-526.324" font-family="Times,serif" font-size="14.00" fill="#000000">hillclimber</text>
</g>
<!-- subsplit_DAG&#45;&#45;hillclimber -->
<g id="edge7" class="edge">
<title>subsplit_DAG&#45;&#45;hillclimber</title>
<path fill="none" stroke="#000000" d="M1387.8912,-459.2809C1428.7723,-474.8615 1493.7583,-499.6289 1534.9905,-515.3433"/>
</g>
<!-- Bayesian_subtree_optimality -->
<g id="node24" class="node">
<title>Bayesian_subtree_optimality</title>
<polygon fill="none" stroke="#000000" points="1475.5364,-594.3481 1314.8312,-576.3481 1475.5364,-558.3481 1636.2416,-576.3481 1475.5364,-594.3481"/>
<text text-anchor="middle" x="1475.5364" y="-572.6481" font-family="Times,serif" font-size="14.00" fill="#000000">Bayesian_subtree_optimality</text>
</g>
<!-- subsplit_DAG&#45;&#45;Bayesian_subtree_optimality -->
<g id="edge12" class="edge">
<title>subsplit_DAG&#45;&#45;Bayesian_subtree_optimality</title>
<path fill="none" stroke="#000000" d="M1366.9085,-462.3939C1391.2659,-487.9455 1436.3088,-535.1971 1460.0168,-560.0676"/>
</g>
<!-- how_big_of_sDAG -->
<g id="node33" class="node">
<title>how_big_of_sDAG</title>
<polygon fill="none" stroke="#000000" points="1243.1486,-268.8006 1130.0359,-250.8006 1243.1486,-232.8006 1356.2613,-250.8006 1243.1486,-268.8006"/>
<text text-anchor="middle" x="1243.1486" y="-247.1006" font-family="Times,serif" font-size="14.00" fill="#000000">how_big_of_sDAG</text>
</g>
<!-- subsplit_DAG&#45;&#45;how_big_of_sDAG -->
<g id="edge11" class="edge">
<title>subsplit_DAG&#45;&#45;how_big_of_sDAG</title>
<path fill="none" stroke="#000000" d="M1340.3886,-427.0279C1319.7735,-389.6672 1272.4499,-303.903 1252.3981,-267.5634"/>
</g>
<!-- local_EM -->
<g id="node35" class="node">
<title>local_EM</title>
<polygon fill="none" stroke="#000000" points="1505.2942,-463.8242 1440.273,-445.8242 1505.2942,-427.8242 1570.3154,-445.8242 1505.2942,-463.8242"/>
<text text-anchor="middle" x="1505.2942" y="-442.1242" font-family="Times,serif" font-size="14.00" fill="#000000">local_EM</text>
</g>
<!-- subsplit_DAG&#45;&#45;local_EM -->
<g id="edge9" class="edge">
<title>subsplit_DAG&#45;&#45;local_EM</title>
<path fill="none" stroke="#000000" d="M1412.4339,-445.2972C1421.9523,-445.3513 1431.7924,-445.4071 1441.3486,-445.4613"/>
</g>
<!-- online_phylo_VI -->
<g id="node36" class="node">
<title>online_phylo_VI</title>
<polygon fill="none" stroke="#000000" points="1523.6582,-345.5164 1423.2816,-327.5164 1523.6582,-309.5164 1624.0348,-327.5164 1523.6582,-345.5164"/>
<text text-anchor="middle" x="1523.6582" y="-323.8164" font-family="Times,serif" font-size="14.00" fill="#000000">online_phylo_VI</text>
</g>
<!-- subsplit_DAG&#45;&#45;online_phylo_VI -->
<g id="edge6" class="edge">
<title>subsplit_DAG&#45;&#45;online_phylo_VI</title>
<path fill="none" stroke="#000000" d="M1374.7486,-428.369C1408.9134,-405.2301 1470.3262,-363.6368 1502.5727,-341.7971"/>
</g>
<!-- Bayesian_histories -->
<g id="node41" class="node">
<title>Bayesian_histories</title>
<polygon fill="none" stroke="#000000" points="1215.696,-621.2645 1096.696,-621.2645 1096.696,-585.2645 1215.696,-585.2645 1215.696,-621.2645"/>
<text text-anchor="middle" x="1156.196" y="-599.5645" font-family="Times,serif" font-size="14.00" fill="#000000">Bayesian_histories</text>
</g>
<!-- subsplit_DAG&#45;&#45;Bayesian_histories -->
<g id="edge10" class="edge">
<title>subsplit_DAG&#45;&#45;Bayesian_histories</title>
<path fill="none" stroke="#000000" d="M1329.1355,-462.1889C1292.1957,-492.3225 1216.2439,-554.2804 1178.5008,-585.0694"/>
</g>
<!-- transport -->
<g id="node15" class="node">
<title>transport</title>
<ellipse fill="#ccebc5" stroke="#ccebc5" cx="176.986" cy="-815.2857" rx="42.4939" ry="18"/>
<text text-anchor="middle" x="176.986" y="-811.5857" font-family="Times,serif" font-size="14.00" fill="#000000">transport</text>
</g>
<!-- CFT -->
<g id="node16" class="node">
<title>CFT</title>
<polygon fill="none" stroke="#000000" points="763.0016,-379.9796 730.1249,-392.4173 697.2482,-379.9796 697.2789,-359.855 762.9709,-359.855 763.0016,-379.9796"/>
<text text-anchor="middle" x="730.1249" y="-370.7173" font-family="Times,serif" font-size="14.00" fill="#000000">CFT</text>
</g>
<!-- olmsted -->
<g id="node18" class="node">
<title>olmsted</title>
<polygon fill="none" stroke="#000000" points="674.5593,-213.6869 626.1537,-226.1246 577.7481,-213.6869 577.7933,-193.5623 674.5141,-193.5623 674.5593,-213.6869"/>
<text text-anchor="middle" x="626.1537" y="-204.4246" font-family="Times,serif" font-size="14.00" fill="#000000">olmsted</text>
</g>
<!-- CFT&#45;&#45;olmsted -->
<g id="edge34" class="edge">
<title>CFT&#45;&#45;olmsted</title>
<path fill="none" stroke="#000000" d="M720.8981,-359.66C701.4163,-328.5005 656.2286,-256.2267 636.117,-224.06"/>
</g>
<!-- find_posterior_modes -->
<g id="node31" class="node">
<title>find_posterior_modes</title>
<polygon fill="none" stroke="#000000" points="1769.5084,-584.3539 1644.4976,-566.3539 1769.5084,-548.3539 1894.5192,-566.3539 1769.5084,-584.3539"/>
<text text-anchor="middle" x="1769.5084" y="-562.6539" font-family="Times,serif" font-size="14.00" fill="#000000">find_posterior_modes</text>
</g>
<!-- hillclimber&#45;&#45;find_posterior_modes -->
<g id="edge13" class="edge">
<title>hillclimber&#45;&#45;find_posterior_modes</title>
<path fill="none" stroke="#000000" d="M1620.4569,-538.7259C1648.7695,-543.9739 1684.9697,-550.6839 1714.6046,-556.177"/>
</g>
<!-- BCR_GWAS -->
<g id="node19" class="node">
<title>BCR_GWAS</title>
<polygon fill="none" stroke="#000000" points="660.8439,-617.0724 577.057,-599.0724 660.8439,-581.0724 744.6308,-599.0724 660.8439,-617.0724"/>
<text text-anchor="middle" x="660.8439" y="-595.3724" font-family="Times,serif" font-size="14.00" fill="#000000">BCR_GWAS</text>
</g>
<!-- BCR_GWAS&#45;&#45;TCR_GWAS -->
<g id="edge38" class="edge">
<title>BCR_GWAS&#45;&#45;TCR_GWAS</title>
<path fill="none" stroke="#000000" d="M599.5707,-603.945C574.6093,-605.93 545.9266,-608.211 521.4425,-610.1581"/>
</g>
<!-- BCR_indels -->
<g id="node20" class="node">
<title>BCR_indels</title>
<polygon fill="none" stroke="#000000" points="824.3803,-692.7424 748.2996,-674.7424 824.3803,-656.7424 900.461,-674.7424 824.3803,-692.7424"/>
<text text-anchor="middle" x="824.3803" y="-671.0424" font-family="Times,serif" font-size="14.00" fill="#000000">BCR_indels</text>
</g>
<!-- BCR_selection_analysis -->
<g id="node21" class="node">
<title>BCR_selection_analysis</title>
<polygon fill="none" stroke="#000000" points="740.7804,-541.2426 603.8715,-523.2426 740.7804,-505.2426 877.6893,-523.2426 740.7804,-541.2426"/>
<text text-anchor="middle" x="740.7804" y="-519.5426" font-family="Times,serif" font-size="14.00" fill="#000000">BCR_selection_analysis</text>
</g>
<!-- BCR_trajectories -->
<g id="node22" class="node">
<title>BCR_trajectories</title>
<polygon fill="none" stroke="#000000" points="855.8015,-436.439 754.5868,-418.439 855.8015,-400.439 957.0162,-418.439 855.8015,-436.439"/>
<text text-anchor="middle" x="855.8015" y="-414.739" font-family="Times,serif" font-size="14.00" fill="#000000">BCR_trajectories</text>
</g>
<!-- SARS2_parsimony_plateau -->
<g id="node26" class="node">
<title>SARS2_parsimony_plateau</title>
<polygon fill="none" stroke="#000000" points="1252.1069,-680.166 1098.6084,-662.166 1252.1069,-644.166 1405.6054,-662.166 1252.1069,-680.166"/>
<text text-anchor="middle" x="1252.1069" y="-658.466" font-family="Times,serif" font-size="14.00" fill="#000000">SARS2_parsimony_plateau</text>
</g>
<!-- adaptive_MCMC -->
<g id="node27" class="node">
<title>adaptive_MCMC</title>
<polygon fill="none" stroke="#000000" points="1772.5513,-67.0171 1668.8216,-49.0171 1772.5513,-31.0171 1876.281,-49.0171 1772.5513,-67.0171"/>
<text text-anchor="middle" x="1772.5513" y="-45.3171" font-family="Times,serif" font-size="14.00" fill="#000000">adaptive_MCMC</text>
</g>
<!-- fasdag -->
<g id="node29" class="node">
<title>fasdag</title>
<polygon fill="none" stroke="#000000" points="1184.716,-516.8471 1137.1228,-498.8471 1184.716,-480.8471 1232.3092,-498.8471 1184.716,-516.8471"/>
<text text-anchor="middle" x="1184.716" y="-495.1471" font-family="Times,serif" font-size="14.00" fill="#000000">fasdag</text>
</g>
<!-- fast_TreeTime -->
<g id="node30" class="node">
<title>fast_TreeTime</title>
<polygon fill="none" stroke="#000000" points="1293.4922,-757.1775 1204.1754,-739.1775 1293.4922,-721.1775 1382.809,-739.1775 1293.4922,-757.1775"/>
<text text-anchor="middle" x="1293.4922" y="-735.4775" font-family="Times,serif" font-size="14.00" fill="#000000">fast_TreeTime</text>
</g>
<!-- polytomy_resolution -->
<g id="node38" class="node">
<title>polytomy_resolution</title>
<polygon fill="none" stroke="#000000" points="1456.5753,-875.2927 1337.0945,-857.2927 1456.5753,-839.2927 1576.0562,-857.2927 1456.5753,-875.2927"/>
<text text-anchor="middle" x="1456.5753" y="-853.5927" font-family="Times,serif" font-size="14.00" fill="#000000">polytomy_resolution</text>
</g>
<!-- fast_TreeTime&#45;&#45;polytomy_resolution -->
<g id="edge20" class="edge">
<title>fast_TreeTime&#45;&#45;polytomy_resolution</title>
<path fill="none" stroke="#000000" d="M1313.1638,-753.425C1344.1703,-775.8818 1404.1307,-819.309 1435.8056,-842.25"/>
</g>
<!-- help_PANGO -->
<g id="node32" class="node">
<title>help_PANGO</title>
<polygon fill="none" stroke="#000000" points="1090.4432,-746.4102 1004.98,-728.4102 1090.4432,-710.4102 1175.9065,-728.4102 1090.4432,-746.4102"/>
<text text-anchor="middle" x="1090.4432" y="-724.7102" font-family="Times,serif" font-size="14.00" fill="#000000">help_PANGO</text>
</g>
<!-- phylogenetic_VI&#45;&#45;adaptive_MCMC -->
<g id="edge1" class="edge">
<title>phylogenetic_VI&#45;&#45;adaptive_MCMC</title>
<path fill="none" stroke="#000000" d="M1643.7936,-147.3072C1672.0123,-125.7658 1724.6931,-85.5507 1753.1387,-63.8361"/>
</g>
<!-- phylogenetic_VI&#45;&#45;online_phylo_VI -->
<g id="edge5" class="edge">
<title>phylogenetic_VI&#45;&#45;online_phylo_VI</title>
<path fill="none" stroke="#000000" d="M1614.7119,-178.3167C1595.3294,-210.0767 1553.0332,-279.3828 1533.6829,-311.0901"/>
</g>
<!-- BCR_analysis -->
<g id="node40" class="node">
<title>BCR_analysis</title>
<polygon fill="none" stroke="#000000" points="979.8354,-575.9092 885.8354,-575.9092 885.8354,-539.9092 979.8354,-539.9092 979.8354,-575.9092"/>
<text text-anchor="middle" x="932.8354" y="-554.2092" font-family="Times,serif" font-size="14.00" fill="#000000">BCR_analysis</text>
</g>
<!-- BCR_analysis&#45;&#45;mechanistic_SHM -->
<g id="edge35" class="edge">
<title>BCR_analysis&#45;&#45;mechanistic_SHM</title>
<path fill="none" stroke="#000000" d="M931.281,-539.7506C927.6493,-497.3261 918.6406,-392.088 915.0016,-349.5783"/>
</g>
<!-- BCR_analysis&#45;&#45;paired_HL -->
<g id="edge32" class="edge">
<title>BCR_analysis&#45;&#45;paired_HL</title>
<path fill="none" stroke="#000000" d="M921.6249,-576.196C897.983,-614.7608 843.2739,-704.0029 819.8902,-742.1465"/>
</g>
<!-- BCR_analysis&#45;&#45;CFT -->
<g id="edge33" class="edge">
<title>BCR_analysis&#45;&#45;CFT</title>
<path fill="none" stroke="#000000" d="M912.6577,-539.6445C871.6991,-502.5692 779.6993,-419.2917 744.3413,-387.2859"/>
</g>
<!-- BCR_analysis&#45;&#45;BCR_GWAS -->
<g id="edge37" class="edge">
<title>BCR_analysis&#45;&#45;BCR_GWAS</title>
<path fill="none" stroke="#000000" d="M885.7686,-565.0323C836.6578,-572.4647 759.9947,-584.0669 710.0878,-591.6198"/>
</g>
<!-- BCR_analysis&#45;&#45;BCR_indels -->
<g id="edge30" class="edge">
<title>BCR_analysis&#45;&#45;BCR_indels</title>
<path fill="none" stroke="#000000" d="M915.8893,-576.1644C894.4419,-599.2686 857.9142,-638.618 838.1162,-659.9454"/>
</g>
<!-- BCR_analysis&#45;&#45;BCR_selection_analysis -->
<g id="edge28" class="edge">
<title>BCR_analysis&#45;&#45;BCR_selection_analysis</title>
<path fill="none" stroke="#000000" d="M885.3611,-549.3399C859.1462,-544.6081 826.3801,-538.6936 798.6718,-533.6922"/>
</g>
<!-- BCR_analysis&#45;&#45;BCR_trajectories -->
<g id="edge29" class="edge">
<title>BCR_analysis&#45;&#45;BCR_trajectories</title>
<path fill="none" stroke="#000000" d="M922.7646,-539.6759C907.6748,-512.3559 879.4242,-461.208 864.9146,-434.9384"/>
</g>
<!-- BCR_analysis&#45;&#45;Bayesian_histories -->
<g id="edge31" class="edge">
<title>BCR_analysis&#45;&#45;Bayesian_histories</title>
<path fill="none" stroke="#000000" d="M979.9315,-567.4725C1013.8492,-574.3597 1059.8758,-583.7058 1096.3905,-591.1205"/>
</g>
<!-- Bayesian_histories&#45;&#45;Bayesian_GCtree -->
<g id="edge16" class="edge">
<title>Bayesian_histories&#45;&#45;Bayesian_GCtree</title>
<path fill="none" stroke="#000000" d="M1157.7172,-621.2907C1161.5428,-666.6259 1171.5313,-784.9953 1175.3593,-830.3588"/>
</g>
<!-- Bayesian_histories&#45;&#45;SARS2_parsimony_plateau -->
<g id="edge17" class="edge">
<title>Bayesian_histories&#45;&#45;SARS2_parsimony_plateau</title>
<path fill="none" stroke="#000000" d="M1185.7551,-621.4175C1199.0749,-629.5976 1214.6266,-639.1483 1227.3247,-646.9465"/>
</g>
<!-- Bayesian_histories&#45;&#45;context_sensitive_phylo -->
<g id="edge15" class="edge">
<title>Bayesian_histories&#45;&#45;context_sensitive_phylo</title>
<path fill="none" stroke="#000000" d="M1149.9706,-584.9995C1139.2553,-553.5614 1117.4656,-489.6315 1106.9424,-458.7573"/>
</g>
<!-- Bayesian_histories&#45;&#45;fasdag -->
<g id="edge14" class="edge">
<title>Bayesian_histories&#45;&#45;fasdag</title>
<path fill="none" stroke="#000000" d="M1161.1638,-585.0764C1166.5262,-565.4438 1174.9935,-534.4431 1180.1812,-515.45"/>
</g>
<!-- Bayesian_histories&#45;&#45;fast_TreeTime -->
<g id="edge19" class="edge">
<title>Bayesian_histories&#45;&#45;fast_TreeTime</title>
<path fill="none" stroke="#000000" d="M1174.4279,-621.3127C1201.7089,-648.3188 1252.6649,-698.7615 1278.1515,-723.9914"/>
</g>
<!-- Bayesian_histories&#45;&#45;help_PANGO -->
<g id="edge18" class="edge">
<title>Bayesian_histories&#45;&#45;help_PANGO</title>
<path fill="none" stroke="#000000" d="M1146.635,-621.4617C1133.8126,-645.8664 1111.2413,-688.8257 1098.9697,-712.1819"/>
</g>
<!-- TCR_analysis -->
<g id="node42" class="node">
<title>TCR_analysis</title>
<polygon fill="none" stroke="#000000" points="319.7358,-647.0257 226.7358,-647.0257 226.7358,-611.0257 319.7358,-611.0257 319.7358,-647.0257"/>
<text text-anchor="middle" x="273.2358" y="-625.3257" font-family="Times,serif" font-size="14.00" fill="#000000">TCR_analysis</text>
</g>
<!-- TCR_analysis&#45;&#45;HLA_effects -->
<g id="edge40" class="edge">
<title>TCR_analysis&#45;&#45;HLA_effects</title>
<path fill="none" stroke="#000000" d="M259.1747,-610.9163C234.2117,-578.7661 182.4645,-512.1202 157.7959,-480.3492"/>
</g>
<!-- TCR_analysis&#45;&#45;TCR_GWAS -->
<g id="edge39" class="edge">
<title>TCR_analysis&#45;&#45;TCR_GWAS</title>
<path fill="none" stroke="#000000" d="M320.0584,-625.5152C346.5094,-623.532 379.77,-621.0383 407.7192,-618.9428"/>
</g>
<!-- TCR_analysis&#45;&#45;TCR_trimming_motifs -->
<g id="edge42" class="edge">
<title>TCR_analysis&#45;&#45;TCR_trimming_motifs</title>
<path fill="none" stroke="#000000" d="M226.3363,-633.5435C210.9988,-635.0209 193.4725,-636.7092 176.2784,-638.3655"/>
</g>
<!-- TCR_analysis&#45;&#45;transport -->
<g id="edge41" class="edge">
<title>TCR_analysis&#45;&#45;transport</title>
<path fill="none" stroke="#000000" d="M263.8317,-647.2242C245.3364,-683.0159 204.4418,-762.1539 186.1457,-797.56"/>
</g>
</g>
</svg>
