<?xml version="1.0" encoding="UTF-8" standalone="no"?>
<!DOCTYPE svg PUBLIC "-//W3C//DTD SVG 1.1//EN"
 "http://www.w3.org/Graphics/SVG/1.1/DTD/svg11.dtd">
<!-- Generated by graphviz version 2.40.1 (20161225.0304)
 -->
<!-- Title: %3 Pages: 1 -->
<svg width="1854pt" height="1694pt"
 viewBox="0.00 0.00 1853.57 1693.73" xmlns="http://www.w3.org/2000/svg" xmlns:xlink="http://www.w3.org/1999/xlink">
<g id="graph0" class="graph" transform="scale(1 1) rotate(0) translate(4 1689.7272)">
<title>%3</title>
<polygon fill="#ffffff" stroke="transparent" points="-4,4 -4,-1689.7272 1849.5667,-1689.7272 1849.5667,4 -4,4"/>
<!-- Bayesian_GCtree -->
<g id="node1" class="node">
<title>Bayesian_GCtree</title>
<ellipse fill="#ccebc5" stroke="#ccebc5" cx="895.6245" cy="-966.5026" rx="72.5877" ry="18"/>
<text text-anchor="middle" x="895.6245" y="-962.8026" font-family="Times,serif" font-size="14.00" fill="#000000">Bayesian_GCtree</text>
</g>
<!-- GCreplay -->
<g id="node2" class="node">
<title>GCreplay</title>
<ellipse fill="#ccebc5" stroke="#ccebc5" cx="863.5703" cy="-1173.8815" rx="44.6926" ry="18"/>
<text text-anchor="middle" x="863.5703" y="-1170.1815" font-family="Times,serif" font-size="14.00" fill="#000000">GCreplay</text>
</g>
<!-- Bayesian_GCtree&#45;&#45;GCreplay -->
<g id="edge24" class="edge">
<title>Bayesian_GCtree&#45;&#45;GCreplay</title>
<path fill="none" stroke="#000000" d="M892.836,-984.5433C886.7738,-1023.7634 872.4522,-1116.4186 866.3752,-1155.7348"/>
</g>
<!-- GCtree_with_heritable -->
<g id="node36" class="node">
<title>GCtree_with_heritable</title>
<polygon fill="none" stroke="#000000" points="1042.2602,-1100.8877 913.3959,-1082.8877 1042.2602,-1064.8877 1171.1245,-1082.8877 1042.2602,-1100.8877"/>
<text text-anchor="middle" x="1042.2602" y="-1079.1877" font-family="Times,serif" font-size="14.00" fill="#000000">GCtree_with_heritable</text>
</g>
<!-- Bayesian_GCtree&#45;&#45;GCtree_with_heritable -->
<g id="edge25" class="edge">
<title>Bayesian_GCtree&#45;&#45;GCtree_with_heritable</title>
<path fill="none" stroke="#000000" d="M917.5774,-983.9266C946.1799,-1006.6285 995.7419,-1045.966 1022.9688,-1067.5761"/>
</g>
<!-- antibody_DMS -->
<g id="node13" class="node">
<title>antibody_DMS</title>
<ellipse fill="#ccebc5" stroke="#ccebc5" cx="907.6192" cy="-1366.6579" rx="65.7887" ry="18"/>
<text text-anchor="middle" x="907.6192" y="-1362.9579" font-family="Times,serif" font-size="14.00" fill="#000000">antibody_DMS</text>
</g>
<!-- GCreplay&#45;&#45;antibody_DMS -->
<g id="edge27" class="edge">
<title>GCreplay&#45;&#45;antibody_DMS</title>
<path fill="none" stroke="#000000" d="M867.7143,-1192.0174C876.1097,-1228.759 895.0411,-1311.6111 903.4541,-1348.4297"/>
</g>
<!-- torchdms -->
<g id="node15" class="node">
<title>torchdms</title>
<ellipse fill="#ccebc5" stroke="#ccebc5" cx="760.7721" cy="-1320.767" rx="44.393" ry="18"/>
<text text-anchor="middle" x="760.7721" y="-1317.067" font-family="Times,serif" font-size="14.00" fill="#000000">torchdms</text>
</g>
<!-- GCreplay&#45;&#45;torchdms -->
<g id="edge26" class="edge">
<title>GCreplay&#45;&#45;torchdms</title>
<path fill="none" stroke="#000000" d="M851.3743,-1191.308C831.5899,-1219.5774 792.7264,-1275.1084 772.9522,-1303.3632"/>
</g>
<!-- HLA_effects -->
<g id="node3" class="node">
<title>HLA_effects</title>
<ellipse fill="#ccebc5" stroke="#ccebc5" cx="1748.4496" cy="-114.4738" rx="56.59" ry="18"/>
<text text-anchor="middle" x="1748.4496" y="-110.7738" font-family="Times,serif" font-size="14.00" fill="#000000">HLA_effects</text>
</g>
<!-- PhIP_seq -->
<g id="node4" class="node">
<title>PhIP_seq</title>
<ellipse fill="#ccebc5" stroke="#ccebc5" cx="815.6996" cy="-1539.6818" rx="44.393" ry="18"/>
<text text-anchor="middle" x="815.6996" y="-1535.9818" font-family="Times,serif" font-size="14.00" fill="#000000">PhIP_seq</text>
</g>
<!-- TCR_GWAS -->
<g id="node5" class="node">
<title>TCR_GWAS</title>
<ellipse fill="#ccebc5" stroke="#ccebc5" cx="1468.9852" cy="-341.3661" rx="58.4896" ry="18"/>
<text text-anchor="middle" x="1468.9852" y="-337.6661" font-family="Times,serif" font-size="14.00" fill="#000000">TCR_GWAS</text>
</g>
<!-- TCR_trimming_motifs -->
<g id="node6" class="node">
<title>TCR_trimming_motifs</title>
<ellipse fill="#ccebc5" stroke="#ccebc5" cx="1589.8825" cy="-18" rx="92.8835" ry="18"/>
<text text-anchor="middle" x="1589.8825" y="-14.3" font-family="Times,serif" font-size="14.00" fill="#000000">TCR_trimming_motifs</text>
</g>
<!-- bito -->
<g id="node7" class="node">
<title>bito</title>
<ellipse fill="#ccebc5" stroke="#ccebc5" cx="493.8069" cy="-428.3825" rx="27" ry="18"/>
<text text-anchor="middle" x="493.8069" y="-424.6825" font-family="Times,serif" font-size="14.00" fill="#000000">bito</text>
</g>
<!-- autodiff_gradients -->
<g id="node8" class="node">
<title>autodiff_gradients</title>
<ellipse fill="#ccebc5" stroke="#ccebc5" cx="486.8991" cy="-227.4184" rx="75.2868" ry="18"/>
<text text-anchor="middle" x="486.8991" y="-223.7184" font-family="Times,serif" font-size="14.00" fill="#000000">autodiff_gradients</text>
</g>
<!-- bito&#45;&#45;autodiff_gradients -->
<g id="edge4" class="edge">
<title>bito&#45;&#45;autodiff_gradients</title>
<path fill="none" stroke="#000000" d="M493.1817,-410.1938C491.8665,-371.9325 488.8275,-283.5194 487.5179,-245.4211"/>
</g>
<!-- phylogenetic_VI -->
<g id="node12" class="node">
<title>phylogenetic_VI</title>
<ellipse fill="#ccebc5" stroke="#ccebc5" cx="293.4486" cy="-408.1747" rx="69.5877" ry="18"/>
<text text-anchor="middle" x="293.4486" y="-404.4747" font-family="Times,serif" font-size="14.00" fill="#000000">phylogenetic_VI</text>
</g>
<!-- bito&#45;&#45;phylogenetic_VI -->
<g id="edge2" class="edge">
<title>bito&#45;&#45;phylogenetic_VI</title>
<path fill="none" stroke="#000000" d="M466.7857,-425.6572C439.1206,-422.8669 395.0889,-418.426 358.3284,-414.7183"/>
</g>
<!-- subsplit_DAG -->
<g id="node14" class="node">
<title>subsplit_DAG</title>
<ellipse fill="#ccebc5" stroke="#ccebc5" cx="644.581" cy="-618.508" rx="61.99" ry="18"/>
<text text-anchor="middle" x="644.581" y="-614.808" font-family="Times,serif" font-size="14.00" fill="#000000">subsplit_DAG</text>
</g>
<!-- bito&#45;&#45;subsplit_DAG -->
<g id="edge5" class="edge">
<title>bito&#45;&#45;subsplit_DAG</title>
<path fill="none" stroke="#000000" d="M506.6618,-444.5925C534.7912,-480.0635 601.6057,-564.3163 630.6731,-600.9702"/>
</g>
<!-- generalized_pruning -->
<g id="node9" class="node">
<title>generalized_pruning</title>
<ellipse fill="#ccebc5" stroke="#ccebc5" cx="636.3677" cy="-417.7537" rx="83.3857" ry="18"/>
<text text-anchor="middle" x="636.3677" y="-414.0537" font-family="Times,serif" font-size="14.00" fill="#000000">generalized_pruning</text>
</g>
<!-- mechanistic_SHM -->
<g id="node10" class="node">
<title>mechanistic_SHM</title>
<ellipse fill="#ccebc5" stroke="#ccebc5" cx="976.3829" cy="-407.7979" rx="77.1866" ry="18"/>
<text text-anchor="middle" x="976.3829" y="-404.0979" font-family="Times,serif" font-size="14.00" fill="#000000">mechanistic_SHM</text>
</g>
<!-- context_sensitive_phylo -->
<g id="node26" class="node">
<title>context_sensitive_phylo</title>
<polygon fill="none" stroke="#000000" points="870.2853,-574.1972 734.2148,-556.1972 870.2853,-538.1972 1006.3559,-556.1972 870.2853,-574.1972"/>
<text text-anchor="middle" x="870.2853" y="-552.4972" font-family="Times,serif" font-size="14.00" fill="#000000">context_sensitive_phylo</text>
</g>
<!-- mechanistic_SHM&#45;&#45;context_sensitive_phylo -->
<g id="edge47" class="edge">
<title>mechanistic_SHM&#45;&#45;context_sensitive_phylo</title>
<path fill="none" stroke="#000000" d="M963.5851,-425.6983C942.862,-454.6839 902.2587,-511.4758 882.1505,-539.6014"/>
</g>
<!-- SHM_across_ages -->
<g id="node28" class="node">
<title>SHM_across_ages</title>
<polygon fill="none" stroke="#000000" points="1040.4215,-223.8299 932.0004,-205.8299 1040.4215,-187.8299 1148.8426,-205.8299 1040.4215,-223.8299"/>
<text text-anchor="middle" x="1040.4215" y="-202.1299" font-family="Times,serif" font-size="14.00" fill="#000000">SHM_across_ages</text>
</g>
<!-- mechanistic_SHM&#45;&#45;SHM_across_ages -->
<g id="edge40" class="edge">
<title>mechanistic_SHM&#45;&#45;SHM_across_ages</title>
<path fill="none" stroke="#000000" d="M982.1789,-389.5184C994.4635,-350.7746 1022.9723,-260.862 1034.958,-223.0611"/>
</g>
<!-- paired_HL -->
<g id="node11" class="node">
<title>paired_HL</title>
<ellipse fill="#ccebc5" stroke="#ccebc5" cx="1325.015" cy="-682.1641" rx="48.9926" ry="18"/>
<text text-anchor="middle" x="1325.015" y="-678.4641" font-family="Times,serif" font-size="14.00" fill="#000000">paired_HL</text>
</g>
<!-- B_cell_CONGA -->
<g id="node25" class="node">
<title>B_cell_CONGA</title>
<polygon fill="none" stroke="#000000" points="1514.5864,-774.0347 1416.3865,-756.0347 1514.5864,-738.0347 1612.7863,-756.0347 1514.5864,-774.0347"/>
<text text-anchor="middle" x="1514.5864" y="-752.3347" font-family="Times,serif" font-size="14.00" fill="#000000">B_cell_CONGA</text>
</g>
<!-- paired_HL&#45;&#45;B_cell_CONGA -->
<g id="edge48" class="edge">
<title>paired_HL&#45;&#45;B_cell_CONGA</title>
<path fill="none" stroke="#000000" d="M1358.9066,-695.3707C1394.0512,-709.0656 1448.5648,-730.308 1482.8798,-743.6796"/>
</g>
<!-- adaptive_MCMC -->
<g id="node39" class="node">
<title>adaptive_MCMC</title>
<polygon fill="none" stroke="#000000" points="103.8648,-453.5763 .1351,-435.5763 103.8648,-417.5763 207.5945,-435.5763 103.8648,-453.5763"/>
<text text-anchor="middle" x="103.8648" y="-431.8763" font-family="Times,serif" font-size="14.00" fill="#000000">adaptive_MCMC</text>
</g>
<!-- phylogenetic_VI&#45;&#45;adaptive_MCMC -->
<g id="edge1" class="edge">
<title>phylogenetic_VI&#45;&#45;adaptive_MCMC</title>
<path fill="none" stroke="#000000" d="M232.6808,-416.9578C209.6117,-420.2921 183.4427,-424.0744 160.7457,-427.355"/>
</g>
<!-- online_phylo_VI -->
<g id="node41" class="node">
<title>online_phylo_VI</title>
<polygon fill="none" stroke="#000000" points="416.6638,-566.0784 316.2872,-548.0784 416.6638,-530.0784 517.0404,-548.0784 416.6638,-566.0784"/>
<text text-anchor="middle" x="416.6638" y="-544.3784" font-family="Times,serif" font-size="14.00" fill="#000000">online_phylo_VI</text>
</g>
<!-- phylogenetic_VI&#45;&#45;online_phylo_VI -->
<g id="edge6" class="edge">
<title>phylogenetic_VI&#45;&#45;online_phylo_VI</title>
<path fill="none" stroke="#000000" d="M309.0539,-425.8936C333.2729,-453.3929 379.5284,-505.9133 402.7036,-532.2274"/>
</g>
<!-- antibody_DMS&#45;&#45;PhIP_seq -->
<g id="edge29" class="edge">
<title>antibody_DMS&#45;&#45;PhIP_seq</title>
<path fill="none" stroke="#000000" d="M898.1284,-1384.5228C880.4685,-1417.7646 842.7594,-1488.7459 825.1388,-1521.914"/>
</g>
<!-- antibody_DMS&#45;&#45;torchdms -->
<g id="edge28" class="edge">
<title>antibody_DMS&#45;&#45;torchdms</title>
<path fill="none" stroke="#000000" d="M863.9578,-1353.0134C842.3145,-1346.2497 816.5181,-1338.1881 796.1325,-1331.8174"/>
</g>
<!-- dms_view2 -->
<g id="node27" class="node">
<title>dms_view2</title>
<polygon fill="none" stroke="#000000" points="1038.901,-1522.3395 965.3358,-1504.3395 1038.901,-1486.3395 1112.4662,-1504.3395 1038.901,-1522.3395"/>
<text text-anchor="middle" x="1038.901" y="-1500.6395" font-family="Times,serif" font-size="14.00" fill="#000000">dms_view2</text>
</g>
<!-- antibody_DMS&#45;&#45;dms_view2 -->
<g id="edge30" class="edge">
<title>antibody_DMS&#45;&#45;dms_view2</title>
<path fill="none" stroke="#000000" d="M924.2461,-1384.0953C950.3267,-1411.4473 1000.3914,-1463.9526 1024.8107,-1489.5623"/>
</g>
<!-- subsplit_DAG&#45;&#45;generalized_pruning -->
<g id="edge9" class="edge">
<title>subsplit_DAG&#45;&#45;generalized_pruning</title>
<path fill="none" stroke="#000000" d="M643.8376,-600.3383C642.2778,-562.2135 638.6787,-474.2419 637.1153,-436.027"/>
</g>
<!-- hillclimber -->
<g id="node19" class="node">
<title>hillclimber</title>
<polygon fill="none" stroke="#000000" points="512.4812,-790.4153 450.7615,-802.853 389.0418,-790.4153 389.0994,-770.2907 512.4236,-770.2907 512.4812,-790.4153"/>
<text text-anchor="middle" x="450.7615" y="-781.153" font-family="Times,serif" font-size="14.00" fill="#000000">hillclimber</text>
</g>
<!-- subsplit_DAG&#45;&#45;hillclimber -->
<g id="edge8" class="edge">
<title>subsplit_DAG&#45;&#45;hillclimber</title>
<path fill="none" stroke="#000000" d="M624.5689,-635.6833C586.3646,-668.4721 503.6602,-739.4529 467.8568,-770.1811"/>
</g>
<!-- Bayesian_subtree_optimality -->
<g id="node30" class="node">
<title>Bayesian_subtree_optimality</title>
<polygon fill="none" stroke="#000000" points="694.2227,-479.7583 533.5175,-461.7583 694.2227,-443.7583 854.9279,-461.7583 694.2227,-479.7583"/>
<text text-anchor="middle" x="694.2227" y="-458.0583" font-family="Times,serif" font-size="14.00" fill="#000000">Bayesian_subtree_optimality</text>
</g>
<!-- subsplit_DAG&#45;&#45;Bayesian_subtree_optimality -->
<g id="edge13" class="edge">
<title>subsplit_DAG&#45;&#45;Bayesian_subtree_optimality</title>
<path fill="none" stroke="#000000" d="M650.2755,-600.5268C659.8512,-570.2903 679.0636,-509.6249 688.5946,-479.5298"/>
</g>
<!-- fasdag -->
<g id="node32" class="node">
<title>fasdag</title>
<polygon fill="none" stroke="#000000" points="572.7461,-554.9105 525.1529,-536.9105 572.7461,-518.9105 620.3393,-536.9105 572.7461,-554.9105"/>
<text text-anchor="middle" x="572.7461" y="-533.2105" font-family="Times,serif" font-size="14.00" fill="#000000">fasdag</text>
</g>
<!-- subsplit_DAG&#45;&#45;fasdag -->
<g id="edge14" class="edge">
<title>subsplit_DAG&#45;&#45;fasdag</title>
<path fill="none" stroke="#000000" d="M628.9939,-600.8026C615.7068,-585.7098 596.8851,-564.3301 584.7456,-550.5408"/>
</g>
<!-- local_EM -->
<g id="node37" class="node">
<title>local_EM</title>
<polygon fill="none" stroke="#000000" points="586.0753,-765.6137 521.0541,-747.6137 586.0753,-729.6137 651.0965,-747.6137 586.0753,-765.6137"/>
<text text-anchor="middle" x="586.0753" y="-743.9137" font-family="Times,serif" font-size="14.00" fill="#000000">local_EM</text>
</g>
<!-- subsplit_DAG&#45;&#45;local_EM -->
<g id="edge10" class="edge">
<title>subsplit_DAG&#45;&#45;local_EM</title>
<path fill="none" stroke="#000000" d="M636.446,-636.4596C625.0172,-661.6799 604.3797,-707.2209 593.4037,-731.442"/>
</g>
<!-- how_big_of_sDAG -->
<g id="node40" class="node">
<title>how_big_of_sDAG</title>
<polygon fill="none" stroke="#000000" points="435.703,-721.5898 322.5903,-703.5898 435.703,-685.5898 548.8157,-703.5898 435.703,-721.5898"/>
<text text-anchor="middle" x="435.703" y="-699.8898" font-family="Times,serif" font-size="14.00" fill="#000000">how_big_of_sDAG</text>
</g>
<!-- subsplit_DAG&#45;&#45;how_big_of_sDAG -->
<g id="edge12" class="edge">
<title>subsplit_DAG&#45;&#45;how_big_of_sDAG</title>
<path fill="none" stroke="#000000" d="M608.1972,-633.3281C568.4564,-649.5156 505.43,-675.188 467.5691,-690.6099"/>
</g>
<!-- subsplit_DAG&#45;&#45;online_phylo_VI -->
<g id="edge7" class="edge">
<title>subsplit_DAG&#45;&#45;online_phylo_VI</title>
<path fill="none" stroke="#000000" d="M601.9789,-605.3433C559.3319,-592.1648 494.3752,-572.0923 453.7785,-559.5473"/>
</g>
<!-- Bayesian_histories -->
<g id="node44" class="node">
<title>Bayesian_histories</title>
<polygon fill="none" stroke="#000000" points="918.2382,-728.7436 799.2382,-728.7436 799.2382,-692.7436 918.2382,-692.7436 918.2382,-728.7436"/>
<text text-anchor="middle" x="858.7382" y="-707.0436" font-family="Times,serif" font-size="14.00" fill="#000000">Bayesian_histories</text>
</g>
<!-- subsplit_DAG&#45;&#45;Bayesian_histories -->
<g id="edge11" class="edge">
<title>subsplit_DAG&#45;&#45;Bayesian_histories</title>
<path fill="none" stroke="#000000" d="M679.4657,-633.5325C717.0376,-649.7144 776.8064,-675.4563 816.8834,-692.7171"/>
</g>
<!-- transport -->
<g id="node16" class="node">
<title>transport</title>
<ellipse fill="#ccebc5" stroke="#ccebc5" cx="1803.3204" cy="-289.392" rx="42.4939" ry="18"/>
<text text-anchor="middle" x="1803.3204" y="-285.692" font-family="Times,serif" font-size="14.00" fill="#000000">transport</text>
</g>
<!-- VI_diagnostics -->
<g id="node17" class="node">
<title>VI_diagnostics</title>
<ellipse fill="#ccebc5" stroke="#ccebc5" cx="202.9248" cy="-239.5647" rx="63.8893" ry="18"/>
<text text-anchor="middle" x="202.9248" y="-235.8647" font-family="Times,serif" font-size="14.00" fill="#000000">VI_diagnostics</text>
</g>
<!-- VI_diagnostics&#45;&#45;phylogenetic_VI -->
<g id="edge3" class="edge">
<title>VI_diagnostics&#45;&#45;phylogenetic_VI</title>
<path fill="none" stroke="#000000" d="M212.6124,-257.6089C230.0357,-290.0616 266.4581,-357.9021 283.8306,-390.2602"/>
</g>
<!-- CFT -->
<g id="node18" class="node">
<title>CFT</title>
<polygon fill="none" stroke="#000000" points="1248.0288,-808.4668 1215.1522,-820.9045 1182.2755,-808.4668 1182.3061,-788.3422 1247.9982,-788.3422 1248.0288,-808.4668"/>
<text text-anchor="middle" x="1215.1522" y="-799.2045" font-family="Times,serif" font-size="14.00" fill="#000000">CFT</text>
</g>
<!-- olmsted -->
<g id="node20" class="node">
<title>olmsted</title>
<polygon fill="none" stroke="#000000" points="1454.1243,-924.2168 1405.7187,-936.6544 1357.3131,-924.2168 1357.3583,-904.0921 1454.0792,-904.0921 1454.1243,-924.2168"/>
<text text-anchor="middle" x="1405.7187" y="-914.9544" font-family="Times,serif" font-size="14.00" fill="#000000">olmsted</text>
</g>
<!-- CFT&#45;&#45;olmsted -->
<g id="edge38" class="edge">
<title>CFT&#45;&#45;olmsted</title>
<path fill="none" stroke="#000000" d="M1233.4245,-814.0031C1267.9864,-834.9959 1342.9251,-880.5137 1381.5788,-903.9919"/>
</g>
<!-- find_posterior_modes -->
<g id="node33" class="node">
<title>find_posterior_modes</title>
<polygon fill="none" stroke="#000000" points="284.3161,-849.7964 159.3053,-831.7964 284.3161,-813.7964 409.3268,-831.7964 284.3161,-849.7964"/>
<text text-anchor="middle" x="284.3161" y="-828.0964" font-family="Times,serif" font-size="14.00" fill="#000000">find_posterior_modes</text>
</g>
<!-- hillclimber&#45;&#45;find_posterior_modes -->
<g id="edge15" class="edge">
<title>hillclimber&#45;&#45;find_posterior_modes</title>
<path fill="none" stroke="#000000" d="M413.4079,-795.3881C387.7209,-802.6327 353.5555,-812.2685 326.8255,-819.8073"/>
</g>
<!-- BCR_GWAS -->
<g id="node21" class="node">
<title>BCR_GWAS</title>
<polygon fill="none" stroke="#000000" points="1403.365,-489.5385 1319.5781,-471.5385 1403.365,-453.5385 1487.1519,-471.5385 1403.365,-489.5385"/>
<text text-anchor="middle" x="1403.365" y="-467.8385" font-family="Times,serif" font-size="14.00" fill="#000000">BCR_GWAS</text>
</g>
<!-- BCR_GWAS&#45;&#45;TCR_GWAS -->
<g id="edge42" class="edge">
<title>BCR_GWAS&#45;&#45;TCR_GWAS</title>
<path fill="none" stroke="#000000" d="M1411.6758,-455.052C1424.0223,-430.5601 1447.1219,-384.7368 1459.9008,-359.3869"/>
</g>
<!-- BCR_indels -->
<g id="node22" class="node">
<title>BCR_indels</title>
<polygon fill="none" stroke="#000000" points="1014.9504,-513.8293 938.8697,-495.8293 1014.9504,-477.8293 1091.031,-495.8293 1014.9504,-513.8293"/>
<text text-anchor="middle" x="1014.9504" y="-492.1293" font-family="Times,serif" font-size="14.00" fill="#000000">BCR_indels</text>
</g>
<!-- BCR_selection_analysis -->
<g id="node23" class="node">
<title>BCR_selection_analysis</title>
<polygon fill="none" stroke="#000000" points="1145.6757,-744.2083 1008.7669,-726.2083 1145.6757,-708.2083 1282.5846,-726.2083 1145.6757,-744.2083"/>
<text text-anchor="middle" x="1145.6757" y="-722.5083" font-family="Times,serif" font-size="14.00" fill="#000000">BCR_selection_analysis</text>
</g>
<!-- BCR_trajectories -->
<g id="node24" class="node">
<title>BCR_trajectories</title>
<polygon fill="none" stroke="#000000" points="1250.3794,-606.6315 1149.1647,-588.6315 1250.3794,-570.6315 1351.5941,-588.6315 1250.3794,-606.6315"/>
<text text-anchor="middle" x="1250.3794" y="-584.9315" font-family="Times,serif" font-size="14.00" fill="#000000">BCR_trajectories</text>
</g>
<!-- linearham_empirical_uncertainty -->
<g id="node29" class="node">
<title>linearham_empirical_uncertainty</title>
<polygon fill="none" stroke="#000000" points="1130.512,-469.8023 949.364,-451.8023 1130.512,-433.8023 1311.66,-451.8023 1130.512,-469.8023"/>
<text text-anchor="middle" x="1130.512" y="-448.1023" font-family="Times,serif" font-size="14.00" fill="#000000">linearham_empirical_uncertainty</text>
</g>
<!-- SARS2_parsimony_plateau -->
<g id="node31" class="node">
<title>SARS2_parsimony_plateau</title>
<polygon fill="none" stroke="#000000" points="872.9759,-861.8059 719.4773,-843.8059 872.9759,-825.8059 1026.4744,-843.8059 872.9759,-861.8059"/>
<text text-anchor="middle" x="872.9759" y="-840.1059" font-family="Times,serif" font-size="14.00" fill="#000000">SARS2_parsimony_plateau</text>
</g>
<!-- help_PANGO -->
<g id="node34" class="node">
<title>help_PANGO</title>
<polygon fill="none" stroke="#000000" points="763.4736,-782.8986 678.0104,-764.8986 763.4736,-746.8986 848.9369,-764.8986 763.4736,-782.8986"/>
<text text-anchor="middle" x="763.4736" y="-761.1986" font-family="Times,serif" font-size="14.00" fill="#000000">help_PANGO</text>
</g>
<!-- big_tree_likelihoods -->
<g id="node35" class="node">
<title>big_tree_likelihoods</title>
<polygon fill="none" stroke="#000000" points="974.6887,-817.7927 856.8842,-799.7927 974.6887,-781.7927 1092.4931,-799.7927 974.6887,-817.7927"/>
<text text-anchor="middle" x="974.6887" y="-796.0927" font-family="Times,serif" font-size="14.00" fill="#000000">big_tree_likelihoods</text>
</g>
<!-- fast_TreeTime -->
<g id="node38" class="node">
<title>fast_TreeTime</title>
<polygon fill="none" stroke="#000000" points="739.6853,-905.8208 650.3685,-887.8208 739.6853,-869.8208 829.0021,-887.8208 739.6853,-905.8208"/>
<text text-anchor="middle" x="739.6853" y="-884.1208" font-family="Times,serif" font-size="14.00" fill="#000000">fast_TreeTime</text>
</g>
<!-- polytomy_resolution -->
<g id="node42" class="node">
<title>polytomy_resolution</title>
<polygon fill="none" stroke="#000000" points="630.0671,-1065.5579 510.5863,-1047.5579 630.0671,-1029.5579 749.548,-1047.5579 630.0671,-1065.5579"/>
<text text-anchor="middle" x="630.0671" y="-1043.8579" font-family="Times,serif" font-size="14.00" fill="#000000">polytomy_resolution</text>
</g>
<!-- fast_TreeTime&#45;&#45;polytomy_resolution -->
<g id="edge23" class="edge">
<title>fast_TreeTime&#45;&#45;polytomy_resolution</title>
<path fill="none" stroke="#000000" d="M728.7739,-903.721C707.979,-934.0237 662.8539,-999.7806 641.591,-1030.7651"/>
</g>
<!-- how_big_of_sDAG&#45;&#45;find_posterior_modes -->
<g id="edge16" class="edge">
<title>how_big_of_sDAG&#45;&#45;find_posterior_modes</title>
<path fill="none" stroke="#000000" d="M417.7424,-718.8002C388.7633,-743.3421 331.9886,-791.4235 302.7254,-816.2059"/>
</g>
<!-- BCR_analysis -->
<g id="node43" class="node">
<title>BCR_analysis</title>
<polygon fill="none" stroke="#000000" points="1118.5855,-640.646 1024.5855,-640.646 1024.5855,-604.646 1118.5855,-604.646 1118.5855,-640.646"/>
<text text-anchor="middle" x="1071.5855" y="-618.946" font-family="Times,serif" font-size="14.00" fill="#000000">BCR_analysis</text>
</g>
<!-- BCR_analysis&#45;&#45;mechanistic_SHM -->
<g id="edge39" class="edge">
<title>BCR_analysis&#45;&#45;mechanistic_SHM</title>
<path fill="none" stroke="#000000" d="M1063.4686,-604.3282C1045.4372,-563.6359 1002.2313,-466.1312 984.345,-425.7663"/>
</g>
<!-- BCR_analysis&#45;&#45;paired_HL -->
<g id="edge35" class="edge">
<title>BCR_analysis&#45;&#45;paired_HL</title>
<path fill="none" stroke="#000000" d="M1118.6597,-633.7014C1166.0405,-644.8288 1238.404,-661.8235 1283.6459,-672.4485"/>
</g>
<!-- BCR_analysis&#45;&#45;CFT -->
<g id="edge36" class="edge">
<title>BCR_analysis&#45;&#45;CFT</title>
<path fill="none" stroke="#000000" d="M1086.1415,-640.9221C1114.6562,-676.7244 1177.3585,-755.4518 1203.4263,-788.1819"/>
</g>
<!-- BCR_analysis&#45;&#45;BCR_GWAS -->
<g id="edge41" class="edge">
<title>BCR_analysis&#45;&#45;BCR_GWAS</title>
<path fill="none" stroke="#000000" d="M1111.2763,-604.569C1179.561,-573.469 1317.5637,-510.6163 1376.1122,-483.9506"/>
</g>
<!-- BCR_analysis&#45;&#45;BCR_indels -->
<g id="edge33" class="edge">
<title>BCR_analysis&#45;&#45;BCR_indels</title>
<path fill="none" stroke="#000000" d="M1063.4711,-604.4763C1052.4601,-579.8205 1032.9454,-536.1235 1022.329,-512.3514"/>
</g>
<!-- BCR_analysis&#45;&#45;BCR_selection_analysis -->
<g id="edge31" class="edge">
<title>BCR_analysis&#45;&#45;BCR_selection_analysis</title>
<path fill="none" stroke="#000000" d="M1084.491,-640.6852C1098.4215,-660.157 1120.4183,-690.9038 1133.895,-709.7413"/>
</g>
<!-- BCR_analysis&#45;&#45;BCR_trajectories -->
<g id="edge32" class="edge">
<title>BCR_analysis&#45;&#45;BCR_trajectories</title>
<path fill="none" stroke="#000000" d="M1119.0296,-613.62C1144.4793,-608.7784 1175.7956,-602.8206 1201.4659,-597.937"/>
</g>
<!-- BCR_analysis&#45;&#45;linearham_empirical_uncertainty -->
<g id="edge37" class="edge">
<title>BCR_analysis&#45;&#45;linearham_empirical_uncertainty</title>
<path fill="none" stroke="#000000" d="M1077.8917,-604.3627C1089.2928,-571.308 1113.1912,-502.0201 1124.4278,-469.4421"/>
</g>
<!-- BCR_analysis&#45;&#45;Bayesian_histories -->
<g id="edge34" class="edge">
<title>BCR_analysis&#45;&#45;Bayesian_histories</title>
<path fill="none" stroke="#000000" d="M1027.9991,-640.6865C991.2687,-655.8892 938.9802,-677.5314 902.2664,-692.7273"/>
</g>
<!-- Bayesian_histories&#45;&#45;Bayesian_GCtree -->
<g id="edge18" class="edge">
<title>Bayesian_histories&#45;&#45;Bayesian_GCtree</title>
<path fill="none" stroke="#000000" d="M861.391,-729.1372C868.1968,-776.3266 886.2165,-901.2699 892.9958,-948.2757"/>
</g>
<!-- Bayesian_histories&#45;&#45;context_sensitive_phylo -->
<g id="edge17" class="edge">
<title>Bayesian_histories&#45;&#45;context_sensitive_phylo</title>
<path fill="none" stroke="#000000" d="M860.0854,-692.7127C862.3104,-662.9332 866.7274,-603.8171 868.9467,-574.1132"/>
</g>
<!-- Bayesian_histories&#45;&#45;SARS2_parsimony_plateau -->
<g id="edge19" class="edge">
<title>Bayesian_histories&#45;&#45;SARS2_parsimony_plateau</title>
<path fill="none" stroke="#000000" d="M860.688,-728.9663C863.4145,-754.4476 868.3358,-800.4408 871.0496,-825.8033"/>
</g>
<!-- Bayesian_histories&#45;&#45;help_PANGO -->
<g id="edge20" class="edge">
<title>Bayesian_histories&#45;&#45;help_PANGO</title>
<path fill="none" stroke="#000000" d="M827.0165,-728.7764C813.8097,-736.2841 798.7593,-744.8398 786.6219,-751.7395"/>
</g>
<!-- Bayesian_histories&#45;&#45;big_tree_likelihoods -->
<g id="edge22" class="edge">
<title>Bayesian_histories&#45;&#45;big_tree_likelihoods</title>
<path fill="none" stroke="#000000" d="M882.2025,-728.764C903.6429,-745.2301 934.984,-769.2998 955.1094,-784.756"/>
</g>
<!-- Bayesian_histories&#45;&#45;fast_TreeTime -->
<g id="edge21" class="edge">
<title>Bayesian_histories&#45;&#45;fast_TreeTime</title>
<path fill="none" stroke="#000000" d="M846.4459,-729.027C823.0384,-763.8429 772.4352,-839.1092 750.3536,-871.953"/>
</g>
<!-- TCR_analysis -->
<g id="node45" class="node">
<title>TCR_analysis</title>
<polygon fill="none" stroke="#000000" points="1654.5393,-239.8133 1561.5393,-239.8133 1561.5393,-203.8133 1654.5393,-203.8133 1654.5393,-239.8133"/>
<text text-anchor="middle" x="1608.0393" y="-218.1133" font-family="Times,serif" font-size="14.00" fill="#000000">TCR_analysis</text>
</g>
<!-- TCR_analysis&#45;&#45;HLA_effects -->
<g id="edge44" class="edge">
<title>TCR_analysis&#45;&#45;HLA_effects</title>
<path fill="none" stroke="#000000" d="M1631.858,-203.6046C1658.3037,-183.3877 1700.6442,-151.0197 1726.3681,-131.3545"/>
</g>
<!-- TCR_analysis&#45;&#45;TCR_GWAS -->
<g id="edge43" class="edge">
<title>TCR_analysis&#45;&#45;TCR_GWAS</title>
<path fill="none" stroke="#000000" d="M1586.92,-239.9708C1560.3282,-262.8333 1514.9814,-301.8205 1488.9476,-324.2033"/>
</g>
<!-- TCR_analysis&#45;&#45;TCR_trimming_motifs -->
<g id="edge46" class="edge">
<title>TCR_analysis&#45;&#45;TCR_trimming_motifs</title>
<path fill="none" stroke="#000000" d="M1606.428,-203.7262C1602.9825,-165.0492 1594.9326,-74.6875 1591.4902,-36.0465"/>
</g>
<!-- TCR_analysis&#45;&#45;transport -->
<g id="edge45" class="edge">
<title>TCR_analysis&#45;&#45;transport</title>
<path fill="none" stroke="#000000" d="M1654.814,-238.0001C1690.4703,-250.3393 1738.6825,-267.0235 1770.3697,-277.9891"/>
</g>
<!-- train_awesome_researchers -->
<g id="node46" class="node">
<title>train_awesome_researchers</title>
<polygon fill="none" stroke="#000000" points="1809.3176,-1334.9645 1642.2367,-1334.9645 1590.6058,-1493.7196 1538.975,-1334.9645 1371.8941,-1334.9645 1507.0654,-1236.8485 1455.4346,-1078.0935 1590.6058,-1176.2095 1725.7771,-1078.0935 1674.1463,-1236.8485 1809.3176,-1334.9645"/>
<text text-anchor="middle" x="1590.6058" y="-1282.2065" font-family="Times,serif" font-size="14.00" fill="#000000">train_awesome_researchers</text>
</g>
<!-- diversify_comp_bio -->
<g id="node47" class="node">
<title>diversify_comp_bio</title>
<polygon fill="none" stroke="#000000" points="623.8084,-1565.8619 497.8572,-1565.8619 458.9361,-1685.5909 420.0151,-1565.8619 294.0638,-1565.8619 395.9605,-1491.8653 357.0395,-1372.1363 458.9361,-1446.1329 560.8328,-1372.1363 521.9118,-1491.8653 623.8084,-1565.8619"/>
<text text-anchor="middle" x="458.9361" y="-1525.1636" font-family="Times,serif" font-size="14.00" fill="#000000">diversify_comp_bio</text>
</g>
<!-- eradicate_disease -->
<g id="node48" class="node">
<title>eradicate_disease</title>
<polygon fill="none" stroke="#000000" points="388.4029,-1150.8562 277.5548,-1150.8562 243.3009,-1256.5683 209.0469,-1150.8562 98.1988,-1150.8562 187.8768,-1085.5225 153.6229,-979.8104 243.3009,-1045.1441 332.9789,-979.8104 298.7249,-1085.5225 388.4029,-1150.8562"/>
<text text-anchor="middle" x="243.3009" y="-1114.4894" font-family="Times,serif" font-size="14.00" fill="#000000">eradicate_disease</text>
</g>
</g>
</svg>
