<?xml version="1.0" encoding="UTF-8" standalone="no"?>
<!DOCTYPE svg PUBLIC "-//W3C//DTD SVG 1.1//EN"
 "http://www.w3.org/Graphics/SVG/1.1/DTD/svg11.dtd">
<!-- Generated by graphviz version 2.40.1 (20161225.0304)
 -->
<!-- Title: %3 Pages: 1 -->
<svg width="2285pt" height="1919pt"
 viewBox="0.00 0.00 2285.21 1918.81" xmlns="http://www.w3.org/2000/svg" xmlns:xlink="http://www.w3.org/1999/xlink">
<g id="graph0" class="graph" transform="scale(1 1) rotate(0) translate(4 1914.813)">
<title>%3</title>
<polygon fill="#ffffff" stroke="transparent" points="-4,4 -4,-1914.813 2281.2117,-1914.813 2281.2117,4 -4,4"/>
<!-- Bayesian_GCtree -->
<g id="node1" class="node">
<title>Bayesian_GCtree</title>
<g id="a_node1"><a xlink:title="Do posterior estimation using Will&#39;s GCtree framework.">
<ellipse fill="#ccebc5" stroke="#ccebc5" cx="1200.3751" cy="-1043.1877" rx="72.5877" ry="18"/>
<text text-anchor="middle" x="1200.3751" y="-1039.4877" font-family="Times,serif" font-size="14.00" fill="#000000">Bayesian_GCtree</text>
</a>
</g>
</g>
<!-- GCreplay -->
<g id="node2" class="node">
<title>GCreplay</title>
<g id="a_node2"><a xlink:title="A big collaboration with the Victora and Bloom labs to understand GC maturation with replicate samples.">
<ellipse fill="#ccebc5" stroke="#ccebc5" cx="1122.8908" cy="-1353.785" rx="44.6926" ry="18"/>
<text text-anchor="middle" x="1122.8908" y="-1350.085" font-family="Times,serif" font-size="14.00" fill="#000000">GCreplay</text>
</a>
</g>
</g>
<!-- Bayesian_GCtree&#45;&#45;GCreplay -->
<g id="edge25" class="edge">
<title>Bayesian_GCtree&#45;&#45;GCreplay</title>
<path fill="none" stroke="#000000" d="M1195.8743,-1061.2292C1182.1796,-1116.1249 1141.1153,-1280.7317 1127.404,-1335.6936"/>
</g>
<!-- GCtree_with_heritable -->
<g id="node38" class="node">
<title>GCtree_with_heritable</title>
<g id="a_node38"><a xlink:title="GCtree operates under the assumption of a neutral branching process, the parameters of which do not change through the tree. Can we extend this to a process with a heritable component?">
<polygon fill="none" stroke="#000000" points="1015.5259,-1241.7432 886.6616,-1223.7432 1015.5259,-1205.7432 1144.3902,-1223.7432 1015.5259,-1241.7432"/>
<text text-anchor="middle" x="1015.5259" y="-1220.0432" font-family="Times,serif" font-size="14.00" fill="#000000">GCtree_with_heritable</text>
</a>
</g>
</g>
<!-- Bayesian_GCtree&#45;&#45;GCtree_with_heritable -->
<g id="edge26" class="edge">
<title>Bayesian_GCtree&#45;&#45;GCtree_with_heritable</title>
<path fill="none" stroke="#000000" d="M1182.3144,-1060.8289C1146.3396,-1095.968 1066.2395,-1174.2076 1031.7907,-1207.8562"/>
</g>
<!-- antibody_DMS -->
<g id="node14" class="node">
<title>antibody_DMS</title>
<g id="a_node14"><a xlink:title="What can we learn from deep mutational scanning on antibodies?">
<ellipse fill="#ccebc5" stroke="#ccebc5" cx="999.0726" cy="-1602.6466" rx="65.7887" ry="18"/>
<text text-anchor="middle" x="999.0726" y="-1598.9466" font-family="Times,serif" font-size="14.00" fill="#000000">antibody_DMS</text>
</a>
</g>
</g>
<!-- GCreplay&#45;&#45;antibody_DMS -->
<g id="edge28" class="edge">
<title>GCreplay&#45;&#45;antibody_DMS</title>
<path fill="none" stroke="#000000" d="M1113.9861,-1371.6825C1091.1961,-1417.4879 1030.9465,-1538.5834 1008.0629,-1584.5769"/>
</g>
<!-- torchdms -->
<g id="node17" class="node">
<title>torchdms</title>
<g id="a_node17"><a xlink:title="Develop a DMS analysis package using a modern machine&#45;learning library.">
<ellipse fill="#ccebc5" stroke="#ccebc5" cx="1191.4619" cy="-1584.0899" rx="44.393" ry="18"/>
<text text-anchor="middle" x="1191.4619" y="-1580.3899" font-family="Times,serif" font-size="14.00" fill="#000000">torchdms</text>
</a>
</g>
</g>
<!-- GCreplay&#45;&#45;torchdms -->
<g id="edge27" class="edge">
<title>GCreplay&#45;&#45;torchdms</title>
<path fill="none" stroke="#000000" d="M1128.2714,-1371.8566C1141.0898,-1414.9087 1173.3132,-1523.135 1186.1063,-1566.1022"/>
</g>
<!-- HLA_effects -->
<g id="node3" class="node">
<title>HLA_effects</title>
<g id="a_node3"><a xlink:title="Assya&#39;s project understanding the effects of HLA on repertoire.">
<ellipse fill="#ccebc5" stroke="#ccebc5" cx="2138.8878" cy="-577.233" rx="56.59" ry="18"/>
<text text-anchor="middle" x="2138.8878" y="-573.533" font-family="Times,serif" font-size="14.00" fill="#000000">HLA_effects</text>
</a>
</g>
</g>
<!-- PhIP_seq -->
<g id="node4" class="node">
<title>PhIP_seq</title>
<g id="a_node4"><a xlink:title="Develop statistics and software tools for PhIP&#45;seq analyses.">
<ellipse fill="#ccebc5" stroke="#ccebc5" cx="807.9159" cy="-1770.8514" rx="44.393" ry="18"/>
<text text-anchor="middle" x="807.9159" y="-1767.1514" font-family="Times,serif" font-size="14.00" fill="#000000">PhIP_seq</text>
</a>
</g>
</g>
<!-- TCR_GWAS -->
<g id="node5" class="node">
<title>TCR_GWAS</title>
<g id="a_node5"><a xlink:title="GWAS to infer TCR&#45;repertoire features.">
<ellipse fill="#ccebc5" stroke="#ccebc5" cx="1905.9023" cy="-708.9145" rx="58.4896" ry="18"/>
<text text-anchor="middle" x="1905.9023" y="-705.2145" font-family="Times,serif" font-size="14.00" fill="#000000">TCR_GWAS</text>
</a>
</g>
</g>
<!-- TCR_trimming_motifs -->
<g id="node6" class="node">
<title>TCR_trimming_motifs</title>
<g id="a_node6"><a xlink:title="What sequence&#45;level features determine trimming of TCRs in VDJ recombination?">
<ellipse fill="#ccebc5" stroke="#ccebc5" cx="2059.5169" cy="-371.7883" rx="92.8835" ry="18"/>
<text text-anchor="middle" x="2059.5169" y="-368.0883" font-family="Times,serif" font-size="14.00" fill="#000000">TCR_trimming_motifs</text>
</a>
</g>
</g>
<!-- bito -->
<g id="node7" class="node">
<title>bito</title>
<g id="a_node7"><a xlink:title="Bayesian Inference of Trees via Optimization: a C++/python package">
<ellipse fill="#ccebc5" stroke="#ccebc5" cx="593.8002" cy="-377.975" rx="27" ry="18"/>
<text text-anchor="middle" x="593.8002" y="-374.275" font-family="Times,serif" font-size="14.00" fill="#000000">bito</text>
</a>
</g>
</g>
<!-- autodiff_gradients -->
<g id="node8" class="node">
<title>autodiff_gradients</title>
<g id="a_node8"><a xlink:title="How fast is autodiff for phylogenetically&#45;relevant gradients?">
<ellipse fill="#ccebc5" stroke="#ccebc5" cx="537.2514" cy="-115.0651" rx="75.2868" ry="18"/>
<text text-anchor="middle" x="537.2514" y="-111.3651" font-family="Times,serif" font-size="14.00" fill="#000000">autodiff_gradients</text>
</a>
</g>
</g>
<!-- bito&#45;&#45;autodiff_gradients -->
<g id="edge4" class="edge">
<title>bito&#45;&#45;autodiff_gradients</title>
<path fill="none" stroke="#000000" d="M589.9134,-359.9042C579.5828,-311.8747 551.527,-181.4362 541.1654,-133.2624"/>
</g>
<!-- phylogenetic_VI -->
<g id="node13" class="node">
<title>phylogenetic_VI</title>
<g id="a_node13"><a xlink:title="Do variational inference of continuous parameters in phylogenetics.">
<ellipse fill="#ccebc5" stroke="#ccebc5" cx="311.109" cy="-410.2181" rx="69.5877" ry="18"/>
<text text-anchor="middle" x="311.109" y="-406.5181" font-family="Times,serif" font-size="14.00" fill="#000000">phylogenetic_VI</text>
</a>
</g>
</g>
<!-- bito&#45;&#45;phylogenetic_VI -->
<g id="edge2" class="edge">
<title>bito&#45;&#45;phylogenetic_VI</title>
<path fill="none" stroke="#000000" d="M566.9505,-381.0375C523.1922,-386.0284 435.3218,-396.0507 374.8757,-402.945"/>
</g>
<!-- subsplit_DAG -->
<g id="node16" class="node">
<title>subsplit_DAG</title>
<g id="a_node16"><a xlink:title="Formalize definitions of and basic lemmas for the subsplit DAG.">
<ellipse fill="#ccebc5" stroke="#ccebc5" cx="886.3381" cy="-558.0533" rx="61.99" ry="18"/>
<text text-anchor="middle" x="886.3381" y="-554.3533" font-family="Times,serif" font-size="14.00" fill="#000000">subsplit_DAG</text>
</a>
</g>
</g>
<!-- bito&#45;&#45;subsplit_DAG -->
<g id="edge5" class="edge">
<title>bito&#45;&#45;subsplit_DAG</title>
<path fill="none" stroke="#000000" d="M613.9075,-390.3526C665.2842,-421.9786 801.406,-505.7714 859.4757,-541.5175"/>
</g>
<!-- generalized_pruning -->
<g id="node9" class="node">
<title>generalized_pruning</title>
<g id="a_node9"><a xlink:title="Generalization of the Felsenstein pruning algorithm to the subsplit DAG.">
<ellipse fill="#ccebc5" stroke="#ccebc5" cx="1041.897" cy="-401.5396" rx="83.3857" ry="18"/>
<text text-anchor="middle" x="1041.897" y="-397.8396" font-family="Times,serif" font-size="14.00" fill="#000000">generalized_pruning</text>
</a>
</g>
</g>
<!-- linearham_empirical_uncertainty -->
<g id="node10" class="node">
<title>linearham_empirical_uncertainty</title>
<g id="a_node10"><a xlink:title="linearham is our Bayesian method for doing inference of BCR lineage evolution. If we apply it to well&#45;known data sets from the literature, how much uncertainty is there in ancestral sequence inference?">
<ellipse fill="#ccebc5" stroke="#ccebc5" cx="1388.4553" cy="-593.4678" rx="128.0773" ry="18"/>
<text text-anchor="middle" x="1388.4553" y="-589.7678" font-family="Times,serif" font-size="14.00" fill="#000000">linearham_empirical_uncertainty</text>
</a>
</g>
</g>
<!-- mechanistic_SHM -->
<g id="node11" class="node">
<title>mechanistic_SHM</title>
<g id="a_node11"><a xlink:title="Design and fit mechanistically&#45;based probabilistic models of the somatic hypermutation process.">
<ellipse fill="#ccebc5" stroke="#ccebc5" cx="1346.0246" cy="-1117.2394" rx="77.1866" ry="18"/>
<text text-anchor="middle" x="1346.0246" y="-1113.5394" font-family="Times,serif" font-size="14.00" fill="#000000">mechanistic_SHM</text>
</a>
</g>
</g>
<!-- context_sensitive_phylo -->
<g id="node29" class="node">
<title>context_sensitive_phylo</title>
<g id="a_node29"><a xlink:title="Develop phyogenetic methods that enable inference under context&#45;sensitive models.">
<polygon fill="none" stroke="#000000" points="1039.6962,-1017.0173 903.6256,-999.0173 1039.6962,-981.0173 1175.7667,-999.0173 1039.6962,-1017.0173"/>
<text text-anchor="middle" x="1039.6962" y="-995.3173" font-family="Times,serif" font-size="14.00" fill="#000000">context_sensitive_phylo</text>
</a>
</g>
</g>
<!-- mechanistic_SHM&#45;&#45;context_sensitive_phylo -->
<g id="edge52" class="edge">
<title>mechanistic_SHM&#45;&#45;context_sensitive_phylo</title>
<path fill="none" stroke="#000000" d="M1305.9775,-1101.7839C1245.486,-1078.4383 1131.8077,-1034.5661 1074.5424,-1012.4656"/>
</g>
<!-- SHM_across_ages -->
<g id="node31" class="node">
<title>SHM_across_ages</title>
<g id="a_node31"><a xlink:title="Perform a detailed investigation of how SHM changes as people age.">
<polygon fill="none" stroke="#000000" points="1501.5328,-1393.7495 1393.1117,-1375.7495 1501.5328,-1357.7495 1609.9539,-1375.7495 1501.5328,-1393.7495"/>
<text text-anchor="middle" x="1501.5328" y="-1372.0495" font-family="Times,serif" font-size="14.00" fill="#000000">SHM_across_ages</text>
</a>
</g>
</g>
<!-- mechanistic_SHM&#45;&#45;SHM_across_ages -->
<g id="edge44" class="edge">
<title>mechanistic_SHM&#45;&#45;SHM_across_ages</title>
<path fill="none" stroke="#000000" d="M1356.9596,-1135.4173C1385.8579,-1183.4566 1463.9315,-1313.2428 1491.6251,-1359.2794"/>
</g>
<!-- paired_HL -->
<g id="node12" class="node">
<title>paired_HL</title>
<g id="a_node12"><a xlink:title="Perform clonal family inference with paired heavy and light chain sequences.">
<ellipse fill="#ccebc5" stroke="#ccebc5" cx="1650.8008" cy="-995.6071" rx="48.9926" ry="18"/>
<text text-anchor="middle" x="1650.8008" y="-991.9071" font-family="Times,serif" font-size="14.00" fill="#000000">paired_HL</text>
</a>
</g>
</g>
<!-- B_cell_CONGA -->
<g id="node28" class="node">
<title>B_cell_CONGA</title>
<g id="a_node28"><a xlink:title="Adapt CONGA (https://paperpile.com/shared/w2jo9E) for BCR sequences.">
<polygon fill="none" stroke="#000000" points="1888.0717,-1133.6841 1789.8718,-1115.6841 1888.0717,-1097.6841 1986.2716,-1115.6841 1888.0717,-1133.6841"/>
<text text-anchor="middle" x="1888.0717" y="-1111.9841" font-family="Times,serif" font-size="14.00" fill="#000000">B_cell_CONGA</text>
</a>
</g>
</g>
<!-- paired_HL&#45;&#45;B_cell_CONGA -->
<g id="edge53" class="edge">
<title>paired_HL&#45;&#45;B_cell_CONGA</title>
<path fill="none" stroke="#000000" d="M1679.8949,-1010.3309C1726.4235,-1033.8779 1816.8844,-1079.6579 1861.6588,-1102.3171"/>
</g>
<!-- adaptive_MCMC -->
<g id="node43" class="node">
<title>adaptive_MCMC</title>
<g id="a_node43"><a xlink:title="Use variational inference as a proposal distribution for MCMC.">
<polygon fill="none" stroke="#000000" points="150.2301,-231.1414 46.5003,-213.1414 150.2301,-195.1414 253.9598,-213.1414 150.2301,-231.1414"/>
<text text-anchor="middle" x="150.2301" y="-209.4414" font-family="Times,serif" font-size="14.00" fill="#000000">adaptive_MCMC</text>
</a>
</g>
</g>
<!-- phylogenetic_VI&#45;&#45;adaptive_MCMC -->
<g id="edge1" class="edge">
<title>phylogenetic_VI&#45;&#45;adaptive_MCMC</title>
<path fill="none" stroke="#000000" d="M296.5483,-392.3812C265.4547,-354.2916 192.9869,-265.5186 163.2836,-229.132"/>
</g>
<!-- online_phylo_VI -->
<g id="node45" class="node">
<title>online_phylo_VI</title>
<g id="a_node45"><a xlink:title="Online (i.e. incremental) phylogenetic variational inference.">
<polygon fill="none" stroke="#000000" points="531.0233,-556.9177 430.6466,-538.9177 531.0233,-520.9177 631.3999,-538.9177 531.0233,-556.9177"/>
<text text-anchor="middle" x="531.0233" y="-535.2177" font-family="Times,serif" font-size="14.00" fill="#000000">online_phylo_VI</text>
</a>
</g>
</g>
<!-- phylogenetic_VI&#45;&#45;online_phylo_VI -->
<g id="edge6" class="edge">
<title>phylogenetic_VI&#45;&#45;online_phylo_VI</title>
<path fill="none" stroke="#000000" d="M339.4087,-426.7798C383.1432,-452.3744 466.3612,-501.0758 507.2052,-524.9788"/>
</g>
<!-- antibody_DMS&#45;&#45;PhIP_seq -->
<g id="edge30" class="edge">
<title>antibody_DMS&#45;&#45;PhIP_seq</title>
<path fill="none" stroke="#000000" d="M979.3354,-1620.0139C942.3237,-1652.5817 862.9651,-1722.4118 826.6967,-1754.3256"/>
</g>
<!-- antibody_DMS&#45;&#45;torchdms -->
<g id="edge29" class="edge">
<title>antibody_DMS&#45;&#45;torchdms</title>
<path fill="none" stroke="#000000" d="M1061.0048,-1596.673C1089.4551,-1593.9288 1122.5048,-1590.7411 1148.2205,-1588.2607"/>
</g>
<!-- dms_view2 -->
<g id="node30" class="node">
<title>dms_view2</title>
<g id="a_node30"><a xlink:title="Develop the next version of dms&#45;view, with abilities to compare between data sets and also show K_D inferences.">
<polygon fill="none" stroke="#000000" points="1082.4271,-1876.3919 1008.862,-1858.3919 1082.4271,-1840.3919 1155.9923,-1858.3919 1082.4271,-1876.3919"/>
<text text-anchor="middle" x="1082.4271" y="-1854.6919" font-family="Times,serif" font-size="14.00" fill="#000000">dms_view2</text>
</a>
</g>
</g>
<!-- antibody_DMS&#45;&#45;dms_view2 -->
<g id="edge31" class="edge">
<title>antibody_DMS&#45;&#45;dms_view2</title>
<path fill="none" stroke="#000000" d="M1004.9339,-1620.6301C1020.3497,-1667.9282 1061.8725,-1795.3268 1076.9015,-1841.4384"/>
</g>
<!-- SARS2_parsimony_plateau -->
<g id="node15" class="node">
<title>SARS2_parsimony_plateau</title>
<g id="a_node15"><a xlink:title="Use a graph to capture the ensemble of maximally&#45;parsimonious trees for SARS&#45;Cov&#45;2 data. How much uncertainty is there? How does PANGO look?">
<ellipse fill="#ccebc5" stroke="#ccebc5" cx="888.6925" cy="-938.6788" rx="108.5808" ry="18"/>
<text text-anchor="middle" x="888.6925" y="-934.9788" font-family="Times,serif" font-size="14.00" fill="#000000">SARS2_parsimony_plateau</text>
</a>
</g>
</g>
<!-- subsplit_DAG&#45;&#45;generalized_pruning -->
<g id="edge9" class="edge">
<title>subsplit_DAG&#45;&#45;generalized_pruning</title>
<path fill="none" stroke="#000000" d="M903.5799,-540.7056C933.3234,-510.7796 993.9764,-449.7543 1024.0998,-419.4461"/>
</g>
<!-- hillclimber -->
<g id="node21" class="node">
<title>hillclimber</title>
<g id="a_node21"><a xlink:title="What happens when we start ML algorithms at random starting points? What does it tell us about the phylogenetic likelihood surface?">
<polygon fill="#fccde5" stroke="#fccde5" points="1098.9673,-284.3493 1037.2475,-296.787 975.5278,-284.3493 975.5854,-264.2247 1098.9097,-264.2247 1098.9673,-284.3493"/>
<text text-anchor="middle" x="1037.2475" y="-275.087" font-family="Times,serif" font-size="14.00" fill="#000000">hillclimber</text>
</a>
</g>
</g>
<!-- subsplit_DAG&#45;&#45;hillclimber -->
<g id="edge8" class="edge">
<title>subsplit_DAG&#45;&#45;hillclimber</title>
<path fill="none" stroke="#000000" d="M896.0077,-540.1591C923.5252,-489.2363 1001.979,-344.0533 1028.4225,-295.1183"/>
</g>
<!-- Bayesian_subtree_optimality -->
<g id="node33" class="node">
<title>Bayesian_subtree_optimality</title>
<g id="a_node33"><a xlink:title="How does the Bayesian posterior distribution of n taxa change when an n+1st taxon is added to the tree?">
<polygon fill="#fccde5" stroke="#fccde5" points="789.722,-381.9669 629.0168,-363.9669 789.722,-345.9669 950.4271,-363.9669 789.722,-381.9669"/>
<text text-anchor="middle" x="789.722" y="-360.2669" font-family="Times,serif" font-size="14.00" fill="#000000">Bayesian_subtree_optimality</text>
</a>
</g>
</g>
<!-- subsplit_DAG&#45;&#45;Bayesian_subtree_optimality -->
<g id="edge13" class="edge">
<title>subsplit_DAG&#45;&#45;Bayesian_subtree_optimality</title>
<path fill="none" stroke="#000000" d="M877.4218,-540.142C858.9226,-502.9801 816.5768,-417.9141 798.3385,-381.2761"/>
</g>
<!-- fasdag -->
<g id="node34" class="node">
<title>fasdag</title>
<g id="a_node34"><a xlink:title="Develop NJ and parsimony approaches to reconstructing the sDAG.">
<polygon fill="#fccde5" stroke="#fccde5" points="518.3614,-737.1297 470.7682,-719.1297 518.3614,-701.1297 565.9546,-719.1297 518.3614,-737.1297"/>
<text text-anchor="middle" x="518.3614" y="-715.4297" font-family="Times,serif" font-size="14.00" fill="#000000">fasdag</text>
</a>
</g>
</g>
<!-- subsplit_DAG&#45;&#45;fasdag -->
<g id="edge14" class="edge">
<title>subsplit_DAG&#45;&#45;fasdag</title>
<path fill="none" stroke="#000000" d="M852.0501,-573.0623C777.4712,-605.7082 602.2558,-682.4062 540.4327,-709.4684"/>
</g>
<!-- local_EM -->
<g id="node39" class="node">
<title>local_EM</title>
<g id="a_node39"><a xlink:title="Develop an EM algorithm for variational inference that uses local computation. Go Hogwild.">
<polygon fill="#fccde5" stroke="#fccde5" points="713.7619,-553.9606 648.7407,-535.9606 713.7619,-517.9606 778.7831,-535.9606 713.7619,-553.9606"/>
<text text-anchor="middle" x="713.7619" y="-532.2606" font-family="Times,serif" font-size="14.00" fill="#000000">local_EM</text>
</a>
</g>
</g>
<!-- subsplit_DAG&#45;&#45;local_EM -->
<g id="edge10" class="edge">
<title>subsplit_DAG&#45;&#45;local_EM</title>
<path fill="none" stroke="#000000" d="M829.3519,-550.7581C806.2798,-547.8045 780.0362,-544.4448 758.393,-541.6741"/>
</g>
<!-- find_MAP_tree_in_subsplit_DAG -->
<g id="node41" class="node">
<title>find_MAP_tree_in_subsplit_DAG</title>
<g id="a_node41"><a xlink:title="Can we quickly find the MAP tree in the subsplit DAG?">
<polygon fill="#fccde5" stroke="#fccde5" points="761.7405,-719.2385 574.2243,-701.2385 761.7405,-683.2385 949.2566,-701.2385 761.7405,-719.2385"/>
<text text-anchor="middle" x="761.7405" y="-697.5385" font-family="Times,serif" font-size="14.00" fill="#000000">find_MAP_tree_in_subsplit_DAG</text>
</a>
</g>
</g>
<!-- subsplit_DAG&#45;&#45;find_MAP_tree_in_subsplit_DAG -->
<g id="edge15" class="edge">
<title>subsplit_DAG&#45;&#45;find_MAP_tree_in_subsplit_DAG</title>
<path fill="none" stroke="#000000" d="M871.0599,-575.6106C846.8864,-603.3904 800.131,-657.1208 776.3691,-684.4275"/>
</g>
<!-- how_big_of_sDAG -->
<g id="node44" class="node">
<title>how_big_of_sDAG</title>
<g id="a_node44"><a xlink:title="How big of a subsplit DAG is actually required to get reasonable estimates (with uncertaintly quantification) of key parameters?">
<polygon fill="none" stroke="#000000" points="854.3132,-276.685 741.2005,-258.685 854.3132,-240.685 967.4259,-258.685 854.3132,-276.685"/>
<text text-anchor="middle" x="854.3132" y="-254.985" font-family="Times,serif" font-size="14.00" fill="#000000">how_big_of_sDAG</text>
</a>
</g>
</g>
<!-- subsplit_DAG&#45;&#45;how_big_of_sDAG -->
<g id="edge12" class="edge">
<title>subsplit_DAG&#45;&#45;how_big_of_sDAG</title>
<path fill="none" stroke="#000000" d="M884.383,-539.7771C878.6521,-486.2051 861.9407,-329.9871 856.2427,-276.722"/>
</g>
<!-- subsplit_DAG&#45;&#45;online_phylo_VI -->
<g id="edge7" class="edge">
<title>subsplit_DAG&#45;&#45;online_phylo_VI</title>
<path fill="none" stroke="#000000" d="M825.2573,-554.7638C765.236,-551.5313 673.4304,-546.5871 608.3497,-543.0822"/>
</g>
<!-- Bayesian_histories -->
<g id="node47" class="node">
<title>Bayesian_histories</title>
<polygon fill="none" stroke="#000000" points="1145.6344,-820.3616 1026.6344,-820.3616 1026.6344,-784.3616 1145.6344,-784.3616 1145.6344,-820.3616"/>
<text text-anchor="middle" x="1086.1344" y="-798.6616" font-family="Times,serif" font-size="14.00" fill="#000000">Bayesian_histories</text>
</g>
<!-- subsplit_DAG&#45;&#45;Bayesian_histories -->
<g id="edge11" class="edge">
<title>subsplit_DAG&#45;&#45;Bayesian_histories</title>
<path fill="none" stroke="#000000" d="M900.7069,-575.6233C937.3919,-620.4813 1034.2291,-738.8925 1071.3567,-784.2916"/>
</g>
<!-- transport -->
<g id="node18" class="node">
<title>transport</title>
<g id="a_node18"><a xlink:title="Compare TCR repertoires via optimal transport.">
<ellipse fill="#ccebc5" stroke="#ccebc5" cx="1900.0031" cy="-243.4749" rx="42.4939" ry="18"/>
<text text-anchor="middle" x="1900.0031" y="-239.7749" font-family="Times,serif" font-size="14.00" fill="#000000">transport</text>
</a>
</g>
</g>
<!-- VI_diagnostics -->
<g id="node19" class="node">
<title>VI_diagnostics</title>
<g id="a_node19"><a xlink:title="How will we know if VI is giving a good approximation?">
<ellipse fill="#ccebc5" stroke="#ccebc5" cx="63.6943" cy="-495.0077" rx="63.8893" ry="18"/>
<text text-anchor="middle" x="63.6943" y="-491.3077" font-family="Times,serif" font-size="14.00" fill="#000000">VI_diagnostics</text>
</a>
</g>
</g>
<!-- VI_diagnostics&#45;&#45;phylogenetic_VI -->
<g id="edge3" class="edge">
<title>VI_diagnostics&#45;&#45;phylogenetic_VI</title>
<path fill="none" stroke="#000000" d="M104.2728,-481.1014C149.6501,-465.5505 222.8015,-440.4813 268.8509,-424.7"/>
</g>
<!-- CFT -->
<g id="node20" class="node">
<title>CFT</title>
<g id="a_node20"><a xlink:title="The Clonal Family Tree pipeline to do clonal family inference and then phylogenetics.">
<polygon fill="none" stroke="#000000" points="1559.0767,-1120.1741 1526.2,-1132.6118 1493.3233,-1120.1741 1493.354,-1100.0495 1559.046,-1100.0495 1559.0767,-1120.1741"/>
<text text-anchor="middle" x="1526.2" y="-1110.9118" font-family="Times,serif" font-size="14.00" fill="#000000">CFT</text>
</a>
</g>
</g>
<!-- olmsted -->
<g id="node22" class="node">
<title>olmsted</title>
<g id="a_node22"><a xlink:title="A visualization tool for BCR lineages.">
<polygon fill="none" stroke="#000000" points="1780.5992,-1314.7995 1732.1936,-1327.2372 1683.788,-1314.7995 1683.8332,-1294.6749 1780.554,-1294.6749 1780.5992,-1314.7995"/>
<text text-anchor="middle" x="1732.1936" y="-1305.5372" font-family="Times,serif" font-size="14.00" fill="#000000">olmsted</text>
</a>
</g>
</g>
<!-- CFT&#45;&#45;olmsted -->
<g id="edge42" class="edge">
<title>CFT&#45;&#45;olmsted</title>
<path fill="none" stroke="#000000" d="M1540.0356,-1127.6839C1577.0208,-1162.628 1677.9933,-1258.0281 1716.7567,-1294.6522"/>
</g>
<!-- find_posterior_modes -->
<g id="node35" class="node">
<title>find_posterior_modes</title>
<g id="a_node35"><a xlink:title="Can we do something to quickly find posterior modes in the phylogenetic posterior? Can we do better than hillclimbing?">
<polygon fill="#fccde5" stroke="#fccde5" points="963.7027,-36 838.6919,-18 963.7027,0 1088.7135,-18 963.7027,-36"/>
<text text-anchor="middle" x="963.7027" y="-14.3" font-family="Times,serif" font-size="14.00" fill="#000000">find_posterior_modes</text>
</a>
</g>
</g>
<!-- hillclimber&#45;&#45;find_posterior_modes -->
<g id="edge16" class="edge">
<title>hillclimber&#45;&#45;find_posterior_modes</title>
<path fill="none" stroke="#000000" d="M1033.0827,-264.0187C1020.4115,-219.0871 982.3584,-84.1523 968.6734,-35.6258"/>
</g>
<!-- BCR_GWAS -->
<g id="node23" class="node">
<title>BCR_GWAS</title>
<g id="a_node23"><a xlink:title="Do a GWAS for BCR repertoire features. Can we learn about SHM too?">
<polygon fill="none" stroke="#000000" points="1657.3726,-803.2399 1573.5857,-785.2399 1657.3726,-767.2399 1741.1595,-785.2399 1657.3726,-803.2399"/>
<text text-anchor="middle" x="1657.3726" y="-781.5399" font-family="Times,serif" font-size="14.00" fill="#000000">BCR_GWAS</text>
</a>
</g>
</g>
<!-- BCR_GWAS&#45;&#45;TCR_GWAS -->
<g id="edge46" class="edge">
<title>BCR_GWAS&#45;&#45;TCR_GWAS</title>
<path fill="none" stroke="#000000" d="M1691.9296,-774.6272C1737.0111,-760.7823 1815.8216,-736.579 1864.1815,-721.7273"/>
</g>
<!-- BCR_indels -->
<g id="node24" class="node">
<title>BCR_indels</title>
<g id="a_node24"><a xlink:title="What sequence features lead to indels in BCR sequences?">
<polygon fill="none" stroke="#000000" points="1564.1641,-908.7385 1488.0834,-890.7385 1564.1641,-872.7385 1640.2447,-890.7385 1564.1641,-908.7385"/>
<text text-anchor="middle" x="1564.1641" y="-887.0385" font-family="Times,serif" font-size="14.00" fill="#000000">BCR_indels</text>
</a>
</g>
</g>
<!-- clonal_families_with_indels -->
<g id="node25" class="node">
<title>clonal_families_with_indels</title>
<g id="a_node25"><a xlink:title="Can we do better clonal family clustering in the presence of indels?">
<polygon fill="none" stroke="#000000" points="1437.5131,-1030.0221 1281.4993,-1012.0221 1437.5131,-994.0221 1593.527,-1012.0221 1437.5131,-1030.0221"/>
<text text-anchor="middle" x="1437.5131" y="-1008.3221" font-family="Times,serif" font-size="14.00" fill="#000000">clonal_families_with_indels</text>
</a>
</g>
</g>
<!-- BCR_selection_analysis -->
<g id="node26" class="node">
<title>BCR_selection_analysis</title>
<g id="a_node26"><a xlink:title="Improve dN/dS analysis for BCR lineages, looking site&#45;wise and per&#45;lineage.">
<polygon fill="none" stroke="#000000" points="1329.5307,-695.803 1192.6219,-677.803 1329.5307,-659.803 1466.4396,-677.803 1329.5307,-695.803"/>
<text text-anchor="middle" x="1329.5307" y="-674.103" font-family="Times,serif" font-size="14.00" fill="#000000">BCR_selection_analysis</text>
</a>
</g>
</g>
<!-- BCR_trajectories -->
<g id="node27" class="node">
<title>BCR_trajectories</title>
<g id="a_node27"><a xlink:title="Look for patterns in BCR sequence evolution. Do they fall into &#39;trajectories&#39;?">
<polygon fill="none" stroke="#000000" points="1478.1905,-739.8275 1376.9758,-721.8275 1478.1905,-703.8275 1579.4052,-721.8275 1478.1905,-739.8275"/>
<text text-anchor="middle" x="1478.1905" y="-718.1275" font-family="Times,serif" font-size="14.00" fill="#000000">BCR_trajectories</text>
</a>
</g>
</g>
<!-- Bayesian_VDJ_recombination -->
<g id="node32" class="node">
<title>Bayesian_VDJ_recombination</title>
<g id="a_node32"><a xlink:title="Can we do Bayesian estimation of VDJ recombination models?">
<polygon fill="none" stroke="#000000" points="1643.0937,-655.4746 1474.6819,-637.4746 1643.0937,-619.4746 1811.5055,-637.4746 1643.0937,-655.4746"/>
<text text-anchor="middle" x="1643.0937" y="-633.7746" font-family="Times,serif" font-size="14.00" fill="#000000">Bayesian_VDJ_recombination</text>
</a>
</g>
</g>
<!-- help_PANGO -->
<g id="node36" class="node">
<title>help_PANGO</title>
<g id="a_node36"><a xlink:title="What sort of tooling would actually help PANGO do their job better?">
<polygon fill="none" stroke="#000000" points="1137.5235,-639.5263 1052.0603,-621.5263 1137.5235,-603.5263 1222.9868,-621.5263 1137.5235,-639.5263"/>
<text text-anchor="middle" x="1137.5235" y="-617.8263" font-family="Times,serif" font-size="14.00" fill="#000000">help_PANGO</text>
</a>
</g>
</g>
<!-- big_tree_likelihoods -->
<g id="node37" class="node">
<title>big_tree_likelihoods</title>
<g id="a_node37"><a xlink:title="How can we bridge the gap between parsimony and full Felsenstein likelihoods?">
<polygon fill="none" stroke="#000000" points="900.935,-836.4047 783.1306,-818.4047 900.935,-800.4047 1018.7395,-818.4047 900.935,-836.4047"/>
<text text-anchor="middle" x="900.935" y="-814.7047" font-family="Times,serif" font-size="14.00" fill="#000000">big_tree_likelihoods</text>
</a>
</g>
</g>
<!-- fast_TreeTime -->
<g id="node40" class="node">
<title>fast_TreeTime</title>
<g id="a_node40"><a xlink:title="Speed up ML inference of time trees.">
<polygon fill="none" stroke="#000000" points="806.47,-1029.9035 717.1532,-1011.9035 806.47,-993.9035 895.7867,-1011.9035 806.47,-1029.9035"/>
<text text-anchor="middle" x="806.47" y="-1008.2035" font-family="Times,serif" font-size="14.00" fill="#000000">fast_TreeTime</text>
</a>
</g>
</g>
<!-- polytomy_resolution -->
<g id="node42" class="node">
<title>polytomy_resolution</title>
<g id="a_node42"><a xlink:title="Can we quickly resolve sequence&#45;level polytomies using timing/geography?">
<polygon fill="none" stroke="#000000" points="586.2944,-1194.6599 466.8135,-1176.6599 586.2944,-1158.6599 705.7752,-1176.6599 586.2944,-1194.6599"/>
<text text-anchor="middle" x="586.2944" y="-1172.9599" font-family="Times,serif" font-size="14.00" fill="#000000">polytomy_resolution</text>
</a>
</g>
</g>
<!-- fast_TreeTime&#45;&#45;polytomy_resolution -->
<g id="edge24" class="edge">
<title>fast_TreeTime&#45;&#45;polytomy_resolution</title>
<path fill="none" stroke="#000000" d="M787.316,-1026.2364C745.9896,-1057.1607 648.7828,-1129.9001 606.5144,-1161.5294"/>
</g>
<!-- how_big_of_sDAG&#45;&#45;find_posterior_modes -->
<g id="edge17" class="edge">
<title>how_big_of_sDAG&#45;&#45;find_posterior_modes</title>
<path fill="none" stroke="#000000" d="M862.0052,-241.7605C882.0901,-197.5687 935.9438,-79.0767 956.0192,-34.9058"/>
</g>
<!-- BCR_analysis -->
<g id="node46" class="node">
<title>BCR_analysis</title>
<polygon fill="none" stroke="#000000" points="1417.5681,-885.6192 1323.5681,-885.6192 1323.5681,-849.6192 1417.5681,-849.6192 1417.5681,-885.6192"/>
<text text-anchor="middle" x="1370.5681" y="-863.9192" font-family="Times,serif" font-size="14.00" fill="#000000">BCR_analysis</text>
</g>
<!-- BCR_analysis&#45;&#45;Bayesian_GCtree -->
<g id="edge40" class="edge">
<title>BCR_analysis&#45;&#45;Bayesian_GCtree</title>
<path fill="none" stroke="#000000" d="M1352.9955,-885.7469C1320.1277,-919.6528 1249.7512,-992.2521 1217.3467,-1025.6801"/>
</g>
<!-- BCR_analysis&#45;&#45;linearham_empirical_uncertainty -->
<g id="edge39" class="edge">
<title>BCR_analysis&#45;&#45;linearham_empirical_uncertainty</title>
<path fill="none" stroke="#000000" d="M1371.7695,-849.2057C1375.0281,-799.2628 1384.0067,-661.6502 1387.2591,-611.8012"/>
</g>
<!-- BCR_analysis&#45;&#45;mechanistic_SHM -->
<g id="edge43" class="edge">
<title>BCR_analysis&#45;&#45;mechanistic_SHM</title>
<path fill="none" stroke="#000000" d="M1368.7634,-885.9744C1364.2135,-932.2494 1352.3158,-1053.2544 1347.7989,-1099.1939"/>
</g>
<!-- BCR_analysis&#45;&#45;paired_HL -->
<g id="edge37" class="edge">
<title>BCR_analysis&#45;&#45;paired_HL</title>
<path fill="none" stroke="#000000" d="M1410.1243,-885.6853C1466.5503,-911.4562 1568.9627,-958.23 1620.0703,-981.5719"/>
</g>
<!-- BCR_analysis&#45;&#45;CFT -->
<g id="edge38" class="edge">
<title>BCR_analysis&#45;&#45;CFT</title>
<path fill="none" stroke="#000000" d="M1382.0121,-885.7812C1411.5654,-932.6831 1490.0058,-1057.1705 1516.9553,-1099.9403"/>
</g>
<!-- BCR_analysis&#45;&#45;BCR_GWAS -->
<g id="edge45" class="edge">
<title>BCR_analysis&#45;&#45;BCR_GWAS</title>
<path fill="none" stroke="#000000" d="M1417.6069,-854.1082C1474.6582,-837.7213 1569.5828,-810.4559 1621.2206,-795.6239"/>
</g>
<!-- BCR_analysis&#45;&#45;BCR_indels -->
<g id="edge34" class="edge">
<title>BCR_analysis&#45;&#45;BCR_indels</title>
<path fill="none" stroke="#000000" d="M1417.927,-873.2748C1446.9197,-876.7371 1484.0011,-881.1654 1513.5687,-884.6963"/>
</g>
<!-- BCR_analysis&#45;&#45;clonal_families_with_indels -->
<g id="edge35" class="edge">
<title>BCR_analysis&#45;&#45;clonal_families_with_indels</title>
<path fill="none" stroke="#000000" d="M1379.0468,-885.9079C1392.0647,-913.988 1416.8006,-967.3445 1429.52,-994.7807"/>
</g>
<!-- BCR_analysis&#45;&#45;BCR_selection_analysis -->
<g id="edge32" class="edge">
<title>BCR_analysis&#45;&#45;BCR_selection_analysis</title>
<path fill="none" stroke="#000000" d="M1366.6333,-849.4188C1358.7493,-812.9516 1341.1085,-731.3553 1333.3342,-695.3958"/>
</g>
<!-- BCR_analysis&#45;&#45;BCR_trajectories -->
<g id="edge33" class="edge">
<title>BCR_analysis&#45;&#45;BCR_trajectories</title>
<path fill="none" stroke="#000000" d="M1383.981,-849.4494C1405.1678,-820.7485 1446.0443,-765.3747 1466.2651,-737.9825"/>
</g>
<!-- BCR_analysis&#45;&#45;Bayesian_VDJ_recombination -->
<g id="edge41" class="edge">
<title>BCR_analysis&#45;&#45;Bayesian_VDJ_recombination</title>
<path fill="none" stroke="#000000" d="M1391.9528,-849.5602C1443.6502,-805.9023 1574.7663,-695.1762 1624.0115,-653.5893"/>
</g>
<!-- BCR_analysis&#45;&#45;Bayesian_histories -->
<g id="edge36" class="edge">
<title>BCR_analysis&#45;&#45;Bayesian_histories</title>
<path fill="none" stroke="#000000" d="M1323.2804,-856.77C1274.5471,-845.5891 1198.4446,-828.1289 1145.6477,-816.0157"/>
</g>
<!-- Bayesian_histories&#45;&#45;Bayesian_GCtree -->
<g id="edge19" class="edge">
<title>Bayesian_histories&#45;&#45;Bayesian_GCtree</title>
<path fill="none" stroke="#000000" d="M1094.721,-820.4627C1115.9443,-865.2026 1170.6807,-980.5902 1191.8447,-1025.2051"/>
</g>
<!-- Bayesian_histories&#45;&#45;SARS2_parsimony_plateau -->
<g id="edge20" class="edge">
<title>Bayesian_histories&#45;&#45;SARS2_parsimony_plateau</title>
<path fill="none" stroke="#000000" d="M1059.9156,-820.4635C1021.8374,-846.7533 951.6861,-895.1869 914.0807,-921.1503"/>
</g>
<!-- Bayesian_histories&#45;&#45;context_sensitive_phylo -->
<g id="edge18" class="edge">
<title>Bayesian_histories&#45;&#45;context_sensitive_phylo</title>
<path fill="none" stroke="#000000" d="M1081.8488,-820.51C1072.9572,-858.1639 1052.6039,-944.356 1043.8377,-981.479"/>
</g>
<!-- Bayesian_histories&#45;&#45;help_PANGO -->
<g id="edge21" class="edge">
<title>Bayesian_histories&#45;&#45;help_PANGO</title>
<path fill="none" stroke="#000000" d="M1091.2496,-784.3613C1101.1761,-749.4308 1122.9281,-672.8867 1132.655,-638.6585"/>
</g>
<!-- Bayesian_histories&#45;&#45;big_tree_likelihoods -->
<g id="edge23" class="edge">
<title>Bayesian_histories&#45;&#45;big_tree_likelihoods</title>
<path fill="none" stroke="#000000" d="M1026.5167,-807.526C1010.5497,-808.9092 993.0778,-810.4227 976.3774,-811.8694"/>
</g>
<!-- Bayesian_histories&#45;&#45;fast_TreeTime -->
<g id="edge22" class="edge">
<title>Bayesian_histories&#45;&#45;fast_TreeTime</title>
<path fill="none" stroke="#000000" d="M1061.8052,-820.5905C1007.0538,-861.6137 875.0827,-960.4946 825.6202,-997.555"/>
</g>
<!-- TCR_analysis -->
<g id="node48" class="node">
<title>TCR_analysis</title>
<polygon fill="none" stroke="#000000" points="1911.8687,-522.3107 1818.8687,-522.3107 1818.8687,-486.3107 1911.8687,-486.3107 1911.8687,-522.3107"/>
<text text-anchor="middle" x="1865.3687" y="-500.6107" font-family="Times,serif" font-size="14.00" fill="#000000">TCR_analysis</text>
</g>
<!-- TCR_analysis&#45;&#45;HLA_effects -->
<g id="edge48" class="edge">
<title>TCR_analysis&#45;&#45;HLA_effects</title>
<path fill="none" stroke="#000000" d="M1912.0775,-516.7636C1963.4966,-530.4724 2045.4886,-552.3321 2095.5308,-565.6737"/>
</g>
<!-- TCR_analysis&#45;&#45;TCR_GWAS -->
<g id="edge47" class="edge">
<title>TCR_analysis&#45;&#45;TCR_GWAS</title>
<path fill="none" stroke="#000000" d="M1868.9658,-522.4679C1876.6577,-561.295 1894.6285,-652.0071 1902.3133,-690.7979"/>
</g>
<!-- TCR_analysis&#45;&#45;TCR_trimming_motifs -->
<g id="edge50" class="edge">
<title>TCR_analysis&#45;&#45;TCR_trimming_motifs</title>
<path fill="none" stroke="#000000" d="M1891.9571,-486.1619C1929.3439,-460.6423 1996.9945,-414.4651 2033.867,-389.2965"/>
</g>
<!-- TCR_analysis&#45;&#45;transport -->
<g id="edge49" class="edge">
<title>TCR_analysis&#45;&#45;transport</title>
<path fill="none" stroke="#000000" d="M1867.8041,-485.9692C1874.1787,-437.9616 1891.2968,-309.0427 1897.6163,-261.4498"/>
</g>
<!-- TCR_analysis&#45;&#45;Bayesian_VDJ_recombination -->
<g id="edge51" class="edge">
<title>TCR_analysis&#45;&#45;Bayesian_VDJ_recombination</title>
<path fill="none" stroke="#000000" d="M1834.9284,-522.5474C1790.8174,-548.974 1709.9084,-597.4462 1668.6906,-622.1396"/>
</g>
<!-- train_awesome_researchers -->
<g id="node49" class="node">
<title>train_awesome_researchers</title>
<polygon fill="none" stroke="#000000" points="2277.3176,-1751.9645 2110.2367,-1751.9645 2058.6058,-1910.7196 2006.975,-1751.9645 1839.8941,-1751.9645 1975.0654,-1653.8485 1923.4346,-1495.0935 2058.6058,-1593.2095 2193.7771,-1495.0935 2142.1463,-1653.8485 2277.3176,-1751.9645"/>
<text text-anchor="middle" x="2058.6058" y="-1699.2065" font-family="Times,serif" font-size="14.00" fill="#000000">train_awesome_researchers</text>
</g>
<!-- diversify_comp_bio -->
<g id="node50" class="node">
<title>diversify_comp_bio</title>
<polygon fill="none" stroke="#000000" points="904.8084,-1573.8619 778.8572,-1573.8619 739.9361,-1693.5909 701.0151,-1573.8619 575.0638,-1573.8619 676.9605,-1499.8653 638.0395,-1380.1363 739.9361,-1454.1329 841.8328,-1380.1363 802.9118,-1499.8653 904.8084,-1573.8619"/>
<text text-anchor="middle" x="739.9361" y="-1533.1636" font-family="Times,serif" font-size="14.00" fill="#000000">diversify_comp_bio</text>
</g>
<!-- eradicate_disease -->
<g id="node51" class="node">
<title>eradicate_disease</title>
<polygon fill="none" stroke="#000000" points="1670.4029,-1780.8562 1559.5548,-1780.8562 1525.3009,-1886.5683 1491.0469,-1780.8562 1380.1988,-1780.8562 1469.8768,-1715.5225 1435.6229,-1609.8104 1525.3009,-1675.1441 1614.9789,-1609.8104 1580.7249,-1715.5225 1670.4029,-1780.8562"/>
<text text-anchor="middle" x="1525.3009" y="-1744.4894" font-family="Times,serif" font-size="14.00" fill="#000000">eradicate_disease</text>
</g>
</g>
</svg>
