<?xml version="1.0" encoding="UTF-8" standalone="no"?>
<!DOCTYPE svg PUBLIC "-//W3C//DTD SVG 1.1//EN"
 "http://www.w3.org/Graphics/SVG/1.1/DTD/svg11.dtd">
<!-- Generated by graphviz version 2.40.1 (20161225.0304)
 -->
<!-- Title: %3 Pages: 1 -->
<svg width="2081pt" height="1807pt"
 viewBox="0.00 0.00 2080.60 1806.73" xmlns="http://www.w3.org/2000/svg" xmlns:xlink="http://www.w3.org/1999/xlink">
<g id="graph0" class="graph" transform="scale(1 1) rotate(0) translate(4 1802.7272)">
<title>%3</title>
<polygon fill="#ffffff" stroke="transparent" points="-4,4 -4,-1802.7272 2076.6018,-1802.7272 2076.6018,4 -4,4"/>
<!-- Bayesian_GCtree -->
<g id="node1" class="node">
<title>Bayesian_GCtree</title>
<g id="a_node1"><a xlink:title="Do posterior estimation using Will&#39;s GCtree framework.">
<ellipse fill="#ccebc5" stroke="#ccebc5" cx="917.2598" cy="-977.6452" rx="72.5877" ry="18"/>
<text text-anchor="middle" x="917.2598" y="-973.9452" font-family="Times,serif" font-size="14.00" fill="#000000">Bayesian_GCtree</text>
</a>
</g>
</g>
<!-- GCreplay -->
<g id="node2" class="node">
<title>GCreplay</title>
<g id="a_node2"><a xlink:title="A big collaboration with the Victora and Bloom labs to understand GC maturation with replicate samples.">
<ellipse fill="#ccebc5" stroke="#ccebc5" cx="886.7722" cy="-1184.8512" rx="44.6926" ry="18"/>
<text text-anchor="middle" x="886.7722" y="-1181.1512" font-family="Times,serif" font-size="14.00" fill="#000000">GCreplay</text>
</a>
</g>
</g>
<!-- Bayesian_GCtree&#45;&#45;GCreplay -->
<g id="edge24" class="edge">
<title>Bayesian_GCtree&#45;&#45;GCreplay</title>
<path fill="none" stroke="#000000" d="M914.6075,-995.6709C908.8416,-1034.8583 895.22,-1127.4363 889.44,-1166.7196"/>
</g>
<!-- GCtree_with_heritable -->
<g id="node36" class="node">
<title>GCtree_with_heritable</title>
<g id="a_node36"><a xlink:title="GCtree operates under the assumption of a neutral branching process, the parameters of which do not change through the tree. Can we extend this to a process with a heritable component?">
<polygon fill="none" stroke="#000000" points="1066.866,-1109.3097 938.0017,-1091.3097 1066.866,-1073.3097 1195.7303,-1091.3097 1066.866,-1109.3097"/>
<text text-anchor="middle" x="1066.866" y="-1087.6097" font-family="Times,serif" font-size="14.00" fill="#000000">GCtree_with_heritable</text>
</a>
</g>
</g>
<!-- Bayesian_GCtree&#45;&#45;GCtree_with_heritable -->
<g id="edge25" class="edge">
<title>Bayesian_GCtree&#45;&#45;GCtree_with_heritable</title>
<path fill="none" stroke="#000000" d="M939.9817,-994.9084C969.0819,-1017.0175 1019.058,-1054.9873 1046.8108,-1076.0726"/>
</g>
<!-- antibody_DMS -->
<g id="node13" class="node">
<title>antibody_DMS</title>
<g id="a_node13"><a xlink:title="What can we learn from deep mutational scanning on antibodies?">
<ellipse fill="#ccebc5" stroke="#ccebc5" cx="934.7926" cy="-1376.2826" rx="65.7887" ry="18"/>
<text text-anchor="middle" x="934.7926" y="-1372.5826" font-family="Times,serif" font-size="14.00" fill="#000000">antibody_DMS</text>
</a>
</g>
</g>
<!-- GCreplay&#45;&#45;antibody_DMS -->
<g id="edge27" class="edge">
<title>GCreplay&#45;&#45;antibody_DMS</title>
<path fill="none" stroke="#000000" d="M891.2898,-1202.8606C900.4421,-1239.3459 921.0805,-1321.6198 930.252,-1358.1816"/>
</g>
<!-- torchdms -->
<g id="node15" class="node">
<title>torchdms</title>
<g id="a_node15"><a xlink:title="Develop a DMS analysis package using a modern machine&#45;learning library.">
<ellipse fill="#ccebc5" stroke="#ccebc5" cx="786.2551" cy="-1333.0098" rx="44.393" ry="18"/>
<text text-anchor="middle" x="786.2551" y="-1329.3098" font-family="Times,serif" font-size="14.00" fill="#000000">torchdms</text>
</a>
</g>
</g>
<!-- GCreplay&#45;&#45;torchdms -->
<g id="edge26" class="edge">
<title>GCreplay&#45;&#45;torchdms</title>
<path fill="none" stroke="#000000" d="M874.8468,-1202.4288C855.5014,-1230.9432 817.5003,-1286.9554 798.1649,-1315.4552"/>
</g>
<!-- HLA_effects -->
<g id="node3" class="node">
<title>HLA_effects</title>
<g id="a_node3"><a xlink:title="Assya&#39;s project understanding the effects of HLA on repertoire.">
<ellipse fill="#ccebc5" stroke="#ccebc5" cx="1772.4297" cy="-111.1726" rx="56.59" ry="18"/>
<text text-anchor="middle" x="1772.4297" y="-107.4726" font-family="Times,serif" font-size="14.00" fill="#000000">HLA_effects</text>
</a>
</g>
</g>
<!-- PhIP_seq -->
<g id="node4" class="node">
<title>PhIP_seq</title>
<g id="a_node4"><a xlink:title="Develop statistics and software tools for PhIP&#45;seq analyses.">
<ellipse fill="#ccebc5" stroke="#ccebc5" cx="846.1797" cy="-1550.3425" rx="44.393" ry="18"/>
<text text-anchor="middle" x="846.1797" y="-1546.6425" font-family="Times,serif" font-size="14.00" fill="#000000">PhIP_seq</text>
</a>
</g>
</g>
<!-- TCR_GWAS -->
<g id="node5" class="node">
<title>TCR_GWAS</title>
<g id="a_node5"><a xlink:title="GWAS to infer TCR&#45;repertoire features.">
<ellipse fill="#ccebc5" stroke="#ccebc5" cx="1499.714" cy="-342.7883" rx="58.4896" ry="18"/>
<text text-anchor="middle" x="1499.714" y="-339.0883" font-family="Times,serif" font-size="14.00" fill="#000000">TCR_GWAS</text>
</a>
</g>
</g>
<!-- TCR_trimming_motifs -->
<g id="node6" class="node">
<title>TCR_trimming_motifs</title>
<g id="a_node6"><a xlink:title="What sequence&#45;level features determine trimming of TCRs in VDJ recombination?">
<ellipse fill="#ccebc5" stroke="#ccebc5" cx="1614.5039" cy="-18" rx="92.8835" ry="18"/>
<text text-anchor="middle" x="1614.5039" y="-14.3" font-family="Times,serif" font-size="14.00" fill="#000000">TCR_trimming_motifs</text>
</a>
</g>
</g>
<!-- bito -->
<g id="node7" class="node">
<title>bito</title>
<g id="a_node7"><a xlink:title="Bayesian Inference of Trees via Optimization: a C++/python package">
<ellipse fill="#ccebc5" stroke="#ccebc5" cx="504.2486" cy="-446.3116" rx="27" ry="18"/>
<text text-anchor="middle" x="504.2486" y="-442.6116" font-family="Times,serif" font-size="14.00" fill="#000000">bito</text>
</a>
</g>
</g>
<!-- autodiff_gradients -->
<g id="node8" class="node">
<title>autodiff_gradients</title>
<g id="a_node8"><a xlink:title="How fast is autodiff for phylogenetically&#45;relevant gradients?">
<ellipse fill="#ccebc5" stroke="#ccebc5" cx="490.4205" cy="-246.1124" rx="75.2868" ry="18"/>
<text text-anchor="middle" x="490.4205" y="-242.4124" font-family="Times,serif" font-size="14.00" fill="#000000">autodiff_gradients</text>
</a>
</g>
</g>
<!-- bito&#45;&#45;autodiff_gradients -->
<g id="edge4" class="edge">
<title>bito&#45;&#45;autodiff_gradients</title>
<path fill="none" stroke="#000000" d="M502.9971,-428.1921C500.371,-390.1727 494.3115,-302.4444 491.6792,-264.3351"/>
</g>
<!-- phylogenetic_VI -->
<g id="node12" class="node">
<title>phylogenetic_VI</title>
<g id="a_node12"><a xlink:title="Do variational inference of continuous parameters in phylogenetics.">
<ellipse fill="#ccebc5" stroke="#ccebc5" cx="296.3211" cy="-429.1799" rx="69.5877" ry="18"/>
<text text-anchor="middle" x="296.3211" y="-425.4799" font-family="Times,serif" font-size="14.00" fill="#000000">phylogenetic_VI</text>
</a>
</g>
</g>
<!-- bito&#45;&#45;phylogenetic_VI -->
<g id="edge2" class="edge">
<title>bito&#45;&#45;phylogenetic_VI</title>
<path fill="none" stroke="#000000" d="M477.0657,-444.0719C448.2246,-441.6956 401.5715,-437.8518 362.8881,-434.6645"/>
</g>
<!-- subsplit_DAG -->
<g id="node14" class="node">
<title>subsplit_DAG</title>
<g id="a_node14"><a xlink:title="Formalize definitions of and basic lemmas for the subsplit DAG.">
<ellipse fill="#ccebc5" stroke="#ccebc5" cx="661.4535" cy="-634.5536" rx="61.99" ry="18"/>
<text text-anchor="middle" x="661.4535" y="-630.8536" font-family="Times,serif" font-size="14.00" fill="#000000">subsplit_DAG</text>
</a>
</g>
</g>
<!-- bito&#45;&#45;subsplit_DAG -->
<g id="edge5" class="edge">
<title>bito&#45;&#45;subsplit_DAG</title>
<path fill="none" stroke="#000000" d="M517.6518,-462.361C546.9067,-497.3917 616.2928,-580.4767 646.7215,-616.913"/>
</g>
<!-- generalized_pruning -->
<g id="node9" class="node">
<title>generalized_pruning</title>
<g id="a_node9"><a xlink:title="Generalization of the Felsenstein pruning algorithm to the subsplit DAG.">
<ellipse fill="#ccebc5" stroke="#ccebc5" cx="645.2612" cy="-434.3478" rx="83.3857" ry="18"/>
<text text-anchor="middle" x="645.2612" y="-430.6478" font-family="Times,serif" font-size="14.00" fill="#000000">generalized_pruning</text>
</a>
</g>
</g>
<!-- mechanistic_SHM -->
<g id="node10" class="node">
<title>mechanistic_SHM</title>
<g id="a_node10"><a xlink:title="Design and fit mechanistically&#45;based probabilistic models of the somatic hypermutation process.">
<ellipse fill="#ccebc5" stroke="#ccebc5" cx="975.5966" cy="-418.727" rx="77.1866" ry="18"/>
<text text-anchor="middle" x="975.5966" y="-415.027" font-family="Times,serif" font-size="14.00" fill="#000000">mechanistic_SHM</text>
</a>
</g>
</g>
<!-- context_sensitive_phylo -->
<g id="node26" class="node">
<title>context_sensitive_phylo</title>
<g id="a_node26"><a xlink:title="Develop phyogenetic methods that enable inference under context&#45;sensitive models.">
<polygon fill="none" stroke="#000000" points="877.4022,-587.4916 741.3316,-569.4916 877.4022,-551.4916 1013.4727,-569.4916 877.4022,-587.4916"/>
<text text-anchor="middle" x="877.4022" y="-565.7916" font-family="Times,serif" font-size="14.00" fill="#000000">context_sensitive_phylo</text>
</a>
</g>
</g>
<!-- mechanistic_SHM&#45;&#45;context_sensitive_phylo -->
<g id="edge47" class="edge">
<title>mechanistic_SHM&#45;&#45;context_sensitive_phylo</title>
<path fill="none" stroke="#000000" d="M963.9468,-436.6137C944.8452,-465.9417 907.125,-523.8561 888.4339,-552.5538"/>
</g>
<!-- SHM_across_ages -->
<g id="node28" class="node">
<title>SHM_across_ages</title>
<g id="a_node28"><a xlink:title="Perform a detailed investigation of how SHM changes as people age.">
<polygon fill="none" stroke="#000000" points="1040.7673,-235.2861 932.3462,-217.2861 1040.7673,-199.2861 1149.1885,-217.2861 1040.7673,-235.2861"/>
<text text-anchor="middle" x="1040.7673" y="-213.5861" font-family="Times,serif" font-size="14.00" fill="#000000">SHM_across_ages</text>
</a>
</g>
</g>
<!-- mechanistic_SHM&#45;&#45;SHM_across_ages -->
<g id="edge40" class="edge">
<title>mechanistic_SHM&#45;&#45;SHM_across_ages</title>
<path fill="none" stroke="#000000" d="M981.495,-400.4952C993.9968,-361.8526 1023.0097,-272.1745 1035.2072,-234.4724"/>
</g>
<!-- paired_HL -->
<g id="node11" class="node">
<title>paired_HL</title>
<g id="a_node11"><a xlink:title="Perform clonal family inference with paired heavy and light chain sequences.">
<ellipse fill="#ccebc5" stroke="#ccebc5" cx="1337.5312" cy="-688.5517" rx="48.9926" ry="18"/>
<text text-anchor="middle" x="1337.5312" y="-684.8517" font-family="Times,serif" font-size="14.00" fill="#000000">paired_HL</text>
</a>
</g>
</g>
<!-- B_cell_CONGA -->
<g id="node25" class="node">
<title>B_cell_CONGA</title>
<g id="a_node25"><a xlink:title="Adapt CONGA (https://paperpile.com/shared/w2jo9E) for BCR sequences.">
<polygon fill="none" stroke="#000000" points="1548.813,-775.3179 1450.6132,-757.3179 1548.813,-739.3179 1647.0129,-757.3179 1548.813,-775.3179"/>
<text text-anchor="middle" x="1548.813" y="-753.6179" font-family="Times,serif" font-size="14.00" fill="#000000">B_cell_CONGA</text>
</a>
</g>
</g>
<!-- paired_HL&#45;&#45;B_cell_CONGA -->
<g id="edge48" class="edge">
<title>paired_HL&#45;&#45;B_cell_CONGA</title>
<path fill="none" stroke="#000000" d="M1374.3337,-700.5299C1413.3495,-713.2284 1474.5538,-733.1487 1513.1363,-745.7062"/>
</g>
<!-- adaptive_MCMC -->
<g id="node40" class="node">
<title>adaptive_MCMC</title>
<g id="a_node40"><a xlink:title="Use variational inference as a proposal distribution for MCMC.">
<polygon fill="none" stroke="#000000" points="103.8648,-476.797 .1351,-458.797 103.8648,-440.797 207.5945,-458.797 103.8648,-476.797"/>
<text text-anchor="middle" x="103.8648" y="-455.097" font-family="Times,serif" font-size="14.00" fill="#000000">adaptive_MCMC</text>
</a>
</g>
</g>
<!-- phylogenetic_VI&#45;&#45;adaptive_MCMC -->
<g id="edge1" class="edge">
<title>phylogenetic_VI&#45;&#45;adaptive_MCMC</title>
<path fill="none" stroke="#000000" d="M236.4817,-438.3886C211.7647,-442.1923 183.2914,-446.5741 159.0795,-450.3"/>
</g>
<!-- online_phylo_VI -->
<g id="node42" class="node">
<title>online_phylo_VI</title>
<g id="a_node42"><a xlink:title="Online (i.e. incremental) phylogenetic variational inference.">
<polygon fill="none" stroke="#000000" points="430.0379,-584.9608 329.6613,-566.9608 430.0379,-548.9608 530.4146,-566.9608 430.0379,-584.9608"/>
<text text-anchor="middle" x="430.0379" y="-563.2608" font-family="Times,serif" font-size="14.00" fill="#000000">online_phylo_VI</text>
</a>
</g>
</g>
<!-- phylogenetic_VI&#45;&#45;online_phylo_VI -->
<g id="edge6" class="edge">
<title>phylogenetic_VI&#45;&#45;online_phylo_VI</title>
<path fill="none" stroke="#000000" d="M313.5285,-446.9103C339.9092,-474.0928 389.917,-525.6205 414.9578,-551.4224"/>
</g>
<!-- antibody_DMS&#45;&#45;PhIP_seq -->
<g id="edge29" class="edge">
<title>antibody_DMS&#45;&#45;PhIP_seq</title>
<path fill="none" stroke="#000000" d="M925.6432,-1394.2544C908.6187,-1427.6953 872.2661,-1499.1017 855.2793,-1532.4684"/>
</g>
<!-- antibody_DMS&#45;&#45;torchdms -->
<g id="edge28" class="edge">
<title>antibody_DMS&#45;&#45;torchdms</title>
<path fill="none" stroke="#000000" d="M889.4193,-1363.0642C867.9195,-1356.8007 842.5922,-1349.4223 822.4134,-1343.5437"/>
</g>
<!-- dms_view2 -->
<g id="node27" class="node">
<title>dms_view2</title>
<g id="a_node27"><a xlink:title="Develop the next version of dms&#45;view, with abilities to compare between data sets and also show K_D inferences.">
<polygon fill="none" stroke="#000000" points="1069.4689,-1529.3044 995.9038,-1511.3044 1069.4689,-1493.3044 1143.0341,-1511.3044 1069.4689,-1529.3044"/>
<text text-anchor="middle" x="1069.4689" y="-1507.6044" font-family="Times,serif" font-size="14.00" fill="#000000">dms_view2</text>
</a>
</g>
</g>
<!-- antibody_DMS&#45;&#45;dms_view2 -->
<g id="edge30" class="edge">
<title>antibody_DMS&#45;&#45;dms_view2</title>
<path fill="none" stroke="#000000" d="M952.1235,-1393.6579C978.8356,-1420.4385 1029.5995,-1471.3326 1054.6831,-1496.4806"/>
</g>
<!-- subsplit_DAG&#45;&#45;generalized_pruning -->
<g id="edge9" class="edge">
<title>subsplit_DAG&#45;&#45;generalized_pruning</title>
<path fill="none" stroke="#000000" d="M659.988,-616.4335C656.9129,-578.4129 649.8174,-490.6816 646.7351,-452.5711"/>
</g>
<!-- hillclimber -->
<g id="node19" class="node">
<title>hillclimber</title>
<g id="a_node19"><a xlink:title="What happens when we start ML algorithms at random starting points? What does it tell us about the phylogenetic likelihood surface?">
<polygon fill="none" stroke="#000000" points="510.6152,-729.2775 448.8954,-741.7152 387.1757,-729.2775 387.2333,-709.1529 510.5576,-709.1529 510.6152,-729.2775"/>
<text text-anchor="middle" x="448.8954" y="-720.0152" font-family="Times,serif" font-size="14.00" fill="#000000">hillclimber</text>
</a>
</g>
</g>
<!-- subsplit_DAG&#45;&#45;hillclimber -->
<g id="edge8" class="edge">
<title>subsplit_DAG&#45;&#45;hillclimber</title>
<path fill="none" stroke="#000000" d="M625.8761,-649.4772C586.4027,-666.0351 523.1152,-692.5823 483.8816,-709.0396"/>
</g>
<!-- Bayesian_subtree_optimality -->
<g id="node30" class="node">
<title>Bayesian_subtree_optimality</title>
<g id="a_node30"><a xlink:title="How does the Bayesian posterior distribution of n taxa change when an n+1st taxon is added to the tree?">
<polygon fill="none" stroke="#000000" points="714.5234,-496.3844 553.8182,-478.3844 714.5234,-460.3844 875.2286,-478.3844 714.5234,-496.3844"/>
<text text-anchor="middle" x="714.5234" y="-474.6844" font-family="Times,serif" font-size="14.00" fill="#000000">Bayesian_subtree_optimality</text>
</a>
</g>
</g>
<!-- subsplit_DAG&#45;&#45;Bayesian_subtree_optimality -->
<g id="edge13" class="edge">
<title>subsplit_DAG&#45;&#45;Bayesian_subtree_optimality</title>
<path fill="none" stroke="#000000" d="M667.5413,-616.639C677.7783,-586.5145 698.3174,-526.0737 708.5066,-496.09"/>
</g>
<!-- fasdag -->
<g id="node32" class="node">
<title>fasdag</title>
<g id="a_node32"><a xlink:title="Develop NJ and parsimony approaches to reconstructing the sDAG.">
<polygon fill="none" stroke="#000000" points="586.0236,-575.1162 538.4304,-557.1162 586.0236,-539.1162 633.6168,-557.1162 586.0236,-575.1162"/>
<text text-anchor="middle" x="586.0236" y="-553.4162" font-family="Times,serif" font-size="14.00" fill="#000000">fasdag</text>
</a>
</g>
</g>
<!-- subsplit_DAG&#45;&#45;fasdag -->
<g id="edge14" class="edge">
<title>subsplit_DAG&#45;&#45;fasdag</title>
<path fill="none" stroke="#000000" d="M644.3373,-616.9818C630.6018,-602.8808 611.6082,-583.3817 599.079,-570.5191"/>
</g>
<!-- local_EM -->
<g id="node37" class="node">
<title>local_EM</title>
<g id="a_node37"><a xlink:title="Develop an EM algorithm for variational inference that uses local computation. Go Hogwild.">
<polygon fill="none" stroke="#000000" points="609.8132,-779.7 544.792,-761.7 609.8132,-743.7 674.8344,-761.7 609.8132,-779.7"/>
<text text-anchor="middle" x="609.8132" y="-758" font-family="Times,serif" font-size="14.00" fill="#000000">local_EM</text>
</a>
</g>
</g>
<!-- subsplit_DAG&#45;&#45;local_EM -->
<g id="edge10" class="edge">
<title>subsplit_DAG&#45;&#45;local_EM</title>
<path fill="none" stroke="#000000" d="M654.1642,-652.5009C644.0999,-677.2809 626.0964,-721.6083 616.4112,-745.4545"/>
</g>
<!-- how_big_of_sDAG -->
<g id="node41" class="node">
<title>how_big_of_sDAG</title>
<g id="a_node41"><a xlink:title="How big of a subsplit DAG is actually required to get reasonable estimates (with uncertaintly quantification) of key parameters?">
<polygon fill="none" stroke="#000000" points="461.5375,-823.8455 348.4248,-805.8455 461.5375,-787.8455 574.6502,-805.8455 461.5375,-823.8455"/>
<text text-anchor="middle" x="461.5375" y="-802.1455" font-family="Times,serif" font-size="14.00" fill="#000000">how_big_of_sDAG</text>
</a>
</g>
</g>
<!-- subsplit_DAG&#45;&#45;how_big_of_sDAG -->
<g id="edge12" class="edge">
<title>subsplit_DAG&#45;&#45;how_big_of_sDAG</title>
<path fill="none" stroke="#000000" d="M641.5539,-651.6039C602.5427,-685.0295 516.581,-758.6832 479.3309,-790.5998"/>
</g>
<!-- subsplit_DAG&#45;&#45;online_phylo_VI -->
<g id="edge7" class="edge">
<title>subsplit_DAG&#45;&#45;online_phylo_VI</title>
<path fill="none" stroke="#000000" d="M617.654,-621.7604C574.5435,-609.1686 509.3688,-590.1321 468.2865,-578.1326"/>
</g>
<!-- Bayesian_histories -->
<g id="node44" class="node">
<title>Bayesian_histories</title>
<polygon fill="none" stroke="#000000" points="934.1239,-741.3654 815.1239,-741.3654 815.1239,-705.3654 934.1239,-705.3654 934.1239,-741.3654"/>
<text text-anchor="middle" x="874.6239" y="-719.6654" font-family="Times,serif" font-size="14.00" fill="#000000">Bayesian_histories</text>
</g>
<!-- subsplit_DAG&#45;&#45;Bayesian_histories -->
<g id="edge11" class="edge">
<title>subsplit_DAG&#45;&#45;Bayesian_histories</title>
<path fill="none" stroke="#000000" d="M697.1334,-649.4187C733.9945,-664.7758 791.5622,-688.7599 831.081,-705.2244"/>
</g>
<!-- transport -->
<g id="node16" class="node">
<title>transport</title>
<g id="a_node16"><a xlink:title="Compare TCR repertoires via optimal transport.">
<ellipse fill="#ccebc5" stroke="#ccebc5" cx="1834.4878" cy="-284.7708" rx="42.4939" ry="18"/>
<text text-anchor="middle" x="1834.4878" y="-281.0708" font-family="Times,serif" font-size="14.00" fill="#000000">transport</text>
</a>
</g>
</g>
<!-- VI_diagnostics -->
<g id="node17" class="node">
<title>VI_diagnostics</title>
<g id="a_node17"><a xlink:title="How will we know if VI is giving a good approximation?">
<ellipse fill="#ccebc5" stroke="#ccebc5" cx="200.3516" cy="-262.2253" rx="63.8893" ry="18"/>
<text text-anchor="middle" x="200.3516" y="-258.5253" font-family="Times,serif" font-size="14.00" fill="#000000">VI_diagnostics</text>
</a>
</g>
</g>
<!-- VI_diagnostics&#45;&#45;phylogenetic_VI -->
<g id="edge3" class="edge">
<title>VI_diagnostics&#45;&#45;phylogenetic_VI</title>
<path fill="none" stroke="#000000" d="M210.6221,-280.0923C229.0451,-312.1423 267.5049,-379.0494 285.9795,-411.189"/>
</g>
<!-- CFT -->
<g id="node18" class="node">
<title>CFT</title>
<g id="a_node18"><a xlink:title="The Clonal Family Tree pipeline to do clonal family inference and then phylogenetics.">
<polygon fill="none" stroke="#000000" points="1273.0529,-814.3974 1240.1762,-826.8351 1207.2995,-814.3974 1207.3302,-794.2728 1273.0222,-794.2728 1273.0529,-814.3974"/>
<text text-anchor="middle" x="1240.1762" y="-805.1351" font-family="Times,serif" font-size="14.00" fill="#000000">CFT</text>
</a>
</g>
</g>
<!-- olmsted -->
<g id="node20" class="node">
<title>olmsted</title>
<g id="a_node20"><a xlink:title="A visualization tool for BCR lineages.">
<polygon fill="none" stroke="#000000" points="1490.3513,-927.0213 1441.9457,-939.459 1393.5401,-927.0213 1393.5853,-906.8967 1490.3061,-906.8967 1490.3513,-927.0213"/>
<text text-anchor="middle" x="1441.9457" y="-917.759" font-family="Times,serif" font-size="14.00" fill="#000000">olmsted</text>
</a>
</g>
</g>
<!-- CFT&#45;&#45;olmsted -->
<g id="edge38" class="edge">
<title>CFT&#45;&#45;olmsted</title>
<path fill="none" stroke="#000000" d="M1259.5227,-819.634C1295.9191,-839.9498 1374.6064,-883.8715 1415.7214,-906.8211"/>
</g>
<!-- find_posterior_modes -->
<g id="node33" class="node">
<title>find_posterior_modes</title>
<g id="a_node33"><a xlink:title="Can we do something to quickly find posterior modes in the phylogenetic posterior? Can we do better than hillclimbing?">
<polygon fill="none" stroke="#000000" points="296.5263,-871.5717 171.5156,-853.5717 296.5263,-835.5717 421.5371,-853.5717 296.5263,-871.5717"/>
<text text-anchor="middle" x="296.5263" y="-849.8717" font-family="Times,serif" font-size="14.00" fill="#000000">find_posterior_modes</text>
</a>
</g>
</g>
<!-- hillclimber&#45;&#45;find_posterior_modes -->
<g id="edge15" class="edge">
<title>hillclimber&#45;&#45;find_posterior_modes</title>
<path fill="none" stroke="#000000" d="M431.713,-738.359C402.7606,-763.0336 344.5156,-812.6729 314.8275,-837.9745"/>
</g>
<!-- BCR_GWAS -->
<g id="node21" class="node">
<title>BCR_GWAS</title>
<g id="a_node21"><a xlink:title="Do a GWAS for BCR repertoire features. Can we learn about SHM too?">
<polygon fill="none" stroke="#000000" points="1415.2223,-493.0636 1331.4355,-475.0636 1415.2223,-457.0636 1499.0092,-475.0636 1415.2223,-493.0636"/>
<text text-anchor="middle" x="1415.2223" y="-471.3636" font-family="Times,serif" font-size="14.00" fill="#000000">BCR_GWAS</text>
</a>
</g>
</g>
<!-- BCR_GWAS&#45;&#45;TCR_GWAS -->
<g id="edge42" class="edge">
<title>BCR_GWAS&#45;&#45;TCR_GWAS</title>
<path fill="none" stroke="#000000" d="M1425.414,-459.1081C1441.3026,-434.2339 1471.8658,-386.3859 1488.4102,-360.4849"/>
</g>
<!-- BCR_indels -->
<g id="node22" class="node">
<title>BCR_indels</title>
<g id="a_node22"><a xlink:title="What sequence features lead to indels in BCR sequences?">
<polygon fill="none" stroke="#000000" points="1025.7753,-524.7795 949.6947,-506.7795 1025.7753,-488.7795 1101.856,-506.7795 1025.7753,-524.7795"/>
<text text-anchor="middle" x="1025.7753" y="-503.0795" font-family="Times,serif" font-size="14.00" fill="#000000">BCR_indels</text>
</a>
</g>
</g>
<!-- BCR_selection_analysis -->
<g id="node23" class="node">
<title>BCR_selection_analysis</title>
<g id="a_node23"><a xlink:title="Improve dN/dS analysis for BCR lineages, looking site&#45;wise and per&#45;lineage.">
<polygon fill="none" stroke="#000000" points="1171.8186,-750.6038 1034.9097,-732.6038 1171.8186,-714.6038 1308.7275,-732.6038 1171.8186,-750.6038"/>
<text text-anchor="middle" x="1171.8186" y="-728.9038" font-family="Times,serif" font-size="14.00" fill="#000000">BCR_selection_analysis</text>
</a>
</g>
</g>
<!-- BCR_trajectories -->
<g id="node24" class="node">
<title>BCR_trajectories</title>
<g id="a_node24"><a xlink:title="Look for patterns in BCR sequence evolution. Do they fall into &#39;trajectories&#39;?">
<polygon fill="none" stroke="#000000" points="1266.6301,-612.8933 1165.4153,-594.8933 1266.6301,-576.8933 1367.8448,-594.8933 1266.6301,-612.8933"/>
<text text-anchor="middle" x="1266.6301" y="-591.1933" font-family="Times,serif" font-size="14.00" fill="#000000">BCR_trajectories</text>
</a>
</g>
</g>
<!-- linearham_empirical_uncertainty -->
<g id="node29" class="node">
<title>linearham_empirical_uncertainty</title>
<g id="a_node29"><a xlink:title="linearham is our Bayesian method for doing inference of BCR lineage evolution. If we apply it to well&#45;known data sets from the literature, how much uncertainty is there in ancestral sequence inference?">
<polygon fill="none" stroke="#000000" points="1142.2876,-480.7404 961.1396,-462.7404 1142.2876,-444.7404 1323.4355,-462.7404 1142.2876,-480.7404"/>
<text text-anchor="middle" x="1142.2876" y="-459.0404" font-family="Times,serif" font-size="14.00" fill="#000000">linearham_empirical_uncertainty</text>
</a>
</g>
</g>
<!-- SARS2_parsimony_plateau -->
<g id="node31" class="node">
<title>SARS2_parsimony_plateau</title>
<g id="a_node31"><a xlink:title="Use a graph to capture the ensemble of maximally&#45;parsimonious trees for SARS&#45;Cov&#45;2 data. How much uncertainty is there? How does PANGO look?">
<polygon fill="none" stroke="#000000" points="892.5293,-873.8159 739.0308,-855.8159 892.5293,-837.8159 1046.0278,-855.8159 892.5293,-873.8159"/>
<text text-anchor="middle" x="892.5293" y="-852.1159" font-family="Times,serif" font-size="14.00" fill="#000000">SARS2_parsimony_plateau</text>
</a>
</g>
</g>
<!-- help_PANGO -->
<g id="node34" class="node">
<title>help_PANGO</title>
<g id="a_node34"><a xlink:title="What sort of tooling would actually help PANGO do their job better?">
<polygon fill="none" stroke="#000000" points="782.5424,-795.5788 697.0791,-777.5788 782.5424,-759.5788 868.0056,-777.5788 782.5424,-795.5788"/>
<text text-anchor="middle" x="782.5424" y="-773.8788" font-family="Times,serif" font-size="14.00" fill="#000000">help_PANGO</text>
</a>
</g>
</g>
<!-- big_tree_likelihoods -->
<g id="node35" class="node">
<title>big_tree_likelihoods</title>
<g id="a_node35"><a xlink:title="How can we bridge the gap between parsimony and full Felsenstein likelihoods?">
<polygon fill="none" stroke="#000000" points="993.9229,-829.8011 876.1185,-811.8011 993.9229,-793.8011 1111.7274,-811.8011 993.9229,-829.8011"/>
<text text-anchor="middle" x="993.9229" y="-808.1011" font-family="Times,serif" font-size="14.00" fill="#000000">big_tree_likelihoods</text>
</a>
</g>
</g>
<!-- fast_TreeTime -->
<g id="node38" class="node">
<title>fast_TreeTime</title>
<g id="a_node38"><a xlink:title="Speed up ML inference of time trees.">
<polygon fill="none" stroke="#000000" points="764.6742,-917.8312 675.3574,-899.8312 764.6742,-881.8312 853.991,-899.8312 764.6742,-917.8312"/>
<text text-anchor="middle" x="764.6742" y="-896.1312" font-family="Times,serif" font-size="14.00" fill="#000000">fast_TreeTime</text>
</a>
</g>
</g>
<!-- polytomy_resolution -->
<g id="node39" class="node">
<title>polytomy_resolution</title>
<g id="a_node39"><a xlink:title="Can we quickly resolve sequence&#45;level polytomies using timing/geography?">
<polygon fill="none" stroke="#000000" points="650.596,-1080.3545 531.1151,-1062.3545 650.596,-1044.3545 770.0769,-1062.3545 650.596,-1080.3545"/>
<text text-anchor="middle" x="650.596" y="-1058.6545" font-family="Times,serif" font-size="14.00" fill="#000000">polytomy_resolution</text>
</a>
</g>
</g>
<!-- fast_TreeTime&#45;&#45;polytomy_resolution -->
<g id="edge23" class="edge">
<title>fast_TreeTime&#45;&#45;polytomy_resolution</title>
<path fill="none" stroke="#000000" d="M753.5282,-915.7105C731.8873,-946.5416 684.3728,-1014.2339 662.2973,-1045.684"/>
</g>
<!-- how_big_of_sDAG&#45;&#45;find_posterior_modes -->
<g id="edge16" class="edge">
<title>how_big_of_sDAG&#45;&#45;find_posterior_modes</title>
<path fill="none" stroke="#000000" d="M421.1712,-817.5206C395.9823,-824.806 363.6302,-834.1632 338.1989,-841.5187"/>
</g>
<!-- BCR_analysis -->
<g id="node43" class="node">
<title>BCR_analysis</title>
<polygon fill="none" stroke="#000000" points="1135.5985,-649.8452 1041.5985,-649.8452 1041.5985,-613.8452 1135.5985,-613.8452 1135.5985,-649.8452"/>
<text text-anchor="middle" x="1088.5985" y="-628.1452" font-family="Times,serif" font-size="14.00" fill="#000000">BCR_analysis</text>
</g>
<!-- BCR_analysis&#45;&#45;mechanistic_SHM -->
<g id="edge39" class="edge">
<title>BCR_analysis&#45;&#45;mechanistic_SHM</title>
<path fill="none" stroke="#000000" d="M1078.964,-613.6749C1057.6148,-573.4109 1006.5333,-477.0726 985.2067,-436.8513"/>
</g>
<!-- BCR_analysis&#45;&#45;paired_HL -->
<g id="edge35" class="edge">
<title>BCR_analysis&#45;&#45;paired_HL</title>
<path fill="none" stroke="#000000" d="M1135.7135,-642.578C1181.9462,-653.1097 1251.7693,-669.0153 1295.9837,-679.0873"/>
</g>
<!-- BCR_analysis&#45;&#45;CFT -->
<g id="edge36" class="edge">
<title>BCR_analysis&#45;&#45;CFT</title>
<path fill="none" stroke="#000000" d="M1104.2491,-650.1196C1134.3539,-685.2716 1199.7909,-761.6792 1227.4383,-793.9618"/>
</g>
<!-- BCR_analysis&#45;&#45;BCR_GWAS -->
<g id="edge41" class="edge">
<title>BCR_analysis&#45;&#45;BCR_GWAS</title>
<path fill="none" stroke="#000000" d="M1126.3855,-613.7072C1193.3875,-581.5458 1331.3722,-515.3122 1389.0159,-487.6429"/>
</g>
<!-- BCR_analysis&#45;&#45;BCR_indels -->
<g id="edge33" class="edge">
<title>BCR_analysis&#45;&#45;BCR_indels</title>
<path fill="none" stroke="#000000" d="M1079.4635,-613.6596C1067.2123,-589.2705 1045.6468,-546.3387 1033.922,-522.9974"/>
</g>
<!-- BCR_analysis&#45;&#45;BCR_selection_analysis -->
<g id="edge31" class="edge">
<title>BCR_analysis&#45;&#45;BCR_selection_analysis</title>
<path fill="none" stroke="#000000" d="M1103.4766,-649.8588C1118.9983,-668.6517 1143.1261,-697.8644 1158.1726,-716.0819"/>
</g>
<!-- BCR_analysis&#45;&#45;BCR_trajectories -->
<g id="edge32" class="edge">
<title>BCR_analysis&#45;&#45;BCR_trajectories</title>
<path fill="none" stroke="#000000" d="M1135.8403,-622.0398C1161.7996,-616.6517 1193.8888,-609.9913 1219.7853,-604.6163"/>
</g>
<!-- BCR_analysis&#45;&#45;linearham_empirical_uncertainty -->
<g id="edge37" class="edge">
<title>BCR_analysis&#45;&#45;linearham_empirical_uncertainty</title>
<path fill="none" stroke="#000000" d="M1094.3442,-613.7481C1104.7319,-581.0297 1126.5062,-512.4471 1136.7441,-480.2007"/>
</g>
<!-- BCR_analysis&#45;&#45;Bayesian_histories -->
<g id="edge34" class="edge">
<title>BCR_analysis&#45;&#45;Bayesian_histories</title>
<path fill="none" stroke="#000000" d="M1046.324,-649.9267C1008.8113,-665.9714 954.2967,-689.2881 916.8106,-705.3215"/>
</g>
<!-- Bayesian_histories&#45;&#45;Bayesian_GCtree -->
<g id="edge18" class="edge">
<title>Bayesian_histories&#45;&#45;Bayesian_GCtree</title>
<path fill="none" stroke="#000000" d="M877.6901,-741.6525C885.5568,-788.5691 906.3853,-912.7898 914.2213,-959.5238"/>
</g>
<!-- Bayesian_histories&#45;&#45;context_sensitive_phylo -->
<g id="edge17" class="edge">
<title>Bayesian_histories&#45;&#45;context_sensitive_phylo</title>
<path fill="none" stroke="#000000" d="M874.9535,-705.1098C875.4882,-675.4954 876.5385,-617.3225 877.073,-587.7234"/>
</g>
<!-- Bayesian_histories&#45;&#45;SARS2_parsimony_plateau -->
<g id="edge19" class="edge">
<title>Bayesian_histories&#45;&#45;SARS2_parsimony_plateau</title>
<path fill="none" stroke="#000000" d="M877.076,-741.5043C880.5049,-766.8684 886.6939,-812.6501 890.1068,-837.896"/>
</g>
<!-- Bayesian_histories&#45;&#45;help_PANGO -->
<g id="edge20" class="edge">
<title>Bayesian_histories&#45;&#45;help_PANGO</title>
<path fill="none" stroke="#000000" d="M843.9621,-741.4176C831.3012,-748.8718 816.8874,-757.3579 805.2063,-764.2353"/>
</g>
<!-- Bayesian_histories&#45;&#45;big_tree_likelihoods -->
<g id="edge22" class="edge">
<title>Bayesian_histories&#45;&#45;big_tree_likelihoods</title>
<path fill="none" stroke="#000000" d="M899.0537,-741.4751C921.0041,-757.7468 952.868,-781.3673 973.4941,-796.6574"/>
</g>
<!-- Bayesian_histories&#45;&#45;fast_TreeTime -->
<g id="edge21" class="edge">
<title>Bayesian_histories&#45;&#45;fast_TreeTime</title>
<path fill="none" stroke="#000000" d="M863.2714,-741.5857C841.7635,-776.1052 795.3937,-850.5273 774.8393,-883.5165"/>
</g>
<!-- TCR_analysis -->
<g id="node45" class="node">
<title>TCR_analysis</title>
<polygon fill="none" stroke="#000000" points="1688.9194,-238.781 1595.9194,-238.781 1595.9194,-202.781 1688.9194,-202.781 1688.9194,-238.781"/>
<text text-anchor="middle" x="1642.4194" y="-217.081" font-family="Times,serif" font-size="14.00" fill="#000000">TCR_analysis</text>
</g>
<!-- TCR_analysis&#45;&#45;HLA_effects -->
<g id="edge44" class="edge">
<title>TCR_analysis&#45;&#45;HLA_effects</title>
<path fill="none" stroke="#000000" d="M1663.8879,-202.6814C1688.4095,-182.0079 1728.228,-148.4379 1752.2137,-128.2162"/>
</g>
<!-- TCR_analysis&#45;&#45;TCR_GWAS -->
<g id="edge43" class="edge">
<title>TCR_analysis&#45;&#45;TCR_GWAS</title>
<path fill="none" stroke="#000000" d="M1621.3627,-238.7836C1594.0718,-262.1162 1546.8079,-302.5249 1519.933,-325.5018"/>
</g>
<!-- TCR_analysis&#45;&#45;TCR_trimming_motifs -->
<g id="edge46" class="edge">
<title>TCR_analysis&#45;&#45;TCR_trimming_motifs</title>
<path fill="none" stroke="#000000" d="M1639.8928,-202.4279C1634.578,-163.8207 1622.2968,-74.6082 1617.0046,-36.1655"/>
</g>
<!-- TCR_analysis&#45;&#45;transport -->
<g id="edge45" class="edge">
<title>TCR_analysis&#45;&#45;transport</title>
<path fill="none" stroke="#000000" d="M1689.4046,-236.4346C1723.9436,-247.9417 1770.0532,-263.3036 1800.9334,-273.5917"/>
</g>
<!-- train_awesome_researchers -->
<g id="node46" class="node">
<title>train_awesome_researchers</title>
<polygon fill="none" stroke="#000000" points="1823.3176,-1345.9645 1656.2367,-1345.9645 1604.6058,-1504.7196 1552.975,-1345.9645 1385.8941,-1345.9645 1521.0654,-1247.8485 1469.4346,-1089.0935 1604.6058,-1187.2095 1739.7771,-1089.0935 1688.1463,-1247.8485 1823.3176,-1345.9645"/>
<text text-anchor="middle" x="1604.6058" y="-1293.2065" font-family="Times,serif" font-size="14.00" fill="#000000">train_awesome_researchers</text>
</g>
<!-- diversify_comp_bio -->
<g id="node47" class="node">
<title>diversify_comp_bio</title>
<polygon fill="none" stroke="#000000" points="725.8084,-1678.8619 599.8572,-1678.8619 560.9361,-1798.5909 522.0151,-1678.8619 396.0638,-1678.8619 497.9605,-1604.8653 459.0395,-1485.1363 560.9361,-1559.1329 662.8328,-1485.1363 623.9118,-1604.8653 725.8084,-1678.8619"/>
<text text-anchor="middle" x="560.9361" y="-1638.1636" font-family="Times,serif" font-size="14.00" fill="#000000">diversify_comp_bio</text>
</g>
<!-- eradicate_disease -->
<g id="node48" class="node">
<title>eradicate_disease</title>
<polygon fill="none" stroke="#000000" points="2072.4029,-665.8562 1961.5548,-665.8562 1927.3009,-771.5683 1893.0469,-665.8562 1782.1988,-665.8562 1871.8768,-600.5225 1837.6229,-494.8104 1927.3009,-560.1441 2016.9789,-494.8104 1982.7249,-600.5225 2072.4029,-665.8562"/>
<text text-anchor="middle" x="1927.3009" y="-629.4894" font-family="Times,serif" font-size="14.00" fill="#000000">eradicate_disease</text>
</g>
</g>
</svg>
