<?xml version="1.0" encoding="UTF-8" standalone="no"?>
<!DOCTYPE svg PUBLIC "-//W3C//DTD SVG 1.1//EN"
 "http://www.w3.org/Graphics/SVG/1.1/DTD/svg11.dtd">
<!-- Generated by graphviz version 2.40.1 (20161225.0304)
 -->
<!-- Title: %3 Pages: 1 -->
<svg width="2138pt" height="1884pt"
 viewBox="0.00 0.00 2137.87 1884.38" xmlns="http://www.w3.org/2000/svg" xmlns:xlink="http://www.w3.org/1999/xlink">
<g id="graph0" class="graph" transform="scale(1 1) rotate(0) translate(4 1880.3787)">
<title>%3</title>
<polygon fill="#ffffff" stroke="transparent" points="-4,4 -4,-1880.3787 2133.8723,-1880.3787 2133.8723,4 -4,4"/>
<!-- Bayesian_GCtree -->
<g id="node1" class="node">
<title>Bayesian_GCtree</title>
<ellipse fill="#ccebc5" stroke="#ccebc5" cx="808.4896" cy="-911.2956" rx="72.5877" ry="18"/>
<text text-anchor="middle" x="808.4896" y="-907.5956" font-family="Times,serif" font-size="14.00" fill="#000000">Bayesian_GCtree</text>
</g>
<!-- GCreplay -->
<g id="node2" class="node">
<title>GCreplay</title>
<ellipse fill="#ccebc5" stroke="#ccebc5" cx="721.3863" cy="-1118.0819" rx="44.6926" ry="18"/>
<text text-anchor="middle" x="721.3863" y="-1114.3819" font-family="Times,serif" font-size="14.00" fill="#000000">GCreplay</text>
</g>
<!-- Bayesian_GCtree&#45;&#45;GCreplay -->
<g id="edge23" class="edge">
<title>Bayesian_GCtree&#45;&#45;GCreplay</title>
<path fill="none" stroke="#000000" d="M800.9121,-929.2848C784.3975,-968.4911 745.3261,-1061.2479 728.8842,-1100.2816"/>
</g>
<!-- GCtree_with_heritable -->
<g id="node35" class="node">
<title>GCtree_with_heritable</title>
<polygon fill="none" stroke="#000000" points="930.5632,-1090.5313 801.6989,-1072.5313 930.5632,-1054.5313 1059.4274,-1072.5313 930.5632,-1090.5313"/>
<text text-anchor="middle" x="930.5632" y="-1068.8313" font-family="Times,serif" font-size="14.00" fill="#000000">GCtree_with_heritable</text>
</g>
<!-- Bayesian_GCtree&#45;&#45;GCtree_with_heritable -->
<g id="edge24" class="edge">
<title>Bayesian_GCtree&#45;&#45;GCtree_with_heritable</title>
<path fill="none" stroke="#000000" d="M822.02,-929.1667C845.8575,-960.6515 894.9943,-1025.5517 918.0728,-1056.034"/>
</g>
<!-- antibody_DMS -->
<g id="node13" class="node">
<title>antibody_DMS</title>
<ellipse fill="#ccebc5" stroke="#ccebc5" cx="717.5212" cy="-1329.7251" rx="65.7887" ry="18"/>
<text text-anchor="middle" x="717.5212" y="-1326.0251" font-family="Times,serif" font-size="14.00" fill="#000000">antibody_DMS</text>
</g>
<!-- GCreplay&#45;&#45;antibody_DMS -->
<g id="edge26" class="edge">
<title>GCreplay&#45;&#45;antibody_DMS</title>
<path fill="none" stroke="#000000" d="M721.0568,-1136.1265C720.3284,-1176.0119 718.5881,-1271.3053 717.8554,-1311.4256"/>
</g>
<!-- torchdms -->
<g id="node15" class="node">
<title>torchdms</title>
<ellipse fill="#ccebc5" stroke="#ccebc5" cx="577.3896" cy="-1239.9517" rx="44.393" ry="18"/>
<text text-anchor="middle" x="577.3896" y="-1236.2517" font-family="Times,serif" font-size="14.00" fill="#000000">torchdms</text>
</g>
<!-- GCreplay&#45;&#45;torchdms -->
<g id="edge25" class="edge">
<title>GCreplay&#45;&#45;torchdms</title>
<path fill="none" stroke="#000000" d="M701.9663,-1134.5178C674.4835,-1157.7775 624.5273,-1200.0573 596.9619,-1223.387"/>
</g>
<!-- HLA_effects -->
<g id="node3" class="node">
<title>HLA_effects</title>
<ellipse fill="#ccebc5" stroke="#ccebc5" cx="1745.7472" cy="-90.9131" rx="56.59" ry="18"/>
<text text-anchor="middle" x="1745.7472" y="-87.2131" font-family="Times,serif" font-size="14.00" fill="#000000">HLA_effects</text>
</g>
<!-- PhIP_seq -->
<g id="node4" class="node">
<title>PhIP_seq</title>
<ellipse fill="#ccebc5" stroke="#ccebc5" cx="575.807" cy="-1481.7744" rx="44.393" ry="18"/>
<text text-anchor="middle" x="575.807" y="-1478.0744" font-family="Times,serif" font-size="14.00" fill="#000000">PhIP_seq</text>
</g>
<!-- TCR_GWAS -->
<g id="node5" class="node">
<title>TCR_GWAS</title>
<ellipse fill="#ccebc5" stroke="#ccebc5" cx="1547.5746" cy="-394.3671" rx="58.4896" ry="18"/>
<text text-anchor="middle" x="1547.5746" y="-390.6671" font-family="Times,serif" font-size="14.00" fill="#000000">TCR_GWAS</text>
</g>
<!-- TCR_trimming_motifs -->
<g id="node6" class="node">
<title>TCR_trimming_motifs</title>
<ellipse fill="#ccebc5" stroke="#ccebc5" cx="1886.5926" cy="-226.952" rx="92.8835" ry="18"/>
<text text-anchor="middle" x="1886.5926" y="-223.252" font-family="Times,serif" font-size="14.00" fill="#000000">TCR_trimming_motifs</text>
</g>
<!-- bito -->
<g id="node7" class="node">
<title>bito</title>
<ellipse fill="#ccebc5" stroke="#ccebc5" cx="501.4609" cy="-271.4517" rx="27" ry="18"/>
<text text-anchor="middle" x="501.4609" y="-267.7517" font-family="Times,serif" font-size="14.00" fill="#000000">bito</text>
</g>
<!-- autodiff_gradients -->
<g id="node8" class="node">
<title>autodiff_gradients</title>
<ellipse fill="#ccebc5" stroke="#ccebc5" cx="550.8872" cy="-53.809" rx="75.2868" ry="18"/>
<text text-anchor="middle" x="550.8872" y="-50.109" font-family="Times,serif" font-size="14.00" fill="#000000">autodiff_gradients</text>
</g>
<!-- bito&#45;&#45;autodiff_gradients -->
<g id="edge4" class="edge">
<title>bito&#45;&#45;autodiff_gradients</title>
<path fill="none" stroke="#000000" d="M505.5057,-253.6411C514.774,-212.8291 537.4645,-112.9141 546.7865,-71.8657"/>
</g>
<!-- phylogenetic_VI -->
<g id="node12" class="node">
<title>phylogenetic_VI</title>
<ellipse fill="#ccebc5" stroke="#ccebc5" cx="308.0724" cy="-211.2571" rx="69.5877" ry="18"/>
<text text-anchor="middle" x="308.0724" y="-207.5571" font-family="Times,serif" font-size="14.00" fill="#000000">phylogenetic_VI</text>
</g>
<!-- bito&#45;&#45;phylogenetic_VI -->
<g id="edge2" class="edge">
<title>bito&#45;&#45;phylogenetic_VI</title>
<path fill="none" stroke="#000000" d="M476.9681,-263.828C445.7656,-254.1158 391.2584,-237.1498 352.6122,-225.1207"/>
</g>
<!-- subsplit_DAG -->
<g id="node14" class="node">
<title>subsplit_DAG</title>
<ellipse fill="#ccebc5" stroke="#ccebc5" cx="667.9231" cy="-486.9696" rx="61.99" ry="18"/>
<text text-anchor="middle" x="667.9231" y="-483.2696" font-family="Times,serif" font-size="14.00" fill="#000000">subsplit_DAG</text>
</g>
<!-- bito&#45;&#45;subsplit_DAG -->
<g id="edge5" class="edge">
<title>bito&#45;&#45;subsplit_DAG</title>
<path fill="none" stroke="#000000" d="M513.9726,-287.6506C544.5194,-327.1993 622.7121,-428.4351 654.3405,-469.3843"/>
</g>
<!-- generalized_pruning -->
<g id="node9" class="node">
<title>generalized_pruning</title>
<ellipse fill="#ccebc5" stroke="#ccebc5" cx="514.9093" cy="-490.9833" rx="83.3857" ry="18"/>
<text text-anchor="middle" x="514.9093" y="-487.2833" font-family="Times,serif" font-size="14.00" fill="#000000">generalized_pruning</text>
</g>
<!-- mechanistic_SHM -->
<g id="node10" class="node">
<title>mechanistic_SHM</title>
<ellipse fill="#ccebc5" stroke="#ccebc5" cx="1077.7468" cy="-395.8922" rx="77.1866" ry="18"/>
<text text-anchor="middle" x="1077.7468" y="-392.1922" font-family="Times,serif" font-size="14.00" fill="#000000">mechanistic_SHM</text>
</g>
<!-- context_sensitive_phylo -->
<g id="node26" class="node">
<title>context_sensitive_phylo</title>
<polygon fill="none" stroke="#000000" points="910.4402,-518.386 774.3697,-500.386 910.4402,-482.386 1046.5108,-500.386 910.4402,-518.386"/>
<text text-anchor="middle" x="910.4402" y="-496.686" font-family="Times,serif" font-size="14.00" fill="#000000">context_sensitive_phylo</text>
</g>
<!-- mechanistic_SHM&#45;&#45;context_sensitive_phylo -->
<g id="edge46" class="edge">
<title>mechanistic_SHM&#45;&#45;context_sensitive_phylo</title>
<path fill="none" stroke="#000000" d="M1050.4938,-412.9135C1018.2709,-433.0387 965.1498,-466.2163 934.4251,-485.4059"/>
</g>
<!-- SHM_across_ages -->
<g id="node28" class="node">
<title>SHM_across_ages</title>
<polygon fill="none" stroke="#000000" points="1192.9413,-211.7619 1084.5201,-193.7619 1192.9413,-175.7619 1301.3624,-193.7619 1192.9413,-211.7619"/>
<text text-anchor="middle" x="1192.9413" y="-190.0619" font-family="Times,serif" font-size="14.00" fill="#000000">SHM_across_ages</text>
</g>
<!-- mechanistic_SHM&#45;&#45;SHM_across_ages -->
<g id="edge39" class="edge">
<title>mechanistic_SHM&#45;&#45;SHM_across_ages</title>
<path fill="none" stroke="#000000" d="M1087.9696,-377.9545C1110.105,-339.1137 1162.1928,-247.7158 1183.5526,-210.2361"/>
</g>
<!-- paired_HL -->
<g id="node11" class="node">
<title>paired_HL</title>
<ellipse fill="#ccebc5" stroke="#ccebc5" cx="1338.2827" cy="-755.0491" rx="48.9926" ry="18"/>
<text text-anchor="middle" x="1338.2827" y="-751.3491" font-family="Times,serif" font-size="14.00" fill="#000000">paired_HL</text>
</g>
<!-- B_cell_CONGA -->
<g id="node25" class="node">
<title>B_cell_CONGA</title>
<polygon fill="none" stroke="#000000" points="1519.9735,-884.4597 1421.7736,-866.4597 1519.9735,-848.4597 1618.1734,-866.4597 1519.9735,-884.4597"/>
<text text-anchor="middle" x="1519.9735" y="-862.7597" font-family="Times,serif" font-size="14.00" fill="#000000">B_cell_CONGA</text>
</g>
<!-- paired_HL&#45;&#45;B_cell_CONGA -->
<g id="edge47" class="edge">
<title>paired_HL&#45;&#45;B_cell_CONGA</title>
<path fill="none" stroke="#000000" d="M1363.546,-770.5403C1399.0386,-792.3039 1463.1287,-831.6031 1497.215,-852.5045"/>
</g>
<!-- adaptive_MCMC -->
<g id="node38" class="node">
<title>adaptive_MCMC</title>
<polygon fill="none" stroke="#000000" points="103.8648,-226.4897 .1351,-208.4897 103.8648,-190.4897 207.5945,-208.4897 103.8648,-226.4897"/>
<text text-anchor="middle" x="103.8648" y="-204.7897" font-family="Times,serif" font-size="14.00" fill="#000000">adaptive_MCMC</text>
</g>
<!-- phylogenetic_VI&#45;&#45;adaptive_MCMC -->
<g id="edge1" class="edge">
<title>phylogenetic_VI&#45;&#45;adaptive_MCMC</title>
<path fill="none" stroke="#000000" d="M238.3669,-210.3124C226.1195,-210.1465 213.1782,-209.9711 200.3554,-209.7973"/>
</g>
<!-- online_phylo_VI -->
<g id="node40" class="node">
<title>online_phylo_VI</title>
<polygon fill="none" stroke="#000000" points="435.6107,-392.766 335.2341,-374.766 435.6107,-356.766 535.9873,-374.766 435.6107,-392.766"/>
<text text-anchor="middle" x="435.6107" y="-371.066" font-family="Times,serif" font-size="14.00" fill="#000000">online_phylo_VI</text>
</g>
<!-- phylogenetic_VI&#45;&#45;online_phylo_VI -->
<g id="edge6" class="edge">
<title>phylogenetic_VI&#45;&#45;online_phylo_VI</title>
<path fill="none" stroke="#000000" d="M321.964,-229.0667C347.0136,-261.1812 399.3624,-328.2943 423.2496,-358.9186"/>
</g>
<!-- antibody_DMS&#45;&#45;PhIP_seq -->
<g id="edge28" class="edge">
<title>antibody_DMS&#45;&#45;PhIP_seq</title>
<path fill="none" stroke="#000000" d="M701.2648,-1347.1671C673.9286,-1376.4969 619.0822,-1435.3431 591.8738,-1464.5358"/>
</g>
<!-- antibody_DMS&#45;&#45;torchdms -->
<g id="edge27" class="edge">
<title>antibody_DMS&#45;&#45;torchdms</title>
<path fill="none" stroke="#000000" d="M691.492,-1313.0498C665.6889,-1296.5194 626.4861,-1271.4047 601.4082,-1255.3389"/>
</g>
<!-- interactive_DMS_viz -->
<g id="node27" class="node">
<title>interactive_DMS_viz</title>
<polygon fill="none" stroke="#000000" points="815.4832,-1526.494 692.1489,-1508.494 815.4832,-1490.494 938.8176,-1508.494 815.4832,-1526.494"/>
<text text-anchor="middle" x="815.4832" y="-1504.794" font-family="Times,serif" font-size="14.00" fill="#000000">interactive_DMS_viz</text>
</g>
<!-- antibody_DMS&#45;&#45;interactive_DMS_viz -->
<g id="edge29" class="edge">
<title>antibody_DMS&#45;&#45;interactive_DMS_viz</title>
<path fill="none" stroke="#000000" d="M727.4535,-1347.8502C746.4725,-1382.5577 787.7814,-1457.9416 806.2441,-1491.6337"/>
</g>
<!-- subsplit_DAG&#45;&#45;generalized_pruning -->
<g id="edge9" class="edge">
<title>subsplit_DAG&#45;&#45;generalized_pruning</title>
<path fill="none" stroke="#000000" d="M606.1276,-488.5905C603.3075,-488.6645 600.4597,-488.7392 597.6004,-488.8142"/>
</g>
<!-- hillclimber -->
<g id="node19" class="node">
<title>hillclimber</title>
<polygon fill="none" stroke="#000000" points="532.1782,-637.7226 470.4585,-650.1603 408.7387,-637.7226 408.7963,-617.598 532.1206,-617.598 532.1782,-637.7226"/>
<text text-anchor="middle" x="470.4585" y="-628.4603" font-family="Times,serif" font-size="14.00" fill="#000000">hillclimber</text>
</g>
<!-- subsplit_DAG&#45;&#45;hillclimber -->
<g id="edge8" class="edge">
<title>subsplit_DAG&#45;&#45;hillclimber</title>
<path fill="none" stroke="#000000" d="M644.8849,-503.909C605.8182,-532.6338 527.2367,-590.4128 490.3876,-617.507"/>
</g>
<!-- Bayesian_subtree_optimality -->
<g id="node30" class="node">
<title>Bayesian_subtree_optimality</title>
<polygon fill="none" stroke="#000000" points="843.15,-292.333 682.4448,-274.333 843.15,-256.333 1003.8552,-274.333 843.15,-292.333"/>
<text text-anchor="middle" x="843.15" y="-270.633" font-family="Times,serif" font-size="14.00" fill="#000000">Bayesian_subtree_optimality</text>
</g>
<!-- subsplit_DAG&#45;&#45;Bayesian_subtree_optimality -->
<g id="edge13" class="edge">
<title>subsplit_DAG&#45;&#45;Bayesian_subtree_optimality</title>
<path fill="none" stroke="#000000" d="M682.5615,-469.2061C715.8743,-428.7812 796.9664,-330.3765 829.4054,-291.012"/>
</g>
<!-- fasdag -->
<g id="node32" class="node">
<title>fasdag</title>
<polygon fill="none" stroke="#000000" points="744.4314,-389.2873 696.8382,-371.2873 744.4314,-353.2873 792.0247,-371.2873 744.4314,-389.2873"/>
<text text-anchor="middle" x="744.4314" y="-367.5873" font-family="Times,serif" font-size="14.00" fill="#000000">fasdag</text>
</g>
<!-- subsplit_DAG&#45;&#45;fasdag -->
<g id="edge14" class="edge">
<title>subsplit_DAG&#45;&#45;fasdag</title>
<path fill="none" stroke="#000000" d="M679.7099,-469.1478C694.7998,-446.3315 720.6669,-407.2198 734.6955,-386.0082"/>
</g>
<!-- local_EM -->
<g id="node36" class="node">
<title>local_EM</title>
<polygon fill="none" stroke="#000000" points="608.9419,-317.5617 543.9207,-299.5617 608.9419,-281.5617 673.9631,-299.5617 608.9419,-317.5617"/>
<text text-anchor="middle" x="608.9419" y="-295.8617" font-family="Times,serif" font-size="14.00" fill="#000000">local_EM</text>
</g>
<!-- subsplit_DAG&#45;&#45;local_EM -->
<g id="edge10" class="edge">
<title>subsplit_DAG&#45;&#45;local_EM</title>
<path fill="none" stroke="#000000" d="M662.2677,-469.0001C650.8499,-432.7208 625.1942,-351.202 614.155,-316.1261"/>
</g>
<!-- how_big_of_sDAG -->
<g id="node39" class="node">
<title>how_big_of_sDAG</title>
<polygon fill="none" stroke="#000000" points="428.8411,-581.4749 315.7284,-563.4749 428.8411,-545.4749 541.9538,-563.4749 428.8411,-581.4749"/>
<text text-anchor="middle" x="428.8411" y="-559.7749" font-family="Times,serif" font-size="14.00" fill="#000000">how_big_of_sDAG</text>
</g>
<!-- subsplit_DAG&#45;&#45;how_big_of_sDAG -->
<g id="edge12" class="edge">
<title>subsplit_DAG&#45;&#45;how_big_of_sDAG</title>
<path fill="none" stroke="#000000" d="M626.2782,-500.2958C581.1922,-514.7231 509.9218,-537.5294 466.4689,-551.4341"/>
</g>
<!-- subsplit_DAG&#45;&#45;online_phylo_VI -->
<g id="edge7" class="edge">
<title>subsplit_DAG&#45;&#45;online_phylo_VI</title>
<path fill="none" stroke="#000000" d="M635.6211,-471.3682C589.6164,-449.1485 506.0351,-408.78 462.9359,-387.9637"/>
</g>
<!-- Bayesian_histories -->
<g id="node43" class="node">
<title>Bayesian_histories</title>
<polygon fill="none" stroke="#000000" points="910.7426,-665.334 791.7426,-665.334 791.7426,-629.334 910.7426,-629.334 910.7426,-665.334"/>
<text text-anchor="middle" x="851.2426" y="-643.634" font-family="Times,serif" font-size="14.00" fill="#000000">Bayesian_histories</text>
</g>
<!-- subsplit_DAG&#45;&#45;Bayesian_histories -->
<g id="edge11" class="edge">
<title>subsplit_DAG&#45;&#45;Bayesian_histories</title>
<path fill="none" stroke="#000000" d="M687.5415,-504.1314C722.4559,-534.6738 795.0438,-598.1724 830.6475,-629.3178"/>
</g>
<!-- transport -->
<g id="node16" class="node">
<title>transport</title>
<ellipse fill="#ccebc5" stroke="#ccebc5" cx="1903.0754" cy="-422.1549" rx="42.4939" ry="18"/>
<text text-anchor="middle" x="1903.0754" y="-418.4549" font-family="Times,serif" font-size="14.00" fill="#000000">transport</text>
</g>
<!-- VI_diagnostics -->
<g id="node17" class="node">
<title>VI_diagnostics</title>
<ellipse fill="#ccebc5" stroke="#ccebc5" cx="240.2018" cy="-18" rx="63.8893" ry="18"/>
<text text-anchor="middle" x="240.2018" y="-14.3" font-family="Times,serif" font-size="14.00" fill="#000000">VI_diagnostics</text>
</g>
<!-- VI_diagnostics&#45;&#45;phylogenetic_VI -->
<g id="edge3" class="edge">
<title>VI_diagnostics&#45;&#45;phylogenetic_VI</title>
<path fill="none" stroke="#000000" d="M246.5869,-36.1812C259.5555,-73.1083 288.8411,-156.4971 301.7537,-193.265"/>
</g>
<!-- CFT -->
<g id="node18" class="node">
<title>CFT</title>
<polygon fill="none" stroke="#000000" points="1269.3465,-847.8893 1236.4698,-860.327 1203.5931,-847.8893 1203.6238,-827.7647 1269.3158,-827.7647 1269.3465,-847.8893"/>
<text text-anchor="middle" x="1236.4698" y="-838.627" font-family="Times,serif" font-size="14.00" fill="#000000">CFT</text>
</g>
<!-- olmsted -->
<g id="node20" class="node">
<title>olmsted</title>
<polygon fill="none" stroke="#000000" points="1422.6502,-1019.888 1374.2446,-1032.3257 1325.839,-1019.888 1325.8841,-999.7634 1422.605,-999.7634 1422.6502,-1019.888"/>
<text text-anchor="middle" x="1374.2446" y="-1010.6257" font-family="Times,serif" font-size="14.00" fill="#000000">olmsted</text>
</g>
<!-- CFT&#45;&#45;olmsted -->
<g id="edge37" class="edge">
<title>CFT&#45;&#45;olmsted</title>
<path fill="none" stroke="#000000" d="M1247.7445,-856.4023C1273.4513,-888.4948 1336.2007,-966.8316 1362.4235,-999.5682"/>
</g>
<!-- find_posterior_modes -->
<g id="node33" class="node">
<title>find_posterior_modes</title>
<polygon fill="none" stroke="#000000" points="253.413,-671.0019 128.4022,-653.0019 253.413,-635.0019 378.4237,-653.0019 253.413,-671.0019"/>
<text text-anchor="middle" x="253.413" y="-649.3019" font-family="Times,serif" font-size="14.00" fill="#000000">find_posterior_modes</text>
</g>
<!-- hillclimber&#45;&#45;find_posterior_modes -->
<g id="edge15" class="edge">
<title>hillclimber&#45;&#45;find_posterior_modes</title>
<path fill="none" stroke="#000000" d="M409.7106,-637.9936C384.5032,-640.4141 354.9994,-643.2472 328.4574,-645.7958"/>
</g>
<!-- BCR_GWAS -->
<g id="node21" class="node">
<title>BCR_GWAS</title>
<polygon fill="none" stroke="#000000" points="1402.509,-509.1555 1318.7221,-491.1555 1402.509,-473.1555 1486.2959,-491.1555 1402.509,-509.1555"/>
<text text-anchor="middle" x="1402.509" y="-487.4555" font-family="Times,serif" font-size="14.00" fill="#000000">BCR_GWAS</text>
</g>
<!-- BCR_GWAS&#45;&#45;TCR_GWAS -->
<g id="edge41" class="edge">
<title>BCR_GWAS&#45;&#45;TCR_GWAS</title>
<path fill="none" stroke="#000000" d="M1422.9857,-477.4934C1449.2274,-459.9848 1494.6829,-429.6567 1522.8326,-410.875"/>
</g>
<!-- BCR_indels -->
<g id="node22" class="node">
<title>BCR_indels</title>
<polygon fill="none" stroke="#000000" points="1149.5613,-792.0949 1073.4806,-774.0949 1149.5613,-756.0949 1225.6419,-774.0949 1149.5613,-792.0949"/>
<text text-anchor="middle" x="1149.5613" y="-770.3949" font-family="Times,serif" font-size="14.00" fill="#000000">BCR_indels</text>
</g>
<!-- BCR_selection_analysis -->
<g id="node23" class="node">
<title>BCR_selection_analysis</title>
<polygon fill="none" stroke="#000000" points="1268.2418,-580.8434 1131.333,-562.8434 1268.2418,-544.8434 1405.1507,-562.8434 1268.2418,-580.8434"/>
<text text-anchor="middle" x="1268.2418" y="-559.1434" font-family="Times,serif" font-size="14.00" fill="#000000">BCR_selection_analysis</text>
</g>
<!-- BCR_trajectories -->
<g id="node24" class="node">
<title>BCR_trajectories</title>
<polygon fill="none" stroke="#000000" points="1292.0047,-686.397 1190.79,-668.397 1292.0047,-650.397 1393.2194,-668.397 1292.0047,-686.397"/>
<text text-anchor="middle" x="1292.0047" y="-664.697" font-family="Times,serif" font-size="14.00" fill="#000000">BCR_trajectories</text>
</g>
<!-- linearham_empirical_uncertainty -->
<g id="node29" class="node">
<title>linearham_empirical_uncertainty</title>
<polygon fill="none" stroke="#000000" points="1129.7644,-474.3686 948.6165,-456.3686 1129.7644,-438.3686 1310.9124,-456.3686 1129.7644,-474.3686"/>
<text text-anchor="middle" x="1129.7644" y="-452.6686" font-family="Times,serif" font-size="14.00" fill="#000000">linearham_empirical_uncertainty</text>
</g>
<!-- SARS2_parsimony_plateau -->
<g id="node31" class="node">
<title>SARS2_parsimony_plateau</title>
<polygon fill="none" stroke="#000000" points="910.8668,-796.57 757.3683,-778.57 910.8668,-760.57 1064.3654,-778.57 910.8668,-796.57"/>
<text text-anchor="middle" x="910.8668" y="-774.87" font-family="Times,serif" font-size="14.00" fill="#000000">SARS2_parsimony_plateau</text>
</g>
<!-- help_PANGO -->
<g id="node34" class="node">
<title>help_PANGO</title>
<polygon fill="none" stroke="#000000" points="740.4959,-719.5036 655.0326,-701.5036 740.4959,-683.5036 825.9591,-701.5036 740.4959,-719.5036"/>
<text text-anchor="middle" x="740.4959" y="-697.8036" font-family="Times,serif" font-size="14.00" fill="#000000">help_PANGO</text>
</g>
<!-- fast_TreeTime -->
<g id="node37" class="node">
<title>fast_TreeTime</title>
<polygon fill="none" stroke="#000000" points="660.0457,-812.6332 570.7289,-794.6332 660.0457,-776.6332 749.3625,-794.6332 660.0457,-812.6332"/>
<text text-anchor="middle" x="660.0457" y="-790.9332" font-family="Times,serif" font-size="14.00" fill="#000000">fast_TreeTime</text>
</g>
<!-- polytomy_resolution -->
<g id="node41" class="node">
<title>polytomy_resolution</title>
<polygon fill="none" stroke="#000000" points="517.8031,-942.4596 398.3222,-924.4596 517.8031,-906.4596 637.2839,-924.4596 517.8031,-942.4596"/>
<text text-anchor="middle" x="517.8031" y="-920.7596" font-family="Times,serif" font-size="14.00" fill="#000000">polytomy_resolution</text>
</g>
<!-- fast_TreeTime&#45;&#45;polytomy_resolution -->
<g id="edge22" class="edge">
<title>fast_TreeTime&#45;&#45;polytomy_resolution</title>
<path fill="none" stroke="#000000" d="M643.7287,-809.5259C616.5824,-834.3026 562.4078,-883.7483 534.8107,-908.9365"/>
</g>
<!-- how_big_of_sDAG&#45;&#45;find_posterior_modes -->
<g id="edge16" class="edge">
<title>how_big_of_sDAG&#45;&#45;find_posterior_modes</title>
<path fill="none" stroke="#000000" d="M401.8149,-577.2673C369.0409,-593.9929 314.0953,-622.0336 281.0491,-638.8982"/>
</g>
<!-- BCR_analysis -->
<g id="node42" class="node">
<title>BCR_analysis</title>
<polygon fill="none" stroke="#000000" points="1159.5233,-638.9102 1065.5233,-638.9102 1065.5233,-602.9102 1159.5233,-602.9102 1159.5233,-638.9102"/>
<text text-anchor="middle" x="1112.5233" y="-617.2102" font-family="Times,serif" font-size="14.00" fill="#000000">BCR_analysis</text>
</g>
<!-- BCR_analysis&#45;&#45;mechanistic_SHM -->
<g id="edge38" class="edge">
<title>BCR_analysis&#45;&#45;mechanistic_SHM</title>
<path fill="none" stroke="#000000" d="M1109.7362,-602.8764C1103.2246,-560.7437 1087.0719,-456.2292 1080.5472,-414.0119"/>
</g>
<!-- BCR_analysis&#45;&#45;paired_HL -->
<g id="edge34" class="edge">
<title>BCR_analysis&#45;&#45;paired_HL</title>
<path fill="none" stroke="#000000" d="M1142.9702,-639.0008C1187.743,-665.6033 1270.5594,-714.8101 1312.5021,-739.7311"/>
</g>
<!-- BCR_analysis&#45;&#45;CFT -->
<g id="edge35" class="edge">
<title>BCR_analysis&#45;&#45;CFT</title>
<path fill="none" stroke="#000000" d="M1122.6664,-639.0297C1146.6024,-681.7888 1206.2368,-788.319 1228.1887,-827.5336"/>
</g>
<!-- BCR_analysis&#45;&#45;BCR_GWAS -->
<g id="edge40" class="edge">
<title>BCR_analysis&#45;&#45;BCR_GWAS</title>
<path fill="none" stroke="#000000" d="M1152.8446,-602.8684C1212.7603,-576.059 1323.737,-526.4022 1375.1054,-503.4173"/>
</g>
<!-- BCR_analysis&#45;&#45;BCR_indels -->
<g id="edge32" class="edge">
<title>BCR_analysis&#45;&#45;BCR_indels</title>
<path fill="none" stroke="#000000" d="M1116.9175,-639.0841C1124.1224,-668.8828 1138.3501,-727.7269 1145.4002,-756.8853"/>
</g>
<!-- BCR_analysis&#45;&#45;BCR_selection_analysis -->
<g id="edge30" class="edge">
<title>BCR_analysis&#45;&#45;BCR_selection_analysis</title>
<path fill="none" stroke="#000000" d="M1159.6666,-603.3307C1182.9407,-594.6519 1210.5757,-584.3469 1232.1408,-576.3054"/>
</g>
<!-- BCR_analysis&#45;&#45;BCR_trajectories -->
<g id="edge31" class="edge">
<title>BCR_analysis&#45;&#45;BCR_trajectories</title>
<path fill="none" stroke="#000000" d="M1159.6799,-633.3868C1188.1381,-640.9162 1224.0339,-650.4134 1251.2566,-657.6159"/>
</g>
<!-- BCR_analysis&#45;&#45;linearham_empirical_uncertainty -->
<g id="edge36" class="edge">
<title>BCR_analysis&#45;&#45;linearham_empirical_uncertainty</title>
<path fill="none" stroke="#000000" d="M1114.4343,-602.6727C1117.7659,-570.8771 1124.5967,-505.6876 1127.8973,-474.1877"/>
</g>
<!-- BCR_analysis&#45;&#45;Bayesian_histories -->
<g id="edge33" class="edge">
<title>BCR_analysis&#45;&#45;Bayesian_histories</title>
<path fill="none" stroke="#000000" d="M1065.5098,-625.6648C1022.3146,-630.0332 958.0766,-636.5297 911.2049,-641.2699"/>
</g>
<!-- Bayesian_histories&#45;&#45;Bayesian_GCtree -->
<g id="edge18" class="edge">
<title>Bayesian_histories&#45;&#45;Bayesian_GCtree</title>
<path fill="none" stroke="#000000" d="M848.304,-665.4772C840.4937,-713.6988 819.2825,-844.659 811.4487,-893.0255"/>
</g>
<!-- Bayesian_histories&#45;&#45;context_sensitive_phylo -->
<g id="edge17" class="edge">
<title>Bayesian_histories&#45;&#45;context_sensitive_phylo</title>
<path fill="none" stroke="#000000" d="M858.5014,-629.3153C869.9865,-600.8055 892.2005,-545.6631 903.49,-517.6387"/>
</g>
<!-- Bayesian_histories&#45;&#45;SARS2_parsimony_plateau -->
<g id="edge19" class="edge">
<title>Bayesian_histories&#45;&#45;SARS2_parsimony_plateau</title>
<path fill="none" stroke="#000000" d="M859.5331,-665.5818C871.0525,-690.9366 891.7513,-736.4958 903.026,-761.312"/>
</g>
<!-- Bayesian_histories&#45;&#45;help_PANGO -->
<g id="edge20" class="edge">
<title>Bayesian_histories&#45;&#45;help_PANGO</title>
<path fill="none" stroke="#000000" d="M814.3656,-665.3717C798.6349,-673.066 780.6544,-681.8609 766.3715,-688.8471"/>
</g>
<!-- Bayesian_histories&#45;&#45;fast_TreeTime -->
<g id="edge21" class="edge">
<title>Bayesian_histories&#45;&#45;fast_TreeTime</title>
<path fill="none" stroke="#000000" d="M827.7981,-665.3958C789.4071,-694.9725 713.8997,-753.1437 678.8031,-780.1824"/>
</g>
<!-- TCR_analysis -->
<g id="node44" class="node">
<title>TCR_analysis</title>
<polygon fill="none" stroke="#000000" points="1763.2811,-324.3956 1670.2811,-324.3956 1670.2811,-288.3956 1763.2811,-288.3956 1763.2811,-324.3956"/>
<text text-anchor="middle" x="1716.7811" y="-302.6956" font-family="Times,serif" font-size="14.00" fill="#000000">TCR_analysis</text>
</g>
<!-- TCR_analysis&#45;&#45;HLA_effects -->
<g id="edge43" class="edge">
<title>TCR_analysis&#45;&#45;HLA_effects</title>
<path fill="none" stroke="#000000" d="M1719.2009,-288.3943C1724.6534,-247.833 1737.8487,-149.6708 1743.3139,-109.0147"/>
</g>
<!-- TCR_analysis&#45;&#45;TCR_GWAS -->
<g id="edge42" class="edge">
<title>TCR_analysis&#45;&#45;TCR_GWAS</title>
<path fill="none" stroke="#000000" d="M1682.1314,-324.4102C1651.2883,-340.4457 1606.6454,-363.6558 1577.3714,-378.8756"/>
</g>
<!-- TCR_analysis&#45;&#45;TCR_trimming_motifs -->
<g id="edge45" class="edge">
<title>TCR_analysis&#45;&#45;TCR_trimming_motifs</title>
<path fill="none" stroke="#000000" d="M1755.314,-288.3686C1783.9854,-274.9551 1822.8336,-256.7806 1850.8215,-243.6869"/>
</g>
<!-- TCR_analysis&#45;&#45;transport -->
<g id="edge44" class="edge">
<title>TCR_analysis&#45;&#45;transport</title>
<path fill="none" stroke="#000000" d="M1745.8896,-324.483C1782.5254,-347.2477 1844.7775,-385.9298 1878.9117,-407.1401"/>
</g>
<!-- train_awesome_researchers -->
<g id="node45" class="node">
<title>train_awesome_researchers</title>
<polygon fill="none" stroke="#000000" points="1837.3176,-1456.9645 1670.2367,-1456.9645 1618.6058,-1615.7196 1566.975,-1456.9645 1399.8941,-1456.9645 1535.0654,-1358.8485 1483.4346,-1200.0935 1618.6058,-1298.2095 1753.7771,-1200.0935 1702.1463,-1358.8485 1837.3176,-1456.9645"/>
<text text-anchor="middle" x="1618.6058" y="-1404.2065" font-family="Times,serif" font-size="14.00" fill="#000000">train_awesome_researchers</text>
</g>
<!-- diversify_comp_bio -->
<g id="node46" class="node">
<title>diversify_comp_bio</title>
<polygon fill="none" stroke="#000000" points="2129.8084,-793.8619 2003.8572,-793.8619 1964.9361,-913.5909 1926.0151,-793.8619 1800.0638,-793.8619 1901.9605,-719.8653 1863.0395,-600.1363 1964.9361,-674.1329 2066.8328,-600.1363 2027.9118,-719.8653 2129.8084,-793.8619"/>
<text text-anchor="middle" x="1964.9361" y="-753.1636" font-family="Times,serif" font-size="14.00" fill="#000000">diversify_comp_bio</text>
</g>
<!-- eradicate_disease -->
<g id="node47" class="node">
<title>eradicate_disease</title>
<polygon fill="none" stroke="#000000" points="490.4029,-1770.8562 379.5548,-1770.8562 345.3009,-1876.5683 311.0469,-1770.8562 200.1988,-1770.8562 289.8768,-1705.5225 255.6229,-1599.8104 345.3009,-1665.1441 434.9789,-1599.8104 400.7249,-1705.5225 490.4029,-1770.8562"/>
<text text-anchor="middle" x="345.3009" y="-1734.4894" font-family="Times,serif" font-size="14.00" fill="#000000">eradicate_disease</text>
</g>
</g>
</svg>
