<?xml version="1.0" encoding="UTF-8" standalone="no"?>
<!DOCTYPE svg PUBLIC "-//W3C//DTD SVG 1.1//EN"
 "http://www.w3.org/Graphics/SVG/1.1/DTD/svg11.dtd">
<!-- Generated by graphviz version 2.40.1 (20161225.0304)
 -->
<!-- Title: %3 Pages: 1 -->
<svg width="2094pt" height="2165pt"
 viewBox="0.00 0.00 2094.00 2165.00" xmlns="http://www.w3.org/2000/svg" xmlns:xlink="http://www.w3.org/1999/xlink">
<g id="graph0" class="graph" transform="scale(1 1) rotate(0) translate(4 2161)">
<title>%3</title>
<polygon fill="#ffffff" stroke="transparent" points="-4,4 -4,-2161 2090,-2161 2090,4 -4,4"/>
<g id="clust1" class="cluster">
<title>cluster_0</title>
<polygon fill="none" stroke="#000000" points="1648.7381,-1649.1409 1648.7381,-1940.1409 2055.7381,-1940.1409 2055.7381,-1649.1409 1648.7381,-1649.1409"/>
<text text-anchor="middle" x="1852.2381" y="-1924.9409" font-family="Times,serif" font-size="14.00" fill="#000000">legend</text>
</g>
<!-- for_programmer -->
<g id="node1" class="node">
<title>for_programmer</title>
<ellipse fill="#bc80bd" stroke="#bc80bd" cx="1968.9762" cy="-1890.7818" rx="69.5877" ry="18"/>
<text text-anchor="middle" x="1968.9762" y="-1887.0818" font-family="Times,serif" font-size="14.00" fill="#000000">for_programmer</text>
</g>
<!-- active -->
<g id="node2" class="node">
<title>active</title>
<ellipse fill="#ccebc5" stroke="#ccebc5" cx="1967.9762" cy="-1674.7818" rx="31.6951" ry="18"/>
<text text-anchor="middle" x="1967.9762" y="-1671.0818" font-family="Times,serif" font-size="14.00" fill="#000000">active</text>
</g>
<!-- ready_to_go -->
<g id="node3" class="node">
<title>ready_to_go</title>
<ellipse fill="#b3de69" stroke="#b3de69" cx="1863.9762" cy="-1674.7818" rx="54.6905" ry="18"/>
<text text-anchor="middle" x="1863.9762" y="-1671.0818" font-family="Times,serif" font-size="14.00" fill="#000000">ready_to_go</text>
</g>
<!-- needing_logistics -->
<g id="node4" class="node">
<title>needing_logistics</title>
<ellipse fill="#fdb462" stroke="#fdb462" cx="1809.9762" cy="-1890.7818" rx="72.2875" ry="18"/>
<text text-anchor="middle" x="1809.9762" y="-1887.0818" font-family="Times,serif" font-size="14.00" fill="#000000">needing_logistics</text>
</g>
<!-- needing_consideration -->
<g id="node5" class="node">
<title>needing_consideration</title>
<ellipse fill="#8dd3c7" stroke="#8dd3c7" cx="1899.9762" cy="-1728.7818" rx="90.1842" ry="18"/>
<text text-anchor="middle" x="1899.9762" y="-1725.0818" font-family="Times,serif" font-size="14.00" fill="#000000">needing_consideration</text>
</g>
<!-- eventually -->
<g id="node6" class="node">
<title>eventually</title>
<ellipse fill="#d9d9d9" stroke="#d9d9d9" cx="1748.9762" cy="-1728.7818" rx="47.3916" ry="18"/>
<text text-anchor="middle" x="1748.9762" y="-1725.0818" font-family="Times,serif" font-size="14.00" fill="#000000">eventually</text>
</g>
<!-- topic -->
<g id="node7" class="node">
<title>topic</title>
<polygon fill="none" stroke="#000000" points="1737.9762,-1692.7818 1683.9762,-1692.7818 1683.9762,-1656.7818 1737.9762,-1656.7818 1737.9762,-1692.7818"/>
<text text-anchor="middle" x="1710.9762" y="-1671.0818" font-family="Times,serif" font-size="14.00" fill="#000000">topic</text>
</g>
<!-- significant_work_already_done -->
<g id="node8" class="node">
<title>significant_work_already_done</title>
<polygon fill="none" stroke="#000000" points="1959.0445,-1788.3441 1807.9762,-1800.7818 1656.908,-1788.3441 1657.049,-1768.2195 1958.9034,-1768.2195 1959.0445,-1788.3441"/>
<text text-anchor="middle" x="1807.9762" y="-1779.0818" font-family="Times,serif" font-size="14.00" fill="#000000">significant_work_already_done</text>
</g>
<!-- proposed_project -->
<g id="node9" class="node">
<title>proposed_project</title>
<polygon fill="none" stroke="#000000" points="1946.9762,-1854.7818 1845.7615,-1836.7818 1946.9762,-1818.7818 2048.1909,-1836.7818 1946.9762,-1854.7818"/>
<text text-anchor="middle" x="1946.9762" y="-1833.0818" font-family="Times,serif" font-size="14.00" fill="#000000">proposed_project</text>
</g>
<!-- active_project -->
<g id="node10" class="node">
<title>active_project</title>
<ellipse fill="none" stroke="#000000" cx="1770.9762" cy="-1836.7818" rx="60.3893" ry="18"/>
<text text-anchor="middle" x="1770.9762" y="-1833.0818" font-family="Times,serif" font-size="14.00" fill="#000000">active_project</text>
</g>
<!-- Bayesian_GCtree -->
<g id="node11" class="node">
<title>Bayesian_GCtree</title>
<g id="a_node11"><a xlink:title="Do posterior estimation using Will&#39;s GCtree framework.">
<ellipse fill="#ccebc5" stroke="#ccebc5" cx="775.0935" cy="-1187.8522" rx="72.5877" ry="18"/>
<text text-anchor="middle" x="775.0935" y="-1184.1522" font-family="Times,serif" font-size="14.00" fill="#000000">Bayesian_GCtree</text>
</a>
</g>
</g>
<!-- GCreplay -->
<g id="node12" class="node">
<title>GCreplay</title>
<g id="a_node12"><a xlink:title="A big collaboration with the Victora and Bloom labs to understand GC maturation with replicate samples.">
<ellipse fill="#ccebc5" stroke="#ccebc5" cx="581.4603" cy="-1145.0396" rx="44.6926" ry="18"/>
<text text-anchor="middle" x="581.4603" y="-1141.3396" font-family="Times,serif" font-size="14.00" fill="#000000">GCreplay</text>
</a>
</g>
</g>
<!-- Bayesian_GCtree&#45;&#45;GCreplay -->
<g id="edge29" class="edge">
<title>Bayesian_GCtree&#45;&#45;GCreplay</title>
<path fill="none" stroke="#000000" d="M720.6406,-1175.8126C688.8726,-1168.7886 649.5244,-1160.0887 620.7797,-1153.7331"/>
</g>
<!-- GCtree_with_heritable -->
<g id="node50" class="node">
<title>GCtree_with_heritable</title>
<g id="a_node50"><a xlink:title="GCtree operates under the assumption of a neutral branching process, the parameters of which do not change through the tree. Can we extend this to a process with a heritable component?">
<polygon fill="#b3de69" stroke="#b3de69" points="669.5592,-978.3121 540.6949,-960.3121 669.5592,-942.3121 798.4235,-960.3121 669.5592,-978.3121"/>
<text text-anchor="middle" x="669.5592" y="-956.6121" font-family="Times,serif" font-size="14.00" fill="#000000">GCtree_with_heritable</text>
</a>
</g>
</g>
<!-- Bayesian_GCtree&#45;&#45;GCtree_with_heritable -->
<g id="edge30" class="edge">
<title>Bayesian_GCtree&#45;&#45;GCtree_with_heritable</title>
<path fill="none" stroke="#000000" d="M766.6356,-1169.6163C746.6795,-1126.5895 696.884,-1019.2265 677.4779,-977.3855"/>
</g>
<!-- antibody_DMS -->
<g id="node24" class="node">
<title>antibody_DMS</title>
<g id="a_node24"><a xlink:title="What can we learn from deep mutational scanning on antibodies?">
<ellipse fill="#ccebc5" stroke="#ccebc5" cx="289.7002" cy="-1071.6031" rx="65.7887" ry="18"/>
<text text-anchor="middle" x="289.7002" y="-1067.9031" font-family="Times,serif" font-size="14.00" fill="#000000">antibody_DMS</text>
</a>
</g>
</g>
<!-- GCreplay&#45;&#45;antibody_DMS -->
<g id="edge32" class="edge">
<title>GCreplay&#45;&#45;antibody_DMS</title>
<path fill="none" stroke="#000000" d="M543.3177,-1135.439C490.7231,-1122.2009 395.9143,-1098.3373 338.3008,-1083.8359"/>
</g>
<!-- torchdms -->
<g id="node27" class="node">
<title>torchdms</title>
<g id="a_node27"><a xlink:title="Develop a DMS analysis package using a modern machine&#45;learning library.">
<ellipse fill="#ccebc5" stroke="#ccebc5" cx="357.8111" cy="-1348.5443" rx="44.393" ry="18"/>
<text text-anchor="middle" x="357.8111" y="-1344.8443" font-family="Times,serif" font-size="14.00" fill="#000000">torchdms</text>
</a>
</g>
</g>
<!-- GCreplay&#45;&#45;torchdms -->
<g id="edge31" class="edge">
<title>GCreplay&#45;&#45;torchdms</title>
<path fill="none" stroke="#000000" d="M563.1581,-1161.6932C521.1155,-1199.949 418.0362,-1293.7438 376.0525,-1331.946"/>
</g>
<!-- HLA_effects -->
<g id="node13" class="node">
<title>HLA_effects</title>
<g id="a_node13"><a xlink:title="Assya&#39;s project understanding the effects of HLA on repertoire.">
<ellipse fill="#ccebc5" stroke="#ccebc5" cx="1263.3617" cy="-2022.2801" rx="56.59" ry="18"/>
<text text-anchor="middle" x="1263.3617" y="-2018.5801" font-family="Times,serif" font-size="14.00" fill="#000000">HLA_effects</text>
</a>
</g>
</g>
<!-- PhIP_seq -->
<g id="node14" class="node">
<title>PhIP_seq</title>
<g id="a_node14"><a xlink:title="Develop statistics and software tools for PhIP&#45;seq analyses.">
<ellipse fill="#ccebc5" stroke="#ccebc5" cx="222.9194" cy="-916.1409" rx="44.393" ry="18"/>
<text text-anchor="middle" x="222.9194" y="-912.4409" font-family="Times,serif" font-size="14.00" fill="#000000">PhIP_seq</text>
</a>
</g>
</g>
<!-- TCR_GWAS -->
<g id="node15" class="node">
<title>TCR_GWAS</title>
<g id="a_node15"><a xlink:title="GWAS to infer TCR&#45;repertoire features.">
<ellipse fill="#ccebc5" stroke="#ccebc5" cx="1399.1844" cy="-1849.2705" rx="58.4896" ry="18"/>
<text text-anchor="middle" x="1399.1844" y="-1845.5705" font-family="Times,serif" font-size="14.00" fill="#000000">TCR_GWAS</text>
</a>
</g>
</g>
<!-- TCR_trimming_motifs -->
<g id="node16" class="node">
<title>TCR_trimming_motifs</title>
<g id="a_node16"><a xlink:title="What sequence&#45;level features determine trimming of TCRs in VDJ recombination?">
<ellipse fill="#ccebc5" stroke="#ccebc5" cx="911.0958" cy="-1882.6091" rx="92.8835" ry="18"/>
<text text-anchor="middle" x="911.0958" y="-1878.9091" font-family="Times,serif" font-size="14.00" fill="#000000">TCR_trimming_motifs</text>
</a>
</g>
</g>
<!-- bito -->
<g id="node17" class="node">
<title>bito</title>
<g id="a_node17"><a xlink:title="Bayesian Inference of Trees via Optimization: a C++/python package">
<ellipse fill="#ccebc5" stroke="#ccebc5" cx="905.1456" cy="-290.05" rx="27" ry="18"/>
<text text-anchor="middle" x="905.1456" y="-286.35" font-family="Times,serif" font-size="14.00" fill="#000000">bito</text>
</a>
</g>
</g>
<!-- autodiff_gradients -->
<g id="node18" class="node">
<title>autodiff_gradients</title>
<g id="a_node18"><a xlink:title="How fast is autodiff for phylogenetically&#45;relevant gradients?">
<ellipse fill="#ccebc5" stroke="#ccebc5" cx="711.4121" cy="-34.4717" rx="75.2868" ry="18"/>
<text text-anchor="middle" x="711.4121" y="-30.7717" font-family="Times,serif" font-size="14.00" fill="#000000">autodiff_gradients</text>
</a>
</g>
</g>
<!-- bito&#45;&#45;autodiff_gradients -->
<g id="edge4" class="edge">
<title>bito&#45;&#45;autodiff_gradients</title>
<path fill="none" stroke="#000000" d="M892.732,-273.6737C858.1573,-228.0619 760.9451,-99.817 724.9978,-52.3943"/>
</g>
<!-- phylogenetic_VI -->
<g id="node23" class="node">
<title>phylogenetic_VI</title>
<g id="a_node23"><a xlink:title="Do variational inference of continuous parameters in phylogenetics.">
<ellipse fill="#ccebc5" stroke="#ccebc5" cx="1035.7648" cy="-294.309" rx="69.5877" ry="18"/>
<text text-anchor="middle" x="1035.7648" y="-290.609" font-family="Times,serif" font-size="14.00" fill="#000000">phylogenetic_VI</text>
</a>
</g>
</g>
<!-- bito&#45;&#45;phylogenetic_VI -->
<g id="edge2" class="edge">
<title>bito&#45;&#45;phylogenetic_VI</title>
<path fill="none" stroke="#000000" d="M932.21,-290.9325C942.3726,-291.2639 954.4428,-291.6574 966.6901,-292.0568"/>
</g>
<!-- subsplit_DAG -->
<g id="node26" class="node">
<title>subsplit_DAG</title>
<g id="a_node26"><a xlink:title="Formalize definitions of and basic lemmas for the subsplit DAG.">
<ellipse fill="#ccebc5" stroke="#ccebc5" cx="645.2325" cy="-560.9515" rx="61.99" ry="18"/>
<text text-anchor="middle" x="645.2325" y="-557.2515" font-family="Times,serif" font-size="14.00" fill="#000000">subsplit_DAG</text>
</a>
</g>
</g>
<!-- bito&#45;&#45;subsplit_DAG -->
<g id="edge7" class="edge">
<title>bito&#45;&#45;subsplit_DAG</title>
<path fill="none" stroke="#000000" d="M890.4268,-305.3911C845.431,-352.2892 709.8711,-493.5802 662.1093,-543.3612"/>
</g>
<!-- variational_branch_lengths -->
<g id="node52" class="node">
<title>variational_branch_lengths</title>
<g id="a_node52"><a xlink:title="Get Cheng&#39;s normalizing flow code working.">
<polygon fill="#b3de69" stroke="#b3de69" points="959.9552,-36.155 808.9712,-18.155 959.9552,-.155 1110.9391,-18.155 959.9552,-36.155"/>
<text text-anchor="middle" x="959.9552" y="-14.455" font-family="Times,serif" font-size="14.00" fill="#000000">variational_branch_lengths</text>
</a>
</g>
</g>
<!-- bito&#45;&#45;variational_branch_lengths -->
<g id="edge6" class="edge">
<title>bito&#45;&#45;variational_branch_lengths</title>
<path fill="none" stroke="#000000" d="M908.7418,-272.2103C918.673,-222.9445 946.3987,-85.4046 956.3457,-36.0605"/>
</g>
<!-- bito_vimco -->
<g id="node53" class="node">
<title>bito_vimco</title>
<g id="a_node53"><a xlink:title="Get VIMCO working in bito.">
<polygon fill="#b3de69" stroke="#b3de69" points="1175.6148,-366.8123 1102.8878,-348.8123 1175.6148,-330.8123 1248.3419,-348.8123 1175.6148,-366.8123"/>
<text text-anchor="middle" x="1175.6148" y="-345.1123" font-family="Times,serif" font-size="14.00" fill="#000000">bito_vimco</text>
</a>
</g>
</g>
<!-- bito&#45;&#45;bito_vimco -->
<g id="edge5" class="edge">
<title>bito&#45;&#45;bito_vimco</title>
<path fill="none" stroke="#000000" d="M931.0793,-295.6844C978.8105,-306.0545 1080.8004,-328.2129 1136.807,-340.3809"/>
</g>
<!-- generalized_pruning -->
<g id="node19" class="node">
<title>generalized_pruning</title>
<g id="a_node19"><a xlink:title="Generalization of the Felsenstein pruning algorithm to the subsplit DAG.">
<ellipse fill="#ccebc5" stroke="#ccebc5" cx="360.4386" cy="-588.8277" rx="83.3857" ry="18"/>
<text text-anchor="middle" x="360.4386" y="-585.1277" font-family="Times,serif" font-size="14.00" fill="#000000">generalized_pruning</text>
</a>
</g>
</g>
<!-- fix_generalized_pruning -->
<g id="node49" class="node">
<title>fix_generalized_pruning</title>
<g id="a_node49"><a xlink:title="How could we fix marginalization issues with generalized pruning?">
<polygon fill="none" stroke="#000000" points="137.4498,-440.56 .5409,-422.56 137.4498,-404.56 274.3587,-422.56 137.4498,-440.56"/>
<text text-anchor="middle" x="137.4498" y="-418.86" font-family="Times,serif" font-size="14.00" fill="#000000">fix_generalized_pruning</text>
</a>
</g>
</g>
<!-- generalized_pruning&#45;&#45;fix_generalized_pruning -->
<g id="edge19" class="edge">
<title>generalized_pruning&#45;&#45;fix_generalized_pruning</title>
<path fill="none" stroke="#000000" d="M336.9964,-571.3484C293.1632,-538.665 199.479,-468.811 157.9724,-437.8623"/>
</g>
<!-- linearham_empirical_uncertainty -->
<g id="node20" class="node">
<title>linearham_empirical_uncertainty</title>
<g id="a_node20"><a xlink:title="linearham is our Bayesian method for doing inference of BCR lineage evolution. If we apply it to well&#45;known data sets from the literature, how much uncertainty is there in ancestral sequence inference?">
<ellipse fill="#ccebc5" stroke="#ccebc5" cx="1033.0952" cy="-1537.8295" rx="128.0773" ry="18"/>
<text text-anchor="middle" x="1033.0952" y="-1534.1295" font-family="Times,serif" font-size="14.00" fill="#000000">linearham_empirical_uncertainty</text>
</a>
</g>
</g>
<!-- mechanistic_SHM -->
<g id="node21" class="node">
<title>mechanistic_SHM</title>
<g id="a_node21"><a xlink:title="Design and fit mechanistically&#45;based probabilistic models of the somatic hypermutation process.">
<ellipse fill="#ccebc5" stroke="#ccebc5" cx="1418.8948" cy="-1266.9639" rx="77.1866" ry="18"/>
<text text-anchor="middle" x="1418.8948" y="-1263.2639" font-family="Times,serif" font-size="14.00" fill="#000000">mechanistic_SHM</text>
</a>
</g>
</g>
<!-- context_sensitive_phylo -->
<g id="node39" class="node">
<title>context_sensitive_phylo</title>
<g id="a_node39"><a xlink:title="Develop phyogenetic methods that enable inference under context&#45;sensitive models.">
<polygon fill="#b3de69" stroke="#b3de69" points="1181.288,-1155.4986 1045.2174,-1137.4986 1181.288,-1119.4986 1317.3585,-1137.4986 1181.288,-1155.4986"/>
<text text-anchor="middle" x="1181.288" y="-1133.7986" font-family="Times,serif" font-size="14.00" fill="#000000">context_sensitive_phylo</text>
</a>
</g>
</g>
<!-- mechanistic_SHM&#45;&#45;context_sensitive_phylo -->
<g id="edge61" class="edge">
<title>mechanistic_SHM&#45;&#45;context_sensitive_phylo</title>
<path fill="none" stroke="#000000" d="M1388.3183,-1250.3036C1341.4413,-1224.7617 1252.5805,-1176.3439 1208.0844,-1152.0992"/>
</g>
<!-- SHM_across_ages -->
<g id="node41" class="node">
<title>SHM_across_ages</title>
<g id="a_node41"><a xlink:title="Perform a detailed investigation of how SHM changes as people age.">
<polygon fill="#fdb462" stroke="#fdb462" points="1591.2382,-1224.6346 1482.817,-1206.6346 1591.2382,-1188.6346 1699.6593,-1206.6346 1591.2382,-1224.6346"/>
<text text-anchor="middle" x="1591.2382" y="-1202.9346" font-family="Times,serif" font-size="14.00" fill="#000000">SHM_across_ages</text>
</a>
</g>
</g>
<!-- mechanistic_SHM&#45;&#45;SHM_across_ages -->
<g id="edge53" class="edge">
<title>mechanistic_SHM&#45;&#45;SHM_across_ages</title>
<path fill="none" stroke="#000000" d="M1461.9398,-1251.8959C1491.0524,-1241.7049 1529.0136,-1228.4165 1556.2614,-1218.8784"/>
</g>
<!-- paired_HL -->
<g id="node22" class="node">
<title>paired_HL</title>
<g id="a_node22"><a xlink:title="Perform clonal family inference with paired heavy and light chain sequences.">
<ellipse fill="#ccebc5" stroke="#ccebc5" cx="848.2308" cy="-1544.1158" rx="48.9926" ry="18"/>
<text text-anchor="middle" x="848.2308" y="-1540.4158" font-family="Times,serif" font-size="14.00" fill="#000000">paired_HL</text>
</a>
</g>
</g>
<!-- B_cell_CONGA -->
<g id="node38" class="node">
<title>B_cell_CONGA</title>
<g id="a_node38"><a xlink:title="Adapt CONGA (https://paperpile.com/shared/w2jo9E) for BCR sequences.">
<polygon fill="#b3de69" stroke="#b3de69" points="615.3661,-1681.8466 517.1662,-1663.8466 615.3661,-1645.8466 713.566,-1663.8466 615.3661,-1681.8466"/>
<text text-anchor="middle" x="615.3661" y="-1660.1466" font-family="Times,serif" font-size="14.00" fill="#000000">B_cell_CONGA</text>
</a>
</g>
</g>
<!-- paired_HL&#45;&#45;B_cell_CONGA -->
<g id="edge62" class="edge">
<title>paired_HL&#45;&#45;B_cell_CONGA</title>
<path fill="none" stroke="#000000" d="M819.677,-1558.7972C774.0124,-1582.2763 685.2314,-1627.9243 641.2885,-1650.5182"/>
</g>
<!-- adaptive_MCMC -->
<g id="node57" class="node">
<title>adaptive_MCMC</title>
<g id="a_node57"><a xlink:title="Use variational inference as a proposal distribution for MCMC.">
<polygon fill="none" stroke="#000000" points="1237.0613,-89.3578 1133.3315,-71.3578 1237.0613,-53.3578 1340.791,-71.3578 1237.0613,-89.3578"/>
<text text-anchor="middle" x="1237.0613" y="-67.6578" font-family="Times,serif" font-size="14.00" fill="#000000">adaptive_MCMC</text>
</a>
</g>
</g>
<!-- phylogenetic_VI&#45;&#45;adaptive_MCMC -->
<g id="edge1" class="edge">
<title>phylogenetic_VI&#45;&#45;adaptive_MCMC</title>
<path fill="none" stroke="#000000" d="M1051.8975,-276.4409C1090.2416,-233.9718 1186.3417,-127.5336 1222.7641,-87.193"/>
</g>
<!-- online_phylo_VI -->
<g id="node59" class="node">
<title>online_phylo_VI</title>
<g id="a_node59"><a xlink:title="Online (i.e. incremental) phylogenetic variational inference.">
<polygon fill="#d9d9d9" stroke="#d9d9d9" points="872.6432,-434.6685 772.2666,-416.6685 872.6432,-398.6685 973.0198,-416.6685 872.6432,-434.6685"/>
<text text-anchor="middle" x="872.6432" y="-412.9685" font-family="Times,serif" font-size="14.00" fill="#000000">online_phylo_VI</text>
</a>
</g>
</g>
<!-- phylogenetic_VI&#45;&#45;online_phylo_VI -->
<g id="edge8" class="edge">
<title>phylogenetic_VI&#45;&#45;online_phylo_VI</title>
<path fill="none" stroke="#000000" d="M1012.7394,-311.5806C980.5968,-335.6912 922.8187,-379.0313 892.4808,-401.7881"/>
</g>
<!-- antibody_DMS&#45;&#45;PhIP_seq -->
<g id="edge35" class="edge">
<title>antibody_DMS&#45;&#45;PhIP_seq</title>
<path fill="none" stroke="#000000" d="M281.9089,-1053.4653C269.0409,-1023.5094 243.4964,-964.043 230.6611,-934.1631"/>
</g>
<!-- antibody_DMS&#45;&#45;torchdms -->
<g id="edge34" class="edge">
<title>antibody_DMS&#45;&#45;torchdms</title>
<path fill="none" stroke="#000000" d="M294.1692,-1089.774C306.5104,-1139.954 340.9648,-1280.0466 353.3257,-1330.3065"/>
</g>
<!-- dms_view2 -->
<g id="node40" class="node">
<title>dms_view2</title>
<g id="a_node40"><a xlink:title="Develop the next version of dms&#45;view, with abilities to compare between data sets and also show K_D inferences.">
<polygon fill="#bc80bd" stroke="#bc80bd" points="158.3357,-1185.2126 84.7705,-1167.2126 158.3357,-1149.2126 231.9009,-1167.2126 158.3357,-1185.2126"/>
<text text-anchor="middle" x="158.3357" y="-1163.5126" font-family="Times,serif" font-size="14.00" fill="#000000">dms_view2</text>
</a>
</g>
</g>
<!-- antibody_DMS&#45;&#45;dms_view2 -->
<g id="edge36" class="edge">
<title>antibody_DMS&#45;&#45;dms_view2</title>
<path fill="none" stroke="#000000" d="M266.5173,-1088.476C241.0321,-1107.0246 200.5874,-1136.461 177.0404,-1153.5989"/>
</g>
<!-- SARS2_parsimony_plateau -->
<g id="node25" class="node">
<title>SARS2_parsimony_plateau</title>
<g id="a_node25"><a xlink:title="Use a graph to capture the ensemble of maximally&#45;parsimonious trees for SARS&#45;Cov&#45;2 data. How much uncertainty is there? How does PANGO look?">
<ellipse fill="#ccebc5" stroke="#ccebc5" cx="1158.5435" cy="-933.8245" rx="108.5808" ry="18"/>
<text text-anchor="middle" x="1158.5435" y="-930.1245" font-family="Times,serif" font-size="14.00" fill="#000000">SARS2_parsimony_plateau</text>
</a>
</g>
</g>
<!-- subsplit_DAG&#45;&#45;generalized_pruning -->
<g id="edge11" class="edge">
<title>subsplit_DAG&#45;&#45;generalized_pruning</title>
<path fill="none" stroke="#000000" d="M586.5684,-566.6937C543.0924,-570.9492 483.4654,-576.7856 436.3556,-581.3968"/>
</g>
<!-- hillclimber -->
<g id="node31" class="node">
<title>hillclimber</title>
<g id="a_node31"><a xlink:title="What happens when we start ML algorithms at random starting points? What does it tell us about the phylogenetic likelihood surface?">
<polygon fill="#b3de69" stroke="#b3de69" points="729.6096,-298.3678 667.8899,-310.8055 606.1701,-298.3678 606.2277,-278.2432 729.552,-278.2432 729.6096,-298.3678"/>
<text text-anchor="middle" x="667.8899" y="-289.1055" font-family="Times,serif" font-size="14.00" fill="#000000">hillclimber</text>
</a>
</g>
</g>
<!-- subsplit_DAG&#45;&#45;hillclimber -->
<g id="edge10" class="edge">
<title>subsplit_DAG&#45;&#45;hillclimber</title>
<path fill="none" stroke="#000000" d="M646.7543,-542.9413C650.8819,-494.0924 662.2549,-359.4943 666.3747,-310.7373"/>
</g>
<!-- Bayesian_subtree_optimality -->
<g id="node43" class="node">
<title>Bayesian_subtree_optimality</title>
<g id="a_node43"><a xlink:title="How does the Bayesian posterior distribution of n taxa change when an n+1st taxon is added to the tree?">
<polygon fill="#b3de69" stroke="#b3de69" points="645.3093,-478.6882 484.6041,-460.6882 645.3093,-442.6882 806.0144,-460.6882 645.3093,-478.6882"/>
<text text-anchor="middle" x="645.3093" y="-456.9882" font-family="Times,serif" font-size="14.00" fill="#000000">Bayesian_subtree_optimality</text>
</a>
</g>
</g>
<!-- subsplit_DAG&#45;&#45;Bayesian_subtree_optimality -->
<g id="edge15" class="edge">
<title>subsplit_DAG&#45;&#45;Bayesian_subtree_optimality</title>
<path fill="none" stroke="#000000" d="M645.2466,-542.5617C645.2605,-524.4709 645.2815,-497.0118 645.2953,-478.9615"/>
</g>
<!-- fasdag -->
<g id="node44" class="node">
<title>fasdag</title>
<g id="a_node44"><a xlink:title="Develop NJ and parsimony approaches to reconstructing the sDAG.">
<polygon fill="#b3de69" stroke="#b3de69" points="527.3499,-611.8017 479.7567,-593.8017 527.3499,-575.8017 574.9431,-593.8017 527.3499,-611.8017"/>
<text text-anchor="middle" x="527.3499" y="-590.1017" font-family="Times,serif" font-size="14.00" fill="#000000">fasdag</text>
</a>
</g>
</g>
<!-- subsplit_DAG&#45;&#45;fasdag -->
<g id="edge16" class="edge">
<title>subsplit_DAG&#45;&#45;fasdag</title>
<path fill="none" stroke="#000000" d="M600.3299,-573.4645C585.1045,-577.7073 568.5522,-582.3199 555.0661,-586.0781"/>
</g>
<!-- variational_on_time_tree_samples -->
<g id="node45" class="node">
<title>variational_on_time_tree_samples</title>
<g id="a_node45"><a xlink:title="Develop variational models and fit them to time&#45;tree MCMC samples. How well do they fit?">
<polygon fill="#b3de69" stroke="#b3de69" points="914.6086,-628.8601 727.0925,-610.8601 914.6086,-592.8601 1102.1248,-610.8601 914.6086,-628.8601"/>
<text text-anchor="middle" x="914.6086" y="-607.1601" font-family="Times,serif" font-size="14.00" fill="#000000">variational_on_time_tree_samples</text>
</a>
</g>
</g>
<!-- subsplit_DAG&#45;&#45;variational_on_time_tree_samples -->
<g id="edge18" class="edge">
<title>subsplit_DAG&#45;&#45;variational_on_time_tree_samples</title>
<path fill="none" stroke="#000000" d="M697.4904,-570.6335C741.0954,-578.7125 803.4296,-590.2614 850.1312,-598.914"/>
</g>
<!-- local_EM -->
<g id="node51" class="node">
<title>local_EM</title>
<g id="a_node51"><a xlink:title="Develop an EM algorithm for variational inference that uses local computation. Go Hogwild.">
<polygon fill="#b3de69" stroke="#b3de69" points="749.9314,-783.0483 684.9102,-765.0483 749.9314,-747.0483 814.9526,-765.0483 749.9314,-783.0483"/>
<text text-anchor="middle" x="749.9314" y="-761.3483" font-family="Times,serif" font-size="14.00" fill="#000000">local_EM</text>
</a>
</g>
</g>
<!-- subsplit_DAG&#45;&#45;local_EM -->
<g id="edge12" class="edge">
<title>subsplit_DAG&#45;&#45;local_EM</title>
<path fill="none" stroke="#000000" d="M654.5239,-579.0637C674.7927,-618.575 722.6926,-711.9498 741.8281,-749.2519"/>
</g>
<!-- find_MAP_tree_in_subsplit_DAG -->
<g id="node55" class="node">
<title>find_MAP_tree_in_subsplit_DAG</title>
<g id="a_node55"><a xlink:title="Can we quickly find the MAP tree in the subsplit DAG?">
<polygon fill="#b3de69" stroke="#b3de69" points="508.619,-827.0527 321.1029,-809.0527 508.619,-791.0527 696.1352,-809.0527 508.619,-827.0527"/>
<text text-anchor="middle" x="508.619" y="-805.3527" font-family="Times,serif" font-size="14.00" fill="#000000">find_MAP_tree_in_subsplit_DAG</text>
</a>
</g>
</g>
<!-- subsplit_DAG&#45;&#45;find_MAP_tree_in_subsplit_DAG -->
<g id="edge17" class="edge">
<title>subsplit_DAG&#45;&#45;find_MAP_tree_in_subsplit_DAG</title>
<path fill="none" stroke="#000000" d="M635.4076,-578.7943C610.1402,-624.682 543.1388,-746.3619 518.1728,-791.7022"/>
</g>
<!-- how_big_of_sDAG -->
<g id="node58" class="node">
<title>how_big_of_sDAG</title>
<g id="a_node58"><a xlink:title="How big of a subsplit DAG is actually required to get reasonable estimates (with uncertaintly quantification) of key parameters?">
<polygon fill="none" stroke="#000000" points="412.6834,-407.4482 299.5707,-389.4482 412.6834,-371.4482 525.7961,-389.4482 412.6834,-407.4482"/>
<text text-anchor="middle" x="412.6834" y="-385.7482" font-family="Times,serif" font-size="14.00" fill="#000000">how_big_of_sDAG</text>
</a>
</g>
</g>
<!-- subsplit_DAG&#45;&#45;how_big_of_sDAG -->
<g id="edge14" class="edge">
<title>subsplit_DAG&#45;&#45;how_big_of_sDAG</title>
<path fill="none" stroke="#000000" d="M622.5113,-544.1948C577.1391,-510.733 475.9743,-436.1248 432.8182,-404.2975"/>
</g>
<!-- subsplit_DAG&#45;&#45;online_phylo_VI -->
<g id="edge9" class="edge">
<title>subsplit_DAG&#45;&#45;online_phylo_VI</title>
<path fill="none" stroke="#000000" d="M671.3194,-544.4004C716.3528,-515.8285 807.9116,-457.7381 850.2484,-430.8771"/>
</g>
<!-- Bayesian_histories -->
<g id="node63" class="node">
<title>Bayesian_histories</title>
<polygon fill="none" stroke="#000000" points="983.4842,-959.0409 864.4842,-959.0409 864.4842,-923.0409 983.4842,-923.0409 983.4842,-959.0409"/>
<text text-anchor="middle" x="923.9842" y="-937.3409" font-family="Times,serif" font-size="14.00" fill="#000000">Bayesian_histories</text>
</g>
<!-- subsplit_DAG&#45;&#45;Bayesian_histories -->
<g id="edge13" class="edge">
<title>subsplit_DAG&#45;&#45;Bayesian_histories</title>
<path fill="none" stroke="#000000" d="M658.3034,-578.7742C705.018,-642.4714 863.434,-858.4782 910.6172,-922.8144"/>
</g>
<!-- benchmark_torchdms -->
<g id="node61" class="node">
<title>benchmark_torchdms</title>
<g id="a_node61"><a xlink:title="Perform futher benchmarking of torchdms and other methods.">
<polygon fill="#b3de69" stroke="#b3de69" points="380.3594,-1521.2412 256.1869,-1503.2412 380.3594,-1485.2412 504.5319,-1503.2412 380.3594,-1521.2412"/>
<text text-anchor="middle" x="380.3594" y="-1499.5412" font-family="Times,serif" font-size="14.00" fill="#000000">benchmark_torchdms</text>
</a>
</g>
</g>
<!-- torchdms&#45;&#45;benchmark_torchdms -->
<g id="edge33" class="edge">
<title>torchdms&#45;&#45;benchmark_torchdms</title>
<path fill="none" stroke="#000000" d="M360.4418,-1366.5928C364.7866,-1396.4013 373.4116,-1455.5749 377.7454,-1485.3077"/>
</g>
<!-- transport -->
<g id="node28" class="node">
<title>transport</title>
<g id="a_node28"><a xlink:title="Compare TCR repertoires via optimal transport.">
<ellipse fill="#ccebc5" stroke="#ccebc5" cx="1039.9884" cy="-2053.2623" rx="42.4939" ry="18"/>
<text text-anchor="middle" x="1039.9884" y="-2049.5623" font-family="Times,serif" font-size="14.00" fill="#000000">transport</text>
</a>
</g>
</g>
<!-- VI_diagnostics -->
<g id="node29" class="node">
<title>VI_diagnostics</title>
<g id="a_node29"><a xlink:title="How will we know if VI is giving a good approximation?">
<ellipse fill="#ccebc5" stroke="#ccebc5" cx="1085.8165" cy="-454.6328" rx="63.8893" ry="18"/>
<text text-anchor="middle" x="1085.8165" y="-450.9328" font-family="Times,serif" font-size="14.00" fill="#000000">VI_diagnostics</text>
</a>
</g>
</g>
<!-- VI_diagnostics&#45;&#45;phylogenetic_VI -->
<g id="edge3" class="edge">
<title>VI_diagnostics&#45;&#45;phylogenetic_VI</title>
<path fill="none" stroke="#000000" d="M1080.1722,-436.5533C1070.5594,-405.7619 1051.1162,-343.4821 1041.4652,-312.5685"/>
</g>
<!-- CFT -->
<g id="node30" class="node">
<title>CFT</title>
<g id="a_node30"><a xlink:title="The Clonal Family Tree pipeline to do clonal family inference and then phylogenetics.">
<polygon fill="#bc80bd" stroke="#bc80bd" points="1440.9995,-1090.6599 1408.1228,-1103.0976 1375.2461,-1090.6599 1375.2768,-1070.5353 1440.9688,-1070.5353 1440.9995,-1090.6599"/>
<text text-anchor="middle" x="1408.1228" y="-1081.3976" font-family="Times,serif" font-size="14.00" fill="#000000">CFT</text>
</a>
</g>
</g>
<!-- olmsted -->
<g id="node32" class="node">
<title>olmsted</title>
<g id="a_node32"><a xlink:title="A visualization tool for BCR lineages.">
<polygon fill="none" stroke="#000000" points="1531.3972,-949.6801 1482.9916,-962.1178 1434.586,-949.6801 1434.6312,-929.5555 1531.352,-929.5555 1531.3972,-949.6801"/>
<text text-anchor="middle" x="1482.9916" y="-940.4178" font-family="Times,serif" font-size="14.00" fill="#000000">olmsted</text>
</a>
</g>
</g>
<!-- CFT&#45;&#45;olmsted -->
<g id="edge51" class="edge">
<title>CFT&#45;&#45;olmsted</title>
<path fill="none" stroke="#000000" d="M1415.9936,-1070.2768C1430.185,-1043.5539 1459.9398,-987.5249 1474.5425,-960.0276"/>
</g>
<!-- find_posterior_modes -->
<g id="node46" class="node">
<title>find_posterior_modes</title>
<g id="a_node46"><a xlink:title="Can we do something to quickly find posterior modes in the phylogenetic posterior? Can we do better than hillclimbing?">
<polygon fill="#b3de69" stroke="#b3de69" points="446.29,-129.028 321.2792,-111.028 446.29,-93.028 571.3007,-111.028 446.29,-129.028"/>
<text text-anchor="middle" x="446.29" y="-107.328" font-family="Times,serif" font-size="14.00" fill="#000000">find_posterior_modes</text>
</a>
</g>
</g>
<!-- hillclimber&#45;&#45;find_posterior_modes -->
<g id="edge20" class="edge">
<title>hillclimber&#45;&#45;find_posterior_modes</title>
<path fill="none" stroke="#000000" d="M650.13,-278.2372C608.9454,-244.4536 507.2357,-161.0215 465.0707,-126.4337"/>
</g>
<!-- BCR_GWAS -->
<g id="node33" class="node">
<title>BCR_GWAS</title>
<g id="a_node33"><a xlink:title="Do a GWAS for BCR repertoire features. Can we learn about SHM too?">
<polygon fill="#fdb462" stroke="#fdb462" points="1318.7049,-1612.6872 1234.9181,-1594.6872 1318.7049,-1576.6872 1402.4918,-1594.6872 1318.7049,-1612.6872"/>
<text text-anchor="middle" x="1318.7049" y="-1590.9872" font-family="Times,serif" font-size="14.00" fill="#000000">BCR_GWAS</text>
</a>
</g>
</g>
<!-- BCR_GWAS&#45;&#45;TCR_GWAS -->
<g id="edge55" class="edge">
<title>BCR_GWAS&#45;&#45;TCR_GWAS</title>
<path fill="none" stroke="#000000" d="M1324.1104,-1611.7865C1338.6658,-1657.8301 1378.5876,-1784.1159 1393.4819,-1831.2316"/>
</g>
<!-- BCR_indels -->
<g id="node34" class="node">
<title>BCR_indels</title>
<g id="a_node34"><a xlink:title="What sequence features lead to indels in BCR sequences?">
<polygon fill="#8dd3c7" stroke="#8dd3c7" points="1254.582,-1479.1513 1178.5014,-1461.1513 1254.582,-1443.1513 1330.6627,-1461.1513 1254.582,-1479.1513"/>
<text text-anchor="middle" x="1254.582" y="-1457.4513" font-family="Times,serif" font-size="14.00" fill="#000000">BCR_indels</text>
</a>
</g>
</g>
<!-- clonal_families_with_indels -->
<g id="node35" class="node">
<title>clonal_families_with_indels</title>
<g id="a_node35"><a xlink:title="Can we do better clonal family clustering in the presence of indels?">
<polygon fill="#8dd3c7" stroke="#8dd3c7" points="1495.2204,-1475.6942 1339.2065,-1457.6942 1495.2204,-1439.6942 1651.2342,-1457.6942 1495.2204,-1475.6942"/>
<text text-anchor="middle" x="1495.2204" y="-1453.9942" font-family="Times,serif" font-size="14.00" fill="#000000">clonal_families_with_indels</text>
</a>
</g>
</g>
<!-- BCR_selection_analysis -->
<g id="node36" class="node">
<title>BCR_selection_analysis</title>
<g id="a_node36"><a xlink:title="Improve dN/dS analysis for BCR lineages, looking site&#45;wise and per&#45;lineage.">
<polygon fill="#8dd3c7" stroke="#8dd3c7" points="1004.8929,-1297.202 867.984,-1279.202 1004.8929,-1261.202 1141.8018,-1279.202 1004.8929,-1297.202"/>
<text text-anchor="middle" x="1004.8929" y="-1275.502" font-family="Times,serif" font-size="14.00" fill="#000000">BCR_selection_analysis</text>
</a>
</g>
</g>
<!-- BCR_trajectories -->
<g id="node37" class="node">
<title>BCR_trajectories</title>
<g id="a_node37"><a xlink:title="Look for patterns in BCR sequence evolution. Do they fall into &#39;trajectories&#39;?">
<polygon fill="#8dd3c7" stroke="#8dd3c7" points="883.1874,-1431.7363 781.9726,-1413.7363 883.1874,-1395.7363 984.4021,-1413.7363 883.1874,-1431.7363"/>
<text text-anchor="middle" x="883.1874" y="-1410.0363" font-family="Times,serif" font-size="14.00" fill="#000000">BCR_trajectories</text>
</a>
</g>
</g>
<!-- Bayesian_VDJ_recombination -->
<g id="node42" class="node">
<title>Bayesian_VDJ_recombination</title>
<g id="a_node42"><a xlink:title="Can we do Bayesian estimation of VDJ recombination models?">
<polygon fill="none" stroke="#000000" points="1058.7438,-1650.3445 890.332,-1632.3445 1058.7438,-1614.3445 1227.1556,-1632.3445 1058.7438,-1650.3445"/>
<text text-anchor="middle" x="1058.7438" y="-1628.6445" font-family="Times,serif" font-size="14.00" fill="#000000">Bayesian_VDJ_recombination</text>
</a>
</g>
</g>
<!-- help_PANGO -->
<g id="node47" class="node">
<title>help_PANGO</title>
<g id="a_node47"><a xlink:title="What sort of tooling would actually help PANGO do their job better?">
<polygon fill="none" stroke="#000000" points="988.0139,-854.2639 902.5506,-836.2639 988.0139,-818.2639 1073.4771,-836.2639 988.0139,-854.2639"/>
<text text-anchor="middle" x="988.0139" y="-832.5639" font-family="Times,serif" font-size="14.00" fill="#000000">help_PANGO</text>
</a>
</g>
</g>
<!-- big_tree_likelihoods -->
<g id="node48" class="node">
<title>big_tree_likelihoods</title>
<g id="a_node48"><a xlink:title="How can we bridge the gap between parsimony and full Felsenstein likelihoods?">
<polygon fill="none" stroke="#000000" points="943.4564,-1111.4849 825.6519,-1093.4849 943.4564,-1075.4849 1061.2608,-1093.4849 943.4564,-1111.4849"/>
<text text-anchor="middle" x="943.4564" y="-1089.7849" font-family="Times,serif" font-size="14.00" fill="#000000">big_tree_likelihoods</text>
</a>
</g>
</g>
<!-- fast_TreeTime -->
<g id="node54" class="node">
<title>fast_TreeTime</title>
<g id="a_node54"><a xlink:title="Speed up ML inference of time trees.">
<polygon fill="#8dd3c7" stroke="#8dd3c7" points="1104.7145,-781.6574 1015.3977,-763.6574 1104.7145,-745.6574 1194.0312,-763.6574 1104.7145,-781.6574"/>
<text text-anchor="middle" x="1104.7145" y="-759.9574" font-family="Times,serif" font-size="14.00" fill="#000000">fast_TreeTime</text>
</a>
</g>
</g>
<!-- polytomy_resolution -->
<g id="node56" class="node">
<title>polytomy_resolution</title>
<g id="a_node56"><a xlink:title="Can we quickly resolve sequence&#45;level polytomies using timing/geography?">
<polygon fill="none" stroke="#000000" points="1357.4732,-689.7067 1237.9923,-671.7067 1357.4732,-653.7067 1476.954,-671.7067 1357.4732,-689.7067"/>
<text text-anchor="middle" x="1357.4732" y="-668.0067" font-family="Times,serif" font-size="14.00" fill="#000000">polytomy_resolution</text>
</a>
</g>
</g>
<!-- fast_TreeTime&#45;&#45;polytomy_resolution -->
<g id="edge28" class="edge">
<title>fast_TreeTime&#45;&#45;polytomy_resolution</title>
<path fill="none" stroke="#000000" d="M1136.7265,-752.0118C1184.2831,-734.7112 1273.2593,-702.3427 1322.4817,-684.4362"/>
</g>
<!-- how_big_of_sDAG&#45;&#45;find_posterior_modes -->
<g id="edge21" class="edge">
<title>how_big_of_sDAG&#45;&#45;find_posterior_modes</title>
<path fill="none" stroke="#000000" d="M414.8368,-371.6083C420.8923,-321.4399 438.0245,-179.5053 444.111,-129.0797"/>
</g>
<!-- SARS2_lineage_prediction -->
<g id="node60" class="node">
<title>SARS2_lineage_prediction</title>
<g id="a_node60"><a xlink:title="Predict future dominant clades of SARS&#45;Cov&#45;2.">
<polygon fill="#b3de69" stroke="#b3de69" points="678.2616,-1337.1058 527.2777,-1319.1058 678.2616,-1301.1058 829.2456,-1319.1058 678.2616,-1337.1058"/>
<text text-anchor="middle" x="678.2616" y="-1315.4058" font-family="Times,serif" font-size="14.00" fill="#000000">SARS2_lineage_prediction</text>
</a>
</g>
</g>
<!-- BCR_analysis -->
<g id="node62" class="node">
<title>BCR_analysis</title>
<polygon fill="none" stroke="#000000" points="1144.7534,-1369.2127 1050.7534,-1369.2127 1050.7534,-1333.2127 1144.7534,-1333.2127 1144.7534,-1369.2127"/>
<text text-anchor="middle" x="1097.7534" y="-1347.5127" font-family="Times,serif" font-size="14.00" fill="#000000">BCR_analysis</text>
</g>
<!-- BCR_analysis&#45;&#45;Bayesian_GCtree -->
<g id="edge45" class="edge">
<title>BCR_analysis&#45;&#45;Bayesian_GCtree</title>
<path fill="none" stroke="#000000" d="M1061.9903,-1333.1061C998.6558,-1301.0403 867.753,-1234.7651 807.1599,-1204.0872"/>
</g>
<!-- BCR_analysis&#45;&#45;linearham_empirical_uncertainty -->
<g id="edge44" class="edge">
<title>BCR_analysis&#45;&#45;linearham_empirical_uncertainty</title>
<path fill="none" stroke="#000000" d="M1091.436,-1369.4461C1079.0431,-1405.2146 1051.6798,-1484.1907 1039.3431,-1519.7968"/>
</g>
<!-- BCR_analysis&#45;&#45;mechanistic_SHM -->
<g id="edge52" class="edge">
<title>BCR_analysis&#45;&#45;mechanistic_SHM</title>
<path fill="none" stroke="#000000" d="M1144.7941,-1338.872C1204.2027,-1323.2866 1306.0619,-1296.5647 1367.4739,-1280.4537"/>
</g>
<!-- BCR_analysis&#45;&#45;paired_HL -->
<g id="edge42" class="edge">
<title>BCR_analysis&#45;&#45;paired_HL</title>
<path fill="none" stroke="#000000" d="M1074.2789,-1369.3606C1025.8727,-1406.7828 915.6323,-1492.0085 869.3293,-1527.8048"/>
</g>
<!-- BCR_analysis&#45;&#45;CFT -->
<g id="edge43" class="edge">
<title>BCR_analysis&#45;&#45;CFT</title>
<path fill="none" stroke="#000000" d="M1119.0864,-1332.9215C1178.2512,-1282.1928 1343.3445,-1140.6395 1393.4917,-1097.6425"/>
</g>
<!-- BCR_analysis&#45;&#45;BCR_GWAS -->
<g id="edge54" class="edge">
<title>BCR_analysis&#45;&#45;BCR_GWAS</title>
<path fill="none" stroke="#000000" d="M1114.3607,-1369.5129C1156.3116,-1415.7401 1265.9639,-1536.5699 1304.8128,-1579.379"/>
</g>
<!-- BCR_analysis&#45;&#45;BCR_indels -->
<g id="edge39" class="edge">
<title>BCR_analysis&#45;&#45;BCR_indels</title>
<path fill="none" stroke="#000000" d="M1123.6505,-1369.3668C1154.9703,-1391.3224 1206.9772,-1427.7798 1235.0959,-1447.4913"/>
</g>
<!-- BCR_analysis&#45;&#45;clonal_families_with_indels -->
<g id="edge40" class="edge">
<title>BCR_analysis&#45;&#45;clonal_families_with_indels</title>
<path fill="none" stroke="#000000" d="M1144.9089,-1363.8457C1221.4049,-1384.339 1371.6697,-1424.5949 1448.1262,-1445.0777"/>
</g>
<!-- BCR_analysis&#45;&#45;BCR_selection_analysis -->
<g id="edge37" class="edge">
<title>BCR_analysis&#45;&#45;BCR_selection_analysis</title>
<path fill="none" stroke="#000000" d="M1074.3208,-1333.0414C1059.0618,-1321.2085 1039.3693,-1305.9375 1024.8566,-1294.6833"/>
</g>
<!-- BCR_analysis&#45;&#45;BCR_trajectories -->
<g id="edge38" class="edge">
<title>BCR_analysis&#45;&#45;BCR_trajectories</title>
<path fill="none" stroke="#000000" d="M1050.666,-1364.9338C1011.9305,-1376.2211 957.7155,-1392.0191 921.5765,-1402.5499"/>
</g>
<!-- BCR_analysis&#45;&#45;Bayesian_VDJ_recombination -->
<g id="edge46" class="edge">
<title>BCR_analysis&#45;&#45;Bayesian_VDJ_recombination</title>
<path fill="none" stroke="#000000" d="M1095.2538,-1369.2264C1088.2079,-1420.0046 1068.243,-1563.8866 1061.2226,-1614.4808"/>
</g>
<!-- BCR_analysis&#45;&#45;Bayesian_histories -->
<g id="edge41" class="edge">
<title>BCR_analysis&#45;&#45;Bayesian_histories</title>
<path fill="none" stroke="#000000" d="M1090.0625,-1333.0589C1061.3592,-1265.3063 960.6671,-1027.6287 931.7834,-959.4504"/>
</g>
<!-- Bayesian_histories&#45;&#45;Bayesian_GCtree -->
<g id="edge23" class="edge">
<title>Bayesian_histories&#45;&#45;Bayesian_GCtree</title>
<path fill="none" stroke="#000000" d="M913.0359,-959.1895C885.4343,-1004.9438 813.2585,-1124.5872 785.857,-1170.0098"/>
</g>
<!-- Bayesian_histories&#45;&#45;SARS2_parsimony_plateau -->
<g id="edge24" class="edge">
<title>Bayesian_histories&#45;&#45;SARS2_parsimony_plateau</title>
<path fill="none" stroke="#000000" d="M983.7803,-939.2012C1004.4114,-938.5665 1028.1954,-937.8347 1051.4421,-937.1195"/>
</g>
<!-- Bayesian_histories&#45;&#45;context_sensitive_phylo -->
<g id="edge22" class="edge">
<title>Bayesian_histories&#45;&#45;context_sensitive_phylo</title>
<path fill="none" stroke="#000000" d="M947.7295,-959.171C997.8666,-997.4519 1113.776,-1085.9516 1160.8557,-1121.8981"/>
</g>
<!-- Bayesian_histories&#45;&#45;help_PANGO -->
<g id="edge25" class="edge">
<title>Bayesian_histories&#45;&#45;help_PANGO</title>
<path fill="none" stroke="#000000" d="M935.1373,-922.7901C947.3195,-902.8554 966.6397,-871.2402 978.2456,-852.2485"/>
</g>
<!-- Bayesian_histories&#45;&#45;big_tree_likelihoods -->
<g id="edge27" class="edge">
<title>Bayesian_histories&#45;&#45;big_tree_likelihoods</title>
<path fill="none" stroke="#000000" d="M926.2944,-959.1268C930.042,-988.466 937.4035,-1046.0984 941.1492,-1075.4224"/>
</g>
<!-- Bayesian_histories&#45;&#45;fast_TreeTime -->
<g id="edge26" class="edge">
<title>Bayesian_histories&#45;&#45;fast_TreeTime</title>
<path fill="none" stroke="#000000" d="M942.6448,-922.7258C978.4494,-887.5842 1056.1702,-811.3027 1089.2774,-778.8085"/>
</g>
<!-- TCR_analysis -->
<g id="node64" class="node">
<title>TCR_analysis</title>
<polygon fill="none" stroke="#000000" points="1176.8577,-1933.4984 1083.8577,-1933.4984 1083.8577,-1897.4984 1176.8577,-1897.4984 1176.8577,-1933.4984"/>
<text text-anchor="middle" x="1130.3577" y="-1911.7984" font-family="Times,serif" font-size="14.00" fill="#000000">TCR_analysis</text>
</g>
<!-- TCR_analysis&#45;&#45;HLA_effects -->
<g id="edge57" class="edge">
<title>TCR_analysis&#45;&#45;HLA_effects</title>
<path fill="none" stroke="#000000" d="M1152.92,-1933.6125C1177.9707,-1953.7243 1218.0779,-1985.9242 1242.445,-2005.4872"/>
</g>
<!-- TCR_analysis&#45;&#45;TCR_GWAS -->
<g id="edge56" class="edge">
<title>TCR_analysis&#45;&#45;TCR_GWAS</title>
<path fill="none" stroke="#000000" d="M1176.8768,-1904.038C1226.3179,-1891.8578 1304.0117,-1872.7172 1353.2346,-1860.5907"/>
</g>
<!-- TCR_analysis&#45;&#45;TCR_trimming_motifs -->
<g id="edge59" class="edge">
<title>TCR_analysis&#45;&#45;TCR_trimming_motifs</title>
<path fill="none" stroke="#000000" d="M1083.5895,-1908.4832C1054.9137,-1904.1818 1017.5712,-1898.5804 984.9673,-1893.6899"/>
</g>
<!-- TCR_analysis&#45;&#45;transport -->
<g id="edge58" class="edge">
<title>TCR_analysis&#45;&#45;transport</title>
<path fill="none" stroke="#000000" d="M1118.5435,-1933.5086C1101.1286,-1960.0568 1068.7712,-2009.3841 1051.5198,-2035.6832"/>
</g>
<!-- TCR_analysis&#45;&#45;Bayesian_VDJ_recombination -->
<g id="edge60" class="edge">
<title>TCR_analysis&#45;&#45;Bayesian_VDJ_recombination</title>
<path fill="none" stroke="#000000" d="M1125.769,-1897.3551C1112.8032,-1846.0897 1076.0073,-1700.6026 1063.2024,-1649.9735"/>
</g>
<!-- trees_and_fitness -->
<g id="node65" class="node">
<title>trees_and_fitness</title>
<polygon fill="none" stroke="#000000" points="738.5924,-1112.0405 628.5924,-1112.0405 628.5924,-1076.0405 738.5924,-1076.0405 738.5924,-1112.0405"/>
<text text-anchor="middle" x="683.5924" y="-1090.3405" font-family="Times,serif" font-size="14.00" fill="#000000">trees_and_fitness</text>
</g>
<!-- trees_and_fitness&#45;&#45;GCreplay -->
<g id="edge48" class="edge">
<title>trees_and_fitness&#45;&#45;GCreplay</title>
<path fill="none" stroke="#000000" d="M647.2968,-1112.1644C634.9124,-1118.3485 621.2598,-1125.1659 609.6133,-1130.9815"/>
</g>
<!-- trees_and_fitness&#45;&#45;GCtree_with_heritable -->
<g id="edge47" class="edge">
<title>trees_and_fitness&#45;&#45;GCtree_with_heritable</title>
<path fill="none" stroke="#000000" d="M681.6998,-1076.0053C679.0065,-1050.3397 674.0985,-1003.5694 671.4218,-978.0616"/>
</g>
<!-- trees_and_fitness&#45;&#45;SARS2_lineage_prediction -->
<g id="edge49" class="edge">
<title>trees_and_fitness&#45;&#45;SARS2_lineage_prediction</title>
<path fill="none" stroke="#000000" d="M683.1652,-1112.0781C682.167,-1154.2196 679.691,-1258.756 678.6909,-1300.9823"/>
</g>
<!-- trees_and_fitness&#45;&#45;Bayesian_histories -->
<g id="edge50" class="edge">
<title>trees_and_fitness&#45;&#45;Bayesian_histories</title>
<path fill="none" stroke="#000000" d="M712.1125,-1075.8886C758.378,-1046.4425 849.2595,-988.6001 895.5012,-959.1691"/>
</g>
<!-- train_awesome_researchers -->
<g id="node66" class="node">
<title>train_awesome_researchers</title>
<polygon fill="none" stroke="#000000" points="2085.9498,-547.6989 1918.869,-547.6989 1867.2381,-706.4539 1815.6073,-547.6989 1648.5264,-547.6989 1783.6977,-449.5829 1732.0668,-290.8278 1867.2381,-388.9438 2002.4094,-290.8278 1950.7786,-449.5829 2085.9498,-547.6989"/>
<text text-anchor="middle" x="1867.2381" y="-494.9409" font-family="Times,serif" font-size="14.00" fill="#000000">train_awesome_researchers</text>
</g>
<!-- diversify_comp_bio -->
<g id="node67" class="node">
<title>diversify_comp_bio</title>
<polygon fill="none" stroke="#000000" points="718.1104,-2036.6392 592.1592,-2036.6392 553.2381,-2156.3682 514.317,-2036.6392 388.3658,-2036.6392 490.2625,-1962.6426 451.3414,-1842.9136 553.2381,-1916.9102 655.1348,-1842.9136 616.2137,-1962.6426 718.1104,-2036.6392"/>
<text text-anchor="middle" x="553.2381" y="-1995.9409" font-family="Times,serif" font-size="14.00" fill="#000000">diversify_comp_bio</text>
</g>
<!-- eradicate_disease -->
<g id="node68" class="node">
<title>eradicate_disease</title>
<polygon fill="none" stroke="#000000" points="1939.3402,-1044.3077 1828.4921,-1044.3077 1794.2381,-1150.0199 1759.9842,-1044.3077 1649.1361,-1044.3077 1738.8141,-978.974 1704.5601,-873.2619 1794.2381,-938.5956 1883.9161,-873.2619 1849.6622,-978.974 1939.3402,-1044.3077"/>
<text text-anchor="middle" x="1794.2381" y="-1007.9409" font-family="Times,serif" font-size="14.00" fill="#000000">eradicate_disease</text>
</g>
</g>
</svg>
