<?xml version="1.0" encoding="UTF-8" standalone="no"?>
<!DOCTYPE svg PUBLIC "-//W3C//DTD SVG 1.1//EN"
 "http://www.w3.org/Graphics/SVG/1.1/DTD/svg11.dtd">
<!-- Generated by graphviz version 2.40.1 (20161225.0304)
 -->
<!-- Title: %3 Pages: 1 -->
<svg width="1812pt" height="1796pt"
 viewBox="0.00 0.00 1812.21 1795.81" xmlns="http://www.w3.org/2000/svg" xmlns:xlink="http://www.w3.org/1999/xlink">
<g id="graph0" class="graph" transform="scale(1 1) rotate(0) translate(4 1791.813)">
<title>%3</title>
<polygon fill="#ffffff" stroke="transparent" points="-4,4 -4,-1791.813 1808.2128,-1791.813 1808.2128,4 -4,4"/>
<!-- Bayesian_GCtree -->
<g id="node1" class="node">
<title>Bayesian_GCtree</title>
<ellipse fill="#ccebc5" stroke="#ccebc5" cx="1185.0799" cy="-997.886" rx="72.5877" ry="18"/>
<text text-anchor="middle" x="1185.0799" y="-994.186" font-family="Times,serif" font-size="14.00" fill="#000000">Bayesian_GCtree</text>
</g>
<!-- GCreplay -->
<g id="node2" class="node">
<title>GCreplay</title>
<ellipse fill="#ccebc5" stroke="#ccebc5" cx="1303.1565" cy="-1183.1051" rx="44.6926" ry="18"/>
<text text-anchor="middle" x="1303.1565" y="-1179.4051" font-family="Times,serif" font-size="14.00" fill="#000000">GCreplay</text>
</g>
<!-- Bayesian_GCtree&#45;&#45;GCreplay -->
<g id="edge23" class="edge">
<title>Bayesian_GCtree&#45;&#45;GCreplay</title>
<path fill="none" stroke="#000000" d="M1196.6166,-1015.9828C1219.3062,-1051.5745 1269.4745,-1130.2703 1291.9196,-1165.4785"/>
</g>
<!-- GCtree_with_heritable -->
<g id="node34" class="node">
<title>GCtree_with_heritable</title>
<polygon fill="none" stroke="#000000" points="1116.3386,-1189.1495 987.4743,-1171.1495 1116.3386,-1153.1495 1245.2029,-1171.1495 1116.3386,-1189.1495"/>
<text text-anchor="middle" x="1116.3386" y="-1167.4495" font-family="Times,serif" font-size="14.00" fill="#000000">GCtree_with_heritable</text>
</g>
<!-- Bayesian_GCtree&#45;&#45;GCtree_with_heritable -->
<g id="edge24" class="edge">
<title>Bayesian_GCtree&#45;&#45;GCtree_with_heritable</title>
<path fill="none" stroke="#000000" d="M1177.8533,-1016.1008C1164.5131,-1049.725 1136.1947,-1121.1018 1123.1625,-1153.9496"/>
</g>
<!-- antibody_DMS -->
<g id="node13" class="node">
<title>antibody_DMS</title>
<ellipse fill="#ccebc5" stroke="#ccebc5" cx="1415.7472" cy="-1352.8184" rx="65.7887" ry="18"/>
<text text-anchor="middle" x="1415.7472" y="-1349.1184" font-family="Times,serif" font-size="14.00" fill="#000000">antibody_DMS</text>
</g>
<!-- GCreplay&#45;&#45;antibody_DMS -->
<g id="edge26" class="edge">
<title>GCreplay&#45;&#45;antibody_DMS</title>
<path fill="none" stroke="#000000" d="M1314.7816,-1200.6282C1336.3005,-1233.0646 1382.1228,-1302.1348 1403.847,-1334.8806"/>
</g>
<!-- torchdms -->
<g id="node15" class="node">
<title>torchdms</title>
<ellipse fill="#ccebc5" stroke="#ccebc5" cx="1264.0579" cy="-1374.3586" rx="44.393" ry="18"/>
<text text-anchor="middle" x="1264.0579" y="-1370.6586" font-family="Times,serif" font-size="14.00" fill="#000000">torchdms</text>
</g>
<!-- GCreplay&#45;&#45;torchdms -->
<g id="edge25" class="edge">
<title>GCreplay&#45;&#45;torchdms</title>
<path fill="none" stroke="#000000" d="M1299.4782,-1201.0978C1292.0263,-1237.5491 1275.2224,-1319.7467 1267.7549,-1356.2744"/>
</g>
<!-- HLA_effects -->
<g id="node3" class="node">
<title>HLA_effects</title>
<ellipse fill="#ccebc5" stroke="#ccebc5" cx="126.5873" cy="-316.7946" rx="56.59" ry="18"/>
<text text-anchor="middle" x="126.5873" y="-313.0946" font-family="Times,serif" font-size="14.00" fill="#000000">HLA_effects</text>
</g>
<!-- PhIP_seq -->
<g id="node4" class="node">
<title>PhIP_seq</title>
<ellipse fill="#ccebc5" stroke="#ccebc5" cx="1399.3404" cy="-1562.2982" rx="44.393" ry="18"/>
<text text-anchor="middle" x="1399.3404" y="-1558.5982" font-family="Times,serif" font-size="14.00" fill="#000000">PhIP_seq</text>
</g>
<!-- TCR_GWAS -->
<g id="node5" class="node">
<title>TCR_GWAS</title>
<ellipse fill="#ccebc5" stroke="#ccebc5" cx="461.8315" cy="-502.7912" rx="58.4896" ry="18"/>
<text text-anchor="middle" x="461.8315" y="-499.0912" font-family="Times,serif" font-size="14.00" fill="#000000">TCR_GWAS</text>
</g>
<!-- TCR_trimming_motifs -->
<g id="node6" class="node">
<title>TCR_trimming_motifs</title>
<ellipse fill="#ccebc5" stroke="#ccebc5" cx="92.9418" cy="-503.8781" rx="92.8835" ry="18"/>
<text text-anchor="middle" x="92.9418" y="-500.1781" font-family="Times,serif" font-size="14.00" fill="#000000">TCR_trimming_motifs</text>
</g>
<!-- bito -->
<g id="node7" class="node">
<title>bito</title>
<ellipse fill="#ccebc5" stroke="#ccebc5" cx="1417.815" cy="-419.4749" rx="27" ry="18"/>
<text text-anchor="middle" x="1417.815" y="-415.7749" font-family="Times,serif" font-size="14.00" fill="#000000">bito</text>
</g>
<!-- autodiff_gradients -->
<g id="node8" class="node">
<title>autodiff_gradients</title>
<ellipse fill="#ccebc5" stroke="#ccebc5" cx="1624.5159" cy="-383.7305" rx="75.2868" ry="18"/>
<text text-anchor="middle" x="1624.5159" y="-380.0305" font-family="Times,serif" font-size="14.00" fill="#000000">autodiff_gradients</text>
</g>
<!-- bito&#45;&#45;autodiff_gradients -->
<g id="edge4" class="edge">
<title>bito&#45;&#45;autodiff_gradients</title>
<path fill="none" stroke="#000000" d="M1443.9938,-414.9478C1473.7594,-409.8005 1523.3666,-401.222 1563.0541,-394.3589"/>
</g>
<!-- phylogenetic_VI -->
<g id="node12" class="node">
<title>phylogenetic_VI</title>
<ellipse fill="#ccebc5" stroke="#ccebc5" cx="1405.5419" cy="-214.0798" rx="69.5877" ry="18"/>
<text text-anchor="middle" x="1405.5419" y="-210.3798" font-family="Times,serif" font-size="14.00" fill="#000000">phylogenetic_VI</text>
</g>
<!-- bito&#45;&#45;phylogenetic_VI -->
<g id="edge2" class="edge">
<title>bito&#45;&#45;phylogenetic_VI</title>
<path fill="none" stroke="#000000" d="M1416.7258,-401.2474C1414.3968,-362.2702 1408.9555,-271.2072 1406.6286,-232.2664"/>
</g>
<!-- subsplit_DAG -->
<g id="node14" class="node">
<title>subsplit_DAG</title>
<ellipse fill="#ccebc5" stroke="#ccebc5" cx="1299.9626" cy="-626.0912" rx="61.99" ry="18"/>
<text text-anchor="middle" x="1299.9626" y="-622.3912" font-family="Times,serif" font-size="14.00" fill="#000000">subsplit_DAG</text>
</g>
<!-- bito&#45;&#45;subsplit_DAG -->
<g id="edge5" class="edge">
<title>bito&#45;&#45;subsplit_DAG</title>
<path fill="none" stroke="#000000" d="M1408.1706,-436.3831C1386.2361,-474.8383 1332.7734,-568.5679 1310.2431,-608.0676"/>
</g>
<!-- generalized_pruning -->
<g id="node9" class="node">
<title>generalized_pruning</title>
<ellipse fill="#ccebc5" stroke="#ccebc5" cx="1363.9763" cy="-526.8023" rx="83.3857" ry="18"/>
<text text-anchor="middle" x="1363.9763" y="-523.1023" font-family="Times,serif" font-size="14.00" fill="#000000">generalized_pruning</text>
</g>
<!-- mechanistic_SHM -->
<g id="node10" class="node">
<title>mechanistic_SHM</title>
<ellipse fill="#ccebc5" stroke="#ccebc5" cx="693.4225" cy="-701.3573" rx="77.1866" ry="18"/>
<text text-anchor="middle" x="693.4225" y="-697.6573" font-family="Times,serif" font-size="14.00" fill="#000000">mechanistic_SHM</text>
</g>
<!-- context_sensitive_phylo -->
<g id="node26" class="node">
<title>context_sensitive_phylo</title>
<polygon fill="none" stroke="#000000" points="914.9539,-717.0189 778.8833,-699.0189 914.9539,-681.0189 1051.0244,-699.0189 914.9539,-717.0189"/>
<text text-anchor="middle" x="914.9539" y="-695.3189" font-family="Times,serif" font-size="14.00" fill="#000000">context_sensitive_phylo</text>
</g>
<!-- mechanistic_SHM&#45;&#45;context_sensitive_phylo -->
<g id="edge45" class="edge">
<title>mechanistic_SHM&#45;&#45;context_sensitive_phylo</title>
<path fill="none" stroke="#000000" d="M770.9034,-700.5394C776.7677,-700.4775 782.7692,-700.4142 788.8333,-700.3502"/>
</g>
<!-- SHM_across_ages -->
<g id="node28" class="node">
<title>SHM_across_ages</title>
<polygon fill="none" stroke="#000000" points="475.6825,-750.6348 367.2614,-732.6348 475.6825,-714.6348 584.1036,-732.6348 475.6825,-750.6348"/>
<text text-anchor="middle" x="475.6825" y="-728.9348" font-family="Times,serif" font-size="14.00" fill="#000000">SHM_across_ages</text>
</g>
<!-- mechanistic_SHM&#45;&#45;SHM_across_ages -->
<g id="edge38" class="edge">
<title>mechanistic_SHM&#45;&#45;SHM_across_ages</title>
<path fill="none" stroke="#000000" d="M627.5024,-710.8264C597.7122,-715.1057 562.8124,-720.1189 533.9903,-724.2591"/>
</g>
<!-- paired_HL -->
<g id="node11" class="node">
<title>paired_HL</title>
<ellipse fill="#ccebc5" stroke="#ccebc5" cx="756.8686" cy="-1047.6795" rx="48.9926" ry="18"/>
<text text-anchor="middle" x="756.8686" y="-1043.9795" font-family="Times,serif" font-size="14.00" fill="#000000">paired_HL</text>
</g>
<!-- B_cell_CONGA -->
<g id="node25" class="node">
<title>B_cell_CONGA</title>
<polygon fill="none" stroke="#000000" points="652.2532,-1245.793 554.0533,-1227.793 652.2532,-1209.793 750.4531,-1227.793 652.2532,-1245.793"/>
<text text-anchor="middle" x="652.2532" y="-1224.093" font-family="Times,serif" font-size="14.00" fill="#000000">B_cell_CONGA</text>
</g>
<!-- paired_HL&#45;&#45;B_cell_CONGA -->
<g id="edge46" class="edge">
<title>paired_HL&#45;&#45;B_cell_CONGA</title>
<path fill="none" stroke="#000000" d="M746.4552,-1065.608C726.0925,-1100.666 681.2849,-1177.81 661.713,-1211.5065"/>
</g>
<!-- adaptive_MCMC -->
<g id="node37" class="node">
<title>adaptive_MCMC</title>
<polygon fill="none" stroke="#000000" points="1369.7751,-36 1266.0454,-18 1369.7751,0 1473.5048,-18 1369.7751,-36"/>
<text text-anchor="middle" x="1369.7751" y="-14.3" font-family="Times,serif" font-size="14.00" fill="#000000">adaptive_MCMC</text>
</g>
<!-- phylogenetic_VI&#45;&#45;adaptive_MCMC -->
<g id="edge1" class="edge">
<title>phylogenetic_VI&#45;&#45;adaptive_MCMC</title>
<path fill="none" stroke="#000000" d="M1402.2412,-195.9846C1395.3929,-158.441 1379.7167,-72.5013 1372.9649,-35.487"/>
</g>
<!-- online_phylo_VI -->
<g id="node39" class="node">
<title>online_phylo_VI</title>
<polygon fill="none" stroke="#000000" points="1282.5242,-400.8591 1182.1475,-382.8591 1282.5242,-364.8591 1382.9008,-382.8591 1282.5242,-400.8591"/>
<text text-anchor="middle" x="1282.5242" y="-379.1591" font-family="Times,serif" font-size="14.00" fill="#000000">online_phylo_VI</text>
</g>
<!-- phylogenetic_VI&#45;&#45;online_phylo_VI -->
<g id="edge6" class="edge">
<title>phylogenetic_VI&#45;&#45;online_phylo_VI</title>
<path fill="none" stroke="#000000" d="M1392.6094,-231.8232C1368.551,-264.8311 1317.2709,-335.1869 1294.1987,-366.8417"/>
</g>
<!-- antibody_DMS&#45;&#45;PhIP_seq -->
<g id="edge28" class="edge">
<title>antibody_DMS&#45;&#45;PhIP_seq</title>
<path fill="none" stroke="#000000" d="M1414.3199,-1371.0419C1411.2092,-1410.7589 1403.8497,-1504.7239 1400.7527,-1544.266"/>
</g>
<!-- antibody_DMS&#45;&#45;torchdms -->
<g id="edge27" class="edge">
<title>antibody_DMS&#45;&#45;torchdms</title>
<path fill="none" stroke="#000000" d="M1357.1002,-1361.1464C1340.0927,-1363.5615 1321.8674,-1366.1495 1306.0946,-1368.3893"/>
</g>
<!-- interactive_DMS_viz -->
<g id="node27" class="node">
<title>interactive_DMS_viz</title>
<polygon fill="none" stroke="#000000" points="1593.7524,-1446.3478 1470.4181,-1428.3478 1593.7524,-1410.3478 1717.0868,-1428.3478 1593.7524,-1446.3478"/>
<text text-anchor="middle" x="1593.7524" y="-1424.6478" font-family="Times,serif" font-size="14.00" fill="#000000">interactive_DMS_viz</text>
</g>
<!-- antibody_DMS&#45;&#45;interactive_DMS_viz -->
<g id="edge29" class="edge">
<title>antibody_DMS&#45;&#45;interactive_DMS_viz</title>
<path fill="none" stroke="#000000" d="M1451.7692,-1368.1029C1484.0746,-1381.8104 1531.0217,-1401.7305 1561.9608,-1414.8583"/>
</g>
<!-- subsplit_DAG&#45;&#45;generalized_pruning -->
<g id="edge9" class="edge">
<title>subsplit_DAG&#45;&#45;generalized_pruning</title>
<path fill="none" stroke="#000000" d="M1311.407,-608.3403C1322.9868,-590.3794 1340.7937,-562.7598 1352.4152,-544.7342"/>
</g>
<!-- hillclimber -->
<g id="node19" class="node">
<title>hillclimber</title>
<polygon fill="none" stroke="#000000" points="1535.116,-772.854 1473.3963,-785.2917 1411.6765,-772.854 1411.7342,-752.7294 1535.0584,-752.7294 1535.116,-772.854"/>
<text text-anchor="middle" x="1473.3963" y="-763.5917" font-family="Times,serif" font-size="14.00" fill="#000000">hillclimber</text>
</g>
<!-- subsplit_DAG&#45;&#45;hillclimber -->
<g id="edge8" class="edge">
<title>subsplit_DAG&#45;&#45;hillclimber</title>
<path fill="none" stroke="#000000" d="M1320.8827,-643.1233C1355.2085,-671.0695 1422.9015,-726.1816 1455.2942,-752.554"/>
</g>
<!-- Bayesian_subtree_optimality -->
<g id="node29" class="node">
<title>Bayesian_subtree_optimality</title>
<polygon fill="none" stroke="#000000" points="1205.2237,-486.9095 1044.5186,-468.9095 1205.2237,-450.9095 1365.9289,-468.9095 1205.2237,-486.9095"/>
<text text-anchor="middle" x="1205.2237" y="-465.2095" font-family="Times,serif" font-size="14.00" fill="#000000">Bayesian_subtree_optimality</text>
</g>
<!-- subsplit_DAG&#45;&#45;Bayesian_subtree_optimality -->
<g id="edge13" class="edge">
<title>subsplit_DAG&#45;&#45;Bayesian_subtree_optimality</title>
<path fill="none" stroke="#000000" d="M1289.0948,-608.0605C1270.6256,-577.4181 1233.3719,-515.6103 1215.3906,-485.7773"/>
</g>
<!-- fasdag -->
<g id="node31" class="node">
<title>fasdag</title>
<polygon fill="none" stroke="#000000" points="1355.7286,-787.3329 1308.1354,-769.3329 1355.7286,-751.3329 1403.3219,-769.3329 1355.7286,-787.3329"/>
<text text-anchor="middle" x="1355.7286" y="-765.6329" font-family="Times,serif" font-size="14.00" fill="#000000">fasdag</text>
</g>
<!-- subsplit_DAG&#45;&#45;fasdag -->
<g id="edge14" class="edge">
<title>subsplit_DAG&#45;&#45;fasdag</title>
<path fill="none" stroke="#000000" d="M1307.0254,-644.2329C1318.0453,-672.5389 1339.1457,-726.7377 1349.5778,-753.5337"/>
</g>
<!-- local_EM -->
<g id="node35" class="node">
<title>local_EM</title>
<polygon fill="none" stroke="#000000" points="1460.3687,-612.298 1395.3475,-594.298 1460.3687,-576.298 1525.3899,-594.298 1460.3687,-612.298"/>
<text text-anchor="middle" x="1460.3687" y="-590.598" font-family="Times,serif" font-size="14.00" fill="#000000">local_EM</text>
</g>
<!-- subsplit_DAG&#45;&#45;local_EM -->
<g id="edge10" class="edge">
<title>subsplit_DAG&#45;&#45;local_EM</title>
<path fill="none" stroke="#000000" d="M1351.1571,-615.9442C1374.2623,-611.3646 1401.0797,-606.0493 1422.3578,-601.8319"/>
</g>
<!-- how_big_of_sDAG -->
<g id="node38" class="node">
<title>how_big_of_sDAG</title>
<polygon fill="none" stroke="#000000" points="1505.354,-704.1787 1392.2412,-686.1787 1505.354,-668.1787 1618.4667,-686.1787 1505.354,-704.1787"/>
<text text-anchor="middle" x="1505.354" y="-682.4787" font-family="Times,serif" font-size="14.00" fill="#000000">how_big_of_sDAG</text>
</g>
<!-- subsplit_DAG&#45;&#45;how_big_of_sDAG -->
<g id="edge12" class="edge">
<title>subsplit_DAG&#45;&#45;how_big_of_sDAG</title>
<path fill="none" stroke="#000000" d="M1343.7723,-638.9078C1379.8236,-649.4546 1430.4982,-664.2795 1465.4394,-674.5016"/>
</g>
<!-- subsplit_DAG&#45;&#45;online_phylo_VI -->
<g id="edge7" class="edge">
<title>subsplit_DAG&#45;&#45;online_phylo_VI</title>
<path fill="none" stroke="#000000" d="M1298.6519,-607.8093C1295.4043,-562.5119 1287.016,-445.5117 1283.8027,-400.6922"/>
</g>
<!-- Bayesian_histories -->
<g id="node42" class="node">
<title>Bayesian_histories</title>
<polygon fill="none" stroke="#000000" points="1156.9866,-785.9982 1037.9866,-785.9982 1037.9866,-749.9982 1156.9866,-749.9982 1156.9866,-785.9982"/>
<text text-anchor="middle" x="1097.4866" y="-764.2982" font-family="Times,serif" font-size="14.00" fill="#000000">Bayesian_histories</text>
</g>
<!-- subsplit_DAG&#45;&#45;Bayesian_histories -->
<g id="edge11" class="edge">
<title>subsplit_DAG&#45;&#45;Bayesian_histories</title>
<path fill="none" stroke="#000000" d="M1275.9408,-642.9271C1237.6011,-669.7978 1162.8848,-722.1633 1123.3908,-749.8431"/>
</g>
<!-- transport -->
<g id="node16" class="node">
<title>transport</title>
<ellipse fill="#ccebc5" stroke="#ccebc5" cx="270.4649" cy="-198.5115" rx="42.4939" ry="18"/>
<text text-anchor="middle" x="270.4649" y="-194.8115" font-family="Times,serif" font-size="14.00" fill="#000000">transport</text>
</g>
<!-- VI_diagnostics -->
<g id="node17" class="node">
<title>VI_diagnostics</title>
<ellipse fill="#ccebc5" stroke="#ccebc5" cx="1572.2836" cy="-94.7671" rx="63.8893" ry="18"/>
<text text-anchor="middle" x="1572.2836" y="-91.0671" font-family="Times,serif" font-size="14.00" fill="#000000">VI_diagnostics</text>
</g>
<!-- VI_diagnostics&#45;&#45;phylogenetic_VI -->
<g id="edge3" class="edge">
<title>VI_diagnostics&#45;&#45;phylogenetic_VI</title>
<path fill="none" stroke="#000000" d="M1548.7473,-111.6087C1517.0583,-134.2838 1460.9934,-174.4013 1429.2279,-197.1312"/>
</g>
<!-- CFT -->
<g id="node18" class="node">
<title>CFT</title>
<polygon fill="none" stroke="#000000" points="648.9089,-936.221 616.0322,-948.6587 583.1555,-936.221 583.1862,-916.0964 648.8782,-916.0964 648.9089,-936.221"/>
<text text-anchor="middle" x="616.0322" y="-926.9587" font-family="Times,serif" font-size="14.00" fill="#000000">CFT</text>
</g>
<!-- olmsted -->
<g id="node20" class="node">
<title>olmsted</title>
<polygon fill="none" stroke="#000000" points="513.1953,-1067.4014 464.7897,-1079.8391 416.3841,-1067.4014 416.4292,-1047.2768 513.1501,-1047.2768 513.1953,-1067.4014"/>
<text text-anchor="middle" x="464.7897" y="-1058.1391" font-family="Times,serif" font-size="14.00" fill="#000000">olmsted</text>
</g>
<!-- CFT&#45;&#45;olmsted -->
<g id="edge36" class="edge">
<title>CFT&#45;&#45;olmsted</title>
<path fill="none" stroke="#000000" d="M601.5304,-943.2368C573.4351,-967.6054 511.7212,-1021.133 481.7673,-1047.1135"/>
</g>
<!-- find_posterior_modes -->
<g id="node32" class="node">
<title>find_posterior_modes</title>
<polygon fill="none" stroke="#000000" points="1679.2074,-782.8954 1554.1966,-764.8954 1679.2074,-746.8954 1804.2182,-764.8954 1679.2074,-782.8954"/>
<text text-anchor="middle" x="1679.2074" y="-761.1954" font-family="Times,serif" font-size="14.00" fill="#000000">find_posterior_modes</text>
</g>
<!-- hillclimber&#45;&#45;find_posterior_modes -->
<g id="edge15" class="edge">
<title>hillclimber&#45;&#45;find_posterior_modes</title>
<path fill="none" stroke="#000000" d="M1535.1464,-766.5727C1544.1451,-766.468 1553.6465,-766.3573 1563.3032,-766.2449"/>
</g>
<!-- BCR_GWAS -->
<g id="node21" class="node">
<title>BCR_GWAS</title>
<polygon fill="none" stroke="#000000" points="633.5789,-639.5766 549.792,-621.5766 633.5789,-603.5766 717.3657,-621.5766 633.5789,-639.5766"/>
<text text-anchor="middle" x="633.5789" y="-617.8766" font-family="Times,serif" font-size="14.00" fill="#000000">BCR_GWAS</text>
</g>
<!-- BCR_GWAS&#45;&#45;TCR_GWAS -->
<g id="edge40" class="edge">
<title>BCR_GWAS&#45;&#45;TCR_GWAS</title>
<path fill="none" stroke="#000000" d="M613.5411,-607.7179C581.7745,-585.7472 519.9688,-543.0006 485.8669,-519.4148"/>
</g>
<!-- BCR_indels -->
<g id="node22" class="node">
<title>BCR_indels</title>
<polygon fill="none" stroke="#000000" points="656.7676,-823.7762 580.6869,-805.7762 656.7676,-787.7762 732.8482,-805.7762 656.7676,-823.7762"/>
<text text-anchor="middle" x="656.7676" y="-802.0762" font-family="Times,serif" font-size="14.00" fill="#000000">BCR_indels</text>
</g>
<!-- BCR_selection_analysis -->
<g id="node23" class="node">
<title>BCR_selection_analysis</title>
<polygon fill="none" stroke="#000000" points="794.2431,-965.8962 657.3342,-947.8962 794.2431,-929.8962 931.152,-947.8962 794.2431,-965.8962"/>
<text text-anchor="middle" x="794.2431" y="-944.1962" font-family="Times,serif" font-size="14.00" fill="#000000">BCR_selection_analysis</text>
</g>
<!-- BCR_trajectories -->
<g id="node24" class="node">
<title>BCR_trajectories</title>
<polygon fill="none" stroke="#000000" points="889.1222,-1011.0282 787.9075,-993.0282 889.1222,-975.0282 990.3369,-993.0282 889.1222,-1011.0282"/>
<text text-anchor="middle" x="889.1222" y="-989.3282" font-family="Times,serif" font-size="14.00" fill="#000000">BCR_trajectories</text>
</g>
<!-- SARS2_parsimony_plateau -->
<g id="node30" class="node">
<title>SARS2_parsimony_plateau</title>
<polygon fill="none" stroke="#000000" points="1153.0753,-899.673 999.5767,-881.673 1153.0753,-863.673 1306.5738,-881.673 1153.0753,-899.673"/>
<text text-anchor="middle" x="1153.0753" y="-877.973" font-family="Times,serif" font-size="14.00" fill="#000000">SARS2_parsimony_plateau</text>
</g>
<!-- help_PANGO -->
<g id="node33" class="node">
<title>help_PANGO</title>
<polygon fill="none" stroke="#000000" points="1144.6174,-676.6416 1059.1542,-658.6416 1144.6174,-640.6416 1230.0807,-658.6416 1144.6174,-676.6416"/>
<text text-anchor="middle" x="1144.6174" y="-654.9416" font-family="Times,serif" font-size="14.00" fill="#000000">help_PANGO</text>
</g>
<!-- fast_TreeTime -->
<g id="node36" class="node">
<title>fast_TreeTime</title>
<polygon fill="none" stroke="#000000" points="1007.8839,-574.6354 918.5671,-556.6354 1007.8839,-538.6354 1097.2007,-556.6354 1007.8839,-574.6354"/>
<text text-anchor="middle" x="1007.8839" y="-552.9354" font-family="Times,serif" font-size="14.00" fill="#000000">fast_TreeTime</text>
</g>
<!-- polytomy_resolution -->
<g id="node40" class="node">
<title>polytomy_resolution</title>
<polygon fill="none" stroke="#000000" points="924.1195,-368.391 804.6386,-350.391 924.1195,-332.391 1043.6004,-350.391 924.1195,-368.391"/>
<text text-anchor="middle" x="924.1195" y="-346.691" font-family="Times,serif" font-size="14.00" fill="#000000">polytomy_resolution</text>
</g>
<!-- fast_TreeTime&#45;&#45;polytomy_resolution -->
<g id="edge22" class="edge">
<title>fast_TreeTime&#45;&#45;polytomy_resolution</title>
<path fill="none" stroke="#000000" d="M1001.0291,-539.7576C985.3217,-501.083 946.8674,-406.4007 931.069,-367.502"/>
</g>
<!-- how_big_of_sDAG&#45;&#45;find_posterior_modes -->
<g id="edge16" class="edge">
<title>how_big_of_sDAG&#45;&#45;find_posterior_modes</title>
<path fill="none" stroke="#000000" d="M1534.8458,-699.5319C1566.6216,-713.9192 1616.9307,-736.698 1648.9865,-751.2121"/>
</g>
<!-- BCR_analysis -->
<g id="node41" class="node">
<title>BCR_analysis</title>
<polygon fill="none" stroke="#000000" points="872.7694,-836.4267 778.7694,-836.4267 778.7694,-800.4267 872.7694,-800.4267 872.7694,-836.4267"/>
<text text-anchor="middle" x="825.7694" y="-814.7267" font-family="Times,serif" font-size="14.00" fill="#000000">BCR_analysis</text>
</g>
<!-- BCR_analysis&#45;&#45;mechanistic_SHM -->
<g id="edge37" class="edge">
<title>BCR_analysis&#45;&#45;mechanistic_SHM</title>
<path fill="none" stroke="#000000" d="M805.3802,-800.3911C780.2923,-778.1992 737.9834,-740.7742 713.1859,-718.8393"/>
</g>
<!-- BCR_analysis&#45;&#45;paired_HL -->
<g id="edge34" class="edge">
<title>BCR_analysis&#45;&#45;paired_HL</title>
<path fill="none" stroke="#000000" d="M820.2474,-836.7998C807.3144,-879.8318 775.1853,-986.7345 762.3212,-1029.537"/>
</g>
<!-- BCR_analysis&#45;&#45;CFT -->
<g id="edge35" class="edge">
<title>BCR_analysis&#45;&#45;CFT</title>
<path fill="none" stroke="#000000" d="M792.0715,-836.4587C750.7321,-858.5797 681.4551,-895.6504 643.2987,-916.0682"/>
</g>
<!-- BCR_analysis&#45;&#45;BCR_GWAS -->
<g id="edge39" class="edge">
<title>BCR_analysis&#45;&#45;BCR_GWAS</title>
<path fill="none" stroke="#000000" d="M808.0331,-800.2603C770.3978,-761.7126 683.1457,-672.3451 648.3208,-636.6759"/>
</g>
<!-- BCR_analysis&#45;&#45;BCR_indels -->
<g id="edge32" class="edge">
<title>BCR_analysis&#45;&#45;BCR_indels</title>
<path fill="none" stroke="#000000" d="M778.693,-814.9028C758.8662,-813.4187 735.5948,-811.6767 714.727,-810.1147"/>
</g>
<!-- BCR_analysis&#45;&#45;BCR_selection_analysis -->
<g id="edge30" class="edge">
<title>BCR_analysis&#45;&#45;BCR_selection_analysis</title>
<path fill="none" stroke="#000000" d="M821.3858,-836.4288C815.3626,-861.1644 804.593,-905.392 798.5895,-930.0469"/>
</g>
<!-- BCR_analysis&#45;&#45;BCR_trajectories -->
<g id="edge31" class="edge">
<title>BCR_analysis&#45;&#45;BCR_trajectories</title>
<path fill="none" stroke="#000000" d="M832.3106,-836.4545C844.577,-870.2608 870.8779,-942.7465 882.8979,-975.8739"/>
</g>
<!-- BCR_analysis&#45;&#45;Bayesian_histories -->
<g id="edge33" class="edge">
<title>BCR_analysis&#45;&#45;Bayesian_histories</title>
<path fill="none" stroke="#000000" d="M872.7887,-809.7003C918.5084,-801.2151 988.1308,-788.2937 1037.7501,-779.0848"/>
</g>
<!-- Bayesian_histories&#45;&#45;Bayesian_GCtree -->
<g id="edge18" class="edge">
<title>Bayesian_histories&#45;&#45;Bayesian_GCtree</title>
<path fill="none" stroke="#000000" d="M1104.3599,-786.0371C1120.7342,-829.0112 1161.8966,-937.0415 1178.2386,-979.9309"/>
</g>
<!-- Bayesian_histories&#45;&#45;context_sensitive_phylo -->
<g id="edge17" class="edge">
<title>Bayesian_histories&#45;&#45;context_sensitive_phylo</title>
<path fill="none" stroke="#000000" d="M1049.5283,-749.8747C1018.4738,-738.1392 978.7106,-723.1127 950.4796,-712.4441"/>
</g>
<!-- Bayesian_histories&#45;&#45;SARS2_parsimony_plateau -->
<g id="edge19" class="edge">
<title>Bayesian_histories&#45;&#45;SARS2_parsimony_plateau</title>
<path fill="none" stroke="#000000" d="M1106.2948,-786.0103C1116.8261,-807.5461 1134.3234,-843.3268 1144.6722,-864.4893"/>
</g>
<!-- Bayesian_histories&#45;&#45;help_PANGO -->
<g id="edge20" class="edge">
<title>Bayesian_histories&#45;&#45;help_PANGO</title>
<path fill="none" stroke="#000000" d="M1105.2693,-749.9402C1114.2111,-729.1929 1128.7636,-695.4269 1137.4417,-675.2914"/>
</g>
<!-- Bayesian_histories&#45;&#45;fast_TreeTime -->
<g id="edge21" class="edge">
<title>Bayesian_histories&#45;&#45;fast_TreeTime</title>
<path fill="none" stroke="#000000" d="M1089.8472,-749.9775C1072.7494,-709.6459 1031.6021,-612.584 1015.0038,-573.4306"/>
</g>
<!-- TCR_analysis -->
<g id="node43" class="node">
<title>TCR_analysis</title>
<polygon fill="none" stroke="#000000" points="329.2557,-428.0733 236.2557,-428.0733 236.2557,-392.0733 329.2557,-392.0733 329.2557,-428.0733"/>
<text text-anchor="middle" x="282.7557" y="-406.3733" font-family="Times,serif" font-size="14.00" fill="#000000">TCR_analysis</text>
</g>
<!-- TCR_analysis&#45;&#45;HLA_effects -->
<g id="edge42" class="edge">
<title>TCR_analysis&#45;&#45;HLA_effects</title>
<path fill="none" stroke="#000000" d="M252.2741,-391.8668C223.5142,-374.6886 180.822,-349.1887 153.3476,-332.7784"/>
</g>
<!-- TCR_analysis&#45;&#45;TCR_GWAS -->
<g id="edge41" class="edge">
<title>TCR_analysis&#45;&#45;TCR_GWAS</title>
<path fill="none" stroke="#000000" d="M317.7084,-428.1704C350.8906,-445.3507 400.2464,-470.9051 431.7273,-487.2046"/>
</g>
<!-- TCR_analysis&#45;&#45;TCR_trimming_motifs -->
<g id="edge44" class="edge">
<title>TCR_analysis&#45;&#45;TCR_trimming_motifs</title>
<path fill="none" stroke="#000000" d="M246.1577,-428.1598C211.6841,-445.1964 160.4525,-470.5147 126.8767,-487.1077"/>
</g>
<!-- TCR_analysis&#45;&#45;transport -->
<g id="edge43" class="edge">
<title>TCR_analysis&#45;&#45;transport</title>
<path fill="none" stroke="#000000" d="M281.7078,-392.0357C279.3915,-352.1656 273.8576,-256.9089 271.5276,-216.804"/>
</g>
<!-- train_awesome_researchers -->
<g id="node44" class="node">
<title>train_awesome_researchers</title>
<polygon fill="none" stroke="#000000" points="1123.3176,-1628.9645 956.2367,-1628.9645 904.6058,-1787.7196 852.975,-1628.9645 685.8941,-1628.9645 821.0654,-1530.8485 769.4346,-1372.0935 904.6058,-1470.2095 1039.7771,-1372.0935 988.1463,-1530.8485 1123.3176,-1628.9645"/>
<text text-anchor="middle" x="904.6058" y="-1576.2065" font-family="Times,serif" font-size="14.00" fill="#000000">train_awesome_researchers</text>
</g>
<!-- diversify_comp_bio -->
<g id="node45" class="node">
<title>diversify_comp_bio</title>
<polygon fill="none" stroke="#000000" points="525.8084,-1663.8619 399.8572,-1663.8619 360.9361,-1783.5909 322.0151,-1663.8619 196.0638,-1663.8619 297.9605,-1589.8653 259.0395,-1470.1363 360.9361,-1544.1329 462.8328,-1470.1363 423.9118,-1589.8653 525.8084,-1663.8619"/>
<text text-anchor="middle" x="360.9361" y="-1623.1636" font-family="Times,serif" font-size="14.00" fill="#000000">diversify_comp_bio</text>
</g>
<!-- eradicate_disease -->
<g id="node46" class="node">
<title>eradicate_disease</title>
<polygon fill="none" stroke="#000000" points="1760.4029,-1150.8562 1649.5548,-1150.8562 1615.3009,-1256.5683 1581.0469,-1150.8562 1470.1988,-1150.8562 1559.8768,-1085.5225 1525.6229,-979.8104 1615.3009,-1045.1441 1704.9789,-979.8104 1670.7249,-1085.5225 1760.4029,-1150.8562"/>
<text text-anchor="middle" x="1615.3009" y="-1114.4894" font-family="Times,serif" font-size="14.00" fill="#000000">eradicate_disease</text>
</g>
</g>
</svg>
