<?xml version="1.0" encoding="UTF-8" standalone="no"?>
<!DOCTYPE svg PUBLIC "-//W3C//DTD SVG 1.1//EN"
 "http://www.w3.org/Graphics/SVG/1.1/DTD/svg11.dtd">
<!-- Generated by graphviz version 2.40.1 (20161225.0304)
 -->
<!-- Title: %3 Pages: 1 -->
<svg width="2050pt" height="1969pt"
 viewBox="0.00 0.00 2049.60 1968.81" xmlns="http://www.w3.org/2000/svg" xmlns:xlink="http://www.w3.org/1999/xlink">
<g id="graph0" class="graph" transform="scale(1 1) rotate(0) translate(4 1964.813)">
<title>%3</title>
<polygon fill="#ffffff" stroke="transparent" points="-4,4 -4,-1964.813 2045.6018,-1964.813 2045.6018,4 -4,4"/>
<!-- Bayesian_GCtree -->
<g id="node1" class="node">
<title>Bayesian_GCtree</title>
<g id="a_node1"><a xlink:title="Do posterior estimation using Will&#39;s GCtree framework.">
<ellipse fill="#ccebc5" stroke="#ccebc5" cx="1150.2036" cy="-1068.1675" rx="72.5877" ry="18"/>
<text text-anchor="middle" x="1150.2036" y="-1064.4675" font-family="Times,serif" font-size="14.00" fill="#000000">Bayesian_GCtree</text>
</a>
</g>
</g>
<!-- GCreplay -->
<g id="node2" class="node">
<title>GCreplay</title>
<g id="a_node2"><a xlink:title="A big collaboration with the Victora and Bloom labs to understand GC maturation with replicate samples.">
<ellipse fill="#ccebc5" stroke="#ccebc5" cx="1204.9211" cy="-1326.8566" rx="44.6926" ry="18"/>
<text text-anchor="middle" x="1204.9211" y="-1323.1566" font-family="Times,serif" font-size="14.00" fill="#000000">GCreplay</text>
</a>
</g>
</g>
<!-- Bayesian_GCtree&#45;&#45;GCreplay -->
<g id="edge25" class="edge">
<title>Bayesian_GCtree&#45;&#45;GCreplay</title>
<path fill="none" stroke="#000000" d="M1154.0512,-1086.358C1164.0978,-1133.8556 1191.0359,-1261.2112 1201.0777,-1308.6862"/>
</g>
<!-- GCtree_with_heritable -->
<g id="node36" class="node">
<title>GCtree_with_heritable</title>
<g id="a_node36"><a xlink:title="GCtree operates under the assumption of a neutral branching process, the parameters of which do not change through the tree. Can we extend this to a process with a heritable component?">
<polygon fill="none" stroke="#000000" points="1279.1718,-1222.1552 1150.3075,-1204.1552 1279.1718,-1186.1552 1408.0361,-1204.1552 1279.1718,-1222.1552"/>
<text text-anchor="middle" x="1279.1718" y="-1200.4552" font-family="Times,serif" font-size="14.00" fill="#000000">GCtree_with_heritable</text>
</a>
</g>
</g>
<!-- Bayesian_GCtree&#45;&#45;GCtree_with_heritable -->
<g id="edge26" class="edge">
<title>Bayesian_GCtree&#45;&#45;GCtree_with_heritable</title>
<path fill="none" stroke="#000000" d="M1167.064,-1085.9455C1192.3268,-1112.5834 1239.6233,-1162.4541 1263.9148,-1188.0678"/>
</g>
<!-- antibody_DMS -->
<g id="node13" class="node">
<title>antibody_DMS</title>
<g id="a_node13"><a xlink:title="What can we learn from deep mutational scanning on antibodies?">
<ellipse fill="#ccebc5" stroke="#ccebc5" cx="1328.4131" cy="-1519.3111" rx="65.7887" ry="18"/>
<text text-anchor="middle" x="1328.4131" y="-1515.6111" font-family="Times,serif" font-size="14.00" fill="#000000">antibody_DMS</text>
</a>
</g>
</g>
<!-- GCreplay&#45;&#45;antibody_DMS -->
<g id="edge28" class="edge">
<title>GCreplay&#45;&#45;antibody_DMS</title>
<path fill="none" stroke="#000000" d="M1216.3176,-1344.6173C1239.7836,-1381.1876 1293.2696,-1464.5422 1316.8646,-1501.3136"/>
</g>
<!-- torchdms -->
<g id="node15" class="node">
<title>torchdms</title>
<g id="a_node15"><a xlink:title="Develop a DMS analysis package using a modern machine&#45;learning library.">
<ellipse fill="#ccebc5" stroke="#ccebc5" cx="1165.133" cy="-1526.4163" rx="44.393" ry="18"/>
<text text-anchor="middle" x="1165.133" y="-1522.7163" font-family="Times,serif" font-size="14.00" fill="#000000">torchdms</text>
</a>
</g>
</g>
<!-- GCreplay&#45;&#45;torchdms -->
<g id="edge27" class="edge">
<title>GCreplay&#45;&#45;torchdms</title>
<path fill="none" stroke="#000000" d="M1201.32,-1344.9181C1193.7639,-1382.8161 1176.3286,-1470.2642 1168.7546,-1508.2518"/>
</g>
<!-- HLA_effects -->
<g id="node3" class="node">
<title>HLA_effects</title>
<g id="a_node3"><a xlink:title="Assya&#39;s project understanding the effects of HLA on repertoire.">
<ellipse fill="#ccebc5" stroke="#ccebc5" cx="1649.5723" cy="-64.7597" rx="56.59" ry="18"/>
<text text-anchor="middle" x="1649.5723" y="-61.0597" font-family="Times,serif" font-size="14.00" fill="#000000">HLA_effects</text>
</a>
</g>
</g>
<!-- PhIP_seq -->
<g id="node4" class="node">
<title>PhIP_seq</title>
<g id="a_node4"><a xlink:title="Develop statistics and software tools for PhIP&#45;seq analyses.">
<ellipse fill="#ccebc5" stroke="#ccebc5" cx="1298.7963" cy="-1739.6572" rx="44.393" ry="18"/>
<text text-anchor="middle" x="1298.7963" y="-1735.9572" font-family="Times,serif" font-size="14.00" fill="#000000">PhIP_seq</text>
</a>
</g>
</g>
<!-- TCR_GWAS -->
<g id="node5" class="node">
<title>TCR_GWAS</title>
<g id="a_node5"><a xlink:title="GWAS to infer TCR&#45;repertoire features.">
<ellipse fill="#ccebc5" stroke="#ccebc5" cx="1411.7089" cy="-402.53" rx="58.4896" ry="18"/>
<text text-anchor="middle" x="1411.7089" y="-398.83" font-family="Times,serif" font-size="14.00" fill="#000000">TCR_GWAS</text>
</a>
</g>
</g>
<!-- TCR_trimming_motifs -->
<g id="node6" class="node">
<title>TCR_trimming_motifs</title>
<g id="a_node6"><a xlink:title="What sequence&#45;level features determine trimming of TCRs in VDJ recombination?">
<ellipse fill="#ccebc5" stroke="#ccebc5" cx="1455.2979" cy="-18" rx="92.8835" ry="18"/>
<text text-anchor="middle" x="1455.2979" y="-14.3" font-family="Times,serif" font-size="14.00" fill="#000000">TCR_trimming_motifs</text>
</a>
</g>
</g>
<!-- bito -->
<g id="node7" class="node">
<title>bito</title>
<g id="a_node7"><a xlink:title="Bayesian Inference of Trees via Optimization: a C++/python package">
<ellipse fill="#ccebc5" stroke="#ccebc5" cx="537.4816" cy="-657.0598" rx="27" ry="18"/>
<text text-anchor="middle" x="537.4816" y="-653.3598" font-family="Times,serif" font-size="14.00" fill="#000000">bito</text>
</a>
</g>
</g>
<!-- autodiff_gradients -->
<g id="node8" class="node">
<title>autodiff_gradients</title>
<g id="a_node8"><a xlink:title="How fast is autodiff for phylogenetically&#45;relevant gradients?">
<ellipse fill="#ccebc5" stroke="#ccebc5" cx="515.8919" cy="-431.4967" rx="75.2868" ry="18"/>
<text text-anchor="middle" x="515.8919" y="-427.7967" font-family="Times,serif" font-size="14.00" fill="#000000">autodiff_gradients</text>
</a>
</g>
</g>
<!-- bito&#45;&#45;autodiff_gradients -->
<g id="edge4" class="edge">
<title>bito&#45;&#45;autodiff_gradients</title>
<path fill="none" stroke="#000000" d="M535.7514,-638.9823C531.7089,-596.7475 521.681,-491.9799 517.6304,-449.6602"/>
</g>
<!-- phylogenetic_VI -->
<g id="node12" class="node">
<title>phylogenetic_VI</title>
<g id="a_node12"><a xlink:title="Do variational inference of continuous parameters in phylogenetics.">
<ellipse fill="#ccebc5" stroke="#ccebc5" cx="314.9205" cy="-647.1321" rx="69.5877" ry="18"/>
<text text-anchor="middle" x="314.9205" y="-643.4321" font-family="Times,serif" font-size="14.00" fill="#000000">phylogenetic_VI</text>
</a>
</g>
</g>
<!-- bito&#45;&#45;phylogenetic_VI -->
<g id="edge2" class="edge">
<title>bito&#45;&#45;phylogenetic_VI</title>
<path fill="none" stroke="#000000" d="M510.1913,-655.8425C478.8511,-654.4445 426.2619,-652.0986 383.5501,-650.1934"/>
</g>
<!-- subsplit_DAG -->
<g id="node14" class="node">
<title>subsplit_DAG</title>
<g id="a_node14"><a xlink:title="Formalize definitions of and basic lemmas for the subsplit DAG.">
<ellipse fill="#ccebc5" stroke="#ccebc5" cx="738.8559" cy="-854.7629" rx="61.99" ry="18"/>
<text text-anchor="middle" x="738.8559" y="-851.0629" font-family="Times,serif" font-size="14.00" fill="#000000">subsplit_DAG</text>
</a>
</g>
</g>
<!-- bito&#45;&#45;subsplit_DAG -->
<g id="edge5" class="edge">
<title>bito&#45;&#45;subsplit_DAG</title>
<path fill="none" stroke="#000000" d="M552.9488,-672.245C589.6959,-708.3222 682.0712,-799.0135 721.0563,-837.2878"/>
</g>
<!-- generalized_pruning -->
<g id="node9" class="node">
<title>generalized_pruning</title>
<g id="a_node9"><a xlink:title="Generalization of the Felsenstein pruning algorithm to the subsplit DAG.">
<ellipse fill="#ccebc5" stroke="#ccebc5" cx="717.7807" cy="-618.9027" rx="83.3857" ry="18"/>
<text text-anchor="middle" x="717.7807" y="-615.2027" font-family="Times,serif" font-size="14.00" fill="#000000">generalized_pruning</text>
</a>
</g>
</g>
<!-- mechanistic_SHM -->
<g id="node10" class="node">
<title>mechanistic_SHM</title>
<g id="a_node10"><a xlink:title="Design and fit mechanistically&#45;based probabilistic models of the somatic hypermutation process.">
<ellipse fill="#ccebc5" stroke="#ccebc5" cx="1310.9629" cy="-737.3875" rx="77.1866" ry="18"/>
<text text-anchor="middle" x="1310.9629" y="-733.6875" font-family="Times,serif" font-size="14.00" fill="#000000">mechanistic_SHM</text>
</a>
</g>
</g>
<!-- context_sensitive_phylo -->
<g id="node26" class="node">
<title>context_sensitive_phylo</title>
<g id="a_node26"><a xlink:title="Develop phyogenetic methods that enable inference under context&#45;sensitive models.">
<polygon fill="none" stroke="#000000" points="1028.2813,-799.0954 892.2107,-781.0954 1028.2813,-763.0954 1164.3518,-781.0954 1028.2813,-799.0954"/>
<text text-anchor="middle" x="1028.2813" y="-777.3954" font-family="Times,serif" font-size="14.00" fill="#000000">context_sensitive_phylo</text>
</a>
</g>
</g>
<!-- mechanistic_SHM&#45;&#45;context_sensitive_phylo -->
<g id="edge49" class="edge">
<title>mechanistic_SHM&#45;&#45;context_sensitive_phylo</title>
<path fill="none" stroke="#000000" d="M1246.4644,-747.3602C1199.8605,-754.566 1137.2429,-764.2479 1091.0435,-771.3911"/>
</g>
<!-- SHM_across_ages -->
<g id="node28" class="node">
<title>SHM_across_ages</title>
<g id="a_node28"><a xlink:title="Perform a detailed investigation of how SHM changes as people age.">
<polygon fill="none" stroke="#000000" points="1539.0689,-660.061 1430.6478,-642.061 1539.0689,-624.061 1647.4901,-642.061 1539.0689,-660.061"/>
<text text-anchor="middle" x="1539.0689" y="-638.361" font-family="Times,serif" font-size="14.00" fill="#000000">SHM_across_ages</text>
</a>
</g>
</g>
<!-- mechanistic_SHM&#45;&#45;SHM_across_ages -->
<g id="edge42" class="edge">
<title>mechanistic_SHM&#45;&#45;SHM_across_ages</title>
<path fill="none" stroke="#000000" d="M1348.63,-721.6463C1393.1721,-703.032 1466.481,-672.3959 1507.9492,-655.0661"/>
</g>
<!-- paired_HL -->
<g id="node11" class="node">
<title>paired_HL</title>
<g id="a_node11"><a xlink:title="Perform clonal family inference with paired heavy and light chain sequences.">
<ellipse fill="#ccebc5" stroke="#ccebc5" cx="1457.1772" cy="-891.7941" rx="48.9926" ry="18"/>
<text text-anchor="middle" x="1457.1772" y="-888.0941" font-family="Times,serif" font-size="14.00" fill="#000000">paired_HL</text>
</a>
</g>
</g>
<!-- B_cell_CONGA -->
<g id="node25" class="node">
<title>B_cell_CONGA</title>
<g id="a_node25"><a xlink:title="Adapt CONGA (https://paperpile.com/shared/w2jo9E) for BCR sequences.">
<polygon fill="none" stroke="#000000" points="1678.5596,-925.0215 1580.3597,-907.0215 1678.5596,-889.0215 1776.7594,-907.0215 1678.5596,-925.0215"/>
<text text-anchor="middle" x="1678.5596" y="-903.3215" font-family="Times,serif" font-size="14.00" fill="#000000">B_cell_CONGA</text>
</a>
</g>
</g>
<!-- paired_HL&#45;&#45;B_cell_CONGA -->
<g id="edge50" class="edge">
<title>paired_HL&#45;&#45;B_cell_CONGA</title>
<path fill="none" stroke="#000000" d="M1505.2139,-895.0982C1534.9713,-897.145 1573.7366,-899.8114 1607.0604,-902.1035"/>
</g>
<!-- adaptive_MCMC -->
<g id="node41" class="node">
<title>adaptive_MCMC</title>
<g id="a_node41"><a xlink:title="Use variational inference as a proposal distribution for MCMC.">
<polygon fill="none" stroke="#000000" points="103.8648,-717.179 .1351,-699.179 103.8648,-681.179 207.5945,-699.179 103.8648,-717.179"/>
<text text-anchor="middle" x="103.8648" y="-695.479" font-family="Times,serif" font-size="14.00" fill="#000000">adaptive_MCMC</text>
</a>
</g>
</g>
<!-- phylogenetic_VI&#45;&#45;adaptive_MCMC -->
<g id="edge1" class="edge">
<title>phylogenetic_VI&#45;&#45;adaptive_MCMC</title>
<path fill="none" stroke="#000000" d="M264.3674,-659.5986C228.5137,-668.4402 180.9137,-680.1785 146.8792,-688.5715"/>
</g>
<!-- online_phylo_VI -->
<g id="node43" class="node">
<title>online_phylo_VI</title>
<g id="a_node43"><a xlink:title="Online (i.e. incremental) phylogenetic variational inference.">
<polygon fill="none" stroke="#000000" points="476.6491,-801.7755 376.2724,-783.7755 476.6491,-765.7755 577.0257,-783.7755 476.6491,-801.7755"/>
<text text-anchor="middle" x="476.6491" y="-780.0755" font-family="Times,serif" font-size="14.00" fill="#000000">online_phylo_VI</text>
</a>
</g>
</g>
<!-- phylogenetic_VI&#45;&#45;online_phylo_VI -->
<g id="edge6" class="edge">
<title>phylogenetic_VI&#45;&#45;online_phylo_VI</title>
<path fill="none" stroke="#000000" d="M335.4035,-664.438C367.3627,-691.4402 428.5565,-743.1424 458.8108,-768.704"/>
</g>
<!-- antibody_DMS&#45;&#45;PhIP_seq -->
<g id="edge30" class="edge">
<title>antibody_DMS&#45;&#45;PhIP_seq</title>
<path fill="none" stroke="#000000" d="M1325.9894,-1537.343C1320.4357,-1578.6619 1306.8393,-1679.8179 1301.2535,-1721.3762"/>
</g>
<!-- antibody_DMS&#45;&#45;torchdms -->
<g id="edge29" class="edge">
<title>antibody_DMS&#45;&#45;torchdms</title>
<path fill="none" stroke="#000000" d="M1263.4113,-1522.1397C1245.269,-1522.9292 1225.9819,-1523.7684 1209.3425,-1524.4925"/>
</g>
<!-- dms_view2 -->
<g id="node27" class="node">
<title>dms_view2</title>
<g id="a_node27"><a xlink:title="Develop the next version of dms&#45;view, with abilities to compare between data sets and also show K_D inferences.">
<polygon fill="none" stroke="#000000" points="1511.8738,-1643.9203 1438.3087,-1625.9203 1511.8738,-1607.9203 1585.439,-1625.9203 1511.8738,-1643.9203"/>
<text text-anchor="middle" x="1511.8738" y="-1622.2203" font-family="Times,serif" font-size="14.00" fill="#000000">dms_view2</text>
</a>
</g>
</g>
<!-- antibody_DMS&#45;&#45;dms_view2 -->
<g id="edge31" class="edge">
<title>antibody_DMS&#45;&#45;dms_view2</title>
<path fill="none" stroke="#000000" d="M1356.6768,-1535.7352C1393.3637,-1557.054 1456.6163,-1593.8101 1489.9129,-1613.1588"/>
</g>
<!-- subsplit_DAG&#45;&#45;generalized_pruning -->
<g id="edge9" class="edge">
<title>subsplit_DAG&#45;&#45;generalized_pruning</title>
<path fill="none" stroke="#000000" d="M737.2371,-836.6469C733.3142,-792.7437 723.3336,-681.047 719.405,-637.0804"/>
</g>
<!-- hillclimber -->
<g id="node19" class="node">
<title>hillclimber</title>
<g id="a_node19"><a xlink:title="What happens when we start ML algorithms at random starting points? What does it tell us about the phylogenetic likelihood surface?">
<polygon fill="none" stroke="#000000" points="552.5376,-1007.8308 490.8179,-1020.2685 429.0981,-1007.8308 429.1557,-987.7062 552.48,-987.7062 552.5376,-1007.8308"/>
<text text-anchor="middle" x="490.8179" y="-998.5685" font-family="Times,serif" font-size="14.00" fill="#000000">hillclimber</text>
</a>
</g>
</g>
<!-- subsplit_DAG&#45;&#45;hillclimber -->
<g id="edge8" class="edge">
<title>subsplit_DAG&#45;&#45;hillclimber</title>
<path fill="none" stroke="#000000" d="M711.3637,-871.1121C662.6767,-900.0658 562.0479,-959.9087 515.4683,-987.6092"/>
</g>
<!-- Bayesian_subtree_optimality -->
<g id="node30" class="node">
<title>Bayesian_subtree_optimality</title>
<g id="a_node30"><a xlink:title="How does the Bayesian posterior distribution of n taxa change when an n+1st taxon is added to the tree?">
<polygon fill="none" stroke="#000000" points="777.3549,-698.98 616.6498,-680.98 777.3549,-662.98 938.0601,-680.98 777.3549,-698.98"/>
<text text-anchor="middle" x="777.3549" y="-677.28" font-family="Times,serif" font-size="14.00" fill="#000000">Bayesian_subtree_optimality</text>
</a>
</g>
</g>
<!-- subsplit_DAG&#45;&#45;Bayesian_subtree_optimality -->
<g id="edge13" class="edge">
<title>subsplit_DAG&#45;&#45;Bayesian_subtree_optimality</title>
<path fill="none" stroke="#000000" d="M742.9032,-836.4935C750.3358,-802.9428 766.0707,-731.9167 773.4193,-698.7453"/>
</g>
<!-- fasdag -->
<g id="node32" class="node">
<title>fasdag</title>
<g id="a_node32"><a xlink:title="Develop NJ and parsimony approaches to reconstructing the sDAG.">
<polygon fill="none" stroke="#000000" points="655.0311,-742.9844 607.4379,-724.9844 655.0311,-706.9844 702.6244,-724.9844 655.0311,-742.9844"/>
<text text-anchor="middle" x="655.0311" y="-721.2844" font-family="Times,serif" font-size="14.00" fill="#000000">fasdag</text>
</a>
</g>
</g>
<!-- subsplit_DAG&#45;&#45;fasdag -->
<g id="edge14" class="edge">
<title>subsplit_DAG&#45;&#45;fasdag</title>
<path fill="none" stroke="#000000" d="M727.3761,-836.9898C710.6961,-811.1656 680.0638,-763.7403 664.5589,-739.7354"/>
</g>
<!-- local_EM -->
<g id="node37" class="node">
<title>local_EM</title>
<g id="a_node37"><a xlink:title="Develop an EM algorithm for variational inference that uses local computation. Go Hogwild.">
<polygon fill="none" stroke="#000000" points="643.0054,-1043.4308 577.9842,-1025.4308 643.0054,-1007.4308 708.0266,-1025.4308 643.0054,-1043.4308"/>
<text text-anchor="middle" x="643.0054" y="-1021.7308" font-family="Times,serif" font-size="14.00" fill="#000000">local_EM</text>
</a>
</g>
</g>
<!-- subsplit_DAG&#45;&#45;local_EM -->
<g id="edge10" class="edge">
<title>subsplit_DAG&#45;&#45;local_EM</title>
<path fill="none" stroke="#000000" d="M728.7793,-872.7048C709.9379,-906.2532 669.6683,-977.9558 651.8269,-1009.7235"/>
</g>
<!-- find_MAP_tree_in_subsplit_DAG -->
<g id="node39" class="node">
<title>find_MAP_tree_in_subsplit_DAG</title>
<g id="a_node39"><a xlink:title="Can we quickly find the MAP tree in the subsplit DAG?">
<polygon fill="none" stroke="#000000" points="532.199,-916.793 344.6828,-898.793 532.199,-880.793 719.7151,-898.793 532.199,-916.793"/>
<text text-anchor="middle" x="532.199" y="-895.093" font-family="Times,serif" font-size="14.00" fill="#000000">find_MAP_tree_in_subsplit_DAG</text>
</a>
</g>
</g>
<!-- subsplit_DAG&#45;&#45;find_MAP_tree_in_subsplit_DAG -->
<g id="edge15" class="edge">
<title>subsplit_DAG&#45;&#45;find_MAP_tree_in_subsplit_DAG</title>
<path fill="none" stroke="#000000" d="M688.83,-865.4213C659.2053,-871.7331 621.5309,-879.76 590.5554,-886.3596"/>
</g>
<!-- how_big_of_sDAG -->
<g id="node42" class="node">
<title>how_big_of_sDAG</title>
<g id="a_node42"><a xlink:title="How big of a subsplit DAG is actually required to get reasonable estimates (with uncertaintly quantification) of key parameters?">
<polygon fill="none" stroke="#000000" points="551.9553,-1095.4192 438.8426,-1077.4192 551.9553,-1059.4192 665.068,-1077.4192 551.9553,-1095.4192"/>
<text text-anchor="middle" x="551.9553" y="-1073.7192" font-family="Times,serif" font-size="14.00" fill="#000000">how_big_of_sDAG</text>
</a>
</g>
</g>
<!-- subsplit_DAG&#45;&#45;how_big_of_sDAG -->
<g id="edge12" class="edge">
<title>subsplit_DAG&#45;&#45;how_big_of_sDAG</title>
<path fill="none" stroke="#000000" d="M723.8769,-872.6074C688.3616,-914.9171 599.4815,-1020.8009 565.4778,-1061.3098"/>
</g>
<!-- subsplit_DAG&#45;&#45;online_phylo_VI -->
<g id="edge7" class="edge">
<title>subsplit_DAG&#45;&#45;online_phylo_VI</title>
<path fill="none" stroke="#000000" d="M693.4823,-842.4788C643.6464,-828.9867 564.3799,-807.5269 516.7469,-794.6312"/>
</g>
<!-- Bayesian_histories -->
<g id="node45" class="node">
<title>Bayesian_histories</title>
<polygon fill="none" stroke="#000000" points="1033.1895,-959.3009 914.1895,-959.3009 914.1895,-923.3009 1033.1895,-923.3009 1033.1895,-959.3009"/>
<text text-anchor="middle" x="973.6895" y="-937.6009" font-family="Times,serif" font-size="14.00" fill="#000000">Bayesian_histories</text>
</g>
<!-- subsplit_DAG&#45;&#45;Bayesian_histories -->
<g id="edge11" class="edge">
<title>subsplit_DAG&#45;&#45;Bayesian_histories</title>
<path fill="none" stroke="#000000" d="M777.3709,-868.956C817.5781,-883.7726 880.7593,-907.0554 924.5395,-923.1887"/>
</g>
<!-- transport -->
<g id="node16" class="node">
<title>transport</title>
<g id="a_node16"><a xlink:title="Compare TCR repertoires via optimal transport.">
<ellipse fill="#ccebc5" stroke="#ccebc5" cx="1771.6039" cy="-222.4495" rx="42.4939" ry="18"/>
<text text-anchor="middle" x="1771.6039" y="-218.7495" font-family="Times,serif" font-size="14.00" fill="#000000">transport</text>
</a>
</g>
</g>
<!-- VI_diagnostics -->
<g id="node17" class="node">
<title>VI_diagnostics</title>
<g id="a_node17"><a xlink:title="How will we know if VI is giving a good approximation?">
<ellipse fill="#ccebc5" stroke="#ccebc5" cx="196.2717" cy="-468.1705" rx="63.8893" ry="18"/>
<text text-anchor="middle" x="196.2717" y="-464.4705" font-family="Times,serif" font-size="14.00" fill="#000000">VI_diagnostics</text>
</a>
</g>
</g>
<!-- VI_diagnostics&#45;&#45;phylogenetic_VI -->
<g id="edge3" class="edge">
<title>VI_diagnostics&#45;&#45;phylogenetic_VI</title>
<path fill="none" stroke="#000000" d="M208.0819,-485.9843C230.8245,-520.2876 280.4531,-595.1439 303.158,-629.3903"/>
</g>
<!-- CFT -->
<g id="node18" class="node">
<title>CFT</title>
<g id="a_node18"><a xlink:title="The Clonal Family Tree pipeline to do clonal family inference and then phylogenetics.">
<polygon fill="none" stroke="#000000" points="1437.2444,-1025.2375 1404.3677,-1037.6752 1371.4911,-1025.2375 1371.5217,-1005.1129 1437.2138,-1005.1129 1437.2444,-1025.2375"/>
<text text-anchor="middle" x="1404.3677" y="-1015.9752" font-family="Times,serif" font-size="14.00" fill="#000000">CFT</text>
</a>
</g>
</g>
<!-- olmsted -->
<g id="node20" class="node">
<title>olmsted</title>
<g id="a_node20"><a xlink:title="A visualization tool for BCR lineages.">
<polygon fill="none" stroke="#000000" points="1663.8617,-1113.2285 1615.4561,-1125.6662 1567.0505,-1113.2285 1567.0957,-1093.1039 1663.8166,-1093.1039 1663.8617,-1113.2285"/>
<text text-anchor="middle" x="1615.4561" y="-1103.9662" font-family="Times,serif" font-size="14.00" fill="#000000">olmsted</text>
</a>
</g>
</g>
<!-- CFT&#45;&#45;olmsted -->
<g id="edge40" class="edge">
<title>CFT&#45;&#45;olmsted</title>
<path fill="none" stroke="#000000" d="M1427.3597,-1029.2593C1464.2245,-1044.6262 1536.8124,-1074.884 1580.2426,-1092.9876"/>
</g>
<!-- find_posterior_modes -->
<g id="node33" class="node">
<title>find_posterior_modes</title>
<g id="a_node33"><a xlink:title="Can we do something to quickly find posterior modes in the phylogenetic posterior? Can we do better than hillclimbing?">
<polygon fill="none" stroke="#000000" points="360.8332,-1187.7457 235.8225,-1169.7457 360.8332,-1151.7457 485.844,-1169.7457 360.8332,-1187.7457"/>
<text text-anchor="middle" x="360.8332" y="-1166.0457" font-family="Times,serif" font-size="14.00" fill="#000000">find_posterior_modes</text>
</a>
</g>
</g>
<!-- hillclimber&#45;&#45;find_posterior_modes -->
<g id="edge16" class="edge">
<title>hillclimber&#45;&#45;find_posterior_modes</title>
<path fill="none" stroke="#000000" d="M478.5892,-1018.0244C453.9416,-1049.7813 398.5193,-1121.1896 373.5065,-1153.417"/>
</g>
<!-- BCR_GWAS -->
<g id="node21" class="node">
<title>BCR_GWAS</title>
<g id="a_node21"><a xlink:title="Do a GWAS for BCR repertoire features. Can we learn about SHM too?">
<polygon fill="none" stroke="#000000" points="1310.0907,-620.7361 1226.3039,-602.7361 1310.0907,-584.7361 1393.8776,-602.7361 1310.0907,-620.7361"/>
<text text-anchor="middle" x="1310.0907" y="-599.0361" font-family="Times,serif" font-size="14.00" fill="#000000">BCR_GWAS</text>
</a>
</g>
</g>
<!-- BCR_GWAS&#45;&#45;TCR_GWAS -->
<g id="edge44" class="edge">
<title>BCR_GWAS&#45;&#45;TCR_GWAS</title>
<path fill="none" stroke="#000000" d="M1318.4066,-586.3524C1337.2248,-549.277 1382.9563,-459.1778 1402.5503,-420.5739"/>
</g>
<!-- BCR_indels -->
<g id="node22" class="node">
<title>BCR_indels</title>
<g id="a_node22"><a xlink:title="What sequence features lead to indels in BCR sequences?">
<polygon fill="none" stroke="#000000" points="1098.8534,-667.3204 1022.7727,-649.3204 1098.8534,-631.3204 1174.9341,-649.3204 1098.8534,-667.3204"/>
<text text-anchor="middle" x="1098.8534" y="-645.6204" font-family="Times,serif" font-size="14.00" fill="#000000">BCR_indels</text>
</a>
</g>
</g>
<!-- BCR_selection_analysis -->
<g id="node23" class="node">
<title>BCR_selection_analysis</title>
<g id="a_node23"><a xlink:title="Improve dN/dS analysis for BCR lineages, looking site&#45;wise and per&#45;lineage.">
<polygon fill="none" stroke="#000000" points="1322.9345,-977.0309 1186.0256,-959.0309 1322.9345,-941.0309 1459.8433,-959.0309 1322.9345,-977.0309"/>
<text text-anchor="middle" x="1322.9345" y="-955.3309" font-family="Times,serif" font-size="14.00" fill="#000000">BCR_selection_analysis</text>
</a>
</g>
</g>
<!-- BCR_trajectories -->
<g id="node24" class="node">
<title>BCR_trajectories</title>
<g id="a_node24"><a xlink:title="Look for patterns in BCR sequence evolution. Do they fall into &#39;trajectories&#39;?">
<polygon fill="none" stroke="#000000" points="1387.8672,-824.4071 1286.6525,-806.4071 1387.8672,-788.4071 1489.0819,-806.4071 1387.8672,-824.4071"/>
<text text-anchor="middle" x="1387.8672" y="-802.7071" font-family="Times,serif" font-size="14.00" fill="#000000">BCR_trajectories</text>
</a>
</g>
</g>
<!-- linearham_empirical_uncertainty -->
<g id="node29" class="node">
<title>linearham_empirical_uncertainty</title>
<g id="a_node29"><a xlink:title="linearham is our Bayesian method for doing inference of BCR lineage evolution. If we apply it to well&#45;known data sets from the literature, how much uncertainty is there in ancestral sequence inference?">
<polygon fill="none" stroke="#000000" points="1197.145,-711.3541 1015.997,-693.3541 1197.145,-675.3541 1378.293,-693.3541 1197.145,-711.3541"/>
<text text-anchor="middle" x="1197.145" y="-689.6541" font-family="Times,serif" font-size="14.00" fill="#000000">linearham_empirical_uncertainty</text>
</a>
</g>
</g>
<!-- SARS2_parsimony_plateau -->
<g id="node31" class="node">
<title>SARS2_parsimony_plateau</title>
<g id="a_node31"><a xlink:title="Use a graph to capture the ensemble of maximally&#45;parsimonious trees for SARS&#45;Cov&#45;2 data. How much uncertainty is there? How does PANGO look?">
<polygon fill="none" stroke="#000000" points="992.418,-1167.8404 838.9195,-1149.8404 992.418,-1131.8404 1145.9165,-1149.8404 992.418,-1167.8404"/>
<text text-anchor="middle" x="992.418" y="-1146.1404" font-family="Times,serif" font-size="14.00" fill="#000000">SARS2_parsimony_plateau</text>
</a>
</g>
</g>
<!-- help_PANGO -->
<g id="node34" class="node">
<title>help_PANGO</title>
<g id="a_node34"><a xlink:title="What sort of tooling would actually help PANGO do their job better?">
<polygon fill="none" stroke="#000000" points="861.2985,-1032.5875 775.8353,-1014.5875 861.2985,-996.5875 946.7618,-1014.5875 861.2985,-1032.5875"/>
<text text-anchor="middle" x="861.2985" y="-1010.8875" font-family="Times,serif" font-size="14.00" fill="#000000">help_PANGO</text>
</a>
</g>
</g>
<!-- big_tree_likelihoods -->
<g id="node35" class="node">
<title>big_tree_likelihoods</title>
<g id="a_node35"><a xlink:title="How can we bridge the gap between parsimony and full Felsenstein likelihoods?">
<polygon fill="none" stroke="#000000" points="951.6623,-1092.3028 833.8578,-1074.3028 951.6623,-1056.3028 1069.4667,-1074.3028 951.6623,-1092.3028"/>
<text text-anchor="middle" x="951.6623" y="-1070.6028" font-family="Times,serif" font-size="14.00" fill="#000000">big_tree_likelihoods</text>
</a>
</g>
</g>
<!-- fast_TreeTime -->
<g id="node38" class="node">
<title>fast_TreeTime</title>
<g id="a_node38"><a xlink:title="Speed up ML inference of time trees.">
<polygon fill="none" stroke="#000000" points="860.0139,-1211.8729 770.6971,-1193.8729 860.0139,-1175.8729 949.3307,-1193.8729 860.0139,-1211.8729"/>
<text text-anchor="middle" x="860.0139" y="-1190.1729" font-family="Times,serif" font-size="14.00" fill="#000000">fast_TreeTime</text>
</a>
</g>
</g>
<!-- polytomy_resolution -->
<g id="node40" class="node">
<title>polytomy_resolution</title>
<g id="a_node40"><a xlink:title="Can we quickly resolve sequence&#45;level polytomies using timing/geography?">
<polygon fill="none" stroke="#000000" points="785.4945,-1421.9805 666.0136,-1403.9805 785.4945,-1385.9805 904.9754,-1403.9805 785.4945,-1421.9805"/>
<text text-anchor="middle" x="785.4945" y="-1400.2805" font-family="Times,serif" font-size="14.00" fill="#000000">polytomy_resolution</text>
</a>
</g>
</g>
<!-- fast_TreeTime&#45;&#45;polytomy_resolution -->
<g id="edge24" class="edge">
<title>fast_TreeTime&#45;&#45;polytomy_resolution</title>
<path fill="none" stroke="#000000" d="M854.0416,-1210.7117C840.123,-1249.9552 805.6476,-1347.1588 791.5994,-1386.7677"/>
</g>
<!-- how_big_of_sDAG&#45;&#45;find_posterior_modes -->
<g id="edge17" class="edge">
<title>how_big_of_sDAG&#45;&#45;find_posterior_modes</title>
<path fill="none" stroke="#000000" d="M523.7546,-1091.0423C487.8275,-1108.3978 426.0551,-1138.2386 389.7762,-1155.7641"/>
</g>
<!-- BCR_analysis -->
<g id="node44" class="node">
<title>BCR_analysis</title>
<polygon fill="none" stroke="#000000" points="1259.5469,-885.1266 1165.5469,-885.1266 1165.5469,-849.1266 1259.5469,-849.1266 1259.5469,-885.1266"/>
<text text-anchor="middle" x="1212.5469" y="-863.4266" font-family="Times,serif" font-size="14.00" fill="#000000">BCR_analysis</text>
</g>
<!-- BCR_analysis&#45;&#45;Bayesian_GCtree -->
<g id="edge39" class="edge">
<title>BCR_analysis&#45;&#45;Bayesian_GCtree</title>
<path fill="none" stroke="#000000" d="M1206.9044,-885.3223C1195.035,-923.5982 1167.6073,-1012.0451 1155.7885,-1050.1579"/>
</g>
<!-- BCR_analysis&#45;&#45;mechanistic_SHM -->
<g id="edge41" class="edge">
<title>BCR_analysis&#45;&#45;mechanistic_SHM</title>
<path fill="none" stroke="#000000" d="M1226.2312,-849.087C1245.0339,-824.2999 1278.6534,-779.9802 1297.3948,-755.274"/>
</g>
<!-- BCR_analysis&#45;&#45;paired_HL -->
<g id="edge36" class="edge">
<title>BCR_analysis&#45;&#45;paired_HL</title>
<path fill="none" stroke="#000000" d="M1259.7141,-871.8828C1302.8937,-876.2368 1366.4731,-882.6479 1409.7381,-887.0105"/>
</g>
<!-- BCR_analysis&#45;&#45;CFT -->
<g id="edge37" class="edge">
<title>BCR_analysis&#45;&#45;CFT</title>
<path fill="none" stroke="#000000" d="M1235.3046,-885.225C1273.7108,-915.7682 1350.6474,-976.9532 1385.9248,-1005.0082"/>
</g>
<!-- BCR_analysis&#45;&#45;BCR_GWAS -->
<g id="edge43" class="edge">
<title>BCR_analysis&#45;&#45;BCR_GWAS</title>
<path fill="none" stroke="#000000" d="M1219.2515,-848.954C1237.2434,-800.1873 1286.404,-666.9385 1303.8487,-619.655"/>
</g>
<!-- BCR_analysis&#45;&#45;BCR_indels -->
<g id="edge34" class="edge">
<title>BCR_analysis&#45;&#45;BCR_indels</title>
<path fill="none" stroke="#000000" d="M1203.049,-848.9312C1181.2744,-807.2168 1128.0378,-705.2299 1107.3089,-665.5189"/>
</g>
<!-- BCR_analysis&#45;&#45;BCR_selection_analysis -->
<g id="edge32" class="edge">
<title>BCR_analysis&#45;&#45;BCR_selection_analysis</title>
<path fill="none" stroke="#000000" d="M1234.3559,-885.284C1254.7137,-902.233 1284.7776,-927.263 1304.111,-943.3593"/>
</g>
<!-- BCR_analysis&#45;&#45;BCR_trajectories -->
<g id="edge33" class="edge">
<title>BCR_analysis&#45;&#45;BCR_trajectories</title>
<path fill="none" stroke="#000000" d="M1259.9911,-850.695C1289.5014,-840.4746 1326.7749,-827.5655 1353.4542,-818.3255"/>
</g>
<!-- BCR_analysis&#45;&#45;linearham_empirical_uncertainty -->
<g id="edge38" class="edge">
<title>BCR_analysis&#45;&#45;linearham_empirical_uncertainty</title>
<path fill="none" stroke="#000000" d="M1210.9278,-848.8584C1207.962,-815.3968 1201.692,-744.6564 1198.7424,-711.3776"/>
</g>
<!-- BCR_analysis&#45;&#45;Bayesian_histories -->
<g id="edge35" class="edge">
<title>BCR_analysis&#45;&#45;Bayesian_histories</title>
<path fill="none" stroke="#000000" d="M1165.3564,-881.7811C1127.0163,-893.6871 1072.7662,-910.5339 1031.7627,-923.267"/>
</g>
<!-- Bayesian_histories&#45;&#45;Bayesian_GCtree -->
<g id="edge19" class="edge">
<title>Bayesian_histories&#45;&#45;Bayesian_GCtree</title>
<path fill="none" stroke="#000000" d="M998.9797,-959.4778C1033.0116,-983.9377 1093.1069,-1027.1302 1126.3738,-1051.0402"/>
</g>
<!-- Bayesian_histories&#45;&#45;context_sensitive_phylo -->
<g id="edge18" class="edge">
<title>Bayesian_histories&#45;&#45;context_sensitive_phylo</title>
<path fill="none" stroke="#000000" d="M979.8458,-923.2347C990.4421,-892.1387 1011.9898,-828.9045 1022.3961,-798.3662"/>
</g>
<!-- Bayesian_histories&#45;&#45;SARS2_parsimony_plateau -->
<g id="edge20" class="edge">
<title>Bayesian_histories&#45;&#45;SARS2_parsimony_plateau</title>
<path fill="none" stroke="#000000" d="M975.3188,-959.4426C978.8697,-998.9813 987.2706,-1092.5245 990.8059,-1131.8891"/>
</g>
<!-- Bayesian_histories&#45;&#45;help_PANGO -->
<g id="edge21" class="edge">
<title>Bayesian_histories&#45;&#45;help_PANGO</title>
<path fill="none" stroke="#000000" d="M945.9075,-959.4167C926.2762,-972.2177 900.3669,-989.1123 882.4157,-1000.8177"/>
</g>
<!-- Bayesian_histories&#45;&#45;big_tree_likelihoods -->
<g id="edge23" class="edge">
<title>Bayesian_histories&#45;&#45;big_tree_likelihoods</title>
<path fill="none" stroke="#000000" d="M970.6729,-959.5154C966.4312,-985.1273 958.7558,-1031.4717 954.5724,-1056.7313"/>
</g>
<!-- Bayesian_histories&#45;&#45;fast_TreeTime -->
<g id="edge22" class="edge">
<title>Bayesian_histories&#45;&#45;fast_TreeTime</title>
<path fill="none" stroke="#000000" d="M965.5143,-959.4653C944.3366,-1006.5192 887.9259,-1131.8561 867.5164,-1177.2033"/>
</g>
<!-- TCR_analysis -->
<g id="node46" class="node">
<title>TCR_analysis</title>
<polygon fill="none" stroke="#000000" points="1586.9014,-247.0524 1493.9014,-247.0524 1493.9014,-211.0524 1586.9014,-211.0524 1586.9014,-247.0524"/>
<text text-anchor="middle" x="1540.4014" y="-225.3524" font-family="Times,serif" font-size="14.00" fill="#000000">TCR_analysis</text>
</g>
<!-- TCR_analysis&#45;&#45;HLA_effects -->
<g id="edge46" class="edge">
<title>TCR_analysis&#45;&#45;HLA_effects</title>
<path fill="none" stroke="#000000" d="M1552.5017,-210.8425C1573.5976,-179.095 1616.8498,-114.0041 1637.7496,-82.5518"/>
</g>
<!-- TCR_analysis&#45;&#45;TCR_GWAS -->
<g id="edge45" class="edge">
<title>TCR_analysis&#45;&#45;TCR_GWAS</title>
<path fill="none" stroke="#000000" d="M1526.8722,-247.2897C1502.0267,-280.7815 1449.4293,-351.6828 1424.8647,-384.7959"/>
</g>
<!-- TCR_analysis&#45;&#45;TCR_trimming_motifs -->
<g id="edge48" class="edge">
<title>TCR_analysis&#45;&#45;TCR_trimming_motifs</title>
<path fill="none" stroke="#000000" d="M1532.9979,-210.6921C1516.8624,-170.677 1478.6881,-76.0066 1462.6237,-36.1676"/>
</g>
<!-- TCR_analysis&#45;&#45;transport -->
<g id="edge47" class="edge">
<title>TCR_analysis&#45;&#45;transport</title>
<path fill="none" stroke="#000000" d="M1586.9105,-227.7242C1628.5799,-226.5342 1689.1671,-224.8038 1729.4477,-223.6535"/>
</g>
<!-- train_awesome_researchers -->
<g id="node47" class="node">
<title>train_awesome_researchers</title>
<polygon fill="none" stroke="#000000" points="952.3176,-1801.9645 785.2367,-1801.9645 733.6058,-1960.7196 681.975,-1801.9645 514.8941,-1801.9645 650.0654,-1703.8485 598.4346,-1545.0935 733.6058,-1643.2095 868.7771,-1545.0935 817.1463,-1703.8485 952.3176,-1801.9645"/>
<text text-anchor="middle" x="733.6058" y="-1749.2065" font-family="Times,serif" font-size="14.00" fill="#000000">train_awesome_researchers</text>
</g>
<!-- diversify_comp_bio -->
<g id="node48" class="node">
<title>diversify_comp_bio</title>
<polygon fill="none" stroke="#000000" points="1256.8084,-296.8619 1130.8572,-296.8619 1091.9361,-416.5909 1053.0151,-296.8619 927.0638,-296.8619 1028.9605,-222.8653 990.0395,-103.1363 1091.9361,-177.1329 1193.8328,-103.1363 1154.9118,-222.8653 1256.8084,-296.8619"/>
<text text-anchor="middle" x="1091.9361" y="-256.1636" font-family="Times,serif" font-size="14.00" fill="#000000">diversify_comp_bio</text>
</g>
<!-- eradicate_disease -->
<g id="node49" class="node">
<title>eradicate_disease</title>
<polygon fill="none" stroke="#000000" points="2041.4029,-1509.8562 1930.5548,-1509.8562 1896.3009,-1615.5683 1862.0469,-1509.8562 1751.1988,-1509.8562 1840.8768,-1444.5225 1806.6229,-1338.8104 1896.3009,-1404.1441 1985.9789,-1338.8104 1951.7249,-1444.5225 2041.4029,-1509.8562"/>
<text text-anchor="middle" x="1896.3009" y="-1473.4894" font-family="Times,serif" font-size="14.00" fill="#000000">eradicate_disease</text>
</g>
</g>
</svg>
