<?xml version="1.0" encoding="UTF-8" standalone="no"?>
<!DOCTYPE svg PUBLIC "-//W3C//DTD SVG 1.1//EN"
 "http://www.w3.org/Graphics/SVG/1.1/DTD/svg11.dtd">
<!-- Generated by graphviz version 2.40.1 (20161225.0304)
 -->
<!-- Title: %3 Pages: 1 -->
<svg width="2298pt" height="2049pt"
 viewBox="0.00 0.00 2298.00 2049.00" xmlns="http://www.w3.org/2000/svg" xmlns:xlink="http://www.w3.org/1999/xlink">
<g id="graph0" class="graph" transform="scale(1 1) rotate(0) translate(4 2045)">
<title>%3</title>
<polygon fill="#ffffff" stroke="transparent" points="-4,4 -4,-2045 2294,-2045 2294,4 -4,4"/>
<g id="clust1" class="cluster">
<title>cluster_0</title>
<polygon fill="none" stroke="#000000" points="1077.7381,-.1409 1077.7381,-291.1409 1484.7381,-291.1409 1484.7381,-.1409 1077.7381,-.1409"/>
<text text-anchor="middle" x="1281.2381" y="-275.9409" font-family="Times,serif" font-size="14.00" fill="#000000">legend</text>
</g>
<!-- for_programmer -->
<g id="node1" class="node">
<title>for_programmer</title>
<ellipse fill="#bc80bd" stroke="#bc80bd" cx="1397.9762" cy="-241.7818" rx="69.5877" ry="18"/>
<text text-anchor="middle" x="1397.9762" y="-238.0818" font-family="Times,serif" font-size="14.00" fill="#000000">for_programmer</text>
</g>
<!-- active -->
<g id="node2" class="node">
<title>active</title>
<ellipse fill="#ccebc5" stroke="#ccebc5" cx="1396.9762" cy="-25.7818" rx="31.6951" ry="18"/>
<text text-anchor="middle" x="1396.9762" y="-22.0818" font-family="Times,serif" font-size="14.00" fill="#000000">active</text>
</g>
<!-- ready_to_go -->
<g id="node3" class="node">
<title>ready_to_go</title>
<ellipse fill="#b3de69" stroke="#b3de69" cx="1292.9762" cy="-25.7818" rx="54.6905" ry="18"/>
<text text-anchor="middle" x="1292.9762" y="-22.0818" font-family="Times,serif" font-size="14.00" fill="#000000">ready_to_go</text>
</g>
<!-- needing_logistics -->
<g id="node4" class="node">
<title>needing_logistics</title>
<ellipse fill="#fdb462" stroke="#fdb462" cx="1238.9762" cy="-241.7818" rx="72.2875" ry="18"/>
<text text-anchor="middle" x="1238.9762" y="-238.0818" font-family="Times,serif" font-size="14.00" fill="#000000">needing_logistics</text>
</g>
<!-- needing_consideration -->
<g id="node5" class="node">
<title>needing_consideration</title>
<ellipse fill="#8dd3c7" stroke="#8dd3c7" cx="1328.9762" cy="-79.7818" rx="90.1842" ry="18"/>
<text text-anchor="middle" x="1328.9762" y="-76.0818" font-family="Times,serif" font-size="14.00" fill="#000000">needing_consideration</text>
</g>
<!-- eventually -->
<g id="node6" class="node">
<title>eventually</title>
<ellipse fill="#d9d9d9" stroke="#d9d9d9" cx="1177.9762" cy="-79.7818" rx="47.3916" ry="18"/>
<text text-anchor="middle" x="1177.9762" y="-76.0818" font-family="Times,serif" font-size="14.00" fill="#000000">eventually</text>
</g>
<!-- topic -->
<g id="node7" class="node">
<title>topic</title>
<polygon fill="none" stroke="#000000" points="1166.9762,-43.7818 1112.9762,-43.7818 1112.9762,-7.7818 1166.9762,-7.7818 1166.9762,-43.7818"/>
<text text-anchor="middle" x="1139.9762" y="-22.0818" font-family="Times,serif" font-size="14.00" fill="#000000">topic</text>
</g>
<!-- significant_work_already_done -->
<g id="node8" class="node">
<title>significant_work_already_done</title>
<polygon fill="none" stroke="#000000" points="1388.0445,-139.3441 1236.9762,-151.7818 1085.908,-139.3441 1086.049,-119.2195 1387.9034,-119.2195 1388.0445,-139.3441"/>
<text text-anchor="middle" x="1236.9762" y="-130.0818" font-family="Times,serif" font-size="14.00" fill="#000000">significant_work_already_done</text>
</g>
<!-- proposed_project -->
<g id="node9" class="node">
<title>proposed_project</title>
<polygon fill="none" stroke="#000000" points="1375.9762,-205.7818 1274.7615,-187.7818 1375.9762,-169.7818 1477.1909,-187.7818 1375.9762,-205.7818"/>
<text text-anchor="middle" x="1375.9762" y="-184.0818" font-family="Times,serif" font-size="14.00" fill="#000000">proposed_project</text>
</g>
<!-- active_project -->
<g id="node10" class="node">
<title>active_project</title>
<ellipse fill="none" stroke="#000000" cx="1199.9762" cy="-187.7818" rx="60.3893" ry="18"/>
<text text-anchor="middle" x="1199.9762" y="-184.0818" font-family="Times,serif" font-size="14.00" fill="#000000">active_project</text>
</g>
<!-- Bayesian_GCtree -->
<g id="node11" class="node">
<title>Bayesian_GCtree</title>
<g id="a_node11"><a xlink:title="Do posterior estimation using Will&#39;s GCtree framework.">
<ellipse fill="#ccebc5" stroke="#ccebc5" cx="780.4246" cy="-1019.9111" rx="72.5877" ry="18"/>
<text text-anchor="middle" x="780.4246" y="-1016.2111" font-family="Times,serif" font-size="14.00" fill="#000000">Bayesian_GCtree</text>
</a>
</g>
</g>
<!-- GCreplay -->
<g id="node12" class="node">
<title>GCreplay</title>
<g id="a_node12"><a xlink:title="A big collaboration with the Victora and Bloom labs to understand GC maturation with replicate samples.">
<ellipse fill="#ccebc5" stroke="#ccebc5" cx="692.0858" cy="-1333.4797" rx="44.6926" ry="18"/>
<text text-anchor="middle" x="692.0858" y="-1329.7797" font-family="Times,serif" font-size="14.00" fill="#000000">GCreplay</text>
</a>
</g>
</g>
<!-- Bayesian_GCtree&#45;&#45;GCreplay -->
<g id="edge30" class="edge">
<title>Bayesian_GCtree&#45;&#45;GCreplay</title>
<path fill="none" stroke="#000000" d="M775.2933,-1038.1253C759.6801,-1093.546 712.8633,-1259.7276 697.2312,-1315.2153"/>
</g>
<!-- GCtree_with_heritable -->
<g id="node52" class="node">
<title>GCtree_with_heritable</title>
<g id="a_node52"><a xlink:title="GCtree operates under the assumption of a neutral branching process, the parameters of which do not change through the tree. Can we extend this to a process with a heritable component?">
<polygon fill="#b3de69" stroke="#b3de69" points="808.0912,-1164.2313 679.2269,-1146.2313 808.0912,-1128.2313 936.9555,-1146.2313 808.0912,-1164.2313"/>
<text text-anchor="middle" x="808.0912" y="-1142.5313" font-family="Times,serif" font-size="14.00" fill="#000000">GCtree_with_heritable</text>
</a>
</g>
</g>
<!-- Bayesian_GCtree&#45;&#45;GCtree_with_heritable -->
<g id="edge31" class="edge">
<title>Bayesian_GCtree&#45;&#45;GCtree_with_heritable</title>
<path fill="none" stroke="#000000" d="M784.3885,-1038.0097C789.6778,-1062.1596 798.9839,-1104.6493 804.2238,-1128.5736"/>
</g>
<!-- antibody_DMS -->
<g id="node25" class="node">
<title>antibody_DMS</title>
<g id="a_node25"><a xlink:title="What can we learn from deep mutational scanning on antibodies?">
<ellipse fill="#ccebc5" stroke="#ccebc5" cx="713.5531" cy="-1516.3274" rx="65.7887" ry="18"/>
<text text-anchor="middle" x="713.5531" y="-1512.6274" font-family="Times,serif" font-size="14.00" fill="#000000">antibody_DMS</text>
</a>
</g>
</g>
<!-- GCreplay&#45;&#45;antibody_DMS -->
<g id="edge33" class="edge">
<title>GCreplay&#45;&#45;antibody_DMS</title>
<path fill="none" stroke="#000000" d="M694.2226,-1351.6803C698.3375,-1386.7285 707.3169,-1463.2103 711.4249,-1498.2004"/>
</g>
<!-- torchdms -->
<g id="node28" class="node">
<title>torchdms</title>
<g id="a_node28"><a xlink:title="Develop a DMS analysis package using a modern machine&#45;learning library.">
<ellipse fill="#ccebc5" stroke="#ccebc5" cx="533.3878" cy="-1444.9306" rx="44.393" ry="18"/>
<text text-anchor="middle" x="533.3878" y="-1441.2306" font-family="Times,serif" font-size="14.00" fill="#000000">torchdms</text>
</a>
</g>
</g>
<!-- GCreplay&#45;&#45;torchdms -->
<g id="edge32" class="edge">
<title>GCreplay&#45;&#45;torchdms</title>
<path fill="none" stroke="#000000" d="M669.6848,-1349.2115C639.4391,-1370.4525 585.8618,-1408.079 555.6748,-1429.2788"/>
</g>
<!-- HLA_effects -->
<g id="node13" class="node">
<title>HLA_effects</title>
<g id="a_node13"><a xlink:title="Assya&#39;s project understanding the effects of HLA on repertoire.">
<ellipse fill="#ccebc5" stroke="#ccebc5" cx="297.9757" cy="-203.4111" rx="56.59" ry="18"/>
<text text-anchor="middle" x="297.9757" y="-199.7111" font-family="Times,serif" font-size="14.00" fill="#000000">HLA_effects</text>
</a>
</g>
</g>
<!-- PhIP_seq -->
<g id="node14" class="node">
<title>PhIP_seq</title>
<g id="a_node14"><a xlink:title="Develop statistics and software tools for PhIP&#45;seq analyses.">
<ellipse fill="#ccebc5" stroke="#ccebc5" cx="936.3827" cy="-1697.1407" rx="44.393" ry="18"/>
<text text-anchor="middle" x="936.3827" y="-1693.4407" font-family="Times,serif" font-size="14.00" fill="#000000">PhIP_seq</text>
</a>
</g>
</g>
<!-- TCR_GWAS -->
<g id="node15" class="node">
<title>TCR_GWAS</title>
<g id="a_node15"><a xlink:title="GWAS to infer TCR&#45;repertoire features.">
<ellipse fill="#ccebc5" stroke="#ccebc5" cx="728.6924" cy="-303.6011" rx="58.4896" ry="18"/>
<text text-anchor="middle" x="728.6924" y="-299.9011" font-family="Times,serif" font-size="14.00" fill="#000000">TCR_GWAS</text>
</a>
</g>
</g>
<!-- TCR_trimming_motifs -->
<g id="node16" class="node">
<title>TCR_trimming_motifs</title>
<g id="a_node16"><a xlink:title="What sequence&#45;level features determine trimming of TCRs in VDJ recombination?">
<ellipse fill="#ccebc5" stroke="#ccebc5" cx="482.8034" cy="-18.335" rx="92.8835" ry="18"/>
<text text-anchor="middle" x="482.8034" y="-14.635" font-family="Times,serif" font-size="14.00" fill="#000000">TCR_trimming_motifs</text>
</a>
</g>
</g>
<!-- bito -->
<g id="node17" class="node">
<title>bito</title>
<g id="a_node17"><a xlink:title="Bayesian Inference of Trees via Optimization: a C++/python package">
<ellipse fill="#ccebc5" stroke="#ccebc5" cx="1719.6991" cy="-1138.0966" rx="27" ry="18"/>
<text text-anchor="middle" x="1719.6991" y="-1134.3966" font-family="Times,serif" font-size="14.00" fill="#000000">bito</text>
</a>
</g>
</g>
<!-- autodiff_gradients -->
<g id="node18" class="node">
<title>autodiff_gradients</title>
<g id="a_node18"><a xlink:title="How fast is autodiff for phylogenetically&#45;relevant gradients?">
<ellipse fill="#ccebc5" stroke="#ccebc5" cx="2031.1612" cy="-1205.9643" rx="75.2868" ry="18"/>
<text text-anchor="middle" x="2031.1612" y="-1202.2643" font-family="Times,serif" font-size="14.00" fill="#000000">autodiff_gradients</text>
</a>
</g>
</g>
<!-- bito&#45;&#45;autodiff_gradients -->
<g id="edge4" class="edge">
<title>bito&#45;&#45;autodiff_gradients</title>
<path fill="none" stroke="#000000" d="M1745.4523,-1143.7083C1795.5892,-1154.6331 1907.3282,-1178.981 1975.2589,-1193.7831"/>
</g>
<!-- phylogenetic_VI -->
<g id="node23" class="node">
<title>phylogenetic_VI</title>
<g id="a_node23"><a xlink:title="Do variational inference of continuous parameters in phylogenetics.">
<ellipse fill="#ccebc5" stroke="#ccebc5" cx="1565.4965" cy="-1415.1503" rx="69.5877" ry="18"/>
<text text-anchor="middle" x="1565.4965" y="-1411.4503" font-family="Times,serif" font-size="14.00" fill="#000000">phylogenetic_VI</text>
</a>
</g>
</g>
<!-- bito&#45;&#45;phylogenetic_VI -->
<g id="edge2" class="edge">
<title>bito&#45;&#45;phylogenetic_VI</title>
<path fill="none" stroke="#000000" d="M1710.2852,-1155.0105C1682.9522,-1204.1193 1603.7444,-1346.4308 1575.5816,-1397.0305"/>
</g>
<!-- subsplit_DAG -->
<g id="node27" class="node">
<title>subsplit_DAG</title>
<g id="a_node27"><a xlink:title="Formalize definitions of and basic lemmas for the subsplit DAG.">
<ellipse fill="#ccebc5" stroke="#ccebc5" cx="1478.3872" cy="-889.4139" rx="61.99" ry="18"/>
<text text-anchor="middle" x="1478.3872" y="-885.7139" font-family="Times,serif" font-size="14.00" fill="#000000">subsplit_DAG</text>
</a>
</g>
</g>
<!-- bito&#45;&#45;subsplit_DAG -->
<g id="edge7" class="edge">
<title>bito&#45;&#45;subsplit_DAG</title>
<path fill="none" stroke="#000000" d="M1704.9672,-1122.9148C1662.6031,-1079.2566 1540.6063,-953.5334 1495.4564,-907.0045"/>
</g>
<!-- variational_branch_lengths -->
<g id="node54" class="node">
<title>variational_branch_lengths</title>
<g id="a_node54"><a xlink:title="Get Cheng&#39;s normalizing flow code working.">
<polygon fill="#b3de69" stroke="#b3de69" points="1851.8656,-1389.7459 1700.8816,-1371.7459 1851.8656,-1353.7459 2002.8496,-1371.7459 1851.8656,-1389.7459"/>
<text text-anchor="middle" x="1851.8656" y="-1368.0459" font-family="Times,serif" font-size="14.00" fill="#000000">variational_branch_lengths</text>
</a>
</g>
</g>
<!-- bito&#45;&#45;variational_branch_lengths -->
<g id="edge6" class="edge">
<title>bito&#45;&#45;variational_branch_lengths</title>
<path fill="none" stroke="#000000" d="M1729.4176,-1155.2774C1753.9189,-1198.5917 1817.9875,-1311.8548 1842.3111,-1354.8551"/>
</g>
<!-- bito_vimco -->
<g id="node55" class="node">
<title>bito_vimco</title>
<g id="a_node55"><a xlink:title="Get VIMCO working in bito.">
<polygon fill="#b3de69" stroke="#b3de69" points="1931.1326,-974.0498 1858.4056,-956.0498 1931.1326,-938.0498 2003.8596,-956.0498 1931.1326,-974.0498"/>
<text text-anchor="middle" x="1931.1326" y="-952.3498" font-family="Times,serif" font-size="14.00" fill="#000000">bito_vimco</text>
</a>
</g>
</g>
<!-- bito&#45;&#45;bito_vimco -->
<g id="edge5" class="edge">
<title>bito&#45;&#45;bito_vimco</title>
<path fill="none" stroke="#000000" d="M1736.2899,-1123.8117C1775.8143,-1089.7808 1875.1724,-1004.2322 1914.6189,-970.2683"/>
</g>
<!-- generalized_pruning -->
<g id="node19" class="node">
<title>generalized_pruning</title>
<g id="a_node19"><a xlink:title="Generalization of the Felsenstein pruning algorithm to the subsplit DAG.">
<ellipse fill="#ccebc5" stroke="#ccebc5" cx="1281.6443" cy="-1099.0079" rx="83.3857" ry="18"/>
<text text-anchor="middle" x="1281.6443" y="-1095.3079" font-family="Times,serif" font-size="14.00" fill="#000000">generalized_pruning</text>
</a>
</g>
</g>
<!-- fix_generalized_pruning -->
<g id="node51" class="node">
<title>fix_generalized_pruning</title>
<g id="a_node51"><a xlink:title="How could we fix marginalization issues with generalized pruning?">
<polygon fill="none" stroke="#000000" points="1241.6839,-1224.8748 1104.775,-1206.8748 1241.6839,-1188.8748 1378.5927,-1206.8748 1241.6839,-1224.8748"/>
<text text-anchor="middle" x="1241.6839" y="-1203.1748" font-family="Times,serif" font-size="14.00" fill="#000000">fix_generalized_pruning</text>
</a>
</g>
</g>
<!-- generalized_pruning&#45;&#45;fix_generalized_pruning -->
<g id="edge20" class="edge">
<title>generalized_pruning&#45;&#45;fix_generalized_pruning</title>
<path fill="none" stroke="#000000" d="M1274.8656,-1117.3061C1267.3837,-1137.5021 1255.4316,-1169.7649 1248.0987,-1189.5591"/>
</g>
<!-- linearham_empirical_uncertainty -->
<g id="node20" class="node">
<title>linearham_empirical_uncertainty</title>
<g id="a_node20"><a xlink:title="linearham is our Bayesian method for doing inference of BCR lineage evolution. If we apply it to well&#45;known data sets from the literature, how much uncertainty is there in ancestral sequence inference?">
<ellipse fill="#ccebc5" stroke="#ccebc5" cx="551.0145" cy="-890.0746" rx="128.0773" ry="18"/>
<text text-anchor="middle" x="551.0145" y="-886.3746" font-family="Times,serif" font-size="14.00" fill="#000000">linearham_empirical_uncertainty</text>
</a>
</g>
</g>
<!-- mechanistic_SHM -->
<g id="node21" class="node">
<title>mechanistic_SHM</title>
<g id="a_node21"><a xlink:title="Design and fit mechanistically&#45;based probabilistic models of the somatic hypermutation process.">
<ellipse fill="#ccebc5" stroke="#ccebc5" cx="786.3889" cy="-671.9193" rx="77.1866" ry="18"/>
<text text-anchor="middle" x="786.3889" y="-668.2193" font-family="Times,serif" font-size="14.00" fill="#000000">mechanistic_SHM</text>
</a>
</g>
</g>
<!-- context_sensitive_phylo -->
<g id="node40" class="node">
<title>context_sensitive_phylo</title>
<g id="a_node40"><a xlink:title="Develop phyogenetic methods that enable inference under context&#45;sensitive models.">
<polygon fill="#b3de69" stroke="#b3de69" points="785.641,-842.1748 649.5705,-824.1748 785.641,-806.1748 921.7116,-824.1748 785.641,-842.1748"/>
<text text-anchor="middle" x="785.641" y="-820.4748" font-family="Times,serif" font-size="14.00" fill="#000000">context_sensitive_phylo</text>
</a>
</g>
</g>
<!-- mechanistic_SHM&#45;&#45;context_sensitive_phylo -->
<g id="edge63" class="edge">
<title>mechanistic_SHM&#45;&#45;context_sensitive_phylo</title>
<path fill="none" stroke="#000000" d="M786.3002,-689.9829C786.1562,-719.2858 785.8735,-776.8469 785.7296,-806.1347"/>
</g>
<!-- SHM_across_ages -->
<g id="node42" class="node">
<title>SHM_across_ages</title>
<g id="a_node42"><a xlink:title="Perform a detailed investigation of how SHM changes as people age.">
<polygon fill="#fdb462" stroke="#fdb462" points="983.6963,-496.468 875.2751,-478.468 983.6963,-460.468 1092.1174,-478.468 983.6963,-496.468"/>
<text text-anchor="middle" x="983.6963" y="-474.768" font-family="Times,serif" font-size="14.00" fill="#000000">SHM_across_ages</text>
</a>
</g>
</g>
<!-- mechanistic_SHM&#45;&#45;SHM_across_ages -->
<g id="edge55" class="edge">
<title>mechanistic_SHM&#45;&#45;SHM_across_ages</title>
<path fill="none" stroke="#000000" d="M804.5975,-654.0666C842.9485,-616.4651 931.4855,-529.6584 967.7586,-494.0942"/>
</g>
<!-- paired_HL -->
<g id="node22" class="node">
<title>paired_HL</title>
<g id="a_node22"><a xlink:title="Perform clonal family inference with paired heavy and light chain sequences.">
<ellipse fill="#ccebc5" stroke="#ccebc5" cx="307.4452" cy="-808.5426" rx="48.9926" ry="18"/>
<text text-anchor="middle" x="307.4452" y="-804.8426" font-family="Times,serif" font-size="14.00" fill="#000000">paired_HL</text>
</a>
</g>
</g>
<!-- B_cell_CONGA -->
<g id="node39" class="node">
<title>B_cell_CONGA</title>
<g id="a_node39"><a xlink:title="Adapt CONGA (https://paperpile.com/shared/w2jo9E) for BCR sequences.">
<polygon fill="#b3de69" stroke="#b3de69" points="196.4096,-464.0871 98.2097,-446.0871 196.4096,-428.0871 294.6095,-446.0871 196.4096,-464.0871"/>
<text text-anchor="middle" x="196.4096" y="-442.3871" font-family="Times,serif" font-size="14.00" fill="#000000">B_cell_CONGA</text>
</a>
</g>
</g>
<!-- paired_HL&#45;&#45;B_cell_CONGA -->
<g id="edge64" class="edge">
<title>paired_HL&#45;&#45;B_cell_CONGA</title>
<path fill="none" stroke="#000000" d="M301.9389,-790.5683C282.9475,-728.5741 220.3274,-524.1625 201.6886,-463.3196"/>
</g>
<!-- biology_of_paired_HL -->
<g id="node44" class="node">
<title>biology_of_paired_HL</title>
<g id="a_node44"><a xlink:title="What does paired clustering tell us about how heavy and light chain clustering works?">
<polygon fill="none" stroke="#000000" points="158.8517,-883.9014 29.1492,-865.9014 158.8517,-847.9014 288.5541,-865.9014 158.8517,-883.9014"/>
<text text-anchor="middle" x="158.8517" y="-862.2014" font-family="Times,serif" font-size="14.00" fill="#000000">biology_of_paired_HL</text>
</a>
</g>
</g>
<!-- paired_HL&#45;&#45;biology_of_paired_HL -->
<g id="edge48" class="edge">
<title>paired_HL&#45;&#45;biology_of_paired_HL</title>
<path fill="none" stroke="#000000" d="M273.727,-821.5582C249.6657,-830.8461 217.4136,-843.2958 193.2089,-852.6391"/>
</g>
<!-- benchmark_phylogenetic_VI -->
<g id="node24" class="node">
<title>benchmark_phylogenetic_VI</title>
<g id="a_node24"><a xlink:title="How well are existing phylo VI tools doing?">
<ellipse fill="#bc80bd" stroke="#bc80bd" cx="1374.3559" cy="-1465.5991" rx="113.9803" ry="18"/>
<text text-anchor="middle" x="1374.3559" y="-1461.8991" font-family="Times,serif" font-size="14.00" fill="#000000">benchmark_phylogenetic_VI</text>
</a>
</g>
</g>
<!-- phylogenetic_VI&#45;&#45;benchmark_phylogenetic_VI -->
<g id="edge9" class="edge">
<title>phylogenetic_VI&#45;&#45;benchmark_phylogenetic_VI</title>
<path fill="none" stroke="#000000" d="M1516.7691,-1428.0112C1491.2192,-1434.7547 1459.735,-1443.0645 1432.8721,-1450.1546"/>
</g>
<!-- adaptive_MCMC -->
<g id="node59" class="node">
<title>adaptive_MCMC</title>
<g id="a_node59"><a xlink:title="Use variational inference as a proposal distribution for MCMC.">
<polygon fill="none" stroke="#000000" points="1769.3157,-1554.7164 1665.586,-1536.7164 1769.3157,-1518.7164 1873.0455,-1536.7164 1769.3157,-1554.7164"/>
<text text-anchor="middle" x="1769.3157" y="-1533.0164" font-family="Times,serif" font-size="14.00" fill="#000000">adaptive_MCMC</text>
</a>
</g>
</g>
<!-- phylogenetic_VI&#45;&#45;adaptive_MCMC -->
<g id="edge1" class="edge">
<title>phylogenetic_VI&#45;&#45;adaptive_MCMC</title>
<path fill="none" stroke="#000000" d="M1593.4094,-1431.7986C1633.8577,-1455.9237 1708.0488,-1500.1743 1745.8442,-1522.717"/>
</g>
<!-- online_phylo_VI -->
<g id="node61" class="node">
<title>online_phylo_VI</title>
<g id="a_node61"><a xlink:title="Online (i.e. incremental) phylogenetic variational inference.">
<polygon fill="#d9d9d9" stroke="#d9d9d9" points="1493.1613,-1280.7771 1392.7846,-1262.7771 1493.1613,-1244.7771 1593.5379,-1262.7771 1493.1613,-1280.7771"/>
<text text-anchor="middle" x="1493.1613" y="-1259.0771" font-family="Times,serif" font-size="14.00" fill="#000000">online_phylo_VI</text>
</a>
</g>
</g>
<!-- phylogenetic_VI&#45;&#45;online_phylo_VI -->
<g id="edge8" class="edge">
<title>phylogenetic_VI&#45;&#45;online_phylo_VI</title>
<path fill="none" stroke="#000000" d="M1556.9147,-1397.0727C1542.7686,-1367.2741 1514.7607,-1308.276 1501.0693,-1279.4352"/>
</g>
<!-- antibody_DMS&#45;&#45;PhIP_seq -->
<g id="edge36" class="edge">
<title>antibody_DMS&#45;&#45;PhIP_seq</title>
<path fill="none" stroke="#000000" d="M734.919,-1533.6646C777.9465,-1568.579 874.4927,-1646.9206 916.3705,-1680.902"/>
</g>
<!-- antibody_DMS&#45;&#45;torchdms -->
<g id="edge35" class="edge">
<title>antibody_DMS&#45;&#45;torchdms</title>
<path fill="none" stroke="#000000" d="M675.7846,-1501.3603C642.972,-1488.3572 595.9882,-1469.7382 565.0942,-1457.4954"/>
</g>
<!-- dms_view2 -->
<g id="node41" class="node">
<title>dms_view2</title>
<g id="a_node41"><a xlink:title="Develop the next version of dms&#45;view, with abilities to compare between data sets and also show K_D inferences.">
<polygon fill="#bc80bd" stroke="#bc80bd" points="578.6772,-1737.5647 505.112,-1719.5647 578.6772,-1701.5647 652.2424,-1719.5647 578.6772,-1737.5647"/>
<text text-anchor="middle" x="578.6772" y="-1715.8647" font-family="Times,serif" font-size="14.00" fill="#000000">dms_view2</text>
</a>
</g>
</g>
<!-- antibody_DMS&#45;&#45;dms_view2 -->
<g id="edge37" class="edge">
<title>antibody_DMS&#45;&#45;dms_view2</title>
<path fill="none" stroke="#000000" d="M701.5838,-1534.3634C675.473,-1573.7083 613.7669,-1666.6899 589.1161,-1703.8349"/>
</g>
<!-- SARS2_parsimony_plateau -->
<g id="node26" class="node">
<title>SARS2_parsimony_plateau</title>
<g id="a_node26"><a xlink:title="Use a graph to capture the ensemble of maximally&#45;parsimonious trees for SARS&#45;Cov&#45;2 data. How much uncertainty is there? How does PANGO look?">
<ellipse fill="#ccebc5" stroke="#ccebc5" cx="1130.0554" cy="-938.5976" rx="108.5808" ry="18"/>
<text text-anchor="middle" x="1130.0554" y="-934.8976" font-family="Times,serif" font-size="14.00" fill="#000000">SARS2_parsimony_plateau</text>
</a>
</g>
</g>
<!-- subsplit_DAG&#45;&#45;generalized_pruning -->
<g id="edge12" class="edge">
<title>subsplit_DAG&#45;&#45;generalized_pruning</title>
<path fill="none" stroke="#000000" d="M1461.9514,-906.9232C1425.0099,-946.2778 1335.7388,-1041.38 1298.4504,-1081.1041"/>
</g>
<!-- hillclimber -->
<g id="node32" class="node">
<title>hillclimber</title>
<g id="a_node32"><a xlink:title="What happens when we start ML algorithms at random starting points? What does it tell us about the phylogenetic likelihood surface?">
<polygon fill="#b3de69" stroke="#b3de69" points="1443.2424,-681.6085 1381.5227,-694.0462 1319.8029,-681.6085 1319.8605,-661.4839 1443.1848,-661.4839 1443.2424,-681.6085"/>
<text text-anchor="middle" x="1381.5227" y="-672.3462" font-family="Times,serif" font-size="14.00" fill="#000000">hillclimber</text>
</a>
</g>
</g>
<!-- subsplit_DAG&#45;&#45;hillclimber -->
<g id="edge11" class="edge">
<title>subsplit_DAG&#45;&#45;hillclimber</title>
<path fill="none" stroke="#000000" d="M1470.1286,-871.2223C1451.5994,-830.4072 1406.9427,-732.0401 1389.0869,-692.7083"/>
</g>
<!-- Bayesian_subtree_optimality -->
<g id="node45" class="node">
<title>Bayesian_subtree_optimality</title>
<g id="a_node45"><a xlink:title="How does the Bayesian posterior distribution of n taxa change when an n+1st taxon is added to the tree?">
<polygon fill="#b3de69" stroke="#b3de69" points="1547.5893,-821.0457 1386.8841,-803.0457 1547.5893,-785.0457 1708.2945,-803.0457 1547.5893,-821.0457"/>
<text text-anchor="middle" x="1547.5893" y="-799.3457" font-family="Times,serif" font-size="14.00" fill="#000000">Bayesian_subtree_optimality</text>
</a>
</g>
</g>
<!-- subsplit_DAG&#45;&#45;Bayesian_subtree_optimality -->
<g id="edge16" class="edge">
<title>subsplit_DAG&#45;&#45;Bayesian_subtree_optimality</title>
<path fill="none" stroke="#000000" d="M1492.7259,-871.5183C1504.9194,-856.3002 1522.2964,-834.6127 1534.208,-819.7464"/>
</g>
<!-- fasdag -->
<g id="node46" class="node">
<title>fasdag</title>
<g id="a_node46"><a xlink:title="Develop NJ and parsimony approaches to reconstructing the sDAG.">
<polygon fill="#b3de69" stroke="#b3de69" points="1330.9189,-832.3465 1283.3257,-814.3465 1330.9189,-796.3465 1378.5122,-814.3465 1330.9189,-832.3465"/>
<text text-anchor="middle" x="1330.9189" y="-810.6465" font-family="Times,serif" font-size="14.00" fill="#000000">fasdag</text>
</a>
</g>
</g>
<!-- subsplit_DAG&#45;&#45;fasdag -->
<g id="edge17" class="edge">
<title>subsplit_DAG&#45;&#45;fasdag</title>
<path fill="none" stroke="#000000" d="M1447.473,-873.6773C1418.5884,-858.9739 1376.2875,-837.441 1351.3814,-824.7627"/>
</g>
<!-- variational_on_time_tree_samples -->
<g id="node47" class="node">
<title>variational_on_time_tree_samples</title>
<g id="a_node47"><a xlink:title="Develop variational models and fit them to time&#45;tree MCMC samples. How well do they fit?">
<polygon fill="#b3de69" stroke="#b3de69" points="1560.3748,-1103.3974 1372.8586,-1085.3974 1560.3748,-1067.3974 1747.8909,-1085.3974 1560.3748,-1103.3974"/>
<text text-anchor="middle" x="1560.3748" y="-1081.6974" font-family="Times,serif" font-size="14.00" fill="#000000">variational_on_time_tree_samples</text>
</a>
</g>
</g>
<!-- subsplit_DAG&#45;&#45;variational_on_time_tree_samples -->
<g id="edge19" class="edge">
<title>subsplit_DAG&#45;&#45;variational_on_time_tree_samples</title>
<path fill="none" stroke="#000000" d="M1485.9534,-907.5002C1501.6517,-945.0254 1537.5859,-1030.9229 1553.0629,-1067.919"/>
</g>
<!-- local_EM -->
<g id="node53" class="node">
<title>local_EM</title>
<g id="a_node53"><a xlink:title="Develop an EM algorithm for variational inference that uses local computation. Go Hogwild.">
<polygon fill="#b3de69" stroke="#b3de69" points="1810.9669,-825.0776 1745.9457,-807.0776 1810.9669,-789.0776 1875.9881,-807.0776 1810.9669,-825.0776"/>
<text text-anchor="middle" x="1810.9669" y="-803.3776" font-family="Times,serif" font-size="14.00" fill="#000000">local_EM</text>
</a>
</g>
</g>
<!-- subsplit_DAG&#45;&#45;local_EM -->
<g id="edge13" class="edge">
<title>subsplit_DAG&#45;&#45;local_EM</title>
<path fill="none" stroke="#000000" d="M1525.6845,-877.7045C1593.473,-860.9222 1716.6634,-830.4242 1776.5025,-815.6099"/>
</g>
<!-- find_MAP_tree_in_subsplit_DAG -->
<g id="node57" class="node">
<title>find_MAP_tree_in_subsplit_DAG</title>
<g id="a_node57"><a xlink:title="Can we quickly find the MAP tree in the subsplit DAG?">
<polygon fill="#b3de69" stroke="#b3de69" points="1662.8152,-1014.1969 1475.299,-996.1969 1662.8152,-978.1969 1850.3313,-996.1969 1662.8152,-1014.1969"/>
<text text-anchor="middle" x="1662.8152" y="-992.4969" font-family="Times,serif" font-size="14.00" fill="#000000">find_MAP_tree_in_subsplit_DAG</text>
</a>
</g>
</g>
<!-- subsplit_DAG&#45;&#45;find_MAP_tree_in_subsplit_DAG -->
<g id="edge18" class="edge">
<title>subsplit_DAG&#45;&#45;find_MAP_tree_in_subsplit_DAG</title>
<path fill="none" stroke="#000000" d="M1506.3978,-905.6319C1541.5658,-925.994 1601.4668,-960.6764 1636.0424,-980.6956"/>
</g>
<!-- how_big_of_sDAG -->
<g id="node60" class="node">
<title>how_big_of_sDAG</title>
<g id="a_node60"><a xlink:title="How big of a subsplit DAG is actually required to get reasonable estimates (with uncertaintly quantification) of key parameters?">
<polygon fill="none" stroke="#000000" points="1672.0666,-682.4215 1558.9539,-664.4215 1672.0666,-646.4215 1785.1793,-664.4215 1672.0666,-682.4215"/>
<text text-anchor="middle" x="1672.0666" y="-660.7215" font-family="Times,serif" font-size="14.00" fill="#000000">how_big_of_sDAG</text>
</a>
</g>
</g>
<!-- subsplit_DAG&#45;&#45;how_big_of_sDAG -->
<g id="edge15" class="edge">
<title>subsplit_DAG&#45;&#45;how_big_of_sDAG</title>
<path fill="none" stroke="#000000" d="M1493.5849,-871.7591C1530.2362,-829.1822 1623.0555,-721.3565 1658.2493,-680.4727"/>
</g>
<!-- subsplit_DAG&#45;&#45;online_phylo_VI -->
<g id="edge10" class="edge">
<title>subsplit_DAG&#45;&#45;online_phylo_VI</title>
<path fill="none" stroke="#000000" d="M1479.0998,-907.4219C1481.5956,-970.4951 1489.9269,-1181.0408 1492.4385,-1244.5123"/>
</g>
<!-- Bayesian_histories -->
<g id="node65" class="node">
<title>Bayesian_histories</title>
<polygon fill="none" stroke="#000000" points="1041.7708,-909.8285 922.7708,-909.8285 922.7708,-873.8285 1041.7708,-873.8285 1041.7708,-909.8285"/>
<text text-anchor="middle" x="982.2708" y="-888.1285" font-family="Times,serif" font-size="14.00" fill="#000000">Bayesian_histories</text>
</g>
<!-- subsplit_DAG&#45;&#45;Bayesian_histories -->
<g id="edge14" class="edge">
<title>subsplit_DAG&#45;&#45;Bayesian_histories</title>
<path fill="none" stroke="#000000" d="M1416.5568,-889.7148C1320.4488,-890.1825 1136.4488,-891.0781 1041.7789,-891.5388"/>
</g>
<!-- benchmark_torchdms -->
<g id="node63" class="node">
<title>benchmark_torchdms</title>
<g id="a_node63"><a xlink:title="Perform futher benchmarking of torchdms and other methods.">
<polygon fill="#b3de69" stroke="#b3de69" points="297.4112,-1593.6869 173.2387,-1575.6869 297.4112,-1557.6869 421.5838,-1575.6869 297.4112,-1593.6869"/>
<text text-anchor="middle" x="297.4112" y="-1571.9869" font-family="Times,serif" font-size="14.00" fill="#000000">benchmark_torchdms</text>
</a>
</g>
</g>
<!-- torchdms&#45;&#45;benchmark_torchdms -->
<g id="edge34" class="edge">
<title>torchdms&#45;&#45;benchmark_torchdms</title>
<path fill="none" stroke="#000000" d="M506.777,-1459.6759C461.0943,-1484.989 368.3221,-1536.3947 323.2066,-1561.3935"/>
</g>
<!-- transport -->
<g id="node29" class="node">
<title>transport</title>
<g id="a_node29"><a xlink:title="Compare TCR repertoires via optimal transport.">
<ellipse fill="#ccebc5" stroke="#ccebc5" cx="682.2278" cy="-95.7064" rx="42.4939" ry="18"/>
<text text-anchor="middle" x="682.2278" y="-92.0064" font-family="Times,serif" font-size="14.00" fill="#000000">transport</text>
</a>
</g>
</g>
<!-- VI_diagnostics -->
<g id="node30" class="node">
<title>VI_diagnostics</title>
<g id="a_node30"><a xlink:title="How will we know if VI is giving a good approximation?">
<ellipse fill="#ccebc5" stroke="#ccebc5" cx="1508.4354" cy="-1578.2233" rx="63.8893" ry="18"/>
<text text-anchor="middle" x="1508.4354" y="-1574.5233" font-family="Times,serif" font-size="14.00" fill="#000000">VI_diagnostics</text>
</a>
</g>
</g>
<!-- VI_diagnostics&#45;&#45;phylogenetic_VI -->
<g id="edge3" class="edge">
<title>VI_diagnostics&#45;&#45;phylogenetic_VI</title>
<path fill="none" stroke="#000000" d="M1514.7599,-1560.1485C1525.7283,-1528.8025 1548.1556,-1464.7082 1559.1436,-1433.3059"/>
</g>
<!-- CFT -->
<g id="node31" class="node">
<title>CFT</title>
<g id="a_node31"><a xlink:title="The Clonal Family Tree pipeline to do clonal family inference and then phylogenetics.">
<polygon fill="#bc80bd" stroke="#bc80bd" points="234.3959,-650.7509 201.5192,-663.1886 168.6425,-650.7509 168.6732,-630.6263 234.3652,-630.6263 234.3959,-650.7509"/>
<text text-anchor="middle" x="201.5192" y="-641.4886" font-family="Times,serif" font-size="14.00" fill="#000000">CFT</text>
</a>
</g>
</g>
<!-- olmsted -->
<g id="node33" class="node">
<title>olmsted</title>
<g id="a_node33"><a xlink:title="A visualization tool for BCR lineages.">
<polygon fill="none" stroke="#000000" points="96.6765,-651.9523 48.2709,-664.39 -.1347,-651.9523 -.0895,-631.8277 96.6313,-631.8277 96.6765,-651.9523"/>
<text text-anchor="middle" x="48.2709" y="-642.69" font-family="Times,serif" font-size="14.00" fill="#000000">olmsted</text>
</a>
</g>
</g>
<!-- CFT&#45;&#45;olmsted -->
<g id="edge53" class="edge">
<title>CFT&#45;&#45;olmsted</title>
<path fill="none" stroke="#000000" d="M168.6436,-645.4463C147.624,-645.6111 119.999,-645.8277 96.5156,-646.0118"/>
</g>
<!-- find_posterior_modes -->
<g id="node48" class="node">
<title>find_posterior_modes</title>
<g id="a_node48"><a xlink:title="Can we do something to quickly find posterior modes in the phylogenetic posterior? Can we do better than hillclimbing?">
<polygon fill="#b3de69" stroke="#b3de69" points="1516.9782,-461.8324 1391.9674,-443.8324 1516.9782,-425.8324 1641.9889,-443.8324 1516.9782,-461.8324"/>
<text text-anchor="middle" x="1516.9782" y="-440.1324" font-family="Times,serif" font-size="14.00" fill="#000000">find_posterior_modes</text>
</a>
</g>
</g>
<!-- hillclimber&#45;&#45;find_posterior_modes -->
<g id="edge21" class="edge">
<title>hillclimber&#45;&#45;find_posterior_modes</title>
<path fill="none" stroke="#000000" d="M1390.2021,-661.167C1414.2594,-619.9251 1481.6898,-504.328 1507.112,-460.7461"/>
</g>
<!-- BCR_GWAS -->
<g id="node34" class="node">
<title>BCR_GWAS</title>
<g id="a_node34"><a xlink:title="Do a GWAS for BCR repertoire features. Can we learn about SHM too?">
<polygon fill="#fdb462" stroke="#fdb462" points="648.3791,-554.6278 564.5922,-536.6278 648.3791,-518.6278 732.166,-536.6278 648.3791,-554.6278"/>
<text text-anchor="middle" x="648.3791" y="-532.9278" font-family="Times,serif" font-size="14.00" fill="#000000">BCR_GWAS</text>
</a>
</g>
</g>
<!-- BCR_GWAS&#45;&#45;TCR_GWAS -->
<g id="edge57" class="edge">
<title>BCR_GWAS&#45;&#45;TCR_GWAS</title>
<path fill="none" stroke="#000000" d="M654.2847,-519.4928C669.0285,-476.7144 707.3503,-365.5248 722.4481,-321.7189"/>
</g>
<!-- BCR_indels -->
<g id="node35" class="node">
<title>BCR_indels</title>
<g id="a_node35"><a xlink:title="What sequence features lead to indels in BCR sequences?">
<polygon fill="#8dd3c7" stroke="#8dd3c7" points="609.678,-705.8007 533.5973,-687.8007 609.678,-669.8007 685.7586,-687.8007 609.678,-705.8007"/>
<text text-anchor="middle" x="609.678" y="-684.1007" font-family="Times,serif" font-size="14.00" fill="#000000">BCR_indels</text>
</a>
</g>
</g>
<!-- clonal_families_with_indels -->
<g id="node36" class="node">
<title>clonal_families_with_indels</title>
<g id="a_node36"><a xlink:title="Can we do better clonal family clustering in the presence of indels?">
<polygon fill="#8dd3c7" stroke="#8dd3c7" points="514.9462,-1156.6402 358.9324,-1138.6402 514.9462,-1120.6402 670.9601,-1138.6402 514.9462,-1156.6402"/>
<text text-anchor="middle" x="514.9462" y="-1134.9402" font-family="Times,serif" font-size="14.00" fill="#000000">clonal_families_with_indels</text>
</a>
</g>
</g>
<!-- BCR_selection_analysis -->
<g id="node37" class="node">
<title>BCR_selection_analysis</title>
<g id="a_node37"><a xlink:title="Improve dN/dS analysis for BCR lineages, looking site&#45;wise and per&#45;lineage.">
<polygon fill="#8dd3c7" stroke="#8dd3c7" points="465.0419,-642.587 328.133,-624.587 465.0419,-606.587 601.9508,-624.587 465.0419,-642.587"/>
<text text-anchor="middle" x="465.0419" y="-620.887" font-family="Times,serif" font-size="14.00" fill="#000000">BCR_selection_analysis</text>
</a>
</g>
</g>
<!-- BCR_trajectories -->
<g id="node38" class="node">
<title>BCR_trajectories</title>
<g id="a_node38"><a xlink:title="Look for patterns in BCR sequence evolution. Do they fall into &#39;trajectories&#39;?">
<polygon fill="#8dd3c7" stroke="#8dd3c7" points="307.5298,-1013.2917 206.3151,-995.2917 307.5298,-977.2917 408.7445,-995.2917 307.5298,-1013.2917"/>
<text text-anchor="middle" x="307.5298" y="-991.5917" font-family="Times,serif" font-size="14.00" fill="#000000">BCR_trajectories</text>
</a>
</g>
</g>
<!-- Bayesian_VDJ_recombination -->
<g id="node43" class="node">
<title>Bayesian_VDJ_recombination</title>
<g id="a_node43"><a xlink:title="Can we do Bayesian estimation of VDJ recombination models?">
<polygon fill="none" stroke="#000000" points="482.8382,-490.324 314.4264,-472.324 482.8382,-454.324 651.25,-472.324 482.8382,-490.324"/>
<text text-anchor="middle" x="482.8382" y="-468.624" font-family="Times,serif" font-size="14.00" fill="#000000">Bayesian_VDJ_recombination</text>
</a>
</g>
</g>
<!-- help_PANGO -->
<g id="node49" class="node">
<title>help_PANGO</title>
<g id="a_node49"><a xlink:title="What sort of tooling would actually help PANGO do their job better?">
<polygon fill="none" stroke="#000000" points="1018.0997,-1007.459 932.6364,-989.459 1018.0997,-971.459 1103.5629,-989.459 1018.0997,-1007.459"/>
<text text-anchor="middle" x="1018.0997" y="-985.759" font-family="Times,serif" font-size="14.00" fill="#000000">help_PANGO</text>
</a>
</g>
</g>
<!-- big_tree_likelihoods -->
<g id="node50" class="node">
<title>big_tree_likelihoods</title>
<g id="a_node50"><a xlink:title="How can we bridge the gap between parsimony and full Felsenstein likelihoods?">
<polygon fill="none" stroke="#000000" points="1054.7047,-693.4049 936.9002,-675.4049 1054.7047,-657.4049 1172.5091,-675.4049 1054.7047,-693.4049"/>
<text text-anchor="middle" x="1054.7047" y="-671.7049" font-family="Times,serif" font-size="14.00" fill="#000000">big_tree_likelihoods</text>
</a>
</g>
</g>
<!-- fast_TreeTime -->
<g id="node56" class="node">
<title>fast_TreeTime</title>
<g id="a_node56"><a xlink:title="Speed up ML inference of time trees.">
<polygon fill="#8dd3c7" stroke="#8dd3c7" points="1174.9481,-612.5466 1085.6313,-594.5466 1174.9481,-576.5466 1264.2648,-594.5466 1174.9481,-612.5466"/>
<text text-anchor="middle" x="1174.9481" y="-590.8466" font-family="Times,serif" font-size="14.00" fill="#000000">fast_TreeTime</text>
</a>
</g>
</g>
<!-- polytomy_resolution -->
<g id="node58" class="node">
<title>polytomy_resolution</title>
<g id="a_node58"><a xlink:title="Can we quickly resolve sequence&#45;level polytomies using timing/geography?">
<polygon fill="none" stroke="#000000" points="1234.8198,-475.6876 1115.3389,-457.6876 1234.8198,-439.6876 1354.3007,-457.6876 1234.8198,-475.6876"/>
<text text-anchor="middle" x="1234.8198" y="-453.9876" font-family="Times,serif" font-size="14.00" fill="#000000">polytomy_resolution</text>
</a>
</g>
</g>
<!-- fast_TreeTime&#45;&#45;polytomy_resolution -->
<g id="edge29" class="edge">
<title>fast_TreeTime&#45;&#45;polytomy_resolution</title>
<path fill="none" stroke="#000000" d="M1182.2895,-577.765C1193.7805,-551.4981 1215.8904,-500.9577 1227.4183,-474.6065"/>
</g>
<!-- how_big_of_sDAG&#45;&#45;find_posterior_modes -->
<g id="edge22" class="edge">
<title>how_big_of_sDAG&#45;&#45;find_posterior_modes</title>
<path fill="none" stroke="#000000" d="M1660.6626,-648.2011C1632.0519,-607.5069 1557.4625,-501.415 1528.6097,-460.3765"/>
</g>
<!-- SARS2_lineage_prediction -->
<g id="node62" class="node">
<title>SARS2_lineage_prediction</title>
<g id="a_node62"><a xlink:title="Predict future dominant clades of SARS&#45;Cov&#45;2.">
<polygon fill="#b3de69" stroke="#b3de69" points="1011.9366,-1457.2324 860.9527,-1439.2324 1011.9366,-1421.2324 1162.9206,-1439.2324 1011.9366,-1457.2324"/>
<text text-anchor="middle" x="1011.9366" y="-1435.5324" font-family="Times,serif" font-size="14.00" fill="#000000">SARS2_lineage_prediction</text>
</a>
</g>
</g>
<!-- BCR_analysis -->
<g id="node64" class="node">
<title>BCR_analysis</title>
<polygon fill="none" stroke="#000000" points="611.5121,-773.5136 517.5121,-773.5136 517.5121,-737.5136 611.5121,-737.5136 611.5121,-773.5136"/>
<text text-anchor="middle" x="564.5121" y="-751.8136" font-family="Times,serif" font-size="14.00" fill="#000000">BCR_analysis</text>
</g>
<!-- BCR_analysis&#45;&#45;Bayesian_GCtree -->
<g id="edge46" class="edge">
<title>BCR_analysis&#45;&#45;Bayesian_GCtree</title>
<path fill="none" stroke="#000000" d="M579.3527,-773.6867C618.8918,-822.1046 726.4358,-953.7986 765.7657,-1001.9605"/>
</g>
<!-- BCR_analysis&#45;&#45;linearham_empirical_uncertainty -->
<g id="edge45" class="edge">
<title>BCR_analysis&#45;&#45;linearham_empirical_uncertainty</title>
<path fill="none" stroke="#000000" d="M562.6918,-773.6611C560.1157,-799.343 555.433,-846.0257 552.8492,-871.7849"/>
</g>
<!-- BCR_analysis&#45;&#45;mechanistic_SHM -->
<g id="edge54" class="edge">
<title>BCR_analysis&#45;&#45;mechanistic_SHM</title>
<path fill="none" stroke="#000000" d="M611.5665,-737.7854C651.3822,-722.7844 707.852,-701.5089 745.7336,-687.2366"/>
</g>
<!-- BCR_analysis&#45;&#45;paired_HL -->
<g id="edge43" class="edge">
<title>BCR_analysis&#45;&#45;paired_HL</title>
<path fill="none" stroke="#000000" d="M517.3621,-765.2399C469.5295,-775.107 396.1523,-790.2436 350.0298,-799.758"/>
</g>
<!-- BCR_analysis&#45;&#45;CFT -->
<g id="edge44" class="edge">
<title>BCR_analysis&#45;&#45;CFT</title>
<path fill="none" stroke="#000000" d="M517.4293,-741.2036C440.3136,-717.7657 289.5444,-671.9422 228.3203,-653.3343"/>
</g>
<!-- BCR_analysis&#45;&#45;BCR_GWAS -->
<g id="edge56" class="edge">
<title>BCR_analysis&#45;&#45;BCR_GWAS</title>
<path fill="none" stroke="#000000" d="M571.5183,-737.228C587.5019,-695.5123 626.4665,-593.8178 641.9153,-553.498"/>
</g>
<!-- BCR_analysis&#45;&#45;BCR_indels -->
<g id="edge40" class="edge">
<title>BCR_analysis&#45;&#45;BCR_indels</title>
<path fill="none" stroke="#000000" d="M576.6158,-737.3678C583.6186,-726.869 592.349,-713.7804 599.0797,-703.6897"/>
</g>
<!-- BCR_analysis&#45;&#45;clonal_families_with_indels -->
<g id="edge41" class="edge">
<title>BCR_analysis&#45;&#45;clonal_families_with_indels</title>
<path fill="none" stroke="#000000" d="M562.1548,-773.7348C553.7859,-838.4236 525.5607,-1056.5939 517.2604,-1120.7523"/>
</g>
<!-- BCR_analysis&#45;&#45;BCR_selection_analysis -->
<g id="edge38" class="edge">
<title>BCR_analysis&#45;&#45;BCR_selection_analysis</title>
<path fill="none" stroke="#000000" d="M550.6812,-737.3088C531.2501,-711.7328 496.1627,-665.5495 477.5015,-640.9868"/>
</g>
<!-- BCR_analysis&#45;&#45;BCR_trajectories -->
<g id="edge39" class="edge">
<title>BCR_analysis&#45;&#45;BCR_trajectories</title>
<path fill="none" stroke="#000000" d="M545.1967,-773.5359C496.5216,-818.9524 369.4811,-937.4878 324.013,-979.912"/>
</g>
<!-- BCR_analysis&#45;&#45;Bayesian_VDJ_recombination -->
<g id="edge47" class="edge">
<title>BCR_analysis&#45;&#45;Bayesian_VDJ_recombination</title>
<path fill="none" stroke="#000000" d="M559.2788,-737.368C544.4916,-686.0961 502.5268,-540.5907 487.9232,-489.9551"/>
</g>
<!-- BCR_analysis&#45;&#45;Bayesian_histories -->
<g id="edge42" class="edge">
<title>BCR_analysis&#45;&#45;Bayesian_histories</title>
<path fill="none" stroke="#000000" d="M611.6223,-770.8856C689.4021,-796.2652 844.2895,-846.8051 927.0761,-873.8184"/>
</g>
<!-- Bayesian_histories&#45;&#45;Bayesian_GCtree -->
<g id="edge24" class="edge">
<title>Bayesian_histories&#45;&#45;Bayesian_GCtree</title>
<path fill="none" stroke="#000000" d="M953.7793,-909.9079C914.7667,-934.6635 845.2347,-978.7855 807.1623,-1002.9446"/>
</g>
<!-- Bayesian_histories&#45;&#45;SARS2_parsimony_plateau -->
<g id="edge25" class="edge">
<title>Bayesian_histories&#45;&#45;SARS2_parsimony_plateau</title>
<path fill="none" stroke="#000000" d="M1039.4082,-909.9106C1052.5664,-914.0748 1066.473,-918.4757 1079.3369,-922.5468"/>
</g>
<!-- Bayesian_histories&#45;&#45;context_sensitive_phylo -->
<g id="edge23" class="edge">
<title>Bayesian_histories&#45;&#45;context_sensitive_phylo</title>
<path fill="none" stroke="#000000" d="M929.8359,-873.7874C896.3884,-862.2793 853.8083,-847.6289 823.6124,-837.2395"/>
</g>
<!-- Bayesian_histories&#45;&#45;help_PANGO -->
<g id="edge26" class="edge">
<title>Bayesian_histories&#45;&#45;help_PANGO</title>
<path fill="none" stroke="#000000" d="M989.0099,-910.192C995.5777,-928.0887 1005.4822,-955.0775 1011.8703,-972.4844"/>
</g>
<!-- Bayesian_histories&#45;&#45;big_tree_likelihoods -->
<g id="edge28" class="edge">
<title>Bayesian_histories&#45;&#45;big_tree_likelihoods</title>
<path fill="none" stroke="#000000" d="M988.3219,-873.7486C1002.0585,-832.7053 1035.4482,-732.9408 1048.9233,-692.6788"/>
</g>
<!-- Bayesian_histories&#45;&#45;fast_TreeTime -->
<g id="edge27" class="edge">
<title>Bayesian_histories&#45;&#45;fast_TreeTime</title>
<path fill="none" stroke="#000000" d="M994.0336,-873.6797C1028.9217,-819.8507 1131.449,-661.6614 1164.5297,-610.6211"/>
</g>
<!-- TCR_analysis -->
<g id="node66" class="node">
<title>TCR_analysis</title>
<polygon fill="none" stroke="#000000" points="618.2281,-196.6006 525.2281,-196.6006 525.2281,-160.6006 618.2281,-160.6006 618.2281,-196.6006"/>
<text text-anchor="middle" x="571.7281" y="-174.9006" font-family="Times,serif" font-size="14.00" fill="#000000">TCR_analysis</text>
</g>
<!-- TCR_analysis&#45;&#45;HLA_effects -->
<g id="edge59" class="edge">
<title>TCR_analysis&#45;&#45;HLA_effects</title>
<path fill="none" stroke="#000000" d="M524.9794,-182.8375C477.1815,-187.1695 402.9877,-193.8938 352.5343,-198.4664"/>
</g>
<!-- TCR_analysis&#45;&#45;TCR_GWAS -->
<g id="edge58" class="edge">
<title>TCR_analysis&#45;&#45;TCR_GWAS</title>
<path fill="none" stroke="#000000" d="M594.5521,-196.7768C624.8216,-220.8823 677.849,-263.1113 707.3525,-286.6068"/>
</g>
<!-- TCR_analysis&#45;&#45;TCR_trimming_motifs -->
<g id="edge61" class="edge">
<title>TCR_analysis&#45;&#45;TCR_trimming_motifs</title>
<path fill="none" stroke="#000000" d="M561.7001,-160.5277C544.6215,-129.7474 510.0775,-67.4902 492.9311,-36.5878"/>
</g>
<!-- TCR_analysis&#45;&#45;transport -->
<g id="edge60" class="edge">
<title>TCR_analysis&#45;&#45;transport</title>
<path fill="none" stroke="#000000" d="M595.9777,-160.4091C615.4179,-145.8256 642.4289,-125.5625 661.0174,-111.6179"/>
</g>
<!-- TCR_analysis&#45;&#45;Bayesian_VDJ_recombination -->
<g id="edge62" class="edge">
<title>TCR_analysis&#45;&#45;Bayesian_VDJ_recombination</title>
<path fill="none" stroke="#000000" d="M566.1676,-196.9743C550.1282,-249.9742 503.9201,-402.6622 488.1706,-454.7039"/>
</g>
<!-- trees_and_fitness -->
<g id="node67" class="node">
<title>trees_and_fitness</title>
<polygon fill="none" stroke="#000000" points="1066.6434,-1201.5407 956.6434,-1201.5407 956.6434,-1165.5407 1066.6434,-1165.5407 1066.6434,-1201.5407"/>
<text text-anchor="middle" x="1011.6434" y="-1179.8407" font-family="Times,serif" font-size="14.00" fill="#000000">trees_and_fitness</text>
</g>
<!-- trees_and_fitness&#45;&#45;GCreplay -->
<g id="edge50" class="edge">
<title>trees_and_fitness&#45;&#45;GCreplay</title>
<path fill="none" stroke="#000000" d="M973.0972,-1201.6269C908.3568,-1232.0036 779.1972,-1292.6063 721.3204,-1319.7626"/>
</g>
<!-- trees_and_fitness&#45;&#45;GCtree_with_heritable -->
<g id="edge49" class="edge">
<title>trees_and_fitness&#45;&#45;GCtree_with_heritable</title>
<path fill="none" stroke="#000000" d="M956.5592,-1173.4443C927.8307,-1168.1786 892.7652,-1161.7514 863.9272,-1156.4656"/>
</g>
<!-- trees_and_fitness&#45;&#45;SARS2_lineage_prediction -->
<g id="edge51" class="edge">
<title>trees_and_fitness&#45;&#45;SARS2_lineage_prediction</title>
<path fill="none" stroke="#000000" d="M1011.6644,-1201.9294C1011.7186,-1249.1065 1011.8618,-1374.0168 1011.9157,-1421.0103"/>
</g>
<!-- trees_and_fitness&#45;&#45;Bayesian_histories -->
<g id="edge52" class="edge">
<title>trees_and_fitness&#45;&#45;Bayesian_histories</title>
<path fill="none" stroke="#000000" d="M1009.806,-1165.2928C1004.5311,-1112.9053 989.3815,-962.4484 984.1075,-910.0695"/>
</g>
<!-- train_awesome_researchers -->
<g id="node68" class="node">
<title>train_awesome_researchers</title>
<polygon fill="none" stroke="#000000" points="2200.9498,-354.6989 2033.869,-354.6989 1982.2381,-513.4539 1930.6073,-354.6989 1763.5264,-354.6989 1898.6977,-256.5829 1847.0668,-97.8278 1982.2381,-195.9438 2117.4094,-97.8278 2065.7786,-256.5829 2200.9498,-354.6989"/>
<text text-anchor="middle" x="1982.2381" y="-301.9409" font-family="Times,serif" font-size="14.00" fill="#000000">train_awesome_researchers</text>
</g>
<!-- diversify_comp_bio -->
<g id="node69" class="node">
<title>diversify_comp_bio</title>
<polygon fill="none" stroke="#000000" points="2290.1104,-1859.6392 2164.1592,-1859.6392 2125.2381,-1979.3682 2086.317,-1859.6392 1960.3658,-1859.6392 2062.2625,-1785.6426 2023.3414,-1665.9136 2125.2381,-1739.9102 2227.1348,-1665.9136 2188.2137,-1785.6426 2290.1104,-1859.6392"/>
<text text-anchor="middle" x="2125.2381" y="-1818.9409" font-family="Times,serif" font-size="14.00" fill="#000000">diversify_comp_bio</text>
</g>
<!-- eradicate_disease -->
<g id="node70" class="node">
<title>eradicate_disease</title>
<polygon fill="none" stroke="#000000" points="1760.3402,-1935.3077 1649.4921,-1935.3077 1615.2381,-2041.0199 1580.9842,-1935.3077 1470.1361,-1935.3077 1559.8141,-1869.974 1525.5601,-1764.2619 1615.2381,-1829.5956 1704.9161,-1764.2619 1670.6622,-1869.974 1760.3402,-1935.3077"/>
<text text-anchor="middle" x="1615.2381" y="-1898.9409" font-family="Times,serif" font-size="14.00" fill="#000000">eradicate_disease</text>
</g>
</g>
</svg>
