<?xml version="1.0" encoding="UTF-8" standalone="no"?>
<!DOCTYPE svg PUBLIC "-//W3C//DTD SVG 1.1//EN"
 "http://www.w3.org/Graphics/SVG/1.1/DTD/svg11.dtd">
<!-- Generated by graphviz version 2.40.1 (20161225.0304)
 -->
<!-- Title: %3 Pages: 1 -->
<svg width="1808pt" height="1894pt"
 viewBox="0.00 0.00 1807.87 1893.81" xmlns="http://www.w3.org/2000/svg" xmlns:xlink="http://www.w3.org/1999/xlink">
<g id="graph0" class="graph" transform="scale(1 1) rotate(0) translate(4 1889.813)">
<title>%3</title>
<polygon fill="#ffffff" stroke="transparent" points="-4,4 -4,-1889.813 1803.8723,-1889.813 1803.8723,4 -4,4"/>
<!-- Bayesian_GCtree -->
<g id="node1" class="node">
<title>Bayesian_GCtree</title>
<g id="a_node1"><a xlink:title="Do posterior estimation using Will&#39;s GCtree framework.">
<ellipse fill="#ccebc5" stroke="#ccebc5" cx="991.6915" cy="-1169.0672" rx="72.5877" ry="18"/>
<text text-anchor="middle" x="991.6915" y="-1165.3672" font-family="Times,serif" font-size="14.00" fill="#000000">Bayesian_GCtree</text>
</a>
</g>
</g>
<!-- GCreplay -->
<g id="node2" class="node">
<title>GCreplay</title>
<g id="a_node2"><a xlink:title="A big collaboration with the Victora and Bloom labs to understand GC maturation with replicate samples.">
<ellipse fill="#ccebc5" stroke="#ccebc5" cx="1004.314" cy="-1378.1567" rx="44.6926" ry="18"/>
<text text-anchor="middle" x="1004.314" y="-1374.4567" font-family="Times,serif" font-size="14.00" fill="#000000">GCreplay</text>
</a>
</g>
</g>
<!-- Bayesian_GCtree&#45;&#45;GCreplay -->
<g id="edge25" class="edge">
<title>Bayesian_GCtree&#45;&#45;GCreplay</title>
<path fill="none" stroke="#000000" d="M992.7896,-1187.2568C995.1828,-1226.8998 1000.8448,-1320.6897 1003.2274,-1360.1581"/>
</g>
<!-- GCtree_with_heritable -->
<g id="node36" class="node">
<title>GCtree_with_heritable</title>
<g id="a_node36"><a xlink:title="GCtree operates under the assumption of a neutral branching process, the parameters of which do not change through the tree. Can we extend this to a process with a heritable component?">
<polygon fill="none" stroke="#000000" points="1155.593,-1270.085 1026.7287,-1252.085 1155.593,-1234.085 1284.4573,-1252.085 1155.593,-1270.085"/>
<text text-anchor="middle" x="1155.593" y="-1248.385" font-family="Times,serif" font-size="14.00" fill="#000000">GCtree_with_heritable</text>
</a>
</g>
</g>
<!-- Bayesian_GCtree&#45;&#45;GCtree_with_heritable -->
<g id="edge26" class="edge">
<title>Bayesian_GCtree&#45;&#45;GCtree_with_heritable</title>
<path fill="none" stroke="#000000" d="M1023.6824,-1185.271C1053.8665,-1200.5595 1098.6727,-1223.2543 1127.5076,-1237.8594"/>
</g>
<!-- antibody_DMS -->
<g id="node13" class="node">
<title>antibody_DMS</title>
<g id="a_node13"><a xlink:title="What can we learn from deep mutational scanning on antibodies?">
<ellipse fill="#ccebc5" stroke="#ccebc5" cx="1093.872" cy="-1553.7458" rx="65.7887" ry="18"/>
<text text-anchor="middle" x="1093.872" y="-1550.0458" font-family="Times,serif" font-size="14.00" fill="#000000">antibody_DMS</text>
</a>
</g>
</g>
<!-- GCreplay&#45;&#45;antibody_DMS -->
<g id="edge28" class="edge">
<title>GCreplay&#45;&#45;antibody_DMS</title>
<path fill="none" stroke="#000000" d="M1013.3941,-1395.9594C1030.5593,-1429.6137 1067.5842,-1502.2054 1084.7678,-1535.8959"/>
</g>
<!-- torchdms -->
<g id="node15" class="node">
<title>torchdms</title>
<g id="a_node15"><a xlink:title="Develop a DMS analysis package using a modern machine&#45;learning library.">
<ellipse fill="#ccebc5" stroke="#ccebc5" cx="939.5981" cy="-1545.2585" rx="44.393" ry="18"/>
<text text-anchor="middle" x="939.5981" y="-1541.5585" font-family="Times,serif" font-size="14.00" fill="#000000">torchdms</text>
</a>
</g>
</g>
<!-- GCreplay&#45;&#45;torchdms -->
<g id="edge27" class="edge">
<title>GCreplay&#45;&#45;torchdms</title>
<path fill="none" stroke="#000000" d="M997.3882,-1396.0396C984.9649,-1428.1177 959.03,-1495.0839 946.5719,-1527.2517"/>
</g>
<!-- HLA_effects -->
<g id="node3" class="node">
<title>HLA_effects</title>
<g id="a_node3"><a xlink:title="Assya&#39;s project understanding the effects of HLA on repertoire.">
<ellipse fill="#ccebc5" stroke="#ccebc5" cx="1357.6642" cy="-29.4198" rx="56.59" ry="18"/>
<text text-anchor="middle" x="1357.6642" y="-25.7198" font-family="Times,serif" font-size="14.00" fill="#000000">HLA_effects</text>
</a>
</g>
</g>
<!-- PhIP_seq -->
<g id="node4" class="node">
<title>PhIP_seq</title>
<g id="a_node4"><a xlink:title="Develop statistics and software tools for PhIP&#45;seq analyses.">
<ellipse fill="#ccebc5" stroke="#ccebc5" cx="1048.6321" cy="-1743.3043" rx="44.393" ry="18"/>
<text text-anchor="middle" x="1048.6321" y="-1739.6043" font-family="Times,serif" font-size="14.00" fill="#000000">PhIP_seq</text>
</a>
</g>
</g>
<!-- TCR_GWAS -->
<g id="node5" class="node">
<title>TCR_GWAS</title>
<g id="a_node5"><a xlink:title="GWAS to infer TCR&#45;repertoire features.">
<ellipse fill="#ccebc5" stroke="#ccebc5" cx="1204.5536" cy="-363.2252" rx="58.4896" ry="18"/>
<text text-anchor="middle" x="1204.5536" y="-359.5252" font-family="Times,serif" font-size="14.00" fill="#000000">TCR_GWAS</text>
</a>
</g>
</g>
<!-- TCR_trimming_motifs -->
<g id="node6" class="node">
<title>TCR_trimming_motifs</title>
<g id="a_node6"><a xlink:title="What sequence&#45;level features determine trimming of TCRs in VDJ recombination?">
<ellipse fill="#ccebc5" stroke="#ccebc5" cx="1175.4114" cy="-18" rx="92.8835" ry="18"/>
<text text-anchor="middle" x="1175.4114" y="-14.3" font-family="Times,serif" font-size="14.00" fill="#000000">TCR_trimming_motifs</text>
</a>
</g>
</g>
<!-- bito -->
<g id="node7" class="node">
<title>bito</title>
<g id="a_node7"><a xlink:title="Bayesian Inference of Trees via Optimization: a C++/python package">
<ellipse fill="#ccebc5" stroke="#ccebc5" cx="477.9281" cy="-716.2032" rx="27" ry="18"/>
<text text-anchor="middle" x="477.9281" y="-712.5032" font-family="Times,serif" font-size="14.00" fill="#000000">bito</text>
</a>
</g>
</g>
<!-- autodiff_gradients -->
<g id="node8" class="node">
<title>autodiff_gradients</title>
<g id="a_node8"><a xlink:title="How fast is autodiff for phylogenetically&#45;relevant gradients?">
<ellipse fill="#ccebc5" stroke="#ccebc5" cx="432.7081" cy="-519.8957" rx="75.2868" ry="18"/>
<text text-anchor="middle" x="432.7081" y="-516.1957" font-family="Times,serif" font-size="14.00" fill="#000000">autodiff_gradients</text>
</a>
</g>
</g>
<!-- bito&#45;&#45;autodiff_gradients -->
<g id="edge4" class="edge">
<title>bito&#45;&#45;autodiff_gradients</title>
<path fill="none" stroke="#000000" d="M473.7549,-698.087C465.1403,-660.6896 445.4771,-575.3281 436.8711,-537.9682"/>
</g>
<!-- phylogenetic_VI -->
<g id="node12" class="node">
<title>phylogenetic_VI</title>
<g id="a_node12"><a xlink:title="Do variational inference of continuous parameters in phylogenetics.">
<ellipse fill="#ccebc5" stroke="#ccebc5" cx="285.4713" cy="-724.166" rx="69.5877" ry="18"/>
<text text-anchor="middle" x="285.4713" y="-720.466" font-family="Times,serif" font-size="14.00" fill="#000000">phylogenetic_VI</text>
</a>
</g>
</g>
<!-- bito&#45;&#45;phylogenetic_VI -->
<g id="edge2" class="edge">
<title>bito&#45;&#45;phylogenetic_VI</title>
<path fill="none" stroke="#000000" d="M450.7619,-717.3272C425.7907,-718.3604 387.7055,-719.9361 354.3846,-721.3147"/>
</g>
<!-- subsplit_DAG -->
<g id="node14" class="node">
<title>subsplit_DAG</title>
<g id="a_node14"><a xlink:title="Formalize definitions of and basic lemmas for the subsplit DAG.">
<ellipse fill="#ccebc5" stroke="#ccebc5" cx="665.4266" cy="-877.2918" rx="61.99" ry="18"/>
<text text-anchor="middle" x="665.4266" y="-873.5918" font-family="Times,serif" font-size="14.00" fill="#000000">subsplit_DAG</text>
</a>
</g>
</g>
<!-- bito&#45;&#45;subsplit_DAG -->
<g id="edge5" class="edge">
<title>bito&#45;&#45;subsplit_DAG</title>
<path fill="none" stroke="#000000" d="M494.5673,-730.4988C529.0729,-760.1441 608.2949,-828.2073 645.4734,-860.1491"/>
</g>
<!-- generalized_pruning -->
<g id="node9" class="node">
<title>generalized_pruning</title>
<g id="a_node9"><a xlink:title="Generalization of the Felsenstein pruning algorithm to the subsplit DAG.">
<ellipse fill="#ccebc5" stroke="#ccebc5" cx="636.5558" cy="-666.9263" rx="83.3857" ry="18"/>
<text text-anchor="middle" x="636.5558" y="-663.2263" font-family="Times,serif" font-size="14.00" fill="#000000">generalized_pruning</text>
</a>
</g>
</g>
<!-- mechanistic_SHM -->
<g id="node10" class="node">
<title>mechanistic_SHM</title>
<g id="a_node10"><a xlink:title="Design and fit mechanistically&#45;based probabilistic models of the somatic hypermutation process.">
<ellipse fill="#ccebc5" stroke="#ccebc5" cx="1212.2277" cy="-689.2914" rx="77.1866" ry="18"/>
<text text-anchor="middle" x="1212.2277" y="-685.5914" font-family="Times,serif" font-size="14.00" fill="#000000">mechanistic_SHM</text>
</a>
</g>
</g>
<!-- context_sensitive_phylo -->
<g id="node26" class="node">
<title>context_sensitive_phylo</title>
<g id="a_node26"><a xlink:title="Develop phyogenetic methods that enable inference under context&#45;sensitive models.">
<polygon fill="none" stroke="#000000" points="922.4055,-824.2395 786.3349,-806.2395 922.4055,-788.2395 1058.4761,-806.2395 922.4055,-824.2395"/>
<text text-anchor="middle" x="922.4055" y="-802.5395" font-family="Times,serif" font-size="14.00" fill="#000000">context_sensitive_phylo</text>
</a>
</g>
</g>
<!-- mechanistic_SHM&#45;&#45;context_sensitive_phylo -->
<g id="edge48" class="edge">
<title>mechanistic_SHM&#45;&#45;context_sensitive_phylo</title>
<path fill="none" stroke="#000000" d="M1173.4417,-704.9422C1116.2165,-728.0335 1010.1144,-770.8475 956.0153,-792.6774"/>
</g>
<!-- SHM_across_ages -->
<g id="node28" class="node">
<title>SHM_across_ages</title>
<g id="a_node28"><a xlink:title="Perform a detailed investigation of how SHM changes as people age.">
<polygon fill="none" stroke="#000000" points="1424.8589,-619.2334 1316.4377,-601.2334 1424.8589,-583.2334 1533.28,-601.2334 1424.8589,-619.2334"/>
<text text-anchor="middle" x="1424.8589" y="-597.5334" font-family="Times,serif" font-size="14.00" fill="#000000">SHM_across_ages</text>
</a>
</g>
</g>
<!-- mechanistic_SHM&#45;&#45;SHM_across_ages -->
<g id="edge41" class="edge">
<title>mechanistic_SHM&#45;&#45;SHM_across_ages</title>
<path fill="none" stroke="#000000" d="M1250.2419,-673.5484C1291.2145,-656.5802 1355.6575,-629.8921 1393.7359,-614.1225"/>
</g>
<!-- paired_HL -->
<g id="node11" class="node">
<title>paired_HL</title>
<g id="a_node11"><a xlink:title="Perform clonal family inference with paired heavy and light chain sequences.">
<ellipse fill="#ccebc5" stroke="#ccebc5" cx="1320.103" cy="-818.4867" rx="48.9926" ry="18"/>
<text text-anchor="middle" x="1320.103" y="-814.7867" font-family="Times,serif" font-size="14.00" fill="#000000">paired_HL</text>
</a>
</g>
</g>
<!-- B_cell_CONGA -->
<g id="node25" class="node">
<title>B_cell_CONGA</title>
<g id="a_node25"><a xlink:title="Adapt CONGA (https://paperpile.com/shared/w2jo9E) for BCR sequences.">
<polygon fill="none" stroke="#000000" points="1520.9409,-843.8129 1422.7411,-825.8129 1520.9409,-807.8129 1619.1408,-825.8129 1520.9409,-843.8129"/>
<text text-anchor="middle" x="1520.9409" y="-822.1129" font-family="Times,serif" font-size="14.00" fill="#000000">B_cell_CONGA</text>
</a>
</g>
</g>
<!-- paired_HL&#45;&#45;B_cell_CONGA -->
<g id="edge49" class="edge">
<title>paired_HL&#45;&#45;B_cell_CONGA</title>
<path fill="none" stroke="#000000" d="M1368.7202,-820.2602C1389.7327,-821.0267 1414.9122,-821.9452 1438.6865,-822.8124"/>
</g>
<!-- adaptive_MCMC -->
<g id="node41" class="node">
<title>adaptive_MCMC</title>
<g id="a_node41"><a xlink:title="Use variational inference as a proposal distribution for MCMC.">
<polygon fill="none" stroke="#000000" points="103.8648,-802.6116 .1351,-784.6116 103.8648,-766.6116 207.5945,-784.6116 103.8648,-802.6116"/>
<text text-anchor="middle" x="103.8648" y="-780.9116" font-family="Times,serif" font-size="14.00" fill="#000000">adaptive_MCMC</text>
</a>
</g>
</g>
<!-- phylogenetic_VI&#45;&#45;adaptive_MCMC -->
<g id="edge1" class="edge">
<title>phylogenetic_VI&#45;&#45;adaptive_MCMC</title>
<path fill="none" stroke="#000000" d="M242.4331,-738.4907C211.0711,-748.9292 169.0819,-762.9048 139.5734,-772.7264"/>
</g>
<!-- online_phylo_VI -->
<g id="node43" class="node">
<title>online_phylo_VI</title>
<g id="a_node43"><a xlink:title="Online (i.e. incremental) phylogenetic variational inference.">
<polygon fill="none" stroke="#000000" points="442.8473,-847.3041 342.4707,-829.3041 442.8473,-811.3041 543.224,-829.3041 442.8473,-847.3041"/>
<text text-anchor="middle" x="442.8473" y="-825.6041" font-family="Times,serif" font-size="14.00" fill="#000000">online_phylo_VI</text>
</a>
</g>
</g>
<!-- phylogenetic_VI&#45;&#45;online_phylo_VI -->
<g id="edge6" class="edge">
<title>phylogenetic_VI&#45;&#45;online_phylo_VI</title>
<path fill="none" stroke="#000000" d="M310.7565,-741.0582C341.341,-761.4908 392.3054,-795.5385 421.1713,-814.823"/>
</g>
<!-- antibody_DMS&#45;&#45;PhIP_seq -->
<g id="edge30" class="edge">
<title>antibody_DMS&#45;&#45;PhIP_seq</title>
<path fill="none" stroke="#000000" d="M1089.5342,-1571.9214C1080.887,-1608.1538 1061.5932,-1688.9965 1052.9568,-1725.1836"/>
</g>
<!-- antibody_DMS&#45;&#45;torchdms -->
<g id="edge29" class="edge">
<title>antibody_DMS&#45;&#45;torchdms</title>
<path fill="none" stroke="#000000" d="M1029.3399,-1550.1956C1013.9821,-1549.3507 997.9393,-1548.4681 983.7358,-1547.6867"/>
</g>
<!-- dms_view2 -->
<g id="node27" class="node">
<title>dms_view2</title>
<g id="a_node27"><a xlink:title="Develop the next version of dms&#45;view, with abilities to compare between data sets and also show K_D inferences.">
<polygon fill="none" stroke="#000000" points="1254.7603,-1673.2016 1181.1952,-1655.2016 1254.7603,-1637.2016 1328.3255,-1655.2016 1254.7603,-1673.2016"/>
<text text-anchor="middle" x="1254.7603" y="-1651.5016" font-family="Times,serif" font-size="14.00" fill="#000000">dms_view2</text>
</a>
</g>
</g>
<!-- antibody_DMS&#45;&#45;dms_view2 -->
<g id="edge31" class="edge">
<title>antibody_DMS&#45;&#45;dms_view2</title>
<path fill="none" stroke="#000000" d="M1120.0796,-1570.2722C1151.9567,-1590.3739 1205.102,-1623.8872 1234.1883,-1642.229"/>
</g>
<!-- subsplit_DAG&#45;&#45;generalized_pruning -->
<g id="edge9" class="edge">
<title>subsplit_DAG&#45;&#45;generalized_pruning</title>
<path fill="none" stroke="#000000" d="M662.915,-858.9913C657.4411,-819.1064 644.4908,-724.7441 639.041,-685.0348"/>
</g>
<!-- hillclimber -->
<g id="node19" class="node">
<title>hillclimber</title>
<g id="a_node19"><a xlink:title="What happens when we start ML algorithms at random starting points? What does it tell us about the phylogenetic likelihood surface?">
<polygon fill="none" stroke="#000000" points="538.4732,-1016.9316 476.7534,-1029.3693 415.0337,-1016.9316 415.0913,-996.807 538.4156,-996.807 538.4732,-1016.9316"/>
<text text-anchor="middle" x="476.7534" y="-1007.6693" font-family="Times,serif" font-size="14.00" fill="#000000">hillclimber</text>
</a>
</g>
</g>
<!-- subsplit_DAG&#45;&#45;hillclimber -->
<g id="edge8" class="edge">
<title>subsplit_DAG&#45;&#45;hillclimber</title>
<path fill="none" stroke="#000000" d="M641.9125,-894.0017C604.6711,-920.4667 532.7277,-971.5921 497.3779,-996.7129"/>
</g>
<!-- Bayesian_subtree_optimality -->
<g id="node30" class="node">
<title>Bayesian_subtree_optimality</title>
<g id="a_node30"><a xlink:title="How does the Bayesian posterior distribution of n taxa change when an n+1st taxon is added to the tree?">
<polygon fill="none" stroke="#000000" points="702.3452,-740.1734 541.64,-722.1734 702.3452,-704.1734 863.0504,-722.1734 702.3452,-740.1734"/>
<text text-anchor="middle" x="702.3452" y="-718.4734" font-family="Times,serif" font-size="14.00" fill="#000000">Bayesian_subtree_optimality</text>
</a>
</g>
</g>
<!-- subsplit_DAG&#45;&#45;Bayesian_subtree_optimality -->
<g id="edge13" class="edge">
<title>subsplit_DAG&#45;&#45;Bayesian_subtree_optimality</title>
<path fill="none" stroke="#000000" d="M669.7339,-859.1942C676.8477,-829.3045 690.9696,-769.9696 698.0653,-740.1558"/>
</g>
<!-- fasdag -->
<g id="node32" class="node">
<title>fasdag</title>
<g id="a_node32"><a xlink:title="Develop NJ and parsimony approaches to reconstructing the sDAG.">
<polygon fill="none" stroke="#000000" points="579.7709,-784.7899 532.1777,-766.7899 579.7709,-748.7899 627.3642,-766.7899 579.7709,-784.7899"/>
<text text-anchor="middle" x="579.7709" y="-763.0899" font-family="Times,serif" font-size="14.00" fill="#000000">fasdag</text>
</a>
</g>
</g>
<!-- subsplit_DAG&#45;&#45;fasdag -->
<g id="edge14" class="edge">
<title>subsplit_DAG&#45;&#45;fasdag</title>
<path fill="none" stroke="#000000" d="M651.6645,-859.5378C634.7344,-837.6967 606.3308,-801.0539 590.7758,-780.9869"/>
</g>
<!-- local_EM -->
<g id="node37" class="node">
<title>local_EM</title>
<g id="a_node37"><a xlink:title="Develop an EM algorithm for variational inference that uses local computation. Go Hogwild.">
<polygon fill="none" stroke="#000000" points="632.5308,-1049.8611 567.5096,-1031.8611 632.5308,-1013.8611 697.552,-1031.8611 632.5308,-1049.8611"/>
<text text-anchor="middle" x="632.5308" y="-1028.1611" font-family="Times,serif" font-size="14.00" fill="#000000">local_EM</text>
</a>
</g>
</g>
<!-- subsplit_DAG&#45;&#45;local_EM -->
<g id="edge10" class="edge">
<title>subsplit_DAG&#45;&#45;local_EM</title>
<path fill="none" stroke="#000000" d="M661.5886,-895.3254C655.2161,-925.2686 642.5321,-984.8673 636.2434,-1014.4165"/>
</g>
<!-- find_MAP_tree_in_subsplit_DAG -->
<g id="node39" class="node">
<title>find_MAP_tree_in_subsplit_DAG</title>
<g id="a_node39"><a xlink:title="Can we quickly find the MAP tree in the subsplit DAG?">
<polygon fill="none" stroke="#000000" points="523.4789,-939.4864 335.9628,-921.4864 523.4789,-903.4864 710.9951,-921.4864 523.4789,-939.4864"/>
<text text-anchor="middle" x="523.4789" y="-917.7864" font-family="Times,serif" font-size="14.00" fill="#000000">find_MAP_tree_in_subsplit_DAG</text>
</a>
</g>
</g>
<!-- subsplit_DAG&#45;&#45;find_MAP_tree_in_subsplit_DAG -->
<g id="edge15" class="edge">
<title>subsplit_DAG&#45;&#45;find_MAP_tree_in_subsplit_DAG</title>
<path fill="none" stroke="#000000" d="M623.2219,-890.432C605.7332,-895.877 585.439,-902.1955 567.7399,-907.706"/>
</g>
<!-- how_big_of_sDAG -->
<g id="node42" class="node">
<title>how_big_of_sDAG</title>
<g id="a_node42"><a xlink:title="How big of a subsplit DAG is actually required to get reasonable estimates (with uncertaintly quantification) of key parameters?">
<polygon fill="none" stroke="#000000" points="529.017,-1093.9775 415.9042,-1075.9775 529.017,-1057.9775 642.1297,-1075.9775 529.017,-1093.9775"/>
<text text-anchor="middle" x="529.017" y="-1072.2775" font-family="Times,serif" font-size="14.00" fill="#000000">how_big_of_sDAG</text>
</a>
</g>
</g>
<!-- subsplit_DAG&#45;&#45;how_big_of_sDAG -->
<g id="edge12" class="edge">
<title>subsplit_DAG&#45;&#45;how_big_of_sDAG</title>
<path fill="none" stroke="#000000" d="M653.0806,-895.2743C626.7818,-933.5794 565.5761,-1022.7278 540.2737,-1059.5816"/>
</g>
<!-- subsplit_DAG&#45;&#45;online_phylo_VI -->
<g id="edge7" class="edge">
<title>subsplit_DAG&#45;&#45;online_phylo_VI</title>
<path fill="none" stroke="#000000" d="M615.7525,-866.5822C577.6998,-858.3781 525.6132,-847.1483 488.5786,-839.1637"/>
</g>
<!-- Bayesian_histories -->
<g id="node45" class="node">
<title>Bayesian_histories</title>
<polygon fill="none" stroke="#000000" points="947.9809,-946.6957 828.9809,-946.6957 828.9809,-910.6957 947.9809,-910.6957 947.9809,-946.6957"/>
<text text-anchor="middle" x="888.4809" y="-924.9957" font-family="Times,serif" font-size="14.00" fill="#000000">Bayesian_histories</text>
</g>
<!-- subsplit_DAG&#45;&#45;Bayesian_histories -->
<g id="edge11" class="edge">
<title>subsplit_DAG&#45;&#45;Bayesian_histories</title>
<path fill="none" stroke="#000000" d="M714.1012,-888.5091C747.8142,-896.2784 792.904,-906.6696 828.7872,-914.939"/>
</g>
<!-- transport -->
<g id="node16" class="node">
<title>transport</title>
<g id="a_node16"><a xlink:title="Compare TCR repertoires via optimal transport.">
<ellipse fill="#ccebc5" stroke="#ccebc5" cx="1491.2245" cy="-152.9311" rx="42.4939" ry="18"/>
<text text-anchor="middle" x="1491.2245" y="-149.2311" font-family="Times,serif" font-size="14.00" fill="#000000">transport</text>
</a>
</g>
</g>
<!-- VI_diagnostics -->
<g id="node17" class="node">
<title>VI_diagnostics</title>
<g id="a_node17"><a xlink:title="How will we know if VI is giving a good approximation?">
<ellipse fill="#ccebc5" stroke="#ccebc5" cx="164.5166" cy="-576.4068" rx="63.8893" ry="18"/>
<text text-anchor="middle" x="164.5166" y="-572.7068" font-family="Times,serif" font-size="14.00" fill="#000000">VI_diagnostics</text>
</a>
</g>
</g>
<!-- VI_diagnostics&#45;&#45;phylogenetic_VI -->
<g id="edge3" class="edge">
<title>VI_diagnostics&#45;&#45;phylogenetic_VI</title>
<path fill="none" stroke="#000000" d="M179.1065,-594.23C202.3546,-622.63 247.549,-677.8398 270.8296,-706.2795"/>
</g>
<!-- CFT -->
<g id="node18" class="node">
<title>CFT</title>
<g id="a_node18"><a xlink:title="The Clonal Family Tree pipeline to do clonal family inference and then phylogenetics.">
<polygon fill="none" stroke="#000000" points="1312.2623,-942.8312 1279.3856,-955.2689 1246.5089,-942.8312 1246.5396,-922.7066 1312.2316,-922.7066 1312.2623,-942.8312"/>
<text text-anchor="middle" x="1279.3856" y="-933.5689" font-family="Times,serif" font-size="14.00" fill="#000000">CFT</text>
</a>
</g>
</g>
<!-- olmsted -->
<g id="node20" class="node">
<title>olmsted</title>
<g id="a_node20"><a xlink:title="A visualization tool for BCR lineages.">
<polygon fill="none" stroke="#000000" points="1516.4676,-1015.458 1468.062,-1027.8956 1419.6564,-1015.458 1419.7016,-995.3333 1516.4224,-995.3333 1516.4676,-1015.458"/>
<text text-anchor="middle" x="1468.062" y="-1006.1956" font-family="Times,serif" font-size="14.00" fill="#000000">olmsted</text>
</a>
</g>
</g>
<!-- CFT&#45;&#45;olmsted -->
<g id="edge39" class="edge">
<title>CFT&#45;&#45;olmsted</title>
<path fill="none" stroke="#000000" d="M1303.2816,-946.4672C1335.2113,-958.7578 1392.1539,-980.6765 1430.0189,-995.2518"/>
</g>
<!-- find_posterior_modes -->
<g id="node33" class="node">
<title>find_posterior_modes</title>
<g id="a_node33"><a xlink:title="Can we do something to quickly find posterior modes in the phylogenetic posterior? Can we do better than hillclimbing?">
<polygon fill="none" stroke="#000000" points="360.4689,-1178.1438 235.4582,-1160.1438 360.4689,-1142.1438 485.4797,-1160.1438 360.4689,-1178.1438"/>
<text text-anchor="middle" x="360.4689" y="-1156.4438" font-family="Times,serif" font-size="14.00" fill="#000000">find_posterior_modes</text>
</a>
</g>
</g>
<!-- hillclimber&#45;&#45;find_posterior_modes -->
<g id="edge16" class="edge">
<title>hillclimber&#45;&#45;find_posterior_modes</title>
<path fill="none" stroke="#000000" d="M464.5287,-1027.0096C442.3703,-1055.3591 395.7827,-1114.9633 373.2339,-1143.8123"/>
</g>
<!-- BCR_GWAS -->
<g id="node21" class="node">
<title>BCR_GWAS</title>
<g id="a_node21"><a xlink:title="Do a GWAS for BCR repertoire features. Can we learn about SHM too?">
<polygon fill="none" stroke="#000000" points="1174.1818,-573.4954 1090.3949,-555.4954 1174.1818,-537.4954 1257.9687,-555.4954 1174.1818,-573.4954"/>
<text text-anchor="middle" x="1174.1818" y="-551.7954" font-family="Times,serif" font-size="14.00" fill="#000000">BCR_GWAS</text>
</a>
</g>
</g>
<!-- BCR_GWAS&#45;&#45;TCR_GWAS -->
<g id="edge43" class="edge">
<title>BCR_GWAS&#45;&#45;TCR_GWAS</title>
<path fill="none" stroke="#000000" d="M1176.9847,-537.7517C1182.7559,-501.2164 1195.9104,-417.9417 1201.7134,-381.2056"/>
</g>
<!-- BCR_indels -->
<g id="node22" class="node">
<title>BCR_indels</title>
<g id="a_node22"><a xlink:title="What sequence features lead to indels in BCR sequences?">
<polygon fill="none" stroke="#000000" points="868.7143,-632.8659 792.6336,-614.8659 868.7143,-596.8659 944.795,-614.8659 868.7143,-632.8659"/>
<text text-anchor="middle" x="868.7143" y="-611.1659" font-family="Times,serif" font-size="14.00" fill="#000000">BCR_indels</text>
</a>
</g>
</g>
<!-- BCR_selection_analysis -->
<g id="node23" class="node">
<title>BCR_selection_analysis</title>
<g id="a_node23"><a xlink:title="Improve dN/dS analysis for BCR lineages, looking site&#45;wise and per&#45;lineage.">
<polygon fill="none" stroke="#000000" points="1207.6613,-907.9877 1070.7524,-889.9877 1207.6613,-871.9877 1344.5702,-889.9877 1207.6613,-907.9877"/>
<text text-anchor="middle" x="1207.6613" y="-886.2877" font-family="Times,serif" font-size="14.00" fill="#000000">BCR_selection_analysis</text>
</a>
</g>
</g>
<!-- BCR_trajectories -->
<g id="node24" class="node">
<title>BCR_trajectories</title>
<g id="a_node24"><a xlink:title="Look for patterns in BCR sequence evolution. Do they fall into &#39;trajectories&#39;?">
<polygon fill="none" stroke="#000000" points="1273.4672,-752.0743 1172.2525,-734.0743 1273.4672,-716.0743 1374.6819,-734.0743 1273.4672,-752.0743"/>
<text text-anchor="middle" x="1273.4672" y="-730.3743" font-family="Times,serif" font-size="14.00" fill="#000000">BCR_trajectories</text>
</a>
</g>
</g>
<!-- linearham_empirical_uncertainty -->
<g id="node29" class="node">
<title>linearham_empirical_uncertainty</title>
<g id="a_node29"><a xlink:title="linearham is our Bayesian method for doing inference of BCR lineage evolution. If we apply it to well&#45;known data sets from the literature, how much uncertainty is there in ancestral sequence inference?">
<polygon fill="none" stroke="#000000" points="1134.2109,-663.2629 953.063,-645.2629 1134.2109,-627.2629 1315.3589,-645.2629 1134.2109,-663.2629"/>
<text text-anchor="middle" x="1134.2109" y="-641.5629" font-family="Times,serif" font-size="14.00" fill="#000000">linearham_empirical_uncertainty</text>
</a>
</g>
</g>
<!-- SARS2_parsimony_plateau -->
<g id="node31" class="node">
<title>SARS2_parsimony_plateau</title>
<g id="a_node31"><a xlink:title="Use a graph to capture the ensemble of maximally&#45;parsimonious trees for SARS&#45;Cov&#45;2 data. How much uncertainty is there? How does PANGO look?">
<polygon fill="none" stroke="#000000" points="930.5828,-1075.3016 777.0843,-1057.3016 930.5828,-1039.3016 1084.0814,-1057.3016 930.5828,-1075.3016"/>
<text text-anchor="middle" x="930.5828" y="-1053.6016" font-family="Times,serif" font-size="14.00" fill="#000000">SARS2_parsimony_plateau</text>
</a>
</g>
</g>
<!-- help_PANGO -->
<g id="node34" class="node">
<title>help_PANGO</title>
<g id="a_node34"><a xlink:title="What sort of tooling would actually help PANGO do their job better?">
<polygon fill="none" stroke="#000000" points="810.9878,-1014.2873 725.5246,-996.2873 810.9878,-978.2873 896.4511,-996.2873 810.9878,-1014.2873"/>
<text text-anchor="middle" x="810.9878" y="-992.5873" font-family="Times,serif" font-size="14.00" fill="#000000">help_PANGO</text>
</a>
</g>
</g>
<!-- big_tree_likelihoods -->
<g id="node35" class="node">
<title>big_tree_likelihoods</title>
<g id="a_node35"><a xlink:title="How can we bridge the gap between parsimony and full Felsenstein likelihoods?">
<polygon fill="none" stroke="#000000" points="1022.1391,-1027.7354 904.3347,-1009.7354 1022.1391,-991.7354 1139.9436,-1009.7354 1022.1391,-1027.7354"/>
<text text-anchor="middle" x="1022.1391" y="-1006.0354" font-family="Times,serif" font-size="14.00" fill="#000000">big_tree_likelihoods</text>
</a>
</g>
</g>
<!-- fast_TreeTime -->
<g id="node38" class="node">
<title>fast_TreeTime</title>
<g id="a_node38"><a xlink:title="Speed up ML inference of time trees.">
<polygon fill="none" stroke="#000000" points="829.724,-1140.2259 740.4072,-1122.2259 829.724,-1104.2259 919.0408,-1122.2259 829.724,-1140.2259"/>
<text text-anchor="middle" x="829.724" y="-1118.5259" font-family="Times,serif" font-size="14.00" fill="#000000">fast_TreeTime</text>
</a>
</g>
</g>
<!-- polytomy_resolution -->
<g id="node40" class="node">
<title>polytomy_resolution</title>
<g id="a_node40"><a xlink:title="Can we quickly resolve sequence&#45;level polytomies using timing/geography?">
<polygon fill="none" stroke="#000000" points="746.689,-1327.5045 627.2081,-1309.5045 746.689,-1291.5045 866.1699,-1309.5045 746.689,-1327.5045"/>
<text text-anchor="middle" x="746.689" y="-1305.8045" font-family="Times,serif" font-size="14.00" fill="#000000">polytomy_resolution</text>
</a>
</g>
</g>
<!-- fast_TreeTime&#45;&#45;polytomy_resolution -->
<g id="edge24" class="edge">
<title>fast_TreeTime&#45;&#45;polytomy_resolution</title>
<path fill="none" stroke="#000000" d="M822.3552,-1138.8456C806.6773,-1174.2059 770.1543,-1256.5805 754.2808,-1292.3818"/>
</g>
<!-- how_big_of_sDAG&#45;&#45;find_posterior_modes -->
<g id="edge17" class="edge">
<title>how_big_of_sDAG&#45;&#45;find_posterior_modes</title>
<path fill="none" stroke="#000000" d="M501.5617,-1089.6876C470.4057,-1105.2457 419.8562,-1130.4881 388.4741,-1146.1591"/>
</g>
<!-- BCR_analysis -->
<g id="node44" class="node">
<title>BCR_analysis</title>
<polygon fill="none" stroke="#000000" points="1182.3005,-810.8769 1088.3005,-810.8769 1088.3005,-774.8769 1182.3005,-774.8769 1182.3005,-810.8769"/>
<text text-anchor="middle" x="1135.3005" y="-789.1769" font-family="Times,serif" font-size="14.00" fill="#000000">BCR_analysis</text>
</g>
<!-- BCR_analysis&#45;&#45;mechanistic_SHM -->
<g id="edge40" class="edge">
<title>BCR_analysis&#45;&#45;mechanistic_SHM</title>
<path fill="none" stroke="#000000" d="M1148.7002,-774.8337C1162.8197,-755.8213 1184.9203,-726.0619 1198.9816,-707.1278"/>
</g>
<!-- BCR_analysis&#45;&#45;paired_HL -->
<g id="edge36" class="edge">
<title>BCR_analysis&#45;&#45;paired_HL</title>
<path fill="none" stroke="#000000" d="M1182.4122,-799.4056C1210.6438,-803.318 1246.3693,-808.2688 1274.3547,-812.147"/>
</g>
<!-- BCR_analysis&#45;&#45;CFT -->
<g id="edge37" class="edge">
<title>BCR_analysis&#45;&#45;CFT</title>
<path fill="none" stroke="#000000" d="M1153.549,-811.1643C1182.476,-840.1529 1238.2862,-896.082 1264.7624,-922.6146"/>
</g>
<!-- BCR_analysis&#45;&#45;BCR_GWAS -->
<g id="edge42" class="edge">
<title>BCR_analysis&#45;&#45;BCR_GWAS</title>
<path fill="none" stroke="#000000" d="M1138.2869,-774.6442C1145.5599,-730.2406 1164.1186,-616.9341 1171.2913,-573.1429"/>
</g>
<!-- BCR_analysis&#45;&#45;BCR_indels -->
<g id="edge34" class="edge">
<title>BCR_analysis&#45;&#45;BCR_indels</title>
<path fill="none" stroke="#000000" d="M1108.2718,-774.8287C1054.6615,-739.0308 935.9719,-659.7767 888.7047,-628.2144"/>
</g>
<!-- BCR_analysis&#45;&#45;BCR_selection_analysis -->
<g id="edge32" class="edge">
<title>BCR_analysis&#45;&#45;BCR_selection_analysis</title>
<path fill="none" stroke="#000000" d="M1148.911,-811.1427C1162.2574,-829.054 1182.426,-856.121 1195.3184,-873.423"/>
</g>
<!-- BCR_analysis&#45;&#45;BCR_trajectories -->
<g id="edge33" class="edge">
<title>BCR_analysis&#45;&#45;BCR_trajectories</title>
<path fill="none" stroke="#000000" d="M1177.8825,-774.7544C1199.1323,-765.7106 1224.3251,-754.9888 1243.511,-746.8234"/>
</g>
<!-- BCR_analysis&#45;&#45;linearham_empirical_uncertainty -->
<g id="edge38" class="edge">
<title>BCR_analysis&#45;&#45;linearham_empirical_uncertainty</title>
<path fill="none" stroke="#000000" d="M1135.1669,-774.7766C1134.9578,-746.4454 1134.5554,-691.9333 1134.3456,-663.5113"/>
</g>
<!-- BCR_analysis&#45;&#45;Bayesian_histories -->
<g id="edge35" class="edge">
<title>BCR_analysis&#45;&#45;Bayesian_histories</title>
<path fill="none" stroke="#000000" d="M1102.5248,-810.9126C1055.3172,-836.8898 968.6752,-884.5668 921.3922,-910.5855"/>
</g>
<!-- Bayesian_histories&#45;&#45;Bayesian_GCtree -->
<g id="edge19" class="edge">
<title>Bayesian_histories&#45;&#45;Bayesian_GCtree</title>
<path fill="none" stroke="#000000" d="M896.2385,-946.7627C915.4126,-991.4181 964.8641,-1106.5879 983.9847,-1151.1186"/>
</g>
<!-- Bayesian_histories&#45;&#45;context_sensitive_phylo -->
<g id="edge18" class="edge">
<title>Bayesian_histories&#45;&#45;context_sensitive_phylo</title>
<path fill="none" stroke="#000000" d="M893.4866,-910.6269C899.9375,-887.3415 911.0826,-847.1113 917.4896,-823.9844"/>
</g>
<!-- Bayesian_histories&#45;&#45;SARS2_parsimony_plateau -->
<g id="edge20" class="edge">
<title>Bayesian_histories&#45;&#45;SARS2_parsimony_plateau</title>
<path fill="none" stroke="#000000" d="M894.4238,-946.8491C902.4932,-971.4981 916.8225,-1015.2689 924.8053,-1039.6535"/>
</g>
<!-- Bayesian_histories&#45;&#45;help_PANGO -->
<g id="edge21" class="edge">
<title>Bayesian_histories&#45;&#45;help_PANGO</title>
<path fill="none" stroke="#000000" d="M867.7142,-946.809C855.161,-957.7582 839.3726,-971.5293 827.6418,-981.7612"/>
</g>
<!-- Bayesian_histories&#45;&#45;big_tree_likelihoods -->
<g id="edge23" class="edge">
<title>Bayesian_histories&#45;&#45;big_tree_likelihoods</title>
<path fill="none" stroke="#000000" d="M918.4764,-946.8826C942.49,-961.4425 975.7309,-981.5971 998.0362,-995.1213"/>
</g>
<!-- Bayesian_histories&#45;&#45;fast_TreeTime -->
<g id="edge22" class="edge">
<title>Bayesian_histories&#45;&#45;fast_TreeTime</title>
<path fill="none" stroke="#000000" d="M882.9532,-946.9026C871.6404,-984.1642 845.9851,-1068.6661 834.9407,-1105.0434"/>
</g>
<!-- TCR_analysis -->
<g id="node46" class="node">
<title>TCR_analysis</title>
<polygon fill="none" stroke="#000000" points="1331.8992,-208.3578 1238.8992,-208.3578 1238.8992,-172.3578 1331.8992,-172.3578 1331.8992,-208.3578"/>
<text text-anchor="middle" x="1285.3992" y="-186.6578" font-family="Times,serif" font-size="14.00" fill="#000000">TCR_analysis</text>
</g>
<!-- TCR_analysis&#45;&#45;HLA_effects -->
<g id="edge45" class="edge">
<title>TCR_analysis&#45;&#45;HLA_effects</title>
<path fill="none" stroke="#000000" d="M1293.5485,-172.209C1307.5013,-141.1352 1335.7988,-78.1152 1349.655,-47.2567"/>
</g>
<!-- TCR_analysis&#45;&#45;TCR_GWAS -->
<g id="edge44" class="edge">
<title>TCR_analysis&#45;&#45;TCR_GWAS</title>
<path fill="none" stroke="#000000" d="M1276.9001,-208.5309C1261.3325,-241.8182 1228.4214,-312.1901 1212.9388,-345.2956"/>
</g>
<!-- TCR_analysis&#45;&#45;TCR_trimming_motifs -->
<g id="edge47" class="edge">
<title>TCR_analysis&#45;&#45;TCR_trimming_motifs</title>
<path fill="none" stroke="#000000" d="M1273.8365,-172.2383C1252.6573,-139.0491 1207.8828,-68.8847 1186.8193,-35.8768"/>
</g>
<!-- TCR_analysis&#45;&#45;transport -->
<g id="edge46" class="edge">
<title>TCR_analysis&#45;&#45;transport</title>
<path fill="none" stroke="#000000" d="M1332.1042,-181.8651C1368.3981,-175.2655 1418.1461,-166.2195 1452.3025,-160.0086"/>
</g>
<!-- train_awesome_researchers -->
<g id="node47" class="node">
<title>train_awesome_researchers</title>
<polygon fill="none" stroke="#000000" points="829.3176,-1726.9645 662.2367,-1726.9645 610.6058,-1885.7196 558.975,-1726.9645 391.8941,-1726.9645 527.0654,-1628.8485 475.4346,-1470.0935 610.6058,-1568.2095 745.7771,-1470.0935 694.1463,-1628.8485 829.3176,-1726.9645"/>
<text text-anchor="middle" x="610.6058" y="-1674.2065" font-family="Times,serif" font-size="14.00" fill="#000000">train_awesome_researchers</text>
</g>
<!-- diversify_comp_bio -->
<g id="node48" class="node">
<title>diversify_comp_bio</title>
<polygon fill="none" stroke="#000000" points="1799.8084,-1369.8619 1673.8572,-1369.8619 1634.9361,-1489.5909 1596.0151,-1369.8619 1470.0638,-1369.8619 1571.9605,-1295.8653 1533.0395,-1176.1363 1634.9361,-1250.1329 1736.8328,-1176.1363 1697.9118,-1295.8653 1799.8084,-1369.8619"/>
<text text-anchor="middle" x="1634.9361" y="-1329.1636" font-family="Times,serif" font-size="14.00" fill="#000000">diversify_comp_bio</text>
</g>
<!-- eradicate_disease -->
<g id="node49" class="node">
<title>eradicate_disease</title>
<polygon fill="none" stroke="#000000" points="976.4029,-464.8562 865.5548,-464.8562 831.3009,-570.5683 797.0469,-464.8562 686.1988,-464.8562 775.8768,-399.5225 741.6229,-293.8104 831.3009,-359.1441 920.9789,-293.8104 886.7249,-399.5225 976.4029,-464.8562"/>
<text text-anchor="middle" x="831.3009" y="-428.4894" font-family="Times,serif" font-size="14.00" fill="#000000">eradicate_disease</text>
</g>
</g>
</svg>
