<?xml version="1.0" encoding="UTF-8" standalone="no"?>
<!DOCTYPE svg PUBLIC "-//W3C//DTD SVG 1.1//EN"
 "http://www.w3.org/Graphics/SVG/1.1/DTD/svg11.dtd">
<!-- Generated by graphviz version 2.40.1 (20161225.0304)
 -->
<!-- Title: %3 Pages: 1 -->
<svg width="1991pt" height="1788pt"
 viewBox="0.00 0.00 1990.60 1788.38" xmlns="http://www.w3.org/2000/svg" xmlns:xlink="http://www.w3.org/1999/xlink">
<g id="graph0" class="graph" transform="scale(1 1) rotate(0) translate(4 1784.3787)">
<title>%3</title>
<polygon fill="#ffffff" stroke="transparent" points="-4,4 -4,-1784.3787 1986.6018,-1784.3787 1986.6018,4 -4,4"/>
<!-- Bayesian_GCtree -->
<g id="node1" class="node">
<title>Bayesian_GCtree</title>
<g id="a_node1"><a xlink:title="Do posterior estimation using Will&#39;s GCtree framework.">
<ellipse fill="#ccebc5" stroke="#ccebc5" cx="1106.5097" cy="-1023.7329" rx="72.5877" ry="18"/>
<text text-anchor="middle" x="1106.5097" y="-1020.0329" font-family="Times,serif" font-size="14.00" fill="#000000">Bayesian_GCtree</text>
</a>
</g>
</g>
<!-- GCreplay -->
<g id="node2" class="node">
<title>GCreplay</title>
<g id="a_node2"><a xlink:title="A big collaboration with the Victora and Bloom labs to understand GC maturation with replicate samples.">
<ellipse fill="#ccebc5" stroke="#ccebc5" cx="1307.8369" cy="-1140.2731" rx="44.6926" ry="18"/>
<text text-anchor="middle" x="1307.8369" y="-1136.5731" font-family="Times,serif" font-size="14.00" fill="#000000">GCreplay</text>
</a>
</g>
</g>
<!-- Bayesian_GCtree&#45;&#45;GCreplay -->
<g id="edge25" class="edge">
<title>Bayesian_GCtree&#45;&#45;GCreplay</title>
<path fill="none" stroke="#000000" d="M1135.355,-1040.4303C1174.7145,-1063.2139 1244.6398,-1103.6908 1282.2333,-1125.4522"/>
</g>
<!-- GCtree_with_heritable -->
<g id="node37" class="node">
<title>GCtree_with_heritable</title>
<g id="a_node37"><a xlink:title="GCtree operates under the assumption of a neutral branching process, the parameters of which do not change through the tree. Can we extend this to a process with a heritable component?">
<polygon fill="none" stroke="#000000" points="1187.7683,-1202.3185 1058.904,-1184.3185 1187.7683,-1166.3185 1316.6326,-1184.3185 1187.7683,-1202.3185"/>
<text text-anchor="middle" x="1187.7683" y="-1180.6185" font-family="Times,serif" font-size="14.00" fill="#000000">GCtree_with_heritable</text>
</a>
</g>
</g>
<!-- Bayesian_GCtree&#45;&#45;GCtree_with_heritable -->
<g id="edge26" class="edge">
<title>Bayesian_GCtree&#45;&#45;GCtree_with_heritable</title>
<path fill="none" stroke="#000000" d="M1115.6731,-1041.842C1131.5285,-1073.1758 1163.8569,-1137.0641 1179.2515,-1167.4873"/>
</g>
<!-- antibody_DMS -->
<g id="node13" class="node">
<title>antibody_DMS</title>
<g id="a_node13"><a xlink:title="What can we learn from deep mutational scanning on antibodies?">
<ellipse fill="#ccebc5" stroke="#ccebc5" cx="1449.7518" cy="-1290.6178" rx="65.7887" ry="18"/>
<text text-anchor="middle" x="1449.7518" y="-1286.9178" font-family="Times,serif" font-size="14.00" fill="#000000">antibody_DMS</text>
</a>
</g>
</g>
<!-- GCreplay&#45;&#45;antibody_DMS -->
<g id="edge28" class="edge">
<title>GCreplay&#45;&#45;antibody_DMS</title>
<path fill="none" stroke="#000000" d="M1323.8405,-1157.2273C1350.9513,-1185.9486 1405.6392,-1243.8849 1433.1499,-1273.0298"/>
</g>
<!-- torchdms -->
<g id="node16" class="node">
<title>torchdms</title>
<g id="a_node16"><a xlink:title="Develop a DMS analysis package using a modern machine&#45;learning library.">
<ellipse fill="#ccebc5" stroke="#ccebc5" cx="1491.11" cy="-1150.617" rx="44.393" ry="18"/>
<text text-anchor="middle" x="1491.11" y="-1146.917" font-family="Times,serif" font-size="14.00" fill="#000000">torchdms</text>
</a>
</g>
</g>
<!-- GCreplay&#45;&#45;torchdms -->
<g id="edge27" class="edge">
<title>GCreplay&#45;&#45;torchdms</title>
<path fill="none" stroke="#000000" d="M1352.6706,-1142.8035C1381.389,-1144.4244 1418.4908,-1146.5184 1447.0558,-1148.1306"/>
</g>
<!-- HLA_effects -->
<g id="node3" class="node">
<title>HLA_effects</title>
<g id="a_node3"><a xlink:title="Assya&#39;s project understanding the effects of HLA on repertoire.">
<ellipse fill="#ccebc5" stroke="#ccebc5" cx="1128.5074" cy="-18" rx="56.59" ry="18"/>
<text text-anchor="middle" x="1128.5074" y="-14.3" font-family="Times,serif" font-size="14.00" fill="#000000">HLA_effects</text>
</a>
</g>
</g>
<!-- PhIP_seq -->
<g id="node4" class="node">
<title>PhIP_seq</title>
<g id="a_node4"><a xlink:title="Develop statistics and software tools for PhIP&#45;seq analyses.">
<ellipse fill="#ccebc5" stroke="#ccebc5" cx="1510.627" cy="-1469.6275" rx="44.393" ry="18"/>
<text text-anchor="middle" x="1510.627" y="-1465.9275" font-family="Times,serif" font-size="14.00" fill="#000000">PhIP_seq</text>
</a>
</g>
</g>
<!-- TCR_GWAS -->
<g id="node5" class="node">
<title>TCR_GWAS</title>
<g id="a_node5"><a xlink:title="GWAS to infer TCR&#45;repertoire features.">
<ellipse fill="#ccebc5" stroke="#ccebc5" cx="1061.291" cy="-384.8698" rx="58.4896" ry="18"/>
<text text-anchor="middle" x="1061.291" y="-381.1698" font-family="Times,serif" font-size="14.00" fill="#000000">TCR_GWAS</text>
</a>
</g>
</g>
<!-- TCR_trimming_motifs -->
<g id="node6" class="node">
<title>TCR_trimming_motifs</title>
<g id="a_node6"><a xlink:title="What sequence&#45;level features determine trimming of TCRs in VDJ recombination?">
<ellipse fill="#ccebc5" stroke="#ccebc5" cx="948.2323" cy="-50.5404" rx="92.8835" ry="18"/>
<text text-anchor="middle" x="948.2323" y="-46.8404" font-family="Times,serif" font-size="14.00" fill="#000000">TCR_trimming_motifs</text>
</a>
</g>
</g>
<!-- bito -->
<g id="node7" class="node">
<title>bito</title>
<g id="a_node7"><a xlink:title="Bayesian Inference of Trees via Optimization: a C++/python package">
<ellipse fill="#ccebc5" stroke="#ccebc5" cx="363.596" cy="-1003.8496" rx="27" ry="18"/>
<text text-anchor="middle" x="363.596" y="-1000.1496" font-family="Times,serif" font-size="14.00" fill="#000000">bito</text>
</a>
</g>
</g>
<!-- autodiff_gradients -->
<g id="node8" class="node">
<title>autodiff_gradients</title>
<g id="a_node8"><a xlink:title="How fast is autodiff for phylogenetically&#45;relevant gradients?">
<ellipse fill="#ccebc5" stroke="#ccebc5" cx="265.5934" cy="-857.5248" rx="75.2868" ry="18"/>
<text text-anchor="middle" x="265.5934" y="-853.8248" font-family="Times,serif" font-size="14.00" fill="#000000">autodiff_gradients</text>
</a>
</g>
</g>
<!-- bito&#45;&#45;autodiff_gradients -->
<g id="edge4" class="edge">
<title>bito&#45;&#45;autodiff_gradients</title>
<path fill="none" stroke="#000000" d="M352.5443,-987.3487C334.0225,-959.6944 296.862,-904.211 277.6742,-875.5622"/>
</g>
<!-- phylogenetic_VI -->
<g id="node12" class="node">
<title>phylogenetic_VI</title>
<g id="a_node12"><a xlink:title="Do variational inference of continuous parameters in phylogenetics.">
<ellipse fill="#ccebc5" stroke="#ccebc5" cx="239.047" cy="-1123.6935" rx="69.5877" ry="18"/>
<text text-anchor="middle" x="239.047" y="-1119.9935" font-family="Times,serif" font-size="14.00" fill="#000000">phylogenetic_VI</text>
</a>
</g>
</g>
<!-- bito&#45;&#45;phylogenetic_VI -->
<g id="edge2" class="edge">
<title>bito&#45;&#45;phylogenetic_VI</title>
<path fill="none" stroke="#000000" d="M348.0736,-1018.7856C324.9892,-1040.9979 281.7068,-1082.6452 257.1918,-1106.2341"/>
</g>
<!-- subsplit_DAG -->
<g id="node15" class="node">
<title>subsplit_DAG</title>
<g id="a_node15"><a xlink:title="Formalize definitions of and basic lemmas for the subsplit DAG.">
<ellipse fill="#ccebc5" stroke="#ccebc5" cx="684.9991" cy="-1091.9086" rx="61.99" ry="18"/>
<text text-anchor="middle" x="684.9991" y="-1088.2086" font-family="Times,serif" font-size="14.00" fill="#000000">subsplit_DAG</text>
</a>
</g>
</g>
<!-- bito&#45;&#45;subsplit_DAG -->
<g id="edge5" class="edge">
<title>bito&#45;&#45;subsplit_DAG</title>
<path fill="none" stroke="#000000" d="M388.8159,-1010.7594C443.0521,-1025.6192 571.4054,-1060.7859 639.9763,-1079.5731"/>
</g>
<!-- generalized_pruning -->
<g id="node9" class="node">
<title>generalized_pruning</title>
<g id="a_node9"><a xlink:title="Generalization of the Felsenstein pruning algorithm to the subsplit DAG.">
<ellipse fill="#ccebc5" stroke="#ccebc5" cx="622.7514" cy="-939.6414" rx="83.3857" ry="18"/>
<text text-anchor="middle" x="622.7514" y="-935.9414" font-family="Times,serif" font-size="14.00" fill="#000000">generalized_pruning</text>
</a>
</g>
</g>
<!-- mechanistic_SHM -->
<g id="node10" class="node">
<title>mechanistic_SHM</title>
<g id="a_node10"><a xlink:title="Design and fit mechanistically&#45;based probabilistic models of the somatic hypermutation process.">
<ellipse fill="#ccebc5" stroke="#ccebc5" cx="999.0362" cy="-692.7797" rx="77.1866" ry="18"/>
<text text-anchor="middle" x="999.0362" y="-689.0797" font-family="Times,serif" font-size="14.00" fill="#000000">mechanistic_SHM</text>
</a>
</g>
</g>
<!-- context_sensitive_phylo -->
<g id="node28" class="node">
<title>context_sensitive_phylo</title>
<g id="a_node28"><a xlink:title="Develop phyogenetic methods that enable inference under context&#45;sensitive models.">
<polygon fill="none" stroke="#000000" points="863.809,-873.918 727.7384,-855.918 863.809,-837.918 999.8795,-855.918 863.809,-873.918"/>
<text text-anchor="middle" x="863.809" y="-852.218" font-family="Times,serif" font-size="14.00" fill="#000000">context_sensitive_phylo</text>
</a>
</g>
</g>
<!-- mechanistic_SHM&#45;&#45;context_sensitive_phylo -->
<g id="edge50" class="edge">
<title>mechanistic_SHM&#45;&#45;context_sensitive_phylo</title>
<path fill="none" stroke="#000000" d="M984.3071,-710.5489C957.8842,-742.4254 902.814,-808.8623 877.3094,-839.6311"/>
</g>
<!-- SHM_across_ages -->
<g id="node30" class="node">
<title>SHM_across_ages</title>
<g id="a_node30"><a xlink:title="Perform a detailed investigation of how SHM changes as people age.">
<polygon fill="none" stroke="#000000" points="1282.1226,-563.2663 1173.7015,-545.2663 1282.1226,-527.2663 1390.5437,-545.2663 1282.1226,-563.2663"/>
<text text-anchor="middle" x="1282.1226" y="-541.5663" font-family="Times,serif" font-size="14.00" fill="#000000">SHM_across_ages</text>
</a>
</g>
</g>
<!-- mechanistic_SHM&#45;&#45;SHM_across_ages -->
<g id="edge43" class="edge">
<title>mechanistic_SHM&#45;&#45;SHM_across_ages</title>
<path fill="none" stroke="#000000" d="M1030.6858,-676.2874C1086.9543,-646.9665 1203.3888,-586.2937 1255.6823,-559.0441"/>
</g>
<!-- paired_HL -->
<g id="node11" class="node">
<title>paired_HL</title>
<g id="a_node11"><a xlink:title="Perform clonal family inference with paired heavy and light chain sequences.">
<ellipse fill="#ccebc5" stroke="#ccebc5" cx="1306.4312" cy="-810.7604" rx="48.9926" ry="18"/>
<text text-anchor="middle" x="1306.4312" y="-807.0604" font-family="Times,serif" font-size="14.00" fill="#000000">paired_HL</text>
</a>
</g>
</g>
<!-- B_cell_CONGA -->
<g id="node27" class="node">
<title>B_cell_CONGA</title>
<g id="a_node27"><a xlink:title="Adapt CONGA (https://paperpile.com/shared/w2jo9E) for BCR sequences.">
<polygon fill="none" stroke="#000000" points="1535.5944,-774.9637 1437.3945,-756.9637 1535.5944,-738.9637 1633.7942,-756.9637 1535.5944,-774.9637"/>
<text text-anchor="middle" x="1535.5944" y="-753.2637" font-family="Times,serif" font-size="14.00" fill="#000000">B_cell_CONGA</text>
</a>
</g>
</g>
<!-- paired_HL&#45;&#45;B_cell_CONGA -->
<g id="edge51" class="edge">
<title>paired_HL&#45;&#45;B_cell_CONGA</title>
<path fill="none" stroke="#000000" d="M1347.6656,-801.0805C1388.515,-791.491 1450.821,-776.8645 1492.3554,-767.1142"/>
</g>
<!-- adaptive_MCMC -->
<g id="node42" class="node">
<title>adaptive_MCMC</title>
<g id="a_node42"><a xlink:title="Use variational inference as a proposal distribution for MCMC.">
<polygon fill="none" stroke="#000000" points="115.0034,-1288.0937 11.2736,-1270.0937 115.0034,-1252.0937 218.7331,-1270.0937 115.0034,-1288.0937"/>
<text text-anchor="middle" x="115.0034" y="-1266.3937" font-family="Times,serif" font-size="14.00" fill="#000000">adaptive_MCMC</text>
</a>
</g>
</g>
<!-- phylogenetic_VI&#45;&#45;adaptive_MCMC -->
<g id="edge1" class="edge">
<title>phylogenetic_VI&#45;&#45;adaptive_MCMC</title>
<path fill="none" stroke="#000000" d="M224.0844,-1141.3527C199.7272,-1170.0999 151.8793,-1226.5715 128.5023,-1254.1618"/>
</g>
<!-- online_phylo_VI -->
<g id="node44" class="node">
<title>online_phylo_VI</title>
<g id="a_node44"><a xlink:title="Online (i.e. incremental) phylogenetic variational inference.">
<polygon fill="none" stroke="#000000" points="441.6216,-1163.6982 341.245,-1145.6982 441.6216,-1127.6982 541.9983,-1145.6982 441.6216,-1163.6982"/>
<text text-anchor="middle" x="441.6216" y="-1141.9982" font-family="Times,serif" font-size="14.00" fill="#000000">online_phylo_VI</text>
</a>
</g>
</g>
<!-- phylogenetic_VI&#45;&#45;online_phylo_VI -->
<g id="edge6" class="edge">
<title>phylogenetic_VI&#45;&#45;online_phylo_VI</title>
<path fill="none" stroke="#000000" d="M303.4212,-1130.6861C327.5186,-1133.3037 354.8454,-1136.2721 378.8006,-1138.8743"/>
</g>
<!-- antibody_DMS&#45;&#45;PhIP_seq -->
<g id="edge30" class="edge">
<title>antibody_DMS&#45;&#45;PhIP_seq</title>
<path fill="none" stroke="#000000" d="M1455.9238,-1308.7673C1467.6217,-1343.166 1492.8889,-1417.4668 1504.5291,-1451.6961"/>
</g>
<!-- antibody_DMS&#45;&#45;torchdms -->
<g id="edge29" class="edge">
<title>antibody_DMS&#45;&#45;torchdms</title>
<path fill="none" stroke="#000000" d="M1455.074,-1272.6017C1463.0153,-1245.7198 1477.8788,-1195.4056 1485.8083,-1168.5639"/>
</g>
<!-- dms_view2 -->
<g id="node29" class="node">
<title>dms_view2</title>
<g id="a_node29"><a xlink:title="Develop the next version of dms&#45;view, with abilities to compare between data sets and also show K_D inferences.">
<polygon fill="none" stroke="#000000" points="1653.2946,-1318.8182 1579.7294,-1300.8182 1653.2946,-1282.8182 1726.8598,-1300.8182 1653.2946,-1318.8182"/>
<text text-anchor="middle" x="1653.2946" y="-1297.1182" font-family="Times,serif" font-size="14.00" fill="#000000">dms_view2</text>
</a>
</g>
</g>
<!-- antibody_DMS&#45;&#45;dms_view2 -->
<g id="edge31" class="edge">
<title>antibody_DMS&#45;&#45;dms_view2</title>
<path fill="none" stroke="#000000" d="M1514.4337,-1293.8593C1539.2283,-1295.1018 1567.4256,-1296.5149 1591.9032,-1297.7416"/>
</g>
<!-- SARS2_parsimony_plateau -->
<g id="node14" class="node">
<title>SARS2_parsimony_plateau</title>
<g id="a_node14"><a xlink:title="Use a graph to capture the ensemble of maximally&#45;parsimonious trees for SARS&#45;Cov&#45;2 data. How much uncertainty is there? How does PANGO look?">
<ellipse fill="#ccebc5" stroke="#ccebc5" cx="831.9386" cy="-1139.3827" rx="108.5808" ry="18"/>
<text text-anchor="middle" x="831.9386" y="-1135.6827" font-family="Times,serif" font-size="14.00" fill="#000000">SARS2_parsimony_plateau</text>
</a>
</g>
</g>
<!-- subsplit_DAG&#45;&#45;generalized_pruning -->
<g id="edge9" class="edge">
<title>subsplit_DAG&#45;&#45;generalized_pruning</title>
<path fill="none" stroke="#000000" d="M677.6141,-1073.8436C665.6339,-1044.5385 642.1008,-986.973 630.1268,-957.6829"/>
</g>
<!-- hillclimber -->
<g id="node20" class="node">
<title>hillclimber</title>
<g id="a_node20"><a xlink:title="What happens when we start ML algorithms at random starting points? What does it tell us about the phylogenetic likelihood surface?">
<polygon fill="#fccde5" stroke="#fccde5" points="766.1116,-1339.9459 704.3919,-1352.3836 642.6721,-1339.9459 642.7297,-1319.8213 766.054,-1319.8213 766.1116,-1339.9459"/>
<text text-anchor="middle" x="704.3919" y="-1330.6836" font-family="Times,serif" font-size="14.00" fill="#000000">hillclimber</text>
</a>
</g>
</g>
<!-- subsplit_DAG&#45;&#45;hillclimber -->
<g id="edge8" class="edge">
<title>subsplit_DAG&#45;&#45;hillclimber</title>
<path fill="none" stroke="#000000" d="M686.4568,-1110.1337C690.1564,-1156.3914 699.8551,-1277.6581 703.2211,-1319.7448"/>
</g>
<!-- Bayesian_subtree_optimality -->
<g id="node32" class="node">
<title>Bayesian_subtree_optimality</title>
<g id="a_node32"><a xlink:title="How does the Bayesian posterior distribution of n taxa change when an n+1st taxon is added to the tree?">
<polygon fill="#fccde5" stroke="#fccde5" points="564.8786,-1216.4321 404.1734,-1198.4321 564.8786,-1180.4321 725.5837,-1198.4321 564.8786,-1216.4321"/>
<text text-anchor="middle" x="564.8786" y="-1194.7321" font-family="Times,serif" font-size="14.00" fill="#000000">Bayesian_subtree_optimality</text>
</a>
</g>
</g>
<!-- subsplit_DAG&#45;&#45;Bayesian_subtree_optimality -->
<g id="edge13" class="edge">
<title>subsplit_DAG&#45;&#45;Bayesian_subtree_optimality</title>
<path fill="none" stroke="#000000" d="M665.6997,-1109.0235C642.886,-1129.2548 605.2159,-1162.6607 582.9512,-1182.4052"/>
</g>
<!-- fasdag -->
<g id="node33" class="node">
<title>fasdag</title>
<g id="a_node33"><a xlink:title="Develop NJ and parsimony approaches to reconstructing the sDAG.">
<polygon fill="#fccde5" stroke="#fccde5" points="495.5002,-913.601 447.907,-895.601 495.5002,-877.601 543.0935,-895.601 495.5002,-913.601"/>
<text text-anchor="middle" x="495.5002" y="-891.901" font-family="Times,serif" font-size="14.00" fill="#000000">fasdag</text>
</a>
</g>
</g>
<!-- subsplit_DAG&#45;&#45;fasdag -->
<g id="edge14" class="edge">
<title>subsplit_DAG&#45;&#45;fasdag</title>
<path fill="none" stroke="#000000" d="M668.1824,-1074.4876C630.863,-1035.8274 541.789,-943.5529 508.4181,-908.983"/>
</g>
<!-- local_EM -->
<g id="node38" class="node">
<title>local_EM</title>
<g id="a_node38"><a xlink:title="Develop an EM algorithm for variational inference that uses local computation. Go Hogwild.">
<polygon fill="#fccde5" stroke="#fccde5" points="732.4388,-1264.3279 667.4176,-1246.3279 732.4388,-1228.3279 797.46,-1246.3279 732.4388,-1264.3279"/>
<text text-anchor="middle" x="732.4388" y="-1242.6279" font-family="Times,serif" font-size="14.00" fill="#000000">local_EM</text>
</a>
</g>
</g>
<!-- subsplit_DAG&#45;&#45;local_EM -->
<g id="edge10" class="edge">
<title>subsplit_DAG&#45;&#45;local_EM</title>
<path fill="none" stroke="#000000" d="M690.5339,-1109.9247C699.7728,-1139.9979 718.2105,-1200.014 727.2287,-1229.3687"/>
</g>
<!-- find_MAP_tree_in_subsplit_DAG -->
<g id="node40" class="node">
<title>find_MAP_tree_in_subsplit_DAG</title>
<g id="a_node40"><a xlink:title="Can we quickly find the MAP tree in the subsplit DAG?">
<polygon fill="#fccde5" stroke="#fccde5" points="561.3912,-1065.8664 373.875,-1047.8664 561.3912,-1029.8664 748.9073,-1047.8664 561.3912,-1065.8664"/>
<text text-anchor="middle" x="561.3912" y="-1044.1664" font-family="Times,serif" font-size="14.00" fill="#000000">find_MAP_tree_in_subsplit_DAG</text>
</a>
</g>
</g>
<!-- subsplit_DAG&#45;&#45;find_MAP_tree_in_subsplit_DAG -->
<g id="edge15" class="edge">
<title>subsplit_DAG&#45;&#45;find_MAP_tree_in_subsplit_DAG</title>
<path fill="none" stroke="#000000" d="M645.8888,-1077.9734C631.743,-1072.9332 615.7553,-1067.2367 601.5231,-1062.1657"/>
</g>
<!-- how_big_of_sDAG -->
<g id="node43" class="node">
<title>how_big_of_sDAG</title>
<g id="a_node43"><a xlink:title="How big of a subsplit DAG is actually required to get reasonable estimates (with uncertaintly quantification) of key parameters?">
<polygon fill="none" stroke="#000000" points="556.5386,-1308.3517 443.4259,-1290.3517 556.5386,-1272.3517 669.6513,-1290.3517 556.5386,-1308.3517"/>
<text text-anchor="middle" x="556.5386" y="-1286.6517" font-family="Times,serif" font-size="14.00" fill="#000000">how_big_of_sDAG</text>
</a>
</g>
</g>
<!-- subsplit_DAG&#45;&#45;how_big_of_sDAG -->
<g id="edge12" class="edge">
<title>subsplit_DAG&#45;&#45;how_big_of_sDAG</title>
<path fill="none" stroke="#000000" d="M673.3726,-1109.8691C648.6063,-1148.1275 590.9673,-1237.167 567.1394,-1273.9758"/>
</g>
<!-- subsplit_DAG&#45;&#45;online_phylo_VI -->
<g id="edge7" class="edge">
<title>subsplit_DAG&#45;&#45;online_phylo_VI</title>
<path fill="none" stroke="#000000" d="M635.7481,-1102.7938C592.1342,-1112.433 529.0018,-1126.3861 486.6954,-1135.7363"/>
</g>
<!-- Bayesian_histories -->
<g id="node46" class="node">
<title>Bayesian_histories</title>
<polygon fill="none" stroke="#000000" points="959.8014,-1026.7825 840.8014,-1026.7825 840.8014,-990.7825 959.8014,-990.7825 959.8014,-1026.7825"/>
<text text-anchor="middle" x="900.3014" y="-1005.0825" font-family="Times,serif" font-size="14.00" fill="#000000">Bayesian_histories</text>
</g>
<!-- subsplit_DAG&#45;&#45;Bayesian_histories -->
<g id="edge11" class="edge">
<title>subsplit_DAG&#45;&#45;Bayesian_histories</title>
<path fill="none" stroke="#000000" d="M722.5019,-1077.4292C758.8867,-1063.3814 814.208,-1042.0223 853.4679,-1026.8645"/>
</g>
<!-- transport -->
<g id="node17" class="node">
<title>transport</title>
<g id="a_node17"><a xlink:title="Compare TCR repertoires via optimal transport.">
<ellipse fill="#ccebc5" stroke="#ccebc5" cx="1292.5407" cy="-103.3829" rx="42.4939" ry="18"/>
<text text-anchor="middle" x="1292.5407" y="-99.6829" font-family="Times,serif" font-size="14.00" fill="#000000">transport</text>
</a>
</g>
</g>
<!-- VI_diagnostics -->
<g id="node18" class="node">
<title>VI_diagnostics</title>
<g id="a_node18"><a xlink:title="How will we know if VI is giving a good approximation?">
<ellipse fill="#ccebc5" stroke="#ccebc5" cx="63.6943" cy="-1052.3094" rx="63.8893" ry="18"/>
<text text-anchor="middle" x="63.6943" y="-1048.6094" font-family="Times,serif" font-size="14.00" fill="#000000">VI_diagnostics</text>
</a>
</g>
</g>
<!-- VI_diagnostics&#45;&#45;phylogenetic_VI -->
<g id="edge3" class="edge">
<title>VI_diagnostics&#45;&#45;phylogenetic_VI</title>
<path fill="none" stroke="#000000" d="M100.0275,-1067.1002C129.7211,-1079.1881 171.5457,-1096.2145 201.5505,-1108.429"/>
</g>
<!-- CFT -->
<g id="node19" class="node">
<title>CFT</title>
<g id="a_node19"><a xlink:title="The Clonal Family Tree pipeline to do clonal family inference and then phylogenetics.">
<polygon fill="none" stroke="#000000" points="886.2773,-667.236 853.4006,-679.6737 820.5239,-667.236 820.5546,-647.1114 886.2466,-647.1114 886.2773,-667.236"/>
<text text-anchor="middle" x="853.4006" y="-657.9737" font-family="Times,serif" font-size="14.00" fill="#000000">CFT</text>
</a>
</g>
</g>
<!-- olmsted -->
<g id="node21" class="node">
<title>olmsted</title>
<g id="a_node21"><a xlink:title="A visualization tool for BCR lineages.">
<polygon fill="none" stroke="#000000" points="807.8909,-497.6135 759.4853,-510.0512 711.0797,-497.6135 711.1248,-477.4889 807.8457,-477.4889 807.8909,-497.6135"/>
<text text-anchor="middle" x="759.4853" y="-488.3512" font-family="Times,serif" font-size="14.00" fill="#000000">olmsted</text>
</a>
</g>
</g>
<!-- CFT&#45;&#45;olmsted -->
<g id="edge41" class="edge">
<title>CFT&#45;&#45;olmsted</title>
<path fill="none" stroke="#000000" d="M845.2305,-646.9176C827.6475,-615.1605 786.3493,-540.571 768.2474,-507.8767"/>
</g>
<!-- find_posterior_modes -->
<g id="node34" class="node">
<title>find_posterior_modes</title>
<g id="a_node34"><a xlink:title="Can we do something to quickly find posterior modes in the phylogenetic posterior? Can we do better than hillclimbing?">
<polygon fill="#fccde5" stroke="#fccde5" points="582.3116,-1510.391 457.3008,-1492.391 582.3116,-1474.391 707.3223,-1492.391 582.3116,-1510.391"/>
<text text-anchor="middle" x="582.3116" y="-1488.691" font-family="Times,serif" font-size="14.00" fill="#000000">find_posterior_modes</text>
</a>
</g>
</g>
<!-- hillclimber&#45;&#45;find_posterior_modes -->
<g id="edge16" class="edge">
<title>hillclimber&#45;&#45;find_posterior_modes</title>
<path fill="none" stroke="#000000" d="M692.24,-1350.1116C669.0809,-1380.0862 618.8257,-1445.1311 595.1456,-1475.7801"/>
</g>
<!-- BCR_GWAS -->
<g id="node22" class="node">
<title>BCR_GWAS</title>
<g id="a_node22"><a xlink:title="Do a GWAS for BCR repertoire features. Can we learn about SHM too?">
<polygon fill="none" stroke="#000000" points="1026.568,-604.4935 942.7811,-586.4935 1026.568,-568.4935 1110.3548,-586.4935 1026.568,-604.4935"/>
<text text-anchor="middle" x="1026.568" y="-582.7935" font-family="Times,serif" font-size="14.00" fill="#000000">BCR_GWAS</text>
</a>
</g>
</g>
<!-- BCR_GWAS&#45;&#45;TCR_GWAS -->
<g id="edge45" class="edge">
<title>BCR_GWAS&#45;&#45;TCR_GWAS</title>
<path fill="none" stroke="#000000" d="M1029.5887,-568.9534C1036.1226,-531.0134 1051.5139,-441.642 1058.1527,-403.0931"/>
</g>
<!-- BCR_indels -->
<g id="node23" class="node">
<title>BCR_indels</title>
<g id="a_node23"><a xlink:title="What sequence features lead to indels in BCR sequences?">
<polygon fill="none" stroke="#000000" points="1221.4798,-888.1738 1145.3991,-870.1738 1221.4798,-852.1738 1297.5604,-870.1738 1221.4798,-888.1738"/>
<text text-anchor="middle" x="1221.4798" y="-866.4738" font-family="Times,serif" font-size="14.00" fill="#000000">BCR_indels</text>
</a>
</g>
</g>
<!-- clonal_families_with_indels -->
<g id="node24" class="node">
<title>clonal_families_with_indels</title>
<g id="a_node24"><a xlink:title="Can we do better clonal family clustering in the presence of indels?">
<polygon fill="none" stroke="#000000" points="1240.8346,-712.1855 1084.8208,-694.1855 1240.8346,-676.1855 1396.8485,-694.1855 1240.8346,-712.1855"/>
<text text-anchor="middle" x="1240.8346" y="-690.4855" font-family="Times,serif" font-size="14.00" fill="#000000">clonal_families_with_indels</text>
</a>
</g>
</g>
<!-- BCR_selection_analysis -->
<g id="node25" class="node">
<title>BCR_selection_analysis</title>
<g id="a_node25"><a xlink:title="Improve dN/dS analysis for BCR lineages, looking site&#45;wise and per&#45;lineage.">
<polygon fill="none" stroke="#000000" points="1154.6433,-932.2239 1017.7344,-914.2239 1154.6433,-896.2239 1291.5522,-914.2239 1154.6433,-932.2239"/>
<text text-anchor="middle" x="1154.6433" y="-910.5239" font-family="Times,serif" font-size="14.00" fill="#000000">BCR_selection_analysis</text>
</a>
</g>
</g>
<!-- BCR_trajectories -->
<g id="node26" class="node">
<title>BCR_trajectories</title>
<g id="a_node26"><a xlink:title="Look for patterns in BCR sequence evolution. Do they fall into &#39;trajectories&#39;?">
<polygon fill="none" stroke="#000000" points="868.7265,-754.8153 767.5117,-736.8153 868.7265,-718.8153 969.9412,-736.8153 868.7265,-754.8153"/>
<text text-anchor="middle" x="868.7265" y="-733.1153" font-family="Times,serif" font-size="14.00" fill="#000000">BCR_trajectories</text>
</a>
</g>
</g>
<!-- linearham_empirical_uncertainty -->
<g id="node31" class="node">
<title>linearham_empirical_uncertainty</title>
<g id="a_node31"><a xlink:title="linearham is our Bayesian method for doing inference of BCR lineage evolution. If we apply it to well&#45;known data sets from the literature, how much uncertainty is there in ancestral sequence inference?">
<polygon fill="none" stroke="#000000" points="1248.1318,-769.2259 1066.9839,-751.2259 1248.1318,-733.2259 1429.2798,-751.2259 1248.1318,-769.2259"/>
<text text-anchor="middle" x="1248.1318" y="-747.5259" font-family="Times,serif" font-size="14.00" fill="#000000">linearham_empirical_uncertainty</text>
</a>
</g>
</g>
<!-- help_PANGO -->
<g id="node35" class="node">
<title>help_PANGO</title>
<g id="a_node35"><a xlink:title="What sort of tooling would actually help PANGO do their job better?">
<polygon fill="none" stroke="#000000" points="1033.9991,-1151.696 948.5358,-1133.696 1033.9991,-1115.696 1119.4623,-1133.696 1033.9991,-1151.696"/>
<text text-anchor="middle" x="1033.9991" y="-1129.996" font-family="Times,serif" font-size="14.00" fill="#000000">help_PANGO</text>
</a>
</g>
</g>
<!-- big_tree_likelihoods -->
<g id="node36" class="node">
<title>big_tree_likelihoods</title>
<g id="a_node36"><a xlink:title="How can we bridge the gap between parsimony and full Felsenstein likelihoods?">
<polygon fill="none" stroke="#000000" points="831.5977,-942.1734 713.7932,-924.1734 831.5977,-906.1734 949.4021,-924.1734 831.5977,-942.1734"/>
<text text-anchor="middle" x="831.5977" y="-920.4734" font-family="Times,serif" font-size="14.00" fill="#000000">big_tree_likelihoods</text>
</a>
</g>
</g>
<!-- fast_TreeTime -->
<g id="node39" class="node">
<title>fast_TreeTime</title>
<g id="a_node39"><a xlink:title="Speed up ML inference of time trees.">
<polygon fill="none" stroke="#000000" points="977.4907,-1248.1248 888.1739,-1230.1248 977.4907,-1212.1248 1066.8074,-1230.1248 977.4907,-1248.1248"/>
<text text-anchor="middle" x="977.4907" y="-1226.4248" font-family="Times,serif" font-size="14.00" fill="#000000">fast_TreeTime</text>
</a>
</g>
</g>
<!-- polytomy_resolution -->
<g id="node41" class="node">
<title>polytomy_resolution</title>
<g id="a_node41"><a xlink:title="Can we quickly resolve sequence&#45;level polytomies using timing/geography?">
<polygon fill="none" stroke="#000000" points="1025.5584,-1450.731 906.0776,-1432.731 1025.5584,-1414.731 1145.0393,-1432.731 1025.5584,-1450.731"/>
<text text-anchor="middle" x="1025.5584" y="-1429.031" font-family="Times,serif" font-size="14.00" fill="#000000">polytomy_resolution</text>
</a>
</g>
</g>
<!-- fast_TreeTime&#45;&#45;polytomy_resolution -->
<g id="edge24" class="edge">
<title>fast_TreeTime&#45;&#45;polytomy_resolution</title>
<path fill="none" stroke="#000000" d="M981.5889,-1247.3989C990.6475,-1285.5812 1012.2903,-1376.8056 1021.4023,-1415.2128"/>
</g>
<!-- how_big_of_sDAG&#45;&#45;find_posterior_modes -->
<g id="edge17" class="edge">
<title>how_big_of_sDAG&#45;&#45;find_posterior_modes</title>
<path fill="none" stroke="#000000" d="M558.8258,-1308.2813C563.7166,-1346.6217 575.1432,-1436.1969 580.0295,-1474.5015"/>
</g>
<!-- BCR_analysis -->
<g id="node45" class="node">
<title>BCR_analysis</title>
<polygon fill="none" stroke="#000000" points="1103.624,-847.5122 1009.624,-847.5122 1009.624,-811.5122 1103.624,-811.5122 1103.624,-847.5122"/>
<text text-anchor="middle" x="1056.624" y="-825.8122" font-family="Times,serif" font-size="14.00" fill="#000000">BCR_analysis</text>
</g>
<!-- BCR_analysis&#45;&#45;Bayesian_GCtree -->
<g id="edge40" class="edge">
<title>BCR_analysis&#45;&#45;Bayesian_GCtree</title>
<path fill="none" stroke="#000000" d="M1061.3171,-847.784C1070.8492,-884.8953 1092.3744,-968.6999 1101.8654,-1005.6511"/>
</g>
<!-- BCR_analysis&#45;&#45;mechanistic_SHM -->
<g id="edge42" class="edge">
<title>BCR_analysis&#45;&#45;mechanistic_SHM</title>
<path fill="none" stroke="#000000" d="M1048.9768,-811.3551C1037.9623,-785.2032 1017.7471,-737.2055 1006.715,-711.0118"/>
</g>
<!-- BCR_analysis&#45;&#45;paired_HL -->
<g id="edge37" class="edge">
<title>BCR_analysis&#45;&#45;paired_HL</title>
<path fill="none" stroke="#000000" d="M1103.9045,-825.963C1148.1779,-822.6397 1214.0088,-817.6981 1258.4939,-814.3588"/>
</g>
<!-- BCR_analysis&#45;&#45;CFT -->
<g id="edge38" class="edge">
<title>BCR_analysis&#45;&#45;CFT</title>
<path fill="none" stroke="#000000" d="M1034.4886,-811.231C992.825,-776.8218 903.7667,-703.2702 868.3628,-674.0307"/>
</g>
<!-- BCR_analysis&#45;&#45;BCR_GWAS -->
<g id="edge44" class="edge">
<title>BCR_analysis&#45;&#45;BCR_GWAS</title>
<path fill="none" stroke="#000000" d="M1054.3649,-811.2463C1048.7675,-765.9887 1034.3099,-649.0911 1028.7716,-604.3109"/>
</g>
<!-- BCR_analysis&#45;&#45;BCR_indels -->
<g id="edge34" class="edge">
<title>BCR_analysis&#45;&#45;BCR_indels</title>
<path fill="none" stroke="#000000" d="M1103.865,-841.1641C1129.3641,-847.4535 1160.3937,-855.1069 1184.1777,-860.9732"/>
</g>
<!-- BCR_analysis&#45;&#45;clonal_families_with_indels -->
<g id="edge35" class="edge">
<title>BCR_analysis&#45;&#45;clonal_families_with_indels</title>
<path fill="none" stroke="#000000" d="M1081.4674,-811.2614C1117.902,-784.4955 1185.212,-735.0475 1219.522,-709.8424"/>
</g>
<!-- BCR_analysis&#45;&#45;BCR_selection_analysis -->
<g id="edge32" class="edge">
<title>BCR_analysis&#45;&#45;BCR_selection_analysis</title>
<path fill="none" stroke="#000000" d="M1077.8927,-847.8933C1095.3473,-862.9782 1119.8017,-884.1125 1136.3808,-898.4408"/>
</g>
<!-- BCR_analysis&#45;&#45;BCR_trajectories -->
<g id="edge33" class="edge">
<title>BCR_analysis&#45;&#45;BCR_trajectories</title>
<path fill="none" stroke="#000000" d="M1019.9494,-811.4192C983.4238,-793.3998 928.2211,-766.1662 895.5899,-750.068"/>
</g>
<!-- BCR_analysis&#45;&#45;linearham_empirical_uncertainty -->
<g id="edge39" class="edge">
<title>BCR_analysis&#45;&#45;linearham_empirical_uncertainty</title>
<path fill="none" stroke="#000000" d="M1101.0411,-811.355C1134.963,-797.4881 1181.0889,-778.6323 1212.5875,-765.7561"/>
</g>
<!-- BCR_analysis&#45;&#45;Bayesian_histories -->
<g id="edge36" class="edge">
<title>BCR_analysis&#45;&#45;Bayesian_histories</title>
<path fill="none" stroke="#000000" d="M1040.7747,-847.6881C1010.8131,-882.0479 946.1865,-956.1616 916.1926,-990.5585"/>
</g>
<!-- Bayesian_histories&#45;&#45;Bayesian_GCtree -->
<g id="edge19" class="edge">
<title>Bayesian_histories&#45;&#45;Bayesian_GCtree</title>
<path fill="none" stroke="#000000" d="M959.9453,-1013.1068C983.8538,-1014.8402 1011.5785,-1016.8503 1036.4384,-1018.6527"/>
</g>
<!-- Bayesian_histories&#45;&#45;SARS2_parsimony_plateau -->
<g id="edge20" class="edge">
<title>Bayesian_histories&#45;&#45;SARS2_parsimony_plateau</title>
<path fill="none" stroke="#000000" d="M890.7958,-1026.9419C877.7349,-1051.8935 854.3817,-1096.5074 841.3634,-1121.3776"/>
</g>
<!-- Bayesian_histories&#45;&#45;context_sensitive_phylo -->
<g id="edge18" class="edge">
<title>Bayesian_histories&#45;&#45;context_sensitive_phylo</title>
<path fill="none" stroke="#000000" d="M895.9719,-990.6467C888.9109,-961.0684 875.0039,-902.813 868.0202,-873.5585"/>
</g>
<!-- Bayesian_histories&#45;&#45;help_PANGO -->
<g id="edge21" class="edge">
<title>Bayesian_histories&#45;&#45;help_PANGO</title>
<path fill="none" stroke="#000000" d="M919.7421,-1026.946C946.2491,-1051.7114 993.2448,-1095.6194 1017.8917,-1118.647"/>
</g>
<!-- Bayesian_histories&#45;&#45;big_tree_likelihoods -->
<g id="edge23" class="edge">
<title>Bayesian_histories&#45;&#45;big_tree_likelihoods</title>
<path fill="none" stroke="#000000" d="M885.3937,-990.4236C873.2383,-975.4542 856.2398,-954.5204 844.6238,-940.2152"/>
</g>
<!-- Bayesian_histories&#45;&#45;fast_TreeTime -->
<g id="edge22" class="edge">
<title>Bayesian_histories&#45;&#45;fast_TreeTime</title>
<path fill="none" stroke="#000000" d="M906.6181,-1026.8959C921.2725,-1068.9179 957.4131,-1172.552 971.6201,-1213.2908"/>
</g>
<!-- TCR_analysis -->
<g id="node47" class="node">
<title>TCR_analysis</title>
<polygon fill="none" stroke="#000000" points="1147.3014,-210.9196 1054.3014,-210.9196 1054.3014,-174.9196 1147.3014,-174.9196 1147.3014,-210.9196"/>
<text text-anchor="middle" x="1100.8014" y="-189.2196" font-family="Times,serif" font-size="14.00" fill="#000000">TCR_analysis</text>
</g>
<!-- TCR_analysis&#45;&#45;HLA_effects -->
<g id="edge47" class="edge">
<title>TCR_analysis&#45;&#45;HLA_effects</title>
<path fill="none" stroke="#000000" d="M1103.6621,-174.859C1108.9712,-141.3402 1120.2921,-69.8664 1125.6208,-36.2245"/>
</g>
<!-- TCR_analysis&#45;&#45;TCR_GWAS -->
<g id="edge46" class="edge">
<title>TCR_analysis&#45;&#45;TCR_GWAS</title>
<path fill="none" stroke="#000000" d="M1097.0843,-210.9778C1089.554,-247.5619 1072.5731,-330.0589 1065.027,-366.7197"/>
</g>
<!-- TCR_analysis&#45;&#45;TCR_trimming_motifs -->
<g id="edge49" class="edge">
<title>TCR_analysis&#45;&#45;TCR_trimming_motifs</title>
<path fill="none" stroke="#000000" d="M1081.4784,-174.8872C1052.1311,-147.4999 996.6523,-95.7265 967.3984,-68.4264"/>
</g>
<!-- TCR_analysis&#45;&#45;transport -->
<g id="edge48" class="edge">
<title>TCR_analysis&#45;&#45;transport</title>
<path fill="none" stroke="#000000" d="M1139.6027,-174.8005C1176.3703,-157.6311 1230.7453,-132.2395 1263.7835,-116.8116"/>
</g>
<!-- train_awesome_researchers -->
<g id="node48" class="node">
<title>train_awesome_researchers</title>
<polygon fill="none" stroke="#000000" points="1941.3176,-350.9645 1774.2367,-350.9645 1722.6058,-509.7196 1670.975,-350.9645 1503.8941,-350.9645 1639.0654,-252.8485 1587.4346,-94.0935 1722.6058,-192.2095 1857.7771,-94.0935 1806.1463,-252.8485 1941.3176,-350.9645"/>
<text text-anchor="middle" x="1722.6058" y="-298.2065" font-family="Times,serif" font-size="14.00" fill="#000000">train_awesome_researchers</text>
</g>
<!-- diversify_comp_bio -->
<g id="node49" class="node">
<title>diversify_comp_bio</title>
<polygon fill="none" stroke="#000000" points="611.8084,-569.8619 485.8572,-569.8619 446.9361,-689.5909 408.0151,-569.8619 282.0638,-569.8619 383.9605,-495.8653 345.0395,-376.1363 446.9361,-450.1329 548.8328,-376.1363 509.9118,-495.8653 611.8084,-569.8619"/>
<text text-anchor="middle" x="446.9361" y="-529.1636" font-family="Times,serif" font-size="14.00" fill="#000000">diversify_comp_bio</text>
</g>
<!-- eradicate_disease -->
<g id="node50" class="node">
<title>eradicate_disease</title>
<polygon fill="none" stroke="#000000" points="1982.4029,-1674.8562 1871.5548,-1674.8562 1837.3009,-1780.5683 1803.0469,-1674.8562 1692.1988,-1674.8562 1781.8768,-1609.5225 1747.6229,-1503.8104 1837.3009,-1569.1441 1926.9789,-1503.8104 1892.7249,-1609.5225 1982.4029,-1674.8562"/>
<text text-anchor="middle" x="1837.3009" y="-1638.4894" font-family="Times,serif" font-size="14.00" fill="#000000">eradicate_disease</text>
</g>
</g>
</svg>
