<?xml version="1.0" encoding="UTF-8" standalone="no"?>
<!DOCTYPE svg PUBLIC "-//W3C//DTD SVG 1.1//EN"
 "http://www.w3.org/Graphics/SVG/1.1/DTD/svg11.dtd">
<!-- Generated by graphviz version 2.40.1 (20161225.0304)
 -->
<!-- Title: %3 Pages: 1 -->
<svg width="1906pt" height="1894pt"
 viewBox="0.00 0.00 1905.87 1893.81" xmlns="http://www.w3.org/2000/svg" xmlns:xlink="http://www.w3.org/1999/xlink">
<g id="graph0" class="graph" transform="scale(1 1) rotate(0) translate(4 1889.813)">
<title>%3</title>
<polygon fill="#ffffff" stroke="transparent" points="-4,4 -4,-1889.813 1901.8723,-1889.813 1901.8723,4 -4,4"/>
<!-- Bayesian_GCtree -->
<g id="node1" class="node">
<title>Bayesian_GCtree</title>
<g id="a_node1"><a xlink:title="Do posterior estimation using Will&#39;s GCtree framework.">
<ellipse fill="#ccebc5" stroke="#ccebc5" cx="1071.229" cy="-990.0979" rx="72.5877" ry="18"/>
<text text-anchor="middle" x="1071.229" y="-986.3979" font-family="Times,serif" font-size="14.00" fill="#000000">Bayesian_GCtree</text>
</a>
</g>
</g>
<!-- GCreplay -->
<g id="node2" class="node">
<title>GCreplay</title>
<g id="a_node2"><a xlink:title="A big collaboration with the Victora and Bloom labs to understand GC maturation with replicate samples.">
<ellipse fill="#ccebc5" stroke="#ccebc5" cx="1245.4123" cy="-1198.0169" rx="44.6926" ry="18"/>
<text text-anchor="middle" x="1245.4123" y="-1194.3169" font-family="Times,serif" font-size="14.00" fill="#000000">GCreplay</text>
</a>
</g>
</g>
<!-- Bayesian_GCtree&#45;&#45;GCreplay -->
<g id="edge25" class="edge">
<title>Bayesian_GCtree&#45;&#45;GCreplay</title>
<path fill="none" stroke="#000000" d="M1086.0797,-1007.825C1119.1524,-1047.3031 1198.5145,-1142.0359 1231.0888,-1180.9192"/>
</g>
<!-- GCtree_with_heritable -->
<g id="node37" class="node">
<title>GCtree_with_heritable</title>
<g id="a_node37"><a xlink:title="GCtree operates under the assumption of a neutral branching process, the parameters of which do not change through the tree. Can we extend this to a process with a heritable component?">
<polygon fill="none" stroke="#000000" points="1057.9559,-1192.2722 929.0916,-1174.2722 1057.9559,-1156.2722 1186.8202,-1174.2722 1057.9559,-1192.2722"/>
<text text-anchor="middle" x="1057.9559" y="-1170.5722" font-family="Times,serif" font-size="14.00" fill="#000000">GCtree_with_heritable</text>
</a>
</g>
</g>
<!-- Bayesian_GCtree&#45;&#45;GCtree_with_heritable -->
<g id="edge26" class="edge">
<title>Bayesian_GCtree&#45;&#45;GCtree_with_heritable</title>
<path fill="none" stroke="#000000" d="M1069.9078,-1008.4306C1067.357,-1043.8241 1061.7831,-1121.1671 1059.2522,-1156.2853"/>
</g>
<!-- antibody_DMS -->
<g id="node14" class="node">
<title>antibody_DMS</title>
<g id="a_node14"><a xlink:title="What can we learn from deep mutational scanning on antibodies?">
<ellipse fill="#ccebc5" stroke="#ccebc5" cx="1296.3955" cy="-1404.9376" rx="65.7887" ry="18"/>
<text text-anchor="middle" x="1296.3955" y="-1401.2376" font-family="Times,serif" font-size="14.00" fill="#000000">antibody_DMS</text>
</a>
</g>
</g>
<!-- GCreplay&#45;&#45;antibody_DMS -->
<g id="edge28" class="edge">
<title>GCreplay&#45;&#45;antibody_DMS</title>
<path fill="none" stroke="#000000" d="M1249.8475,-1216.0178C1259.4896,-1255.1512 1282.2685,-1347.6017 1291.9342,-1386.831"/>
</g>
<!-- torchdms -->
<g id="node17" class="node">
<title>torchdms</title>
<g id="a_node17"><a xlink:title="Develop a DMS analysis package using a modern machine&#45;learning library.">
<ellipse fill="#ccebc5" stroke="#ccebc5" cx="1404.6626" cy="-1292.2668" rx="44.393" ry="18"/>
<text text-anchor="middle" x="1404.6626" y="-1288.5668" font-family="Times,serif" font-size="14.00" fill="#000000">torchdms</text>
</a>
</g>
</g>
<!-- GCreplay&#45;&#45;torchdms -->
<g id="edge27" class="edge">
<title>GCreplay&#45;&#45;torchdms</title>
<path fill="none" stroke="#000000" d="M1270.646,-1212.951C1300.4652,-1230.5991 1349.7793,-1259.7849 1379.547,-1277.4025"/>
</g>
<!-- HLA_effects -->
<g id="node3" class="node">
<title>HLA_effects</title>
<g id="a_node3"><a xlink:title="Assya&#39;s project understanding the effects of HLA on repertoire.">
<ellipse fill="#ccebc5" stroke="#ccebc5" cx="1697.0936" cy="-229.2975" rx="56.59" ry="18"/>
<text text-anchor="middle" x="1697.0936" y="-225.5975" font-family="Times,serif" font-size="14.00" fill="#000000">HLA_effects</text>
</a>
</g>
</g>
<!-- PhIP_seq -->
<g id="node4" class="node">
<title>PhIP_seq</title>
<g id="a_node4"><a xlink:title="Develop statistics and software tools for PhIP&#45;seq analyses.">
<ellipse fill="#ccebc5" stroke="#ccebc5" cx="1271.4175" cy="-1603.2833" rx="44.393" ry="18"/>
<text text-anchor="middle" x="1271.4175" y="-1599.5833" font-family="Times,serif" font-size="14.00" fill="#000000">PhIP_seq</text>
</a>
</g>
</g>
<!-- TCR_GWAS -->
<g id="node5" class="node">
<title>TCR_GWAS</title>
<g id="a_node5"><a xlink:title="GWAS to infer TCR&#45;repertoire features.">
<ellipse fill="#ccebc5" stroke="#ccebc5" cx="1378.0046" cy="-389.0945" rx="58.4896" ry="18"/>
<text text-anchor="middle" x="1378.0046" y="-385.3945" font-family="Times,serif" font-size="14.00" fill="#000000">TCR_GWAS</text>
</a>
</g>
</g>
<!-- TCR_trimming_motifs -->
<g id="node6" class="node">
<title>TCR_trimming_motifs</title>
<g id="a_node6"><a xlink:title="What sequence&#45;level features determine trimming of TCRs in VDJ recombination?">
<ellipse fill="#ccebc5" stroke="#ccebc5" cx="1583.5315" cy="-71.5587" rx="92.8835" ry="18"/>
<text text-anchor="middle" x="1583.5315" y="-67.8587" font-family="Times,serif" font-size="14.00" fill="#000000">TCR_trimming_motifs</text>
</a>
</g>
</g>
<!-- bito -->
<g id="node7" class="node">
<title>bito</title>
<g id="a_node7"><a xlink:title="Bayesian Inference of Trees via Optimization: a C++/python package">
<ellipse fill="#ccebc5" stroke="#ccebc5" cx="391.8036" cy="-968.7373" rx="27" ry="18"/>
<text text-anchor="middle" x="391.8036" y="-965.0373" font-family="Times,serif" font-size="14.00" fill="#000000">bito</text>
</a>
</g>
</g>
<!-- autodiff_gradients -->
<g id="node8" class="node">
<title>autodiff_gradients</title>
<g id="a_node8"><a xlink:title="How fast is autodiff for phylogenetically&#45;relevant gradients?">
<ellipse fill="#ccebc5" stroke="#ccebc5" cx="176.2321" cy="-904.839" rx="75.2868" ry="18"/>
<text text-anchor="middle" x="176.2321" y="-901.139" font-family="Times,serif" font-size="14.00" fill="#000000">autodiff_gradients</text>
</a>
</g>
</g>
<!-- bito&#45;&#45;autodiff_gradients -->
<g id="edge4" class="edge">
<title>bito&#45;&#45;autodiff_gradients</title>
<path fill="none" stroke="#000000" d="M367.0748,-961.4074C332.238,-951.0813 268.0303,-932.0492 223.7779,-918.9322"/>
</g>
<!-- phylogenetic_VI -->
<g id="node13" class="node">
<title>phylogenetic_VI</title>
<g id="a_node13"><a xlink:title="Do variational inference of continuous parameters in phylogenetics.">
<ellipse fill="#ccebc5" stroke="#ccebc5" cx="279.0432" cy="-1148.9306" rx="69.5877" ry="18"/>
<text text-anchor="middle" x="279.0432" y="-1145.2306" font-family="Times,serif" font-size="14.00" fill="#000000">phylogenetic_VI</text>
</a>
</g>
</g>
<!-- bito&#45;&#45;phylogenetic_VI -->
<g id="edge2" class="edge">
<title>bito&#45;&#45;phylogenetic_VI</title>
<path fill="none" stroke="#000000" d="M381.3975,-985.3665C360.1888,-1019.2584 312.124,-1096.0669 290.2544,-1131.015"/>
</g>
<!-- subsplit_DAG -->
<g id="node16" class="node">
<title>subsplit_DAG</title>
<g id="a_node16"><a xlink:title="Formalize definitions of and basic lemmas for the subsplit DAG.">
<ellipse fill="#ccebc5" stroke="#ccebc5" cx="704.6284" cy="-835.8523" rx="61.99" ry="18"/>
<text text-anchor="middle" x="704.6284" y="-832.1523" font-family="Times,serif" font-size="14.00" fill="#000000">subsplit_DAG</text>
</a>
</g>
</g>
<!-- bito&#45;&#45;subsplit_DAG -->
<g id="edge5" class="edge">
<title>bito&#45;&#45;subsplit_DAG</title>
<path fill="none" stroke="#000000" d="M414.8064,-958.966C468.9886,-935.9498 604.9224,-878.2065 669.5029,-850.7733"/>
</g>
<!-- generalized_pruning -->
<g id="node9" class="node">
<title>generalized_pruning</title>
<g id="a_node9"><a xlink:title="Generalization of the Felsenstein pruning algorithm to the subsplit DAG.">
<ellipse fill="#ccebc5" stroke="#ccebc5" cx="688.6756" cy="-592.4392" rx="83.3857" ry="18"/>
<text text-anchor="middle" x="688.6756" y="-588.7392" font-family="Times,serif" font-size="14.00" fill="#000000">generalized_pruning</text>
</a>
</g>
</g>
<!-- linearham_empirical_uncertainty -->
<g id="node10" class="node">
<title>linearham_empirical_uncertainty</title>
<g id="a_node10"><a xlink:title="linearham is our Bayesian method for doing inference of BCR lineage evolution. If we apply it to well&#45;known data sets from the literature, how much uncertainty is there in ancestral sequence inference?">
<ellipse fill="#ccebc5" stroke="#ccebc5" cx="1137.6228" cy="-610.2391" rx="128.0773" ry="18"/>
<text text-anchor="middle" x="1137.6228" y="-606.5391" font-family="Times,serif" font-size="14.00" fill="#000000">linearham_empirical_uncertainty</text>
</a>
</g>
</g>
<!-- mechanistic_SHM -->
<g id="node11" class="node">
<title>mechanistic_SHM</title>
<g id="a_node11"><a xlink:title="Design and fit mechanistically&#45;based probabilistic models of the somatic hypermutation process.">
<ellipse fill="#ccebc5" stroke="#ccebc5" cx="1273.7353" cy="-830.543" rx="77.1866" ry="18"/>
<text text-anchor="middle" x="1273.7353" y="-826.843" font-family="Times,serif" font-size="14.00" fill="#000000">mechanistic_SHM</text>
</a>
</g>
</g>
<!-- context_sensitive_phylo -->
<g id="node29" class="node">
<title>context_sensitive_phylo</title>
<g id="a_node29"><a xlink:title="Develop phyogenetic methods that enable inference under context&#45;sensitive models.">
<polygon fill="none" stroke="#000000" points="1000.6543,-906.8328 864.5837,-888.8328 1000.6543,-870.8328 1136.7248,-888.8328 1000.6543,-906.8328"/>
<text text-anchor="middle" x="1000.6543" y="-885.1328" font-family="Times,serif" font-size="14.00" fill="#000000">context_sensitive_phylo</text>
</a>
</g>
</g>
<!-- mechanistic_SHM&#45;&#45;context_sensitive_phylo -->
<g id="edge50" class="edge">
<title>mechanistic_SHM&#45;&#45;context_sensitive_phylo</title>
<path fill="none" stroke="#000000" d="M1216.4886,-842.7625C1168.1614,-853.078 1099.5531,-867.7226 1052.7458,-877.7138"/>
</g>
<!-- SHM_across_ages -->
<g id="node31" class="node">
<title>SHM_across_ages</title>
<g id="a_node31"><a xlink:title="Perform a detailed investigation of how SHM changes as people age.">
<polygon fill="none" stroke="#000000" points="1531.1554,-821.3657 1422.7343,-803.3657 1531.1554,-785.3657 1639.5765,-803.3657 1531.1554,-821.3657"/>
<text text-anchor="middle" x="1531.1554" y="-799.6657" font-family="Times,serif" font-size="14.00" fill="#000000">SHM_across_ages</text>
</a>
</g>
</g>
<!-- mechanistic_SHM&#45;&#45;SHM_across_ages -->
<g id="edge43" class="edge">
<title>mechanistic_SHM&#45;&#45;SHM_across_ages</title>
<path fill="none" stroke="#000000" d="M1344.417,-823.0807C1381.9249,-819.1208 1427.7481,-814.283 1464.6149,-810.3908"/>
</g>
<!-- paired_HL -->
<g id="node12" class="node">
<title>paired_HL</title>
<g id="a_node12"><a xlink:title="Perform clonal family inference with paired heavy and light chain sequences.">
<ellipse fill="#ccebc5" stroke="#ccebc5" cx="1362.0836" cy="-875.0573" rx="48.9926" ry="18"/>
<text text-anchor="middle" x="1362.0836" y="-871.3573" font-family="Times,serif" font-size="14.00" fill="#000000">paired_HL</text>
</a>
</g>
</g>
<!-- B_cell_CONGA -->
<g id="node28" class="node">
<title>B_cell_CONGA</title>
<g id="a_node28"><a xlink:title="Adapt CONGA (https://paperpile.com/shared/w2jo9E) for BCR sequences.">
<polygon fill="none" stroke="#000000" points="1570.2537,-950.0696 1472.0538,-932.0696 1570.2537,-914.0696 1668.4535,-932.0696 1570.2537,-950.0696"/>
<text text-anchor="middle" x="1570.2537" y="-928.3696" font-family="Times,serif" font-size="14.00" fill="#000000">B_cell_CONGA</text>
</a>
</g>
</g>
<!-- paired_HL&#45;&#45;B_cell_CONGA -->
<g id="edge51" class="edge">
<title>paired_HL&#45;&#45;B_cell_CONGA</title>
<path fill="none" stroke="#000000" d="M1401.2388,-885.7809C1438.2207,-895.9093 1493.4108,-911.0244 1530.5663,-921.2002"/>
</g>
<!-- adaptive_MCMC -->
<g id="node42" class="node">
<title>adaptive_MCMC</title>
<g id="a_node42"><a xlink:title="Use variational inference as a proposal distribution for MCMC.">
<polygon fill="none" stroke="#000000" points="196.303,-1356.7493 92.5733,-1338.7493 196.303,-1320.7493 300.0327,-1338.7493 196.303,-1356.7493"/>
<text text-anchor="middle" x="196.303" y="-1335.0493" font-family="Times,serif" font-size="14.00" fill="#000000">adaptive_MCMC</text>
</a>
</g>
</g>
<!-- phylogenetic_VI&#45;&#45;adaptive_MCMC -->
<g id="edge1" class="edge">
<title>phylogenetic_VI&#45;&#45;adaptive_MCMC</title>
<path fill="none" stroke="#000000" d="M271.1098,-1167.1313C255.0925,-1203.8773 219.1021,-1286.4447 203.6162,-1321.9718"/>
</g>
<!-- online_phylo_VI -->
<g id="node44" class="node">
<title>online_phylo_VI</title>
<g id="a_node44"><a xlink:title="Online (i.e. incremental) phylogenetic variational inference.">
<polygon fill="none" stroke="#000000" points="485.475,-1065.4919 385.0983,-1047.4919 485.475,-1029.4919 585.8516,-1047.4919 485.475,-1065.4919"/>
<text text-anchor="middle" x="485.475" y="-1043.7919" font-family="Times,serif" font-size="14.00" fill="#000000">online_phylo_VI</text>
</a>
</g>
</g>
<!-- phylogenetic_VI&#45;&#45;online_phylo_VI -->
<g id="edge6" class="edge">
<title>phylogenetic_VI&#45;&#45;online_phylo_VI</title>
<path fill="none" stroke="#000000" d="M311.753,-1132.8574C352.3395,-1112.9135 420.7869,-1079.2791 458.51,-1060.7423"/>
</g>
<!-- antibody_DMS&#45;&#45;PhIP_seq -->
<g id="edge30" class="edge">
<title>antibody_DMS&#45;&#45;PhIP_seq</title>
<path fill="none" stroke="#000000" d="M1294.0904,-1423.242C1289.332,-1461.0276 1278.4707,-1547.2754 1273.717,-1585.0232"/>
</g>
<!-- antibody_DMS&#45;&#45;torchdms -->
<g id="edge29" class="edge">
<title>antibody_DMS&#45;&#45;torchdms</title>
<path fill="none" stroke="#000000" d="M1313.3122,-1387.3328C1333.7709,-1366.042 1367.9752,-1330.4464 1388.2191,-1309.3791"/>
</g>
<!-- dms_view2 -->
<g id="node30" class="node">
<title>dms_view2</title>
<g id="a_node30"><a xlink:title="Develop the next version of dms&#45;view, with abilities to compare between data sets and also show K_D inferences.">
<polygon fill="none" stroke="#000000" points="1481.3795,-1531.6864 1407.8143,-1513.6864 1481.3795,-1495.6864 1554.9447,-1513.6864 1481.3795,-1531.6864"/>
<text text-anchor="middle" x="1481.3795" y="-1509.9864" font-family="Times,serif" font-size="14.00" fill="#000000">dms_view2</text>
</a>
</g>
</g>
<!-- antibody_DMS&#45;&#45;dms_view2 -->
<g id="edge31" class="edge">
<title>antibody_DMS&#45;&#45;dms_view2</title>
<path fill="none" stroke="#000000" d="M1324.4906,-1421.4542C1361.5839,-1443.2607 1426.1096,-1481.1943 1459.6824,-1500.9311"/>
</g>
<!-- SARS2_parsimony_plateau -->
<g id="node15" class="node">
<title>SARS2_parsimony_plateau</title>
<g id="a_node15"><a xlink:title="Use a graph to capture the ensemble of maximally&#45;parsimonious trees for SARS&#45;Cov&#45;2 data. How much uncertainty is there? How does PANGO look?">
<ellipse fill="#ccebc5" stroke="#ccebc5" cx="781.9797" cy="-1006.7559" rx="108.5808" ry="18"/>
<text text-anchor="middle" x="781.9797" y="-1003.0559" font-family="Times,serif" font-size="14.00" fill="#000000">SARS2_parsimony_plateau</text>
</a>
</g>
</g>
<!-- subsplit_DAG&#45;&#45;generalized_pruning -->
<g id="edge9" class="edge">
<title>subsplit_DAG&#45;&#45;generalized_pruning</title>
<path fill="none" stroke="#000000" d="M703.4293,-817.5567C700.4657,-772.3363 692.8222,-655.7092 689.8668,-610.615"/>
</g>
<!-- hillclimber -->
<g id="node21" class="node">
<title>hillclimber</title>
<g id="a_node21"><a xlink:title="What happens when we start ML algorithms at random starting points? What does it tell us about the phylogenetic likelihood surface?">
<polygon fill="#fccde5" stroke="#fccde5" points="523.1546,-673.6784 461.4348,-686.1161 399.7151,-673.6784 399.7727,-653.5538 523.0969,-653.5538 523.1546,-673.6784"/>
<text text-anchor="middle" x="461.4348" y="-664.4161" font-family="Times,serif" font-size="14.00" fill="#000000">hillclimber</text>
</a>
</g>
</g>
<!-- subsplit_DAG&#45;&#45;hillclimber -->
<g id="edge8" class="edge">
<title>subsplit_DAG&#45;&#45;hillclimber</title>
<path fill="none" stroke="#000000" d="M680.4209,-819.1559C632.4841,-786.0927 526.2702,-712.8346 481.7218,-682.1085"/>
</g>
<!-- Bayesian_subtree_optimality -->
<g id="node32" class="node">
<title>Bayesian_subtree_optimality</title>
<g id="a_node32"><a xlink:title="How does the Bayesian posterior distribution of n taxa change when an n+1st taxon is added to the tree?">
<polygon fill="#fccde5" stroke="#fccde5" points="662.3766,-730.1205 501.6714,-712.1205 662.3766,-694.1205 823.0818,-712.1205 662.3766,-730.1205"/>
<text text-anchor="middle" x="662.3766" y="-708.4205" font-family="Times,serif" font-size="14.00" fill="#000000">Bayesian_subtree_optimality</text>
</a>
</g>
</g>
<!-- subsplit_DAG&#45;&#45;Bayesian_subtree_optimality -->
<g id="edge13" class="edge">
<title>subsplit_DAG&#45;&#45;Bayesian_subtree_optimality</title>
<path fill="none" stroke="#000000" d="M698.4846,-817.8606C690.4282,-794.2679 676.3827,-753.1364 668.391,-729.7333"/>
</g>
<!-- fasdag -->
<g id="node33" class="node">
<title>fasdag</title>
<g id="a_node33"><a xlink:title="Develop NJ and parsimony approaches to reconstructing the sDAG.">
<polygon fill="#fccde5" stroke="#fccde5" points="549.5851,-642.0824 501.9919,-624.0824 549.5851,-606.0824 597.1784,-624.0824 549.5851,-642.0824"/>
<text text-anchor="middle" x="549.5851" y="-620.3824" font-family="Times,serif" font-size="14.00" fill="#000000">fasdag</text>
</a>
</g>
</g>
<!-- subsplit_DAG&#45;&#45;fasdag -->
<g id="edge14" class="edge">
<title>subsplit_DAG&#45;&#45;fasdag</title>
<path fill="none" stroke="#000000" d="M691.6761,-818.1611C661.6182,-777.1058 587.598,-676.0032 560.0967,-638.4399"/>
</g>
<!-- local_EM -->
<g id="node38" class="node">
<title>local_EM</title>
<g id="a_node38"><a xlink:title="Develop an EM algorithm for variational inference that uses local computation. Go Hogwild.">
<polygon fill="#fccde5" stroke="#fccde5" points="600.1532,-1020.758 535.132,-1002.758 600.1532,-984.758 665.1744,-1002.758 600.1532,-1020.758"/>
<text text-anchor="middle" x="600.1532" y="-999.058" font-family="Times,serif" font-size="14.00" fill="#000000">local_EM</text>
</a>
</g>
</g>
<!-- subsplit_DAG&#45;&#45;local_EM -->
<g id="edge10" class="edge">
<title>subsplit_DAG&#45;&#45;local_EM</title>
<path fill="none" stroke="#000000" d="M693.4477,-853.7141C672.9181,-886.5116 629.5331,-955.8217 610.0231,-986.9902"/>
</g>
<!-- find_MAP_tree_in_subsplit_DAG -->
<g id="node40" class="node">
<title>find_MAP_tree_in_subsplit_DAG</title>
<g id="a_node40"><a xlink:title="Can we quickly find the MAP tree in the subsplit DAG?">
<polygon fill="#fccde5" stroke="#fccde5" points="447.2068,-881.5895 259.6907,-863.5895 447.2068,-845.5895 634.723,-863.5895 447.2068,-881.5895"/>
<text text-anchor="middle" x="447.2068" y="-859.8895" font-family="Times,serif" font-size="14.00" fill="#000000">find_MAP_tree_in_subsplit_DAG</text>
</a>
</g>
</g>
<!-- subsplit_DAG&#45;&#45;find_MAP_tree_in_subsplit_DAG -->
<g id="edge15" class="edge">
<title>subsplit_DAG&#45;&#45;find_MAP_tree_in_subsplit_DAG</title>
<path fill="none" stroke="#000000" d="M646.537,-842.1117C613.9135,-845.6268 572.5232,-850.0867 535.9234,-854.0303"/>
</g>
<!-- how_big_of_sDAG -->
<g id="node43" class="node">
<title>how_big_of_sDAG</title>
<g id="a_node43"><a xlink:title="How big of a subsplit DAG is actually required to get reasonable estimates (with uncertaintly quantification) of key parameters?">
<polygon fill="none" stroke="#000000" points="429.5734,-774.3427 316.4607,-756.3427 429.5734,-738.3427 542.6861,-756.3427 429.5734,-774.3427"/>
<text text-anchor="middle" x="429.5734" y="-752.6427" font-family="Times,serif" font-size="14.00" fill="#000000">how_big_of_sDAG</text>
</a>
</g>
</g>
<!-- subsplit_DAG&#45;&#45;how_big_of_sDAG -->
<g id="edge12" class="edge">
<title>subsplit_DAG&#45;&#45;how_big_of_sDAG</title>
<path fill="none" stroke="#000000" d="M660.741,-823.1658C608.2628,-807.9961 521.1425,-782.8124 470.1668,-768.0769"/>
</g>
<!-- subsplit_DAG&#45;&#45;online_phylo_VI -->
<g id="edge7" class="edge">
<title>subsplit_DAG&#45;&#45;online_phylo_VI</title>
<path fill="none" stroke="#000000" d="M686.6941,-853.1716C644.781,-893.6477 540.9625,-993.9068 501.2607,-1032.2474"/>
</g>
<!-- Bayesian_histories -->
<g id="node46" class="node">
<title>Bayesian_histories</title>
<polygon fill="none" stroke="#000000" points="856.4873,-904.671 737.4873,-904.671 737.4873,-868.671 856.4873,-868.671 856.4873,-904.671"/>
<text text-anchor="middle" x="796.9873" y="-882.971" font-family="Times,serif" font-size="14.00" fill="#000000">Bayesian_histories</text>
</g>
<!-- subsplit_DAG&#45;&#45;Bayesian_histories -->
<g id="edge11" class="edge">
<title>subsplit_DAG&#45;&#45;Bayesian_histories</title>
<path fill="none" stroke="#000000" d="M733.5979,-851.7922C743.3319,-857.1482 754.2563,-863.1591 764.2584,-868.6626"/>
</g>
<!-- transport -->
<g id="node18" class="node">
<title>transport</title>
<g id="a_node18"><a xlink:title="Compare TCR repertoires via optimal transport.">
<ellipse fill="#ccebc5" stroke="#ccebc5" cx="1403.4089" cy="-18" rx="42.4939" ry="18"/>
<text text-anchor="middle" x="1403.4089" y="-14.3" font-family="Times,serif" font-size="14.00" fill="#000000">transport</text>
</a>
</g>
</g>
<!-- VI_diagnostics -->
<g id="node19" class="node">
<title>VI_diagnostics</title>
<g id="a_node19"><a xlink:title="How will we know if VI is giving a good approximation?">
<ellipse fill="#ccebc5" stroke="#ccebc5" cx="63.6943" cy="-1167.6047" rx="63.8893" ry="18"/>
<text text-anchor="middle" x="63.6943" y="-1163.9047" font-family="Times,serif" font-size="14.00" fill="#000000">VI_diagnostics</text>
</a>
</g>
</g>
<!-- VI_diagnostics&#45;&#45;phylogenetic_VI -->
<g id="edge3" class="edge">
<title>VI_diagnostics&#45;&#45;phylogenetic_VI</title>
<path fill="none" stroke="#000000" d="M124.8287,-1162.3034C152.3097,-1159.9204 184.7992,-1157.1031 212.8533,-1154.6703"/>
</g>
<!-- CFT -->
<g id="node20" class="node">
<title>CFT</title>
<g id="a_node20"><a xlink:title="The Clonal Family Tree pipeline to do clonal family inference and then phylogenetics.">
<polygon fill="none" stroke="#000000" points="1080.9729,-546.4708 1048.0962,-558.9085 1015.2195,-546.4708 1015.2502,-526.3462 1080.9422,-526.3462 1080.9729,-546.4708"/>
<text text-anchor="middle" x="1048.0962" y="-537.2085" font-family="Times,serif" font-size="14.00" fill="#000000">CFT</text>
</a>
</g>
</g>
<!-- olmsted -->
<g id="node22" class="node">
<title>olmsted</title>
<g id="a_node22"><a xlink:title="A visualization tool for BCR lineages.">
<polygon fill="none" stroke="#000000" points="1074.7987,-337.1133 1026.3931,-349.551 977.9875,-337.1133 978.0327,-316.9887 1074.7535,-316.9887 1074.7987,-337.1133"/>
<text text-anchor="middle" x="1026.3931" y="-327.851" font-family="Times,serif" font-size="14.00" fill="#000000">olmsted</text>
</a>
</g>
</g>
<!-- CFT&#45;&#45;olmsted -->
<g id="edge41" class="edge">
<title>CFT&#45;&#45;olmsted</title>
<path fill="none" stroke="#000000" d="M1046.5701,-526.1869C1042.6817,-488.6778 1032.414,-389.6313 1028.2184,-349.1591"/>
</g>
<!-- find_posterior_modes -->
<g id="node34" class="node">
<title>find_posterior_modes</title>
<g id="a_node34"><a xlink:title="Can we do something to quickly find posterior modes in the phylogenetic posterior? Can we do better than hillclimbing?">
<polygon fill="#fccde5" stroke="#fccde5" points="307.9445,-585.7574 182.9338,-567.7574 307.9445,-549.7574 432.9553,-567.7574 307.9445,-585.7574"/>
<text text-anchor="middle" x="307.9445" y="-564.0574" font-family="Times,serif" font-size="14.00" fill="#000000">find_posterior_modes</text>
</a>
</g>
</g>
<!-- hillclimber&#45;&#45;find_posterior_modes -->
<g id="edge16" class="edge">
<title>hillclimber&#45;&#45;find_posterior_modes</title>
<path fill="none" stroke="#000000" d="M439.116,-653.5231C410.0985,-634.5502 359.6933,-601.593 330.5404,-582.5316"/>
</g>
<!-- BCR_GWAS -->
<g id="node23" class="node">
<title>BCR_GWAS</title>
<g id="a_node23"><a xlink:title="Do a GWAS for BCR repertoire features. Can we learn about SHM too?">
<polygon fill="none" stroke="#000000" points="1271.6325,-576.5028 1187.8457,-558.5028 1271.6325,-540.5028 1355.4194,-558.5028 1271.6325,-576.5028"/>
<text text-anchor="middle" x="1271.6325" y="-554.8028" font-family="Times,serif" font-size="14.00" fill="#000000">BCR_GWAS</text>
</a>
</g>
</g>
<!-- BCR_GWAS&#45;&#45;TCR_GWAS -->
<g id="edge45" class="edge">
<title>BCR_GWAS&#45;&#45;TCR_GWAS</title>
<path fill="none" stroke="#000000" d="M1281.6398,-542.5653C1301.5514,-510.854 1346.0057,-440.056 1366.8341,-406.8847"/>
</g>
<!-- BCR_indels -->
<g id="node24" class="node">
<title>BCR_indels</title>
<g id="a_node24"><a xlink:title="What sequence features lead to indels in BCR sequences?">
<polygon fill="none" stroke="#000000" points="1324.0813,-742.1987 1248.0007,-724.1987 1324.0813,-706.1987 1400.162,-724.1987 1324.0813,-742.1987"/>
<text text-anchor="middle" x="1324.0813" y="-720.4987" font-family="Times,serif" font-size="14.00" fill="#000000">BCR_indels</text>
</a>
</g>
</g>
<!-- clonal_families_with_indels -->
<g id="node25" class="node">
<title>clonal_families_with_indels</title>
<g id="a_node25"><a xlink:title="Can we do better clonal family clustering in the presence of indels?">
<polygon fill="none" stroke="#000000" points="1301.096,-946.7153 1145.0822,-928.7153 1301.096,-910.7153 1457.1099,-928.7153 1301.096,-946.7153"/>
<text text-anchor="middle" x="1301.096" y="-925.0153" font-family="Times,serif" font-size="14.00" fill="#000000">clonal_families_with_indels</text>
</a>
</g>
</g>
<!-- BCR_selection_analysis -->
<g id="node26" class="node">
<title>BCR_selection_analysis</title>
<g id="a_node26"><a xlink:title="Improve dN/dS analysis for BCR lineages, looking site&#45;wise and per&#45;lineage.">
<polygon fill="none" stroke="#000000" points="977.8073,-672.2703 840.8984,-654.2703 977.8073,-636.2703 1114.7161,-654.2703 977.8073,-672.2703"/>
<text text-anchor="middle" x="977.8073" y="-650.5703" font-family="Times,serif" font-size="14.00" fill="#000000">BCR_selection_analysis</text>
</a>
</g>
</g>
<!-- BCR_trajectories -->
<g id="node27" class="node">
<title>BCR_trajectories</title>
<g id="a_node27"><a xlink:title="Look for patterns in BCR sequence evolution. Do they fall into &#39;trajectories&#39;?">
<polygon fill="none" stroke="#000000" points="1242.8052,-686.3308 1141.5905,-668.3308 1242.8052,-650.3308 1344.0199,-668.3308 1242.8052,-686.3308"/>
<text text-anchor="middle" x="1242.8052" y="-664.6308" font-family="Times,serif" font-size="14.00" fill="#000000">BCR_trajectories</text>
</a>
</g>
</g>
<!-- help_PANGO -->
<g id="node35" class="node">
<title>help_PANGO</title>
<g id="a_node35"><a xlink:title="What sort of tooling would actually help PANGO do their job better?">
<polygon fill="none" stroke="#000000" points="864.4963,-1071.434 779.0331,-1053.434 864.4963,-1035.434 949.9596,-1053.434 864.4963,-1071.434"/>
<text text-anchor="middle" x="864.4963" y="-1049.734" font-family="Times,serif" font-size="14.00" fill="#000000">help_PANGO</text>
</a>
</g>
</g>
<!-- big_tree_likelihoods -->
<g id="node36" class="node">
<title>big_tree_likelihoods</title>
<g id="a_node36"><a xlink:title="How can we bridge the gap between parsimony and full Felsenstein likelihoods?">
<polygon fill="none" stroke="#000000" points="838.2562,-774.1254 720.4517,-756.1254 838.2562,-738.1254 956.0606,-756.1254 838.2562,-774.1254"/>
<text text-anchor="middle" x="838.2562" y="-752.4254" font-family="Times,serif" font-size="14.00" fill="#000000">big_tree_likelihoods</text>
</a>
</g>
</g>
<!-- fast_TreeTime -->
<g id="node39" class="node">
<title>fast_TreeTime</title>
<g id="a_node39"><a xlink:title="Speed up ML inference of time trees.">
<polygon fill="none" stroke="#000000" points="812.5298,-1146.535 723.213,-1128.535 812.5298,-1110.535 901.8466,-1128.535 812.5298,-1146.535"/>
<text text-anchor="middle" x="812.5298" y="-1124.835" font-family="Times,serif" font-size="14.00" fill="#000000">fast_TreeTime</text>
</a>
</g>
</g>
<!-- polytomy_resolution -->
<g id="node41" class="node">
<title>polytomy_resolution</title>
<g id="a_node41"><a xlink:title="Can we quickly resolve sequence&#45;level polytomies using timing/geography?">
<polygon fill="none" stroke="#000000" points="788.8745,-1358.8895 669.3936,-1340.8895 788.8745,-1322.8895 908.3554,-1340.8895 788.8745,-1358.8895"/>
<text text-anchor="middle" x="788.8745" y="-1337.1895" font-family="Times,serif" font-size="14.00" fill="#000000">polytomy_resolution</text>
</a>
</g>
</g>
<!-- fast_TreeTime&#45;&#45;polytomy_resolution -->
<g id="edge24" class="edge">
<title>fast_TreeTime&#45;&#45;polytomy_resolution</title>
<path fill="none" stroke="#000000" d="M810.5536,-1146.275C806.1009,-1186.2475 795.3248,-1282.9848 790.8616,-1323.0507"/>
</g>
<!-- how_big_of_sDAG&#45;&#45;find_posterior_modes -->
<g id="edge17" class="edge">
<title>how_big_of_sDAG&#45;&#45;find_posterior_modes</title>
<path fill="none" stroke="#000000" d="M418.9924,-739.9369C395.9896,-704.2711 341.6468,-620.0127 318.5877,-584.2596"/>
</g>
<!-- BCR_analysis -->
<g id="node45" class="node">
<title>BCR_analysis</title>
<polygon fill="none" stroke="#000000" points="1164.2029,-795.1961 1070.2029,-795.1961 1070.2029,-759.1961 1164.2029,-759.1961 1164.2029,-795.1961"/>
<text text-anchor="middle" x="1117.2029" y="-773.4961" font-family="Times,serif" font-size="14.00" fill="#000000">BCR_analysis</text>
</g>
<!-- BCR_analysis&#45;&#45;Bayesian_GCtree -->
<g id="edge40" class="edge">
<title>BCR_analysis&#45;&#45;Bayesian_GCtree</title>
<path fill="none" stroke="#000000" d="M1113.2832,-795.348C1104.5974,-835.5711 1083.8153,-931.8115 1075.1388,-971.992"/>
</g>
<!-- BCR_analysis&#45;&#45;linearham_empirical_uncertainty -->
<g id="edge39" class="edge">
<title>BCR_analysis&#45;&#45;linearham_empirical_uncertainty</title>
<path fill="none" stroke="#000000" d="M1119.427,-759.011C1123.355,-726.8953 1131.4754,-660.5015 1135.4014,-628.4018"/>
</g>
<!-- BCR_analysis&#45;&#45;mechanistic_SHM -->
<g id="edge42" class="edge">
<title>BCR_analysis&#45;&#45;mechanistic_SHM</title>
<path fill="none" stroke="#000000" d="M1164.5926,-793.3467C1185.3787,-800.4307 1209.6253,-808.6941 1229.9787,-815.6306"/>
</g>
<!-- BCR_analysis&#45;&#45;paired_HL -->
<g id="edge37" class="edge">
<title>BCR_analysis&#45;&#45;paired_HL</title>
<path fill="none" stroke="#000000" d="M1162.4031,-795.2594C1210.6339,-814.5338 1285.8909,-844.6086 1328.9201,-861.8043"/>
</g>
<!-- BCR_analysis&#45;&#45;CFT -->
<g id="edge38" class="edge">
<title>BCR_analysis&#45;&#45;CFT</title>
<path fill="none" stroke="#000000" d="M1111.8949,-759.0474C1098.8417,-714.4162 1065.3351,-599.8514 1052.8656,-557.2158"/>
</g>
<!-- BCR_analysis&#45;&#45;BCR_GWAS -->
<g id="edge44" class="edge">
<title>BCR_analysis&#45;&#45;BCR_GWAS</title>
<path fill="none" stroke="#000000" d="M1130.1038,-758.9266C1159.8253,-716.837 1232.7013,-613.6346 1260.5583,-574.1854"/>
</g>
<!-- BCR_analysis&#45;&#45;BCR_indels -->
<g id="edge34" class="edge">
<title>BCR_analysis&#45;&#45;BCR_indels</title>
<path fill="none" stroke="#000000" d="M1164.4057,-765.1039C1201.7322,-755.5417 1253.0956,-742.3836 1287.3838,-733.5998"/>
</g>
<!-- BCR_analysis&#45;&#45;clonal_families_with_indels -->
<g id="edge35" class="edge">
<title>BCR_analysis&#45;&#45;clonal_families_with_indels</title>
<path fill="none" stroke="#000000" d="M1139.3847,-795.4729C1175.7806,-825.4613 1247.556,-884.6009 1281.9022,-912.9005"/>
</g>
<!-- BCR_analysis&#45;&#45;BCR_selection_analysis -->
<g id="edge32" class="edge">
<title>BCR_analysis&#45;&#45;BCR_selection_analysis</title>
<path fill="none" stroke="#000000" d="M1096.6346,-759.058C1069.3707,-735.0154 1021.7003,-692.9772 995.7988,-670.1361"/>
</g>
<!-- BCR_analysis&#45;&#45;BCR_trajectories -->
<g id="edge33" class="edge">
<title>BCR_analysis&#45;&#45;BCR_trajectories</title>
<path fill="none" stroke="#000000" d="M1138.2259,-758.9745C1162.6684,-737.789 1202.5634,-703.2102 1225.3624,-683.4492"/>
</g>
<!-- BCR_analysis&#45;&#45;Bayesian_histories -->
<g id="edge36" class="edge">
<title>BCR_analysis&#45;&#45;Bayesian_histories</title>
<path fill="none" stroke="#000000" d="M1069.954,-793.3495C1011.1516,-813.4528 911.0262,-847.6836 849.7634,-868.628"/>
</g>
<!-- Bayesian_histories&#45;&#45;Bayesian_GCtree -->
<g id="edge19" class="edge">
<title>Bayesian_histories&#45;&#45;Bayesian_GCtree</title>
<path fill="none" stroke="#000000" d="M844.7565,-904.6866C897.5471,-924.596 981.6337,-956.3082 1031.1317,-974.9757"/>
</g>
<!-- Bayesian_histories&#45;&#45;SARS2_parsimony_plateau -->
<g id="edge20" class="edge">
<title>Bayesian_histories&#45;&#45;SARS2_parsimony_plateau</title>
<path fill="none" stroke="#000000" d="M794.7079,-904.9093C791.8708,-927.6111 787.0555,-966.1413 784.2313,-988.7394"/>
</g>
<!-- Bayesian_histories&#45;&#45;context_sensitive_phylo -->
<g id="edge18" class="edge">
<title>Bayesian_histories&#45;&#45;context_sensitive_phylo</title>
<path fill="none" stroke="#000000" d="M856.7179,-887.305C862.4693,-887.3661 868.4382,-887.4295 874.5303,-887.4941"/>
</g>
<!-- Bayesian_histories&#45;&#45;help_PANGO -->
<g id="edge21" class="edge">
<title>Bayesian_histories&#45;&#45;help_PANGO</title>
<path fill="none" stroke="#000000" d="M804.3404,-904.8351C817.5314,-937.4199 845.0239,-1005.3328 857.7565,-1036.7852"/>
</g>
<!-- Bayesian_histories&#45;&#45;big_tree_likelihoods -->
<g id="edge23" class="edge">
<title>Bayesian_histories&#45;&#45;big_tree_likelihoods</title>
<path fill="none" stroke="#000000" d="M802.7255,-868.5192C810.6544,-843.438 824.8664,-798.4812 832.6985,-773.7059"/>
</g>
<!-- Bayesian_histories&#45;&#45;fast_TreeTime -->
<g id="edge22" class="edge">
<title>Bayesian_histories&#45;&#45;fast_TreeTime</title>
<path fill="none" stroke="#000000" d="M798.1555,-904.8501C801.0429,-949.7828 808.4899,-1065.6677 811.3692,-1110.4749"/>
</g>
<!-- TCR_analysis -->
<g id="node47" class="node">
<title>TCR_analysis</title>
<polygon fill="none" stroke="#000000" points="1526.6064,-240.2387 1433.6064,-240.2387 1433.6064,-204.2387 1526.6064,-204.2387 1526.6064,-240.2387"/>
<text text-anchor="middle" x="1480.1064" y="-218.5387" font-family="Times,serif" font-size="14.00" fill="#000000">TCR_analysis</text>
</g>
<!-- TCR_analysis&#45;&#45;HLA_effects -->
<g id="edge47" class="edge">
<title>TCR_analysis&#45;&#45;HLA_effects</title>
<path fill="none" stroke="#000000" d="M1526.6556,-223.753C1560.0289,-224.8387 1605.1623,-226.3069 1640.6006,-227.4597"/>
</g>
<!-- TCR_analysis&#45;&#45;TCR_GWAS -->
<g id="edge46" class="edge">
<title>TCR_analysis&#45;&#45;TCR_GWAS</title>
<path fill="none" stroke="#000000" d="M1468.9854,-240.4128C1449.2935,-272.5935 1408.5285,-339.2121 1388.9574,-371.1954"/>
</g>
<!-- TCR_analysis&#45;&#45;TCR_trimming_motifs -->
<g id="edge49" class="edge">
<title>TCR_analysis&#45;&#45;TCR_trimming_motifs</title>
<path fill="none" stroke="#000000" d="M1492.5819,-204.0632C1512.4606,-175.1018 1551.1052,-118.8006 1571.0118,-89.7987"/>
</g>
<!-- TCR_analysis&#45;&#45;transport -->
<g id="edge48" class="edge">
<title>TCR_analysis&#45;&#45;transport</title>
<path fill="none" stroke="#000000" d="M1473.3,-204.1139C1458.7087,-165.2585 1424.5696,-74.3493 1410.0905,-35.7926"/>
</g>
<!-- train_awesome_researchers -->
<g id="node48" class="node">
<title>train_awesome_researchers</title>
<polygon fill="none" stroke="#000000" points="731.3176,-1726.9645 564.2367,-1726.9645 512.6058,-1885.7196 460.975,-1726.9645 293.8941,-1726.9645 429.0654,-1628.8485 377.4346,-1470.0935 512.6058,-1568.2095 647.7771,-1470.0935 596.1463,-1628.8485 731.3176,-1726.9645"/>
<text text-anchor="middle" x="512.6058" y="-1674.2065" font-family="Times,serif" font-size="14.00" fill="#000000">train_awesome_researchers</text>
</g>
<!-- diversify_comp_bio -->
<g id="node49" class="node">
<title>diversify_comp_bio</title>
<polygon fill="none" stroke="#000000" points="1897.8084,-1271.8619 1771.8572,-1271.8619 1732.9361,-1391.5909 1694.0151,-1271.8619 1568.0638,-1271.8619 1669.9605,-1197.8653 1631.0395,-1078.1363 1732.9361,-1152.1329 1834.8328,-1078.1363 1795.9118,-1197.8653 1897.8084,-1271.8619"/>
<text text-anchor="middle" x="1732.9361" y="-1231.1636" font-family="Times,serif" font-size="14.00" fill="#000000">diversify_comp_bio</text>
</g>
<!-- eradicate_disease -->
<g id="node50" class="node">
<title>eradicate_disease</title>
<polygon fill="none" stroke="#000000" points="584.4029,-366.8562 473.5548,-366.8562 439.3009,-472.5683 405.0469,-366.8562 294.1988,-366.8562 383.8768,-301.5225 349.6229,-195.8104 439.3009,-261.1441 528.9789,-195.8104 494.7249,-301.5225 584.4029,-366.8562"/>
<text text-anchor="middle" x="439.3009" y="-330.4894" font-family="Times,serif" font-size="14.00" fill="#000000">eradicate_disease</text>
</g>
</g>
</svg>
