<?xml version="1.0" encoding="UTF-8" standalone="no"?>
<!DOCTYPE svg PUBLIC "-//W3C//DTD SVG 1.1//EN"
 "http://www.w3.org/Graphics/SVG/1.1/DTD/svg11.dtd">
<!-- Generated by graphviz version 2.40.1 (20161225.0304)
 -->
<!-- Title: %3 Pages: 1 -->
<svg width="2370pt" height="2109pt"
 viewBox="0.00 0.00 2370.00 2109.00" xmlns="http://www.w3.org/2000/svg" xmlns:xlink="http://www.w3.org/1999/xlink">
<g id="graph0" class="graph" transform="scale(1 1) rotate(0) translate(4 2105)">
<title>%3</title>
<polygon fill="#ffffff" stroke="transparent" points="-4,4 -4,-2105 2366,-2105 2366,4 -4,4"/>
<g id="clust1" class="cluster">
<title>cluster_0</title>
<polygon fill="none" stroke="#000000" points="1634.7381,-218.1409 1634.7381,-461.1409 1943.7381,-461.1409 1943.7381,-218.1409 1634.7381,-218.1409"/>
<text text-anchor="middle" x="1789.2381" y="-445.9409" font-family="Times,serif" font-size="14.00" fill="#000000">legend</text>
</g>
<!-- for_programmer -->
<g id="node1" class="node">
<title>for_programmer</title>
<ellipse fill="#bc80bd" stroke="#bc80bd" cx="1807.9762" cy="-243.7818" rx="69.5877" ry="18"/>
<text text-anchor="middle" x="1807.9762" y="-240.0818" font-family="Times,serif" font-size="14.00" fill="#000000">for_programmer</text>
</g>
<!-- active -->
<g id="node2" class="node">
<title>active</title>
<ellipse fill="#ccebc5" stroke="#ccebc5" cx="1690.9762" cy="-243.7818" rx="31.6951" ry="18"/>
<text text-anchor="middle" x="1690.9762" y="-240.0818" font-family="Times,serif" font-size="14.00" fill="#000000">active</text>
</g>
<!-- ready_to_go -->
<g id="node3" class="node">
<title>ready_to_go</title>
<ellipse fill="#b3de69" stroke="#b3de69" cx="1880.9762" cy="-411.7818" rx="54.6905" ry="18"/>
<text text-anchor="middle" x="1880.9762" y="-408.0818" font-family="Times,serif" font-size="14.00" fill="#000000">ready_to_go</text>
</g>
<!-- needing_logistics -->
<g id="node4" class="node">
<title>needing_logistics</title>
<ellipse fill="#fdb462" stroke="#fdb462" cx="1842.9762" cy="-355.7818" rx="72.2875" ry="18"/>
<text text-anchor="middle" x="1842.9762" y="-352.0818" font-family="Times,serif" font-size="14.00" fill="#000000">needing_logistics</text>
</g>
<!-- needing_consideration -->
<g id="node5" class="node">
<title>needing_consideration</title>
<ellipse fill="#8dd3c7" stroke="#8dd3c7" cx="1732.9762" cy="-299.7818" rx="90.1842" ry="18"/>
<text text-anchor="middle" x="1732.9762" y="-296.0818" font-family="Times,serif" font-size="14.00" fill="#000000">needing_consideration</text>
</g>
<!-- eventually -->
<g id="node6" class="node">
<title>eventually</title>
<ellipse fill="#d9d9d9" stroke="#d9d9d9" cx="1705.9762" cy="-403.7818" rx="47.3916" ry="18"/>
<text text-anchor="middle" x="1705.9762" y="-400.0818" font-family="Times,serif" font-size="14.00" fill="#000000">eventually</text>
</g>
<!-- Bayesian_GCtree -->
<g id="node7" class="node">
<title>Bayesian_GCtree</title>
<g id="a_node7"><a xlink:title="Do posterior estimation using Will&#39;s GCtree framework.">
<ellipse fill="#ccebc5" stroke="#ccebc5" cx="1295.1184" cy="-1021.653" rx="72.5877" ry="18"/>
<text text-anchor="middle" x="1295.1184" y="-1017.953" font-family="Times,serif" font-size="14.00" fill="#000000">Bayesian_GCtree</text>
</a>
</g>
</g>
<!-- GCreplay -->
<g id="node8" class="node">
<title>GCreplay</title>
<g id="a_node8"><a xlink:title="A big collaboration with the Victora and Bloom labs to understand GC maturation with replicate samples.">
<ellipse fill="#ccebc5" stroke="#ccebc5" cx="1675.7164" cy="-966.724" rx="44.6926" ry="18"/>
<text text-anchor="middle" x="1675.7164" y="-963.024" font-family="Times,serif" font-size="14.00" fill="#000000">GCreplay</text>
</a>
</g>
</g>
<!-- Bayesian_GCtree&#45;&#45;GCreplay -->
<g id="edge27" class="edge">
<title>Bayesian_GCtree&#45;&#45;GCreplay</title>
<path fill="none" stroke="#000000" d="M1358.3937,-1012.5209C1436.2858,-1001.2793 1566.4311,-982.4964 1633.2649,-972.8507"/>
</g>
<!-- GCtree_with_heritable -->
<g id="node46" class="node">
<title>GCtree_with_heritable</title>
<g id="a_node46"><a xlink:title="GCtree operates under the assumption of a neutral branching process, the parameters of which do not change through the tree. Can we extend this to a process with a heritable component?">
<polygon fill="#b3de69" stroke="#b3de69" points="1425.1872,-841.6612 1296.323,-823.6612 1425.1872,-805.6612 1554.0515,-823.6612 1425.1872,-841.6612"/>
<text text-anchor="middle" x="1425.1872" y="-819.9612" font-family="Times,serif" font-size="14.00" fill="#000000">GCtree_with_heritable</text>
</a>
</g>
</g>
<!-- Bayesian_GCtree&#45;&#45;GCtree_with_heritable -->
<g id="edge28" class="edge">
<title>Bayesian_GCtree&#45;&#45;GCtree_with_heritable</title>
<path fill="none" stroke="#000000" d="M1306.8906,-1003.7333C1331.9043,-965.6572 1390.0367,-877.1677 1414.2726,-840.2756"/>
</g>
<!-- antibody_DMS -->
<g id="node20" class="node">
<title>antibody_DMS</title>
<g id="a_node20"><a xlink:title="What can we learn from deep mutational scanning on antibodies?">
<ellipse fill="#ccebc5" stroke="#ccebc5" cx="1874.969" cy="-1077.1058" rx="65.7887" ry="18"/>
<text text-anchor="middle" x="1874.969" y="-1073.4058" font-family="Times,serif" font-size="14.00" fill="#000000">antibody_DMS</text>
</a>
</g>
</g>
<!-- GCreplay&#45;&#45;antibody_DMS -->
<g id="edge30" class="edge">
<title>GCreplay&#45;&#45;antibody_DMS</title>
<path fill="none" stroke="#000000" d="M1702.1756,-981.3818C1739.4386,-1002.0247 1807.1368,-1039.5282 1845.8093,-1060.9519"/>
</g>
<!-- torchdms -->
<g id="node23" class="node">
<title>torchdms</title>
<g id="a_node23"><a xlink:title="Develop a DMS analysis package using a modern machine&#45;learning library.">
<ellipse fill="#ccebc5" stroke="#ccebc5" cx="1837.4413" cy="-896.1406" rx="44.393" ry="18"/>
<text text-anchor="middle" x="1837.4413" y="-892.4406" font-family="Times,serif" font-size="14.00" fill="#000000">torchdms</text>
</a>
</g>
</g>
<!-- GCreplay&#45;&#45;torchdms -->
<g id="edge29" class="edge">
<title>GCreplay&#45;&#45;torchdms</title>
<path fill="none" stroke="#000000" d="M1706.1356,-953.4478C1735.0495,-940.8286 1778.2898,-921.9567 1807.1585,-909.3573"/>
</g>
<!-- HLA_effects -->
<g id="node9" class="node">
<title>HLA_effects</title>
<g id="a_node9"><a xlink:title="Assya&#39;s project understanding the effects of HLA on repertoire.">
<ellipse fill="#ccebc5" stroke="#ccebc5" cx="1368.7723" cy="-1854.3999" rx="56.59" ry="18"/>
<text text-anchor="middle" x="1368.7723" y="-1850.6999" font-family="Times,serif" font-size="14.00" fill="#000000">HLA_effects</text>
</a>
</g>
</g>
<!-- PhIP_seq -->
<g id="node10" class="node">
<title>PhIP_seq</title>
<g id="a_node10"><a xlink:title="Develop statistics and software tools for PhIP&#45;seq analyses.">
<ellipse fill="#ccebc5" stroke="#ccebc5" cx="1964.5202" cy="-1348.6203" rx="44.393" ry="18"/>
<text text-anchor="middle" x="1964.5202" y="-1344.9203" font-family="Times,serif" font-size="14.00" fill="#000000">PhIP_seq</text>
</a>
</g>
</g>
<!-- TCR_GWAS -->
<g id="node11" class="node">
<title>TCR_GWAS</title>
<g id="a_node11"><a xlink:title="GWAS to infer TCR&#45;repertoire features.">
<ellipse fill="#ccebc5" stroke="#ccebc5" cx="1016.8706" cy="-1635.0977" rx="58.4896" ry="18"/>
<text text-anchor="middle" x="1016.8706" y="-1631.3977" font-family="Times,serif" font-size="14.00" fill="#000000">TCR_GWAS</text>
</a>
</g>
</g>
<!-- TCR_trimming_motifs -->
<g id="node12" class="node">
<title>TCR_trimming_motifs</title>
<g id="a_node12"><a xlink:title="What sequence&#45;level features determine trimming of TCRs in VDJ recombination?">
<ellipse fill="#ccebc5" stroke="#ccebc5" cx="935.236" cy="-2009.9026" rx="92.8835" ry="18"/>
<text text-anchor="middle" x="935.236" y="-2006.2026" font-family="Times,serif" font-size="14.00" fill="#000000">TCR_trimming_motifs</text>
</a>
</g>
</g>
<!-- bito -->
<g id="node13" class="node">
<title>bito</title>
<g id="a_node13"><a xlink:title="Bayesian Inference of Trees via Optimization: a C++/python package">
<ellipse fill="#ccebc5" stroke="#ccebc5" cx="888.7577" cy="-447.9327" rx="27" ry="18"/>
<text text-anchor="middle" x="888.7577" y="-444.2327" font-family="Times,serif" font-size="14.00" fill="#000000">bito</text>
</a>
</g>
</g>
<!-- autodiff_gradients -->
<g id="node14" class="node">
<title>autodiff_gradients</title>
<g id="a_node14"><a xlink:title="How fast is autodiff for phylogenetically&#45;relevant gradients?">
<ellipse fill="#ccebc5" stroke="#ccebc5" cx="946.2346" cy="-18.292" rx="75.2868" ry="18"/>
<text text-anchor="middle" x="946.2346" y="-14.592" font-family="Times,serif" font-size="14.00" fill="#000000">autodiff_gradients</text>
</a>
</g>
</g>
<!-- bito&#45;&#45;autodiff_gradients -->
<g id="edge4" class="edge">
<title>bito&#45;&#45;autodiff_gradients</title>
<path fill="none" stroke="#000000" d="M891.1907,-429.746C900.5707,-359.6298 934.3323,-107.2624 943.7689,-36.7236"/>
</g>
<!-- phylogenetic_VI -->
<g id="node19" class="node">
<title>phylogenetic_VI</title>
<g id="a_node19"><a xlink:title="Do variational inference of continuous parameters in phylogenetics.">
<ellipse fill="#ccebc5" stroke="#ccebc5" cx="794.8455" cy="-174.4685" rx="69.5877" ry="18"/>
<text text-anchor="middle" x="794.8455" y="-170.7685" font-family="Times,serif" font-size="14.00" fill="#000000">phylogenetic_VI</text>
</a>
</g>
</g>
<!-- bito&#45;&#45;phylogenetic_VI -->
<g id="edge2" class="edge">
<title>bito&#45;&#45;phylogenetic_VI</title>
<path fill="none" stroke="#000000" d="M882.5958,-429.99C865.5795,-380.4399 818.0734,-242.1062 801.03,-192.4773"/>
</g>
<!-- subsplit_DAG -->
<g id="node22" class="node">
<title>subsplit_DAG</title>
<g id="a_node22"><a xlink:title="Formalize definitions of and basic lemmas for the subsplit DAG.">
<ellipse fill="#ccebc5" stroke="#ccebc5" cx="641.346" cy="-595.2146" rx="61.99" ry="18"/>
<text text-anchor="middle" x="641.346" y="-591.5146" font-family="Times,serif" font-size="14.00" fill="#000000">subsplit_DAG</text>
</a>
</g>
</g>
<!-- bito&#45;&#45;subsplit_DAG -->
<g id="edge5" class="edge">
<title>bito&#45;&#45;subsplit_DAG</title>
<path fill="none" stroke="#000000" d="M868.5109,-459.9854C824.1941,-486.3668 718.5722,-549.2426 668.5311,-579.0316"/>
</g>
<!-- generalized_pruning -->
<g id="node15" class="node">
<title>generalized_pruning</title>
<g id="a_node15"><a xlink:title="Generalization of the Felsenstein pruning algorithm to the subsplit DAG.">
<ellipse fill="#ccebc5" stroke="#ccebc5" cx="582.8565" cy="-1002.2995" rx="83.3857" ry="18"/>
<text text-anchor="middle" x="582.8565" y="-998.5995" font-family="Times,serif" font-size="14.00" fill="#000000">generalized_pruning</text>
</a>
</g>
</g>
<!-- fix_generalized_pruning -->
<g id="node45" class="node">
<title>fix_generalized_pruning</title>
<g id="a_node45"><a xlink:title="How could we fix marginalization issues with generalized pruning?">
<polygon fill="none" stroke="#000000" points="489.9871,-1158.6477 353.0782,-1140.6477 489.9871,-1122.6477 626.896,-1140.6477 489.9871,-1158.6477"/>
<text text-anchor="middle" x="489.9871" y="-1136.9477" font-family="Times,serif" font-size="14.00" fill="#000000">fix_generalized_pruning</text>
</a>
</g>
</g>
<!-- generalized_pruning&#45;&#45;fix_generalized_pruning -->
<g id="edge17" class="edge">
<title>generalized_pruning&#45;&#45;fix_generalized_pruning</title>
<path fill="none" stroke="#000000" d="M570.7154,-1020.3861C552.6221,-1047.3399 518.8335,-1097.675 501.2587,-1123.8563"/>
</g>
<!-- linearham_empirical_uncertainty -->
<g id="node16" class="node">
<title>linearham_empirical_uncertainty</title>
<g id="a_node16"><a xlink:title="linearham is our Bayesian method for doing inference of BCR lineage evolution. If we apply it to well&#45;known data sets from the literature, how much uncertainty is there in ancestral sequence inference?">
<ellipse fill="#ccebc5" stroke="#ccebc5" cx="1495.669" cy="-1523.8482" rx="128.0773" ry="18"/>
<text text-anchor="middle" x="1495.669" y="-1520.1482" font-family="Times,serif" font-size="14.00" fill="#000000">linearham_empirical_uncertainty</text>
</a>
</g>
</g>
<!-- mechanistic_SHM -->
<g id="node17" class="node">
<title>mechanistic_SHM</title>
<g id="a_node17"><a xlink:title="Design and fit mechanistically&#45;based probabilistic models of the somatic hypermutation process.">
<ellipse fill="#ccebc5" stroke="#ccebc5" cx="1230.1889" cy="-867.6874" rx="77.1866" ry="18"/>
<text text-anchor="middle" x="1230.1889" y="-863.9874" font-family="Times,serif" font-size="14.00" fill="#000000">mechanistic_SHM</text>
</a>
</g>
</g>
<!-- context_sensitive_phylo -->
<g id="node35" class="node">
<title>context_sensitive_phylo</title>
<g id="a_node35"><a xlink:title="Develop phyogenetic methods that enable inference under context&#45;sensitive models.">
<polygon fill="#b3de69" stroke="#b3de69" points="963.0518,-830.2587 826.9812,-812.2587 963.0518,-794.2587 1099.1224,-812.2587 963.0518,-830.2587"/>
<text text-anchor="middle" x="963.0518" y="-808.5587" font-family="Times,serif" font-size="14.00" fill="#000000">context_sensitive_phylo</text>
</a>
</g>
</g>
<!-- mechanistic_SHM&#45;&#45;context_sensitive_phylo -->
<g id="edge59" class="edge">
<title>mechanistic_SHM&#45;&#45;context_sensitive_phylo</title>
<path fill="none" stroke="#000000" d="M1172.2242,-855.6602C1125.8818,-846.0446 1061.4346,-832.6723 1016.3638,-823.3205"/>
</g>
<!-- SHM_across_ages -->
<g id="node37" class="node">
<title>SHM_across_ages</title>
<g id="a_node37"><a xlink:title="Perform a detailed investigation of how SHM changes as people age.">
<polygon fill="#fdb462" stroke="#fdb462" points="1463.4178,-675.7795 1354.9966,-657.7795 1463.4178,-639.7795 1571.8389,-657.7795 1463.4178,-675.7795"/>
<text text-anchor="middle" x="1463.4178" y="-654.0795" font-family="Times,serif" font-size="14.00" fill="#000000">SHM_across_ages</text>
</a>
</g>
</g>
<!-- mechanistic_SHM&#45;&#45;SHM_across_ages -->
<g id="edge51" class="edge">
<title>mechanistic_SHM&#45;&#45;SHM_across_ages</title>
<path fill="none" stroke="#000000" d="M1249.6727,-850.1518C1294.4504,-809.8516 1404.0851,-711.1794 1446.3838,-673.1102"/>
</g>
<!-- paired_HL -->
<g id="node18" class="node">
<title>paired_HL</title>
<g id="a_node18"><a xlink:title="Perform clonal family inference with paired heavy and light chain sequences.">
<ellipse fill="#ccebc5" stroke="#ccebc5" cx="954.9907" cy="-1435.5479" rx="48.9926" ry="18"/>
<text text-anchor="middle" x="954.9907" y="-1431.8479" font-family="Times,serif" font-size="14.00" fill="#000000">paired_HL</text>
</a>
</g>
</g>
<!-- B_cell_CONGA -->
<g id="node34" class="node">
<title>B_cell_CONGA</title>
<g id="a_node34"><a xlink:title="Adapt CONGA (https://paperpile.com/shared/w2jo9E) for BCR sequences.">
<polygon fill="#b3de69" stroke="#b3de69" points="771.7495,-1479.9317 673.5497,-1461.9317 771.7495,-1443.9317 869.9494,-1461.9317 771.7495,-1479.9317"/>
<text text-anchor="middle" x="771.7495" y="-1458.2317" font-family="Times,serif" font-size="14.00" fill="#000000">B_cell_CONGA</text>
</a>
</g>
</g>
<!-- paired_HL&#45;&#45;B_cell_CONGA -->
<g id="edge60" class="edge">
<title>paired_HL&#45;&#45;B_cell_CONGA</title>
<path fill="none" stroke="#000000" d="M909.2239,-1442.1376C884.3126,-1445.7244 853.3079,-1450.1886 827.0512,-1453.9691"/>
</g>
<!-- adaptive_MCMC -->
<g id="node51" class="node">
<title>adaptive_MCMC</title>
<g id="a_node51"><a xlink:title="Use variational inference as a proposal distribution for MCMC.">
<polygon fill="none" stroke="#000000" points="1128.1491,-281.5945 1024.4193,-263.5945 1128.1491,-245.5945 1231.8788,-263.5945 1128.1491,-281.5945"/>
<text text-anchor="middle" x="1128.1491" y="-259.8945" font-family="Times,serif" font-size="14.00" fill="#000000">adaptive_MCMC</text>
</a>
</g>
</g>
<!-- phylogenetic_VI&#45;&#45;adaptive_MCMC -->
<g id="edge1" class="edge">
<title>phylogenetic_VI&#45;&#45;adaptive_MCMC</title>
<path fill="none" stroke="#000000" d="M843.3107,-187.4282C909.1207,-205.0259 1025.5908,-236.1703 1087.2358,-252.6542"/>
</g>
<!-- online_phylo_VI -->
<g id="node53" class="node">
<title>online_phylo_VI</title>
<g id="a_node53"><a xlink:title="Online (i.e. incremental) phylogenetic variational inference.">
<polygon fill="#d9d9d9" stroke="#d9d9d9" points="688.0117,-408.9503 587.635,-390.9503 688.0117,-372.9503 788.3883,-390.9503 688.0117,-408.9503"/>
<text text-anchor="middle" x="688.0117" y="-387.2503" font-family="Times,serif" font-size="14.00" fill="#000000">online_phylo_VI</text>
</a>
</g>
</g>
<!-- phylogenetic_VI&#45;&#45;online_phylo_VI -->
<g id="edge6" class="edge">
<title>phylogenetic_VI&#45;&#45;online_phylo_VI</title>
<path fill="none" stroke="#000000" d="M785.9207,-192.5533C765.5601,-233.8108 715.925,-334.3884 696.2456,-374.2655"/>
</g>
<!-- antibody_DMS&#45;&#45;PhIP_seq -->
<g id="edge33" class="edge">
<title>antibody_DMS&#45;&#45;PhIP_seq</title>
<path fill="none" stroke="#000000" d="M1880.9838,-1095.3422C1897.2975,-1144.8047 1942.2485,-1281.0937 1958.5316,-1330.4632"/>
</g>
<!-- antibody_DMS&#45;&#45;torchdms -->
<g id="edge32" class="edge">
<title>antibody_DMS&#45;&#45;torchdms</title>
<path fill="none" stroke="#000000" d="M1871.2335,-1059.0925C1864.0402,-1024.4052 1848.3431,-948.7108 1841.1617,-914.081"/>
</g>
<!-- dms_view2 -->
<g id="node36" class="node">
<title>dms_view2</title>
<g id="a_node36"><a xlink:title="Develop the next version of dms&#45;view, with abilities to compare between data sets and also show K_D inferences.">
<polygon fill="#bc80bd" stroke="#bc80bd" points="2150.0099,-1058.9235 2076.4448,-1040.9235 2150.0099,-1022.9235 2223.5751,-1040.9235 2150.0099,-1058.9235"/>
<text text-anchor="middle" x="2150.0099" y="-1037.2235" font-family="Times,serif" font-size="14.00" fill="#000000">dms_view2</text>
</a>
</g>
</g>
<!-- antibody_DMS&#45;&#45;dms_view2 -->
<g id="edge34" class="edge">
<title>antibody_DMS&#45;&#45;dms_view2</title>
<path fill="none" stroke="#000000" d="M1934.3102,-1069.2993C1984.3705,-1062.7138 2055.1273,-1053.4055 2101.7627,-1047.2706"/>
</g>
<!-- SARS2_parsimony_plateau -->
<g id="node21" class="node">
<title>SARS2_parsimony_plateau</title>
<g id="a_node21"><a xlink:title="Use a graph to capture the ensemble of maximally&#45;parsimonious trees for SARS&#45;Cov&#45;2 data. How much uncertainty is there? How does PANGO look?">
<ellipse fill="#ccebc5" stroke="#ccebc5" cx="891.6982" cy="-966.2983" rx="108.5808" ry="18"/>
<text text-anchor="middle" x="891.6982" y="-962.5983" font-family="Times,serif" font-size="14.00" fill="#000000">SARS2_parsimony_plateau</text>
</a>
</g>
</g>
<!-- subsplit_DAG&#45;&#45;generalized_pruning -->
<g id="edge9" class="edge">
<title>subsplit_DAG&#45;&#45;generalized_pruning</title>
<path fill="none" stroke="#000000" d="M638.7573,-613.2318C629.0959,-680.4745 595.2037,-916.3633 585.4816,-984.0285"/>
</g>
<!-- hillclimber -->
<g id="node27" class="node">
<title>hillclimber</title>
<g id="a_node27"><a xlink:title="What happens when we start ML algorithms at random starting points? What does it tell us about the phylogenetic likelihood surface?">
<polygon fill="#b3de69" stroke="#b3de69" points="257.3221,-688.9978 195.6024,-701.4355 133.8826,-688.9978 133.9402,-668.8732 257.2645,-668.8732 257.3221,-688.9978"/>
<text text-anchor="middle" x="195.6024" y="-679.7355" font-family="Times,serif" font-size="14.00" fill="#000000">hillclimber</text>
</a>
</g>
</g>
<!-- subsplit_DAG&#45;&#45;hillclimber -->
<g id="edge8" class="edge">
<title>subsplit_DAG&#45;&#45;hillclimber</title>
<path fill="none" stroke="#000000" d="M590.2135,-605.3347C507.8899,-621.628 346.2441,-653.6207 257.5225,-671.1804"/>
</g>
<!-- Bayesian_subtree_optimality -->
<g id="node39" class="node">
<title>Bayesian_subtree_optimality</title>
<g id="a_node39"><a xlink:title="How does the Bayesian posterior distribution of n taxa change when an n+1st taxon is added to the tree?">
<polygon fill="#b3de69" stroke="#b3de69" points="418.9441,-378.325 258.2389,-360.325 418.9441,-342.325 579.6493,-360.325 418.9441,-378.325"/>
<text text-anchor="middle" x="418.9441" y="-356.625" font-family="Times,serif" font-size="14.00" fill="#000000">Bayesian_subtree_optimality</text>
</a>
</g>
</g>
<!-- subsplit_DAG&#45;&#45;Bayesian_subtree_optimality -->
<g id="edge13" class="edge">
<title>subsplit_DAG&#45;&#45;Bayesian_subtree_optimality</title>
<path fill="none" stroke="#000000" d="M624.6297,-577.5597C582.9085,-533.496 474.6621,-419.1715 434.361,-376.6076"/>
</g>
<!-- fasdag -->
<g id="node40" class="node">
<title>fasdag</title>
<g id="a_node40"><a xlink:title="Develop NJ and parsimony approaches to reconstructing the sDAG.">
<polygon fill="#b3de69" stroke="#b3de69" points="700.7549,-786.0458 653.1617,-768.0458 700.7549,-750.0458 748.3481,-768.0458 700.7549,-786.0458"/>
<text text-anchor="middle" x="700.7549" y="-764.3458" font-family="Times,serif" font-size="14.00" fill="#000000">fasdag</text>
</a>
</g>
</g>
<!-- subsplit_DAG&#45;&#45;fasdag -->
<g id="edge14" class="edge">
<title>subsplit_DAG&#45;&#45;fasdag</title>
<path fill="none" stroke="#000000" d="M647.5915,-613.3839C659.2398,-647.2709 684.1018,-719.5988 695.2024,-751.8924"/>
</g>
<!-- variational_on_time_tree_samples -->
<g id="node41" class="node">
<title>variational_on_time_tree_samples</title>
<g id="a_node41"><a xlink:title="Develop variational models and fit them to time&#45;tree MCMC samples. How well do they fit?">
<polygon fill="#b3de69" stroke="#b3de69" points="321.7067,-905.8706 134.1906,-887.8706 321.7067,-869.8706 509.2229,-887.8706 321.7067,-905.8706"/>
<text text-anchor="middle" x="321.7067" y="-884.1706" font-family="Times,serif" font-size="14.00" fill="#000000">variational_on_time_tree_samples</text>
</a>
</g>
</g>
<!-- subsplit_DAG&#45;&#45;variational_on_time_tree_samples -->
<g id="edge16" class="edge">
<title>subsplit_DAG&#45;&#45;variational_on_time_tree_samples</title>
<path fill="none" stroke="#000000" d="M622.3083,-612.6452C565.1886,-664.9429 395.7731,-820.0567 339.8476,-871.2612"/>
</g>
<!-- local_EM -->
<g id="node47" class="node">
<title>local_EM</title>
<g id="a_node47"><a xlink:title="Develop an EM algorithm for variational inference that uses local computation. Go Hogwild.">
<polygon fill="#b3de69" stroke="#b3de69" points="777.8463,-607.0928 712.8251,-589.0928 777.8463,-571.0928 842.8675,-589.0928 777.8463,-607.0928"/>
<text text-anchor="middle" x="777.8463" y="-585.3928" font-family="Times,serif" font-size="14.00" fill="#000000">local_EM</text>
</a>
</g>
</g>
<!-- subsplit_DAG&#45;&#45;local_EM -->
<g id="edge10" class="edge">
<title>subsplit_DAG&#45;&#45;local_EM</title>
<path fill="none" stroke="#000000" d="M702.4097,-592.476C708.7983,-592.1895 715.2718,-591.8992 721.603,-591.6153"/>
</g>
<!-- find_MAP_tree_in_subsplit_DAG -->
<g id="node49" class="node">
<title>find_MAP_tree_in_subsplit_DAG</title>
<g id="a_node49"><a xlink:title="Can we quickly find the MAP tree in the subsplit DAG?">
<polygon fill="#b3de69" stroke="#b3de69" points="438.0924,-745.4622 250.5763,-727.4622 438.0924,-709.4622 625.6086,-727.4622 438.0924,-745.4622"/>
<text text-anchor="middle" x="438.0924" y="-723.7622" font-family="Times,serif" font-size="14.00" fill="#000000">find_MAP_tree_in_subsplit_DAG</text>
</a>
</g>
</g>
<!-- subsplit_DAG&#45;&#45;find_MAP_tree_in_subsplit_DAG -->
<g id="edge15" class="edge">
<title>subsplit_DAG&#45;&#45;find_MAP_tree_in_subsplit_DAG</title>
<path fill="none" stroke="#000000" d="M616.0147,-611.6965C576.6403,-637.3156 501.2575,-686.3637 462.4723,-711.5994"/>
</g>
<!-- how_big_of_sDAG -->
<g id="node52" class="node">
<title>how_big_of_sDAG</title>
<g id="a_node52"><a xlink:title="How big of a subsplit DAG is actually required to get reasonable estimates (with uncertaintly quantification) of key parameters?">
<polygon fill="none" stroke="#000000" points="415.5774,-519.1925 302.4647,-501.1925 415.5774,-483.1925 528.6901,-501.1925 415.5774,-519.1925"/>
<text text-anchor="middle" x="415.5774" y="-497.4925" font-family="Times,serif" font-size="14.00" fill="#000000">how_big_of_sDAG</text>
</a>
</g>
</g>
<!-- subsplit_DAG&#45;&#45;how_big_of_sDAG -->
<g id="edge12" class="edge">
<title>subsplit_DAG&#45;&#45;how_big_of_sDAG</title>
<path fill="none" stroke="#000000" d="M605.5723,-580.3166C561.9299,-562.1415 488.8326,-531.6999 447.1766,-514.3521"/>
</g>
<!-- subsplit_DAG&#45;&#45;online_phylo_VI -->
<g id="edge7" class="edge">
<title>subsplit_DAG&#45;&#45;online_phylo_VI</title>
<path fill="none" stroke="#000000" d="M645.4872,-577.0875C654.3875,-538.1296 675.2411,-446.8495 684.0125,-408.4555"/>
</g>
<!-- Bayesian_histories -->
<g id="node57" class="node">
<title>Bayesian_histories</title>
<polygon fill="none" stroke="#000000" points="1048.7307,-939.2197 929.7307,-939.2197 929.7307,-903.2197 1048.7307,-903.2197 1048.7307,-939.2197"/>
<text text-anchor="middle" x="989.2307" y="-917.5197" font-family="Times,serif" font-size="14.00" fill="#000000">Bayesian_histories</text>
</g>
<!-- subsplit_DAG&#45;&#45;Bayesian_histories -->
<g id="edge11" class="edge">
<title>subsplit_DAG&#45;&#45;Bayesian_histories</title>
<path fill="none" stroke="#000000" d="M660.0498,-612.7421C720.3128,-669.215 909.0142,-846.0483 970.008,-903.206"/>
</g>
<!-- benchmark_torchdms -->
<g id="node55" class="node">
<title>benchmark_torchdms</title>
<g id="a_node55"><a xlink:title="Perform futher benchmarking of torchdms and other methods.">
<polygon fill="#b3de69" stroke="#b3de69" points="2083.3543,-758.323 1959.1817,-740.323 2083.3543,-722.323 2207.5268,-740.323 2083.3543,-758.323"/>
<text text-anchor="middle" x="2083.3543" y="-736.623" font-family="Times,serif" font-size="14.00" fill="#000000">benchmark_torchdms</text>
</a>
</g>
</g>
<!-- torchdms&#45;&#45;benchmark_torchdms -->
<g id="edge31" class="edge">
<title>torchdms&#45;&#45;benchmark_torchdms</title>
<path fill="none" stroke="#000000" d="M1861.4682,-880.9165C1908.7228,-850.9746 2013.2061,-784.7709 2059.9517,-755.1516"/>
</g>
<!-- transport -->
<g id="node24" class="node">
<title>transport</title>
<g id="a_node24"><a xlink:title="Compare TCR repertoires via optimal transport.">
<ellipse fill="#ccebc5" stroke="#ccebc5" cx="1254.9354" cy="-2083.328" rx="42.4939" ry="18"/>
<text text-anchor="middle" x="1254.9354" y="-2079.628" font-family="Times,serif" font-size="14.00" fill="#000000">transport</text>
</a>
</g>
</g>
<!-- VI_diagnostics -->
<g id="node25" class="node">
<title>VI_diagnostics</title>
<g id="a_node25"><a xlink:title="How will we know if VI is giving a good approximation?">
<ellipse fill="#ccebc5" stroke="#ccebc5" cx="643.1725" cy="-54.2771" rx="63.8893" ry="18"/>
<text text-anchor="middle" x="643.1725" y="-50.5771" font-family="Times,serif" font-size="14.00" fill="#000000">VI_diagnostics</text>
</a>
</g>
</g>
<!-- VI_diagnostics&#45;&#45;phylogenetic_VI -->
<g id="edge3" class="edge">
<title>VI_diagnostics&#45;&#45;phylogenetic_VI</title>
<path fill="none" stroke="#000000" d="M664.5819,-71.2427C693.3254,-94.0201 744.1165,-134.2689 773.0539,-157.2"/>
</g>
<!-- CFT -->
<g id="node26" class="node">
<title>CFT</title>
<g id="a_node26"><a xlink:title="The Clonal Family Tree pipeline to do clonal family inference and then phylogenetics.">
<polygon fill="#bc80bd" stroke="#bc80bd" points="1661.5918,-756.2556 1628.7151,-768.6933 1595.8384,-756.2556 1595.8691,-736.131 1661.5611,-736.131 1661.5918,-756.2556"/>
<text text-anchor="middle" x="1628.7151" y="-746.9933" font-family="Times,serif" font-size="14.00" fill="#000000">CFT</text>
</a>
</g>
</g>
<!-- olmsted -->
<g id="node28" class="node">
<title>olmsted</title>
<g id="a_node28"><a xlink:title="A visualization tool for BCR lineages.">
<polygon fill="none" stroke="#000000" points="1784.2965,-620.8471 1735.8909,-633.2848 1687.4853,-620.8471 1687.5305,-600.7225 1784.2513,-600.7225 1784.2965,-620.8471"/>
<text text-anchor="middle" x="1735.8909" y="-611.5848" font-family="Times,serif" font-size="14.00" fill="#000000">olmsted</text>
</a>
</g>
</g>
<!-- CFT&#45;&#45;olmsted -->
<g id="edge49" class="edge">
<title>CFT&#45;&#45;olmsted</title>
<path fill="none" stroke="#000000" d="M1640.3888,-735.9445C1660.8965,-710.0345 1703.1776,-656.6156 1723.9044,-630.4288"/>
</g>
<!-- find_posterior_modes -->
<g id="node42" class="node">
<title>find_posterior_modes</title>
<g id="a_node42"><a xlink:title="Can we do something to quickly find posterior modes in the phylogenetic posterior? Can we do better than hillclimbing?">
<polygon fill="#b3de69" stroke="#b3de69" points="124.866,-410.1941 -.1447,-392.1941 124.866,-374.1941 249.8768,-392.1941 124.866,-410.1941"/>
<text text-anchor="middle" x="124.866" y="-388.4941" font-family="Times,serif" font-size="14.00" fill="#000000">find_posterior_modes</text>
</a>
</g>
</g>
<!-- hillclimber&#45;&#45;find_posterior_modes -->
<g id="edge18" class="edge">
<title>hillclimber&#45;&#45;find_posterior_modes</title>
<path fill="none" stroke="#000000" d="M191.9973,-668.5924C180.0883,-619.5597 142.0359,-462.8874 129.1666,-409.9009"/>
</g>
<!-- BCR_GWAS -->
<g id="node29" class="node">
<title>BCR_GWAS</title>
<g id="a_node29"><a xlink:title="Do a GWAS for BCR repertoire features. Can we learn about SHM too?">
<polygon fill="#fdb462" stroke="#fdb462" points="1160.6591,-1501.1939 1076.8722,-1483.1939 1160.6591,-1465.1939 1244.446,-1483.1939 1160.6591,-1501.1939"/>
<text text-anchor="middle" x="1160.6591" y="-1479.4939" font-family="Times,serif" font-size="14.00" fill="#000000">BCR_GWAS</text>
</a>
</g>
</g>
<!-- BCR_GWAS&#45;&#45;TCR_GWAS -->
<g id="edge53" class="edge">
<title>BCR_GWAS&#45;&#45;TCR_GWAS</title>
<path fill="none" stroke="#000000" d="M1146.3464,-1498.3144C1119.4954,-1526.6808 1061.7196,-1587.7174 1033.3168,-1617.7233"/>
</g>
<!-- BCR_indels -->
<g id="node30" class="node">
<title>BCR_indels</title>
<g id="a_node30"><a xlink:title="What sequence features lead to indels in BCR sequences?">
<polygon fill="#8dd3c7" stroke="#8dd3c7" points="1617.6327,-1466.9561 1541.552,-1448.9561 1617.6327,-1430.9561 1693.7134,-1448.9561 1617.6327,-1466.9561"/>
<text text-anchor="middle" x="1617.6327" y="-1445.2561" font-family="Times,serif" font-size="14.00" fill="#000000">BCR_indels</text>
</a>
</g>
</g>
<!-- clonal_families_with_indels -->
<g id="node31" class="node">
<title>clonal_families_with_indels</title>
<g id="a_node31"><a xlink:title="Can we do better clonal family clustering in the presence of indels?">
<polygon fill="#8dd3c7" stroke="#8dd3c7" points="1429.5302,-1315.1469 1273.5163,-1297.1469 1429.5302,-1279.1469 1585.544,-1297.1469 1429.5302,-1315.1469"/>
<text text-anchor="middle" x="1429.5302" y="-1293.4469" font-family="Times,serif" font-size="14.00" fill="#000000">clonal_families_with_indels</text>
</a>
</g>
</g>
<!-- BCR_selection_analysis -->
<g id="node32" class="node">
<title>BCR_selection_analysis</title>
<g id="a_node32"><a xlink:title="Improve dN/dS analysis for BCR lineages, looking site&#45;wise and per&#45;lineage.">
<polygon fill="#8dd3c7" stroke="#8dd3c7" points="1494.8041,-1144.8017 1357.8952,-1126.8017 1494.8041,-1108.8017 1631.713,-1126.8017 1494.8041,-1144.8017"/>
<text text-anchor="middle" x="1494.8041" y="-1123.1017" font-family="Times,serif" font-size="14.00" fill="#000000">BCR_selection_analysis</text>
</a>
</g>
</g>
<!-- BCR_trajectories -->
<g id="node33" class="node">
<title>BCR_trajectories</title>
<g id="a_node33"><a xlink:title="Look for patterns in BCR sequence evolution. Do they fall into &#39;trajectories&#39;?">
<polygon fill="#8dd3c7" stroke="#8dd3c7" points="1588.6723,-1217.6406 1487.4576,-1199.6406 1588.6723,-1181.6406 1689.8871,-1199.6406 1588.6723,-1217.6406"/>
<text text-anchor="middle" x="1588.6723" y="-1195.9406" font-family="Times,serif" font-size="14.00" fill="#000000">BCR_trajectories</text>
</a>
</g>
</g>
<!-- Bayesian_VDJ_recombination -->
<g id="node38" class="node">
<title>Bayesian_VDJ_recombination</title>
<g id="a_node38"><a xlink:title="Can we do Bayesian estimation of VDJ recombination models?">
<polygon fill="none" stroke="#000000" points="1251.7419,-1615.6428 1083.3301,-1597.6428 1251.7419,-1579.6428 1420.1537,-1597.6428 1251.7419,-1615.6428"/>
<text text-anchor="middle" x="1251.7419" y="-1593.9428" font-family="Times,serif" font-size="14.00" fill="#000000">Bayesian_VDJ_recombination</text>
</a>
</g>
</g>
<!-- help_PANGO -->
<g id="node43" class="node">
<title>help_PANGO</title>
<g id="a_node43"><a xlink:title="What sort of tooling would actually help PANGO do their job better?">
<polygon fill="none" stroke="#000000" points="1134.6131,-1127.3552 1049.1499,-1109.3552 1134.6131,-1091.3552 1220.0764,-1109.3552 1134.6131,-1127.3552"/>
<text text-anchor="middle" x="1134.6131" y="-1105.6552" font-family="Times,serif" font-size="14.00" fill="#000000">help_PANGO</text>
</a>
</g>
</g>
<!-- big_tree_likelihoods -->
<g id="node44" class="node">
<title>big_tree_likelihoods</title>
<g id="a_node44"><a xlink:title="How can we bridge the gap between parsimony and full Felsenstein likelihoods?">
<polygon fill="none" stroke="#000000" points="1113.1245,-607.2536 995.32,-589.2536 1113.1245,-571.2536 1230.9289,-589.2536 1113.1245,-607.2536"/>
<text text-anchor="middle" x="1113.1245" y="-585.5536" font-family="Times,serif" font-size="14.00" fill="#000000">big_tree_likelihoods</text>
</a>
</g>
</g>
<!-- fast_TreeTime -->
<g id="node48" class="node">
<title>fast_TreeTime</title>
<g id="a_node48"><a xlink:title="Speed up ML inference of time trees.">
<polygon fill="#8dd3c7" stroke="#8dd3c7" points="839.1224,-1183.1186 749.8056,-1165.1186 839.1224,-1147.1186 928.4392,-1165.1186 839.1224,-1183.1186"/>
<text text-anchor="middle" x="839.1224" y="-1161.4186" font-family="Times,serif" font-size="14.00" fill="#000000">fast_TreeTime</text>
</a>
</g>
</g>
<!-- polytomy_resolution -->
<g id="node50" class="node">
<title>polytomy_resolution</title>
<g id="a_node50"><a xlink:title="Can we quickly resolve sequence&#45;level polytomies using timing/geography?">
<polygon fill="none" stroke="#000000" points="1036.6584,-1227.1319 917.1775,-1209.1319 1036.6584,-1191.1319 1156.1393,-1209.1319 1036.6584,-1227.1319"/>
<text text-anchor="middle" x="1036.6584" y="-1205.4319" font-family="Times,serif" font-size="14.00" fill="#000000">polytomy_resolution</text>
</a>
</g>
</g>
<!-- fast_TreeTime&#45;&#45;polytomy_resolution -->
<g id="edge26" class="edge">
<title>fast_TreeTime&#45;&#45;polytomy_resolution</title>
<path fill="none" stroke="#000000" d="M881.9848,-1174.6688C913.3026,-1181.6468 955.8023,-1191.1162 988.3277,-1198.3632"/>
</g>
<!-- how_big_of_sDAG&#45;&#45;find_posterior_modes -->
<g id="edge19" class="edge">
<title>how_big_of_sDAG&#45;&#45;find_posterior_modes</title>
<path fill="none" stroke="#000000" d="M381.6602,-488.4757C326.0924,-467.6413 216.2225,-426.447 159.9224,-405.338"/>
</g>
<!-- SARS2_lineage_prediction -->
<g id="node54" class="node">
<title>SARS2_lineage_prediction</title>
<g id="a_node54"><a xlink:title="Predict future dominant clades of SARS&#45;Cov&#45;2.">
<polygon fill="#b3de69" stroke="#b3de69" points="1284.9079,-415.022 1133.9239,-397.022 1284.9079,-379.022 1435.8918,-397.022 1284.9079,-415.022"/>
<text text-anchor="middle" x="1284.9079" y="-393.322" font-family="Times,serif" font-size="14.00" fill="#000000">SARS2_lineage_prediction</text>
</a>
</g>
</g>
<!-- BCR_analysis -->
<g id="node56" class="node">
<title>BCR_analysis</title>
<polygon fill="none" stroke="#000000" points="1391.6812,-1239.9853 1297.6812,-1239.9853 1297.6812,-1203.9853 1391.6812,-1203.9853 1391.6812,-1239.9853"/>
<text text-anchor="middle" x="1344.6812" y="-1218.2853" font-family="Times,serif" font-size="14.00" fill="#000000">BCR_analysis</text>
</g>
<!-- BCR_analysis&#45;&#45;Bayesian_GCtree -->
<g id="edge43" class="edge">
<title>BCR_analysis&#45;&#45;Bayesian_GCtree</title>
<path fill="none" stroke="#000000" d="M1340.1954,-1203.8538C1330.7831,-1165.8092 1309.0644,-1078.0224 1299.6298,-1039.8878"/>
</g>
<!-- BCR_analysis&#45;&#45;linearham_empirical_uncertainty -->
<g id="edge42" class="edge">
<title>BCR_analysis&#45;&#45;linearham_empirical_uncertainty</title>
<path fill="none" stroke="#000000" d="M1353.8989,-1240.4138C1380.9182,-1294.4322 1459.7074,-1451.952 1486.5719,-1505.661"/>
</g>
<!-- BCR_analysis&#45;&#45;mechanistic_SHM -->
<g id="edge50" class="edge">
<title>BCR_analysis&#45;&#45;mechanistic_SHM</title>
<path fill="none" stroke="#000000" d="M1338.8461,-1203.9286C1319.2059,-1143.1517 1255.635,-946.4305 1236.0123,-885.7078"/>
</g>
<!-- BCR_analysis&#45;&#45;paired_HL -->
<g id="edge40" class="edge">
<title>BCR_analysis&#45;&#45;paired_HL</title>
<path fill="none" stroke="#000000" d="M1311.7923,-1240.0095C1236.376,-1281.34 1052.1215,-1382.3172 982.3621,-1420.5475"/>
</g>
<!-- BCR_analysis&#45;&#45;CFT -->
<g id="edge41" class="edge">
<title>BCR_analysis&#45;&#45;CFT</title>
<path fill="none" stroke="#000000" d="M1355.6417,-1203.7989C1401.5196,-1127.6745 1577.6955,-835.3493 1619.6903,-765.668"/>
</g>
<!-- BCR_analysis&#45;&#45;BCR_GWAS -->
<g id="edge52" class="edge">
<title>BCR_analysis&#45;&#45;BCR_GWAS</title>
<path fill="none" stroke="#000000" d="M1331.7412,-1240.353C1297.2986,-1289.2422 1203.8258,-1421.9214 1171.6871,-1467.5403"/>
</g>
<!-- BCR_analysis&#45;&#45;BCR_indels -->
<g id="edge37" class="edge">
<title>BCR_analysis&#45;&#45;BCR_indels</title>
<path fill="none" stroke="#000000" d="M1366.5566,-1240.1756C1419.4355,-1284.1467 1553.3201,-1395.4774 1600.6985,-1434.8746"/>
</g>
<!-- BCR_analysis&#45;&#45;clonal_families_with_indels -->
<g id="edge38" class="edge">
<title>BCR_analysis&#45;&#45;clonal_families_with_indels</title>
<path fill="none" stroke="#000000" d="M1365.2208,-1240.1798C1379.3459,-1252.6922 1397.9282,-1269.1529 1411.484,-1281.161"/>
</g>
<!-- BCR_analysis&#45;&#45;BCR_selection_analysis -->
<g id="edge35" class="edge">
<title>BCR_analysis&#45;&#45;BCR_selection_analysis</title>
<path fill="none" stroke="#000000" d="M1373.2716,-1203.858C1401.6855,-1185.8424 1444.7466,-1158.5401 1471.2533,-1141.7339"/>
</g>
<!-- BCR_analysis&#45;&#45;BCR_trajectories -->
<g id="edge36" class="edge">
<title>BCR_analysis&#45;&#45;BCR_trajectories</title>
<path fill="none" stroke="#000000" d="M1391.7252,-1217.677C1428.5604,-1214.3037 1480.2801,-1209.5672 1521.4761,-1205.7944"/>
</g>
<!-- BCR_analysis&#45;&#45;Bayesian_VDJ_recombination -->
<g id="edge44" class="edge">
<title>BCR_analysis&#45;&#45;Bayesian_VDJ_recombination</title>
<path fill="none" stroke="#000000" d="M1340.1986,-1240.1041C1324.4619,-1303.7114 1271.8458,-1516.3836 1256.1796,-1579.7059"/>
</g>
<!-- BCR_analysis&#45;&#45;Bayesian_histories -->
<g id="edge39" class="edge">
<title>BCR_analysis&#45;&#45;Bayesian_histories</title>
<path fill="none" stroke="#000000" d="M1323.2467,-1203.8484C1259.9065,-1150.2529 1074.0694,-993.0063 1010.6932,-939.3803"/>
</g>
<!-- Bayesian_histories&#45;&#45;Bayesian_GCtree -->
<g id="edge21" class="edge">
<title>Bayesian_histories&#45;&#45;Bayesian_GCtree</title>
<path fill="none" stroke="#000000" d="M1044.2706,-939.2912C1103.4406,-958.7187 1196.3376,-989.2199 1250.9307,-1007.1447"/>
</g>
<!-- Bayesian_histories&#45;&#45;SARS2_parsimony_plateau -->
<g id="edge22" class="edge">
<title>Bayesian_histories&#45;&#45;SARS2_parsimony_plateau</title>
<path fill="none" stroke="#000000" d="M950.1225,-939.2952C943.021,-942.5774 935.6347,-945.9913 928.5993,-949.243"/>
</g>
<!-- Bayesian_histories&#45;&#45;context_sensitive_phylo -->
<g id="edge20" class="edge">
<title>Bayesian_histories&#45;&#45;context_sensitive_phylo</title>
<path fill="none" stroke="#000000" d="M984.7898,-902.736C979.8883,-882.3351 972.0583,-849.7451 967.2543,-829.7501"/>
</g>
<!-- Bayesian_histories&#45;&#45;help_PANGO -->
<g id="edge23" class="edge">
<title>Bayesian_histories&#45;&#45;help_PANGO</title>
<path fill="none" stroke="#000000" d="M1003.1706,-939.259C1031.5988,-976.0471 1095.8341,-1059.1723 1122.5767,-1093.7791"/>
</g>
<!-- Bayesian_histories&#45;&#45;big_tree_likelihoods -->
<g id="edge25" class="edge">
<title>Bayesian_histories&#45;&#45;big_tree_likelihoods</title>
<path fill="none" stroke="#000000" d="M996.0683,-902.8989C1017.8815,-844.4517 1085.6195,-662.9518 1106.7573,-606.3142"/>
</g>
<!-- Bayesian_histories&#45;&#45;fast_TreeTime -->
<g id="edge24" class="edge">
<title>Bayesian_histories&#45;&#45;fast_TreeTime</title>
<path fill="none" stroke="#000000" d="M977.9482,-939.5518C949.6525,-985.5272 876.0202,-1105.1665 849.136,-1148.8483"/>
</g>
<!-- TCR_analysis -->
<g id="node58" class="node">
<title>TCR_analysis</title>
<polygon fill="none" stroke="#000000" points="1244.7973,-1854.6126 1151.7973,-1854.6126 1151.7973,-1818.6126 1244.7973,-1818.6126 1244.7973,-1854.6126"/>
<text text-anchor="middle" x="1198.2973" y="-1832.9126" font-family="Times,serif" font-size="14.00" fill="#000000">TCR_analysis</text>
</g>
<!-- TCR_analysis&#45;&#45;HLA_effects -->
<g id="edge55" class="edge">
<title>TCR_analysis&#45;&#45;HLA_effects</title>
<path fill="none" stroke="#000000" d="M1244.8804,-1841.4731C1266.5686,-1843.736 1292.4929,-1846.4409 1315.0085,-1848.7902"/>
</g>
<!-- TCR_analysis&#45;&#45;TCR_GWAS -->
<g id="edge54" class="edge">
<title>TCR_analysis&#45;&#45;TCR_GWAS</title>
<path fill="none" stroke="#000000" d="M1181.8769,-1818.3741C1147.1609,-1779.8142 1066.7102,-1690.4557 1032.6055,-1652.5748"/>
</g>
<!-- TCR_analysis&#45;&#45;TCR_trimming_motifs -->
<g id="edge57" class="edge">
<title>TCR_analysis&#45;&#45;TCR_trimming_motifs</title>
<path fill="none" stroke="#000000" d="M1170.6424,-1854.8301C1119.7235,-1888.3726 1011.7817,-1959.4786 961.7379,-1992.4446"/>
</g>
<!-- TCR_analysis&#45;&#45;transport -->
<g id="edge56" class="edge">
<title>TCR_analysis&#45;&#45;transport</title>
<path fill="none" stroke="#000000" d="M1202.4621,-1854.7542C1212.9362,-1900.3794 1240.2839,-2019.506 1250.7645,-2065.1598"/>
</g>
<!-- TCR_analysis&#45;&#45;Bayesian_VDJ_recombination -->
<g id="edge58" class="edge">
<title>TCR_analysis&#45;&#45;Bayesian_VDJ_recombination</title>
<path fill="none" stroke="#000000" d="M1202.4023,-1818.2578C1212.3994,-1773.5572 1237.9095,-1659.4926 1247.7687,-1615.4084"/>
</g>
<!-- trees_and_fitness -->
<g id="node59" class="node">
<title>trees_and_fitness</title>
<polygon fill="none" stroke="#000000" points="1352.128,-763.6723 1242.128,-763.6723 1242.128,-727.6723 1352.128,-727.6723 1352.128,-763.6723"/>
<text text-anchor="middle" x="1297.128" y="-741.9723" font-family="Times,serif" font-size="14.00" fill="#000000">trees_and_fitness</text>
</g>
<!-- trees_and_fitness&#45;&#45;GCreplay -->
<g id="edge46" class="edge">
<title>trees_and_fitness&#45;&#45;GCreplay</title>
<path fill="none" stroke="#000000" d="M1328.1095,-763.7619C1401.0443,-806.3474 1582.4919,-912.2917 1649.9341,-951.6701"/>
</g>
<!-- trees_and_fitness&#45;&#45;GCtree_with_heritable -->
<g id="edge45" class="edge">
<title>trees_and_fitness&#45;&#45;GCtree_with_heritable</title>
<path fill="none" stroke="#000000" d="M1326.8293,-763.7606C1349.2908,-777.4398 1379.7543,-795.9923 1400.7989,-808.8085"/>
</g>
<!-- trees_and_fitness&#45;&#45;SARS2_lineage_prediction -->
<g id="edge47" class="edge">
<title>trees_and_fitness&#45;&#45;SARS2_lineage_prediction</title>
<path fill="none" stroke="#000000" d="M1296.4882,-727.4183C1294.3765,-667.17 1287.6437,-475.0791 1285.5413,-415.0954"/>
</g>
<!-- trees_and_fitness&#45;&#45;Bayesian_histories -->
<g id="edge48" class="edge">
<title>trees_and_fitness&#45;&#45;Bayesian_histories</title>
<path fill="none" stroke="#000000" d="M1265.3373,-763.7978C1206.1832,-797.5244 1079.8714,-869.541 1020.8485,-903.1929"/>
</g>
<!-- train_awesome_researchers -->
<g id="node60" class="node">
<title>train_awesome_researchers</title>
<polygon fill="none" stroke="#000000" points="2180.9498,-1891.6989 2013.869,-1891.6989 1962.2381,-2050.4539 1910.6073,-1891.6989 1743.5264,-1891.6989 1878.6977,-1793.5829 1827.0668,-1634.8278 1962.2381,-1732.9438 2097.4094,-1634.8278 2045.7786,-1793.5829 2180.9498,-1891.6989"/>
<text text-anchor="middle" x="1962.2381" y="-1838.9409" font-family="Times,serif" font-size="14.00" fill="#000000">train_awesome_researchers</text>
</g>
<!-- diversify_comp_bio -->
<g id="node61" class="node">
<title>diversify_comp_bio</title>
<polygon fill="none" stroke="#000000" points="766.1104,-1828.6392 640.1592,-1828.6392 601.2381,-1948.3682 562.317,-1828.6392 436.3658,-1828.6392 538.2625,-1754.6426 499.3414,-1634.9136 601.2381,-1708.9102 703.1348,-1634.9136 664.2137,-1754.6426 766.1104,-1828.6392"/>
<text text-anchor="middle" x="601.2381" y="-1787.9409" font-family="Times,serif" font-size="14.00" fill="#000000">diversify_comp_bio</text>
</g>
<!-- eradicate_disease -->
<g id="node62" class="node">
<title>eradicate_disease</title>
<polygon fill="none" stroke="#000000" points="2361.3402,-280.3077 2250.4921,-280.3077 2216.2381,-386.0199 2181.9842,-280.3077 2071.1361,-280.3077 2160.8141,-214.974 2126.5601,-109.2619 2216.2381,-174.5956 2305.9161,-109.2619 2271.6622,-214.974 2361.3402,-280.3077"/>
<text text-anchor="middle" x="2216.2381" y="-243.9409" font-family="Times,serif" font-size="14.00" fill="#000000">eradicate_disease</text>
</g>
</g>
</svg>
