<?xml version="1.0" encoding="UTF-8" standalone="no"?>
<!DOCTYPE svg PUBLIC "-//W3C//DTD SVG 1.1//EN"
 "http://www.w3.org/Graphics/SVG/1.1/DTD/svg11.dtd">
<!-- Generated by graphviz version 2.40.1 (20161225.0304)
 -->
<!-- Title: %3 Pages: 1 -->
<svg width="1919pt" height="1819pt"
 viewBox="0.00 0.00 1918.87 1818.81" xmlns="http://www.w3.org/2000/svg" xmlns:xlink="http://www.w3.org/1999/xlink">
<g id="graph0" class="graph" transform="scale(1 1) rotate(0) translate(4 1814.813)">
<title>%3</title>
<polygon fill="#ffffff" stroke="transparent" points="-4,4 -4,-1814.813 1914.8723,-1814.813 1914.8723,4 -4,4"/>
<!-- Bayesian_GCtree -->
<g id="node1" class="node">
<title>Bayesian_GCtree</title>
<ellipse fill="#ccebc5" stroke="#ccebc5" cx="1222.0338" cy="-900.4612" rx="72.5877" ry="18"/>
<text text-anchor="middle" x="1222.0338" y="-896.7612" font-family="Times,serif" font-size="14.00" fill="#000000">Bayesian_GCtree</text>
</g>
<!-- GCreplay -->
<g id="node2" class="node">
<title>GCreplay</title>
<ellipse fill="#ccebc5" stroke="#ccebc5" cx="1374.9983" cy="-1042.429" rx="44.6926" ry="18"/>
<text text-anchor="middle" x="1374.9983" y="-1038.729" font-family="Times,serif" font-size="14.00" fill="#000000">GCreplay</text>
</g>
<!-- Bayesian_GCtree&#45;&#45;GCreplay -->
<g id="edge23" class="edge">
<title>Bayesian_GCtree&#45;&#45;GCreplay</title>
<path fill="none" stroke="#000000" d="M1240.7903,-917.8692C1270.4674,-945.4128 1327.8674,-998.6864 1357.0392,-1025.761"/>
</g>
<!-- GCtree_with_heritable -->
<g id="node27" class="node">
<title>GCtree_with_heritable</title>
<polygon fill="none" stroke="#000000" points="1193.443,-1099.1797 1064.5787,-1081.1797 1193.443,-1063.1797 1322.3073,-1081.1797 1193.443,-1099.1797"/>
<text text-anchor="middle" x="1193.443" y="-1077.4797" font-family="Times,serif" font-size="14.00" fill="#000000">GCtree_with_heritable</text>
</g>
<!-- Bayesian_GCtree&#45;&#45;GCtree_with_heritable -->
<g id="edge24" class="edge">
<title>Bayesian_GCtree&#45;&#45;GCtree_with_heritable</title>
<path fill="none" stroke="#000000" d="M1219.1879,-918.4499C1213.6935,-953.1792 1201.6869,-1029.071 1196.2352,-1063.5303"/>
</g>
<!-- antibody_DMS -->
<g id="node13" class="node">
<title>antibody_DMS</title>
<ellipse fill="#ccebc5" stroke="#ccebc5" cx="1514.251" cy="-1172.8039" rx="65.7887" ry="18"/>
<text text-anchor="middle" x="1514.251" y="-1169.1039" font-family="Times,serif" font-size="14.00" fill="#000000">antibody_DMS</text>
</g>
<!-- GCreplay&#45;&#45;antibody_DMS -->
<g id="edge26" class="edge">
<title>GCreplay&#45;&#45;antibody_DMS</title>
<path fill="none" stroke="#000000" d="M1392.9181,-1059.2063C1419.3626,-1083.9649 1468.6047,-1130.0676 1495.5115,-1155.259"/>
</g>
<!-- torchdms -->
<g id="node15" class="node">
<title>torchdms</title>
<ellipse fill="#ccebc5" stroke="#ccebc5" cx="1380.7712" cy="-1229.1522" rx="44.393" ry="18"/>
<text text-anchor="middle" x="1380.7712" y="-1225.4522" font-family="Times,serif" font-size="14.00" fill="#000000">torchdms</text>
</g>
<!-- GCreplay&#45;&#45;torchdms -->
<g id="edge25" class="edge">
<title>GCreplay&#45;&#45;torchdms</title>
<path fill="none" stroke="#000000" d="M1375.5624,-1060.6728C1376.6688,-1096.4617 1379.1119,-1175.4828 1380.2134,-1211.1093"/>
</g>
<!-- HLA_effects -->
<g id="node3" class="node">
<title>HLA_effects</title>
<ellipse fill="#ccebc5" stroke="#ccebc5" cx="91.8116" cy="-437.336" rx="56.59" ry="18"/>
<text text-anchor="middle" x="91.8116" y="-433.636" font-family="Times,serif" font-size="14.00" fill="#000000">HLA_effects</text>
</g>
<!-- PhIP_seq -->
<g id="node4" class="node">
<title>PhIP_seq</title>
<ellipse fill="#ccebc5" stroke="#ccebc5" cx="1551.287" cy="-1373.132" rx="44.393" ry="18"/>
<text text-anchor="middle" x="1551.287" y="-1369.432" font-family="Times,serif" font-size="14.00" fill="#000000">PhIP_seq</text>
</g>
<!-- TCR_GWAS -->
<g id="node5" class="node">
<title>TCR_GWAS</title>
<ellipse fill="#ccebc5" stroke="#ccebc5" cx="446.6357" cy="-556.9203" rx="58.4896" ry="18"/>
<text text-anchor="middle" x="446.6357" y="-553.2203" font-family="Times,serif" font-size="14.00" fill="#000000">TCR_GWAS</text>
</g>
<!-- TCR_trimming_motifs -->
<g id="node6" class="node">
<title>TCR_trimming_motifs</title>
<ellipse fill="#ccebc5" stroke="#ccebc5" cx="92.9418" cy="-620.9288" rx="92.8835" ry="18"/>
<text text-anchor="middle" x="92.9418" y="-617.2288" font-family="Times,serif" font-size="14.00" fill="#000000">TCR_trimming_motifs</text>
</g>
<!-- bito -->
<g id="node7" class="node">
<title>bito</title>
<ellipse fill="#ccebc5" stroke="#ccebc5" cx="1468.7573" cy="-405.8906" rx="27" ry="18"/>
<text text-anchor="middle" x="1468.7573" y="-402.1906" font-family="Times,serif" font-size="14.00" fill="#000000">bito</text>
</g>
<!-- autodiff_gradients -->
<g id="node8" class="node">
<title>autodiff_gradients</title>
<ellipse fill="#ccebc5" stroke="#ccebc5" cx="1654.2006" cy="-441.1474" rx="75.2868" ry="18"/>
<text text-anchor="middle" x="1654.2006" y="-437.4474" font-family="Times,serif" font-size="14.00" fill="#000000">autodiff_gradients</text>
</g>
<!-- bito&#45;&#45;autodiff_gradients -->
<g id="edge4" class="edge">
<title>bito&#45;&#45;autodiff_gradients</title>
<path fill="none" stroke="#000000" d="M1494.9335,-410.8673C1520.7918,-415.7835 1561.2442,-423.4744 1594.9086,-429.8747"/>
</g>
<!-- phylogenetic_VI -->
<g id="node12" class="node">
<title>phylogenetic_VI</title>
<ellipse fill="#ccebc5" stroke="#ccebc5" cx="1538.0427" cy="-215.6186" rx="69.5877" ry="18"/>
<text text-anchor="middle" x="1538.0427" y="-211.9186" font-family="Times,serif" font-size="14.00" fill="#000000">phylogenetic_VI</text>
</g>
<!-- bito&#45;&#45;phylogenetic_VI -->
<g id="edge2" class="edge">
<title>bito&#45;&#45;phylogenetic_VI</title>
<path fill="none" stroke="#000000" d="M1475.1513,-388.3313C1488.2835,-352.2677 1518.1728,-270.1855 1531.462,-233.6905"/>
</g>
<!-- subsplit_DAG -->
<g id="node14" class="node">
<title>subsplit_DAG</title>
<ellipse fill="#ccebc5" stroke="#ccebc5" cx="1222.1634" cy="-512.5147" rx="61.99" ry="18"/>
<text text-anchor="middle" x="1222.1634" y="-508.8147" font-family="Times,serif" font-size="14.00" fill="#000000">subsplit_DAG</text>
</g>
<!-- bito&#45;&#45;subsplit_DAG -->
<g id="edge5" class="edge">
<title>bito&#45;&#45;subsplit_DAG</title>
<path fill="none" stroke="#000000" d="M1446.0003,-415.7304C1402.7194,-434.4446 1308.2958,-475.2721 1257.0038,-497.4501"/>
</g>
<!-- generalized_pruning -->
<g id="node9" class="node">
<title>generalized_pruning</title>
<ellipse fill="#ccebc5" stroke="#ccebc5" cx="1377.3337" cy="-515.347" rx="83.3857" ry="18"/>
<text text-anchor="middle" x="1377.3337" y="-511.647" font-family="Times,serif" font-size="14.00" fill="#000000">generalized_pruning</text>
</g>
<!-- mechanistic_SHM -->
<g id="node10" class="node">
<title>mechanistic_SHM</title>
<ellipse fill="#ccebc5" stroke="#ccebc5" cx="717.2078" cy="-694.119" rx="77.1866" ry="18"/>
<text text-anchor="middle" x="717.2078" y="-690.419" font-family="Times,serif" font-size="14.00" fill="#000000">mechanistic_SHM</text>
</g>
<!-- context_sensitive_phylo -->
<g id="node30" class="node">
<title>context_sensitive_phylo</title>
<polygon fill="none" stroke="#000000" points="936.1675,-668.0932 800.097,-650.0932 936.1675,-632.0932 1072.2381,-650.0932 936.1675,-668.0932"/>
<text text-anchor="middle" x="936.1675" y="-646.3932" font-family="Times,serif" font-size="14.00" fill="#000000">context_sensitive_phylo</text>
</g>
<!-- mechanistic_SHM&#45;&#45;context_sensitive_phylo -->
<g id="edge45" class="edge">
<title>mechanistic_SHM&#45;&#45;context_sensitive_phylo</title>
<path fill="none" stroke="#000000" d="M775.885,-682.3209C808.821,-675.6986 849.639,-667.4913 881.8405,-661.0166"/>
</g>
<!-- SHM_across_ages -->
<g id="node40" class="node">
<title>SHM_across_ages</title>
<polygon fill="none" stroke="#000000" points="496.5634,-780.6263 388.1423,-762.6263 496.5634,-744.6263 604.9845,-762.6263 496.5634,-780.6263"/>
<text text-anchor="middle" x="496.5634" y="-758.9263" font-family="Times,serif" font-size="14.00" fill="#000000">SHM_across_ages</text>
</g>
<!-- mechanistic_SHM&#45;&#45;SHM_across_ages -->
<g id="edge38" class="edge">
<title>mechanistic_SHM&#45;&#45;SHM_across_ages</title>
<path fill="none" stroke="#000000" d="M670.6844,-708.564C630.2253,-721.126 572.3241,-739.1036 534.5877,-750.8203"/>
</g>
<!-- paired_HL -->
<g id="node11" class="node">
<title>paired_HL</title>
<ellipse fill="#ccebc5" stroke="#ccebc5" cx="820.8836" cy="-1025.9677" rx="48.9926" ry="18"/>
<text text-anchor="middle" x="820.8836" y="-1022.2677" font-family="Times,serif" font-size="14.00" fill="#000000">paired_HL</text>
</g>
<!-- B_cell_CONGA -->
<g id="node25" class="node">
<title>B_cell_CONGA</title>
<polygon fill="none" stroke="#000000" points="755.9561,-1233.1623 657.7563,-1215.1623 755.9561,-1197.1623 854.156,-1215.1623 755.9561,-1233.1623"/>
<text text-anchor="middle" x="755.9561" y="-1211.4623" font-family="Times,serif" font-size="14.00" fill="#000000">B_cell_CONGA</text>
</g>
<!-- paired_HL&#45;&#45;B_cell_CONGA -->
<g id="edge46" class="edge">
<title>paired_HL&#45;&#45;B_cell_CONGA</title>
<path fill="none" stroke="#000000" d="M814.6581,-1044.1085C802.1209,-1080.6413 773.9895,-1162.6143 761.7872,-1198.1708"/>
</g>
<!-- adaptive_MCMC -->
<g id="node29" class="node">
<title>adaptive_MCMC</title>
<polygon fill="none" stroke="#000000" points="1541.2491,-36 1437.5194,-18 1541.2491,0 1644.9788,-18 1541.2491,-36"/>
<text text-anchor="middle" x="1541.2491" y="-14.3" font-family="Times,serif" font-size="14.00" fill="#000000">adaptive_MCMC</text>
</g>
<!-- phylogenetic_VI&#45;&#45;adaptive_MCMC -->
<g id="edge1" class="edge">
<title>phylogenetic_VI&#45;&#45;adaptive_MCMC</title>
<path fill="none" stroke="#000000" d="M1538.3386,-197.3814C1538.9494,-159.7342 1540.3437,-73.8026 1540.9539,-36.1932"/>
</g>
<!-- online_phylo_VI -->
<g id="node38" class="node">
<title>online_phylo_VI</title>
<polygon fill="none" stroke="#000000" points="1405.2663,-362.2583 1304.8897,-344.2583 1405.2663,-326.2583 1505.643,-344.2583 1405.2663,-362.2583"/>
<text text-anchor="middle" x="1405.2663" y="-340.5583" font-family="Times,serif" font-size="14.00" fill="#000000">online_phylo_VI</text>
</g>
<!-- phylogenetic_VI&#45;&#45;online_phylo_VI -->
<g id="edge6" class="edge">
<title>phylogenetic_VI&#45;&#45;online_phylo_VI</title>
<path fill="none" stroke="#000000" d="M1519.8591,-233.2357C1493.7224,-258.5581 1445.9584,-304.834 1421.1586,-328.8612"/>
</g>
<!-- antibody_DMS&#45;&#45;PhIP_seq -->
<g id="edge28" class="edge">
<title>antibody_DMS&#45;&#45;PhIP_seq</title>
<path fill="none" stroke="#000000" d="M1517.603,-1190.935C1524.6365,-1228.9789 1540.8658,-1316.7637 1547.9159,-1354.8975"/>
</g>
<!-- antibody_DMS&#45;&#45;torchdms -->
<g id="edge27" class="edge">
<title>antibody_DMS&#45;&#45;torchdms</title>
<path fill="none" stroke="#000000" d="M1478.4809,-1187.9042C1457.6306,-1196.7061 1431.5986,-1207.6955 1411.6483,-1216.1175"/>
</g>
<!-- interactive_DMS_viz -->
<g id="node36" class="node">
<title>interactive_DMS_viz</title>
<polygon fill="none" stroke="#000000" points="1711.0819,-1221.7203 1587.7476,-1203.7203 1711.0819,-1185.7203 1834.4163,-1203.7203 1711.0819,-1221.7203"/>
<text text-anchor="middle" x="1711.0819" y="-1200.0203" font-family="Times,serif" font-size="14.00" fill="#000000">interactive_DMS_viz</text>
</g>
<!-- antibody_DMS&#45;&#45;interactive_DMS_viz -->
<g id="edge29" class="edge">
<title>antibody_DMS&#45;&#45;interactive_DMS_viz</title>
<path fill="none" stroke="#000000" d="M1571.4471,-1181.7877C1596.5318,-1185.7278 1625.9772,-1190.3529 1651.3452,-1194.3374"/>
</g>
<!-- subsplit_DAG&#45;&#45;generalized_pruning -->
<g id="edge9" class="edge">
<title>subsplit_DAG&#45;&#45;generalized_pruning</title>
<path fill="none" stroke="#000000" d="M1283.9367,-513.6422C1287.4018,-513.7055 1290.9109,-513.7695 1294.4347,-513.8338"/>
</g>
<!-- hillclimber -->
<g id="node19" class="node">
<title>hillclimber</title>
<polygon fill="none" stroke="#000000" points="1086.6231,-333.2966 1024.9033,-345.7343 963.1836,-333.2966 963.2412,-313.172 1086.5655,-313.172 1086.6231,-333.2966"/>
<text text-anchor="middle" x="1024.9033" y="-324.0343" font-family="Times,serif" font-size="14.00" fill="#000000">hillclimber</text>
</g>
<!-- subsplit_DAG&#45;&#45;hillclimber -->
<g id="edge8" class="edge">
<title>subsplit_DAG&#45;&#45;hillclimber</title>
<path fill="none" stroke="#000000" d="M1203.6056,-495.131C1165.0504,-459.015 1076.8743,-376.4173 1040.7657,-342.5932"/>
</g>
<!-- Bayesian_subtree_optimality -->
<g id="node26" class="node">
<title>Bayesian_subtree_optimality</title>
<polygon fill="none" stroke="#000000" points="1431.8846,-612.6789 1271.1794,-594.6789 1431.8846,-576.6789 1592.5897,-594.6789 1431.8846,-612.6789"/>
<text text-anchor="middle" x="1431.8846" y="-590.9789" font-family="Times,serif" font-size="14.00" fill="#000000">Bayesian_subtree_optimality</text>
</g>
<!-- subsplit_DAG&#45;&#45;Bayesian_subtree_optimality -->
<g id="edge13" class="edge">
<title>subsplit_DAG&#45;&#45;Bayesian_subtree_optimality</title>
<path fill="none" stroke="#000000" d="M1259.1745,-527.0149C1297.7445,-542.1257 1357.777,-565.6452 1395.944,-580.5982"/>
</g>
<!-- fasdag -->
<g id="node31" class="node">
<title>fasdag</title>
<polygon fill="none" stroke="#000000" points="1328.0256,-656.7071 1280.4324,-638.7071 1328.0256,-620.7071 1375.6188,-638.7071 1328.0256,-656.7071"/>
<text text-anchor="middle" x="1328.0256" y="-635.0071" font-family="Times,serif" font-size="14.00" fill="#000000">fasdag</text>
</g>
<!-- subsplit_DAG&#45;&#45;fasdag -->
<g id="edge14" class="edge">
<title>subsplit_DAG&#45;&#45;fasdag</title>
<path fill="none" stroke="#000000" d="M1236.8831,-530.0612C1258.131,-555.3896 1296.9693,-601.6866 1316.362,-624.8035"/>
</g>
<!-- how_big_of_sDAG -->
<g id="node35" class="node">
<title>how_big_of_sDAG</title>
<polygon fill="none" stroke="#000000" points="1207.8999,-317.9605 1094.7872,-299.9605 1207.8999,-281.9605 1321.0126,-299.9605 1207.8999,-317.9605"/>
<text text-anchor="middle" x="1207.8999" y="-296.2605" font-family="Times,serif" font-size="14.00" fill="#000000">how_big_of_sDAG</text>
</g>
<!-- subsplit_DAG&#45;&#45;how_big_of_sDAG -->
<g id="edge12" class="edge">
<title>subsplit_DAG&#45;&#45;how_big_of_sDAG</title>
<path fill="none" stroke="#000000" d="M1220.9473,-494.3924C1218.2525,-454.235 1211.8048,-358.1517 1209.1129,-318.0368"/>
</g>
<!-- local_EM -->
<g id="node37" class="node">
<title>local_EM</title>
<polygon fill="none" stroke="#000000" points="1102.5039,-439.9629 1037.4826,-421.9629 1102.5039,-403.9629 1167.5251,-421.9629 1102.5039,-439.9629"/>
<text text-anchor="middle" x="1102.5039" y="-418.2629" font-family="Times,serif" font-size="14.00" fill="#000000">local_EM</text>
</g>
<!-- subsplit_DAG&#45;&#45;local_EM -->
<g id="edge10" class="edge">
<title>subsplit_DAG&#45;&#45;local_EM</title>
<path fill="none" stroke="#000000" d="M1199.9368,-495.6948C1176.8219,-478.2028 1141.1142,-451.1811 1119.9504,-435.1655"/>
</g>
<!-- subsplit_DAG&#45;&#45;online_phylo_VI -->
<g id="edge7" class="edge">
<title>subsplit_DAG&#45;&#45;online_phylo_VI</title>
<path fill="none" stroke="#000000" d="M1241.0689,-495.142C1277.0695,-462.0605 1354.8971,-390.5434 1388.8586,-359.3357"/>
</g>
<!-- Bayesian_histories -->
<g id="node42" class="node">
<title>Bayesian_histories</title>
<polygon fill="none" stroke="#000000" points="1138.6295,-712.2225 1019.6295,-712.2225 1019.6295,-676.2225 1138.6295,-676.2225 1138.6295,-712.2225"/>
<text text-anchor="middle" x="1079.1295" y="-690.5225" font-family="Times,serif" font-size="14.00" fill="#000000">Bayesian_histories</text>
</g>
<!-- subsplit_DAG&#45;&#45;Bayesian_histories -->
<g id="edge11" class="edge">
<title>subsplit_DAG&#45;&#45;Bayesian_histories</title>
<path fill="none" stroke="#000000" d="M1208.1882,-530.2684C1180.9138,-564.9174 1120.8613,-641.207 1093.3732,-676.1275"/>
</g>
<!-- transport -->
<g id="node16" class="node">
<title>transport</title>
<ellipse fill="#ccebc5" stroke="#ccebc5" cx="208.9174" cy="-300.7744" rx="42.4939" ry="18"/>
<text text-anchor="middle" x="208.9174" y="-297.0744" font-family="Times,serif" font-size="14.00" fill="#000000">transport</text>
</g>
<!-- VI_diagnostics -->
<g id="node17" class="node">
<title>VI_diagnostics</title>
<ellipse fill="#ccebc5" stroke="#ccebc5" cx="1719.0066" cy="-148.2677" rx="63.8893" ry="18"/>
<text text-anchor="middle" x="1719.0066" y="-144.5677" font-family="Times,serif" font-size="14.00" fill="#000000">VI_diagnostics</text>
</g>
<!-- VI_diagnostics&#45;&#45;phylogenetic_VI -->
<g id="edge3" class="edge">
<title>VI_diagnostics&#45;&#45;phylogenetic_VI</title>
<path fill="none" stroke="#000000" d="M1680.1853,-162.7162C1650.0677,-173.9253 1608.4661,-189.4086 1578.0519,-200.7281"/>
</g>
<!-- CFT -->
<g id="node18" class="node">
<title>CFT</title>
<polygon fill="none" stroke="#000000" points="667.205,-946.1606 634.3283,-958.5983 601.4516,-946.1606 601.4823,-926.036 667.1743,-926.036 667.205,-946.1606"/>
<text text-anchor="middle" x="634.3283" y="-936.8983" font-family="Times,serif" font-size="14.00" fill="#000000">CFT</text>
</g>
<!-- olmsted -->
<g id="node20" class="node">
<title>olmsted</title>
<polygon fill="none" stroke="#000000" points="581.4059,-1096.3501 533.0003,-1108.7878 484.5947,-1096.3501 484.6399,-1076.2255 581.3607,-1076.2255 581.4059,-1096.3501"/>
<text text-anchor="middle" x="533.0003" y="-1087.0878" font-family="Times,serif" font-size="14.00" fill="#000000">olmsted</text>
</g>
<!-- CFT&#45;&#45;olmsted -->
<g id="edge36" class="edge">
<title>CFT&#45;&#45;olmsted</title>
<path fill="none" stroke="#000000" d="M624.6126,-954.9991C605.2942,-983.6331 562.2513,-1047.4317 542.8355,-1076.2099"/>
</g>
<!-- find_posterior_modes -->
<g id="node33" class="node">
<title>find_posterior_modes</title>
<polygon fill="none" stroke="#000000" points="1100.7952,-146.344 975.7844,-128.344 1100.7952,-110.344 1225.806,-128.344 1100.7952,-146.344"/>
<text text-anchor="middle" x="1100.7952" y="-124.644" font-family="Times,serif" font-size="14.00" fill="#000000">find_posterior_modes</text>
</g>
<!-- hillclimber&#45;&#45;find_posterior_modes -->
<g id="edge15" class="edge">
<title>hillclimber&#45;&#45;find_posterior_modes</title>
<path fill="none" stroke="#000000" d="M1030.4838,-313.0727C1044.2105,-277.0087 1079.5651,-184.1217 1094.2495,-145.5415"/>
</g>
<!-- BCR_GWAS -->
<g id="node21" class="node">
<title>BCR_GWAS</title>
<polygon fill="none" stroke="#000000" points="633.5419,-657.0824 549.755,-639.0824 633.5419,-621.0824 717.3288,-639.0824 633.5419,-657.0824"/>
<text text-anchor="middle" x="633.5419" y="-635.3824" font-family="Times,serif" font-size="14.00" fill="#000000">BCR_GWAS</text>
</g>
<!-- BCR_GWAS&#45;&#45;TCR_GWAS -->
<g id="edge40" class="edge">
<title>BCR_GWAS&#45;&#45;TCR_GWAS</title>
<path fill="none" stroke="#000000" d="M605.9632,-626.9591C572.5549,-612.2731 516.2941,-587.5414 480.3443,-571.7383"/>
</g>
<!-- BCR_indels -->
<g id="node22" class="node">
<title>BCR_indels</title>
<polygon fill="none" stroke="#000000" points="689.0267,-824.6528 612.9461,-806.6528 689.0267,-788.6528 765.1074,-806.6528 689.0267,-824.6528"/>
<text text-anchor="middle" x="689.0267" y="-802.9528" font-family="Times,serif" font-size="14.00" fill="#000000">BCR_indels</text>
</g>
<!-- BCR_selection_analysis -->
<g id="node23" class="node">
<title>BCR_selection_analysis</title>
<polygon fill="none" stroke="#000000" points="812.325,-932.7738 675.4161,-914.7738 812.325,-896.7738 949.2339,-914.7738 812.325,-932.7738"/>
<text text-anchor="middle" x="812.325" y="-911.0738" font-family="Times,serif" font-size="14.00" fill="#000000">BCR_selection_analysis</text>
</g>
<!-- BCR_trajectories -->
<g id="node24" class="node">
<title>BCR_trajectories</title>
<polygon fill="none" stroke="#000000" points="952.8375,-976.8036 851.6227,-958.8036 952.8375,-940.8036 1054.0522,-958.8036 952.8375,-976.8036"/>
<text text-anchor="middle" x="952.8375" y="-955.1036" font-family="Times,serif" font-size="14.00" fill="#000000">BCR_trajectories</text>
</g>
<!-- SARS2_parsimony_plateau -->
<g id="node28" class="node">
<title>SARS2_parsimony_plateau</title>
<polygon fill="none" stroke="#000000" points="1108.3019,-842.1781 954.8034,-824.1781 1108.3019,-806.1781 1261.8005,-824.1781 1108.3019,-842.1781"/>
<text text-anchor="middle" x="1108.3019" y="-820.4781" font-family="Times,serif" font-size="14.00" fill="#000000">SARS2_parsimony_plateau</text>
</g>
<!-- fast_TreeTime -->
<g id="node32" class="node">
<title>fast_TreeTime</title>
<polygon fill="none" stroke="#000000" points="958.2389,-552.7536 868.9221,-534.7536 958.2389,-516.7536 1047.5557,-534.7536 958.2389,-552.7536"/>
<text text-anchor="middle" x="958.2389" y="-531.0536" font-family="Times,serif" font-size="14.00" fill="#000000">fast_TreeTime</text>
</g>
<!-- polytomy_resolution -->
<g id="node39" class="node">
<title>polytomy_resolution</title>
<polygon fill="none" stroke="#000000" points="818.9551,-372.5729 699.4742,-354.5729 818.9551,-336.5729 938.436,-354.5729 818.9551,-372.5729"/>
<text text-anchor="middle" x="818.9551" y="-350.8729" font-family="Times,serif" font-size="14.00" fill="#000000">polytomy_resolution</text>
</g>
<!-- fast_TreeTime&#45;&#45;polytomy_resolution -->
<g id="edge22" class="edge">
<title>fast_TreeTime&#45;&#45;polytomy_resolution</title>
<path fill="none" stroke="#000000" d="M946.122,-519.0789C919.9126,-485.1739 858.1739,-405.3073 831.5439,-370.8581"/>
</g>
<!-- help_PANGO -->
<g id="node34" class="node">
<title>help_PANGO</title>
<polygon fill="none" stroke="#000000" points="1193.355,-775.6444 1107.8917,-757.6444 1193.355,-739.6444 1278.8182,-757.6444 1193.355,-775.6444"/>
<text text-anchor="middle" x="1193.355" y="-753.9444" font-family="Times,serif" font-size="14.00" fill="#000000">help_PANGO</text>
</g>
<!-- how_big_of_sDAG&#45;&#45;find_posterior_modes -->
<g id="edge16" class="edge">
<title>how_big_of_sDAG&#45;&#45;find_posterior_modes</title>
<path fill="none" stroke="#000000" d="M1197.6303,-283.5052C1177.2105,-250.7861 1131.7138,-177.8856 1111.1911,-145.0017"/>
</g>
<!-- BCR_analysis -->
<g id="node41" class="node">
<title>BCR_analysis</title>
<polygon fill="none" stroke="#000000" points="898.9623,-809.0985 804.9623,-809.0985 804.9623,-773.0985 898.9623,-773.0985 898.9623,-809.0985"/>
<text text-anchor="middle" x="851.9623" y="-787.3985" font-family="Times,serif" font-size="14.00" fill="#000000">BCR_analysis</text>
</g>
<!-- BCR_analysis&#45;&#45;mechanistic_SHM -->
<g id="edge37" class="edge">
<title>BCR_analysis&#45;&#45;mechanistic_SHM</title>
<path fill="none" stroke="#000000" d="M826.9318,-773.0847C802.4234,-755.4466 765.3436,-728.7612 741.1985,-711.3845"/>
</g>
<!-- BCR_analysis&#45;&#45;paired_HL -->
<g id="edge34" class="edge">
<title>BCR_analysis&#45;&#45;paired_HL</title>
<path fill="none" stroke="#000000" d="M849.5752,-809.1383C843.7902,-852.8571 829.0722,-964.0845 823.2789,-1007.8664"/>
</g>
<!-- BCR_analysis&#45;&#45;CFT -->
<g id="edge35" class="edge">
<title>BCR_analysis&#45;&#45;CFT</title>
<path fill="none" stroke="#000000" d="M825.7106,-809.1317C782.1845,-839.0311 695.9036,-898.3003 655.7783,-925.8637"/>
</g>
<!-- BCR_analysis&#45;&#45;BCR_GWAS -->
<g id="edge39" class="edge">
<title>BCR_analysis&#45;&#45;BCR_GWAS</title>
<path fill="none" stroke="#000000" d="M826.0489,-773.0633C781.8649,-742.3121 692.896,-680.3916 653.312,-652.8419"/>
</g>
<!-- BCR_analysis&#45;&#45;BCR_indels -->
<g id="edge32" class="edge">
<title>BCR_analysis&#45;&#45;BCR_indels</title>
<path fill="none" stroke="#000000" d="M804.8346,-795.5974C785.6614,-797.4278 763.382,-799.5546 743.5155,-801.4511"/>
</g>
<!-- BCR_analysis&#45;&#45;BCR_selection_analysis -->
<g id="edge30" class="edge">
<title>BCR_analysis&#45;&#45;BCR_selection_analysis</title>
<path fill="none" stroke="#000000" d="M846.1137,-809.3472C838.5335,-832.9989 825.4056,-873.96 817.941,-897.251"/>
</g>
<!-- BCR_analysis&#45;&#45;BCR_trajectories -->
<g id="edge31" class="edge">
<title>BCR_analysis&#45;&#45;BCR_trajectories</title>
<path fill="none" stroke="#000000" d="M862.9498,-809.3651C882.6603,-842.134 923.741,-910.4306 942.7666,-942.0608"/>
</g>
<!-- BCR_analysis&#45;&#45;Bayesian_histories -->
<g id="edge33" class="edge">
<title>BCR_analysis&#45;&#45;Bayesian_histories</title>
<path fill="none" stroke="#000000" d="M894.4242,-772.9905C935.133,-755.6302 996.2369,-729.5723 1036.8759,-712.2416"/>
</g>
<!-- Bayesian_histories&#45;&#45;Bayesian_GCtree -->
<g id="edge18" class="edge">
<title>Bayesian_histories&#45;&#45;Bayesian_GCtree</title>
<path fill="none" stroke="#000000" d="M1091.8113,-712.5248C1118.9981,-751.7607 1182.6066,-843.5601 1209.5845,-882.4944"/>
</g>
<!-- Bayesian_histories&#45;&#45;SARS2_parsimony_plateau -->
<g id="edge19" class="edge">
<title>Bayesian_histories&#45;&#45;SARS2_parsimony_plateau</title>
<path fill="none" stroke="#000000" d="M1083.1858,-712.2923C1088.7593,-737.1206 1098.7248,-781.5143 1104.2801,-806.2618"/>
</g>
<!-- Bayesian_histories&#45;&#45;context_sensitive_phylo -->
<g id="edge17" class="edge">
<title>Bayesian_histories&#45;&#45;context_sensitive_phylo</title>
<path fill="none" stroke="#000000" d="M1020.5689,-676.1461C1006.072,-671.6712 990.8417,-666.9699 977.3712,-662.8119"/>
</g>
<!-- Bayesian_histories&#45;&#45;fast_TreeTime -->
<g id="edge21" class="edge">
<title>Bayesian_histories&#45;&#45;fast_TreeTime</title>
<path fill="none" stroke="#000000" d="M1065.2618,-675.9294C1041.3222,-644.3503 992.6499,-580.1458 970.1439,-550.4577"/>
</g>
<!-- Bayesian_histories&#45;&#45;help_PANGO -->
<g id="edge20" class="edge">
<title>Bayesian_histories&#45;&#45;help_PANGO</title>
<path fill="none" stroke="#000000" d="M1111.5564,-712.227C1130.0244,-722.4811 1152.7567,-735.1028 1169.566,-744.4359"/>
</g>
<!-- TCR_analysis -->
<g id="node43" class="node">
<title>TCR_analysis</title>
<polygon fill="none" stroke="#000000" points="305.3543,-516.7539 212.3543,-516.7539 212.3543,-480.7539 305.3543,-480.7539 305.3543,-516.7539"/>
<text text-anchor="middle" x="258.8543" y="-495.0539" font-family="Times,serif" font-size="14.00" fill="#000000">TCR_analysis</text>
</g>
<!-- TCR_analysis&#45;&#45;HLA_effects -->
<g id="edge42" class="edge">
<title>TCR_analysis&#45;&#45;HLA_effects</title>
<path fill="none" stroke="#000000" d="M212.3236,-481.6456C185.9692,-471.9556 153.457,-460.0016 128.8465,-450.9529"/>
</g>
<!-- TCR_analysis&#45;&#45;TCR_GWAS -->
<g id="edge41" class="edge">
<title>TCR_analysis&#45;&#45;TCR_GWAS</title>
<path fill="none" stroke="#000000" d="M305.7551,-513.2817C336.2806,-522.7371 375.7346,-534.9582 405.1219,-544.0612"/>
</g>
<!-- TCR_analysis&#45;&#45;TCR_trimming_motifs -->
<g id="edge44" class="edge">
<title>TCR_analysis&#45;&#45;TCR_trimming_motifs</title>
<path fill="none" stroke="#000000" d="M234.3733,-516.7812C202.7344,-540.0795 148.0062,-580.3804 116.7157,-603.4221"/>
</g>
<!-- TCR_analysis&#45;&#45;transport -->
<g id="edge43" class="edge">
<title>TCR_analysis&#45;&#45;transport</title>
<path fill="none" stroke="#000000" d="M254.2458,-480.4833C244.7085,-442.6717 222.9081,-356.2416 213.4426,-318.7148"/>
</g>
<!-- train_awesome_researchers -->
<g id="node44" class="node">
<title>train_awesome_researchers</title>
<polygon fill="none" stroke="#000000" points="1460.3176,-1651.9645 1293.2367,-1651.9645 1241.6058,-1810.7196 1189.975,-1651.9645 1022.8941,-1651.9645 1158.0654,-1553.8485 1106.4346,-1395.0935 1241.6058,-1493.2095 1376.7771,-1395.0935 1325.1463,-1553.8485 1460.3176,-1651.9645"/>
<text text-anchor="middle" x="1241.6058" y="-1599.2065" font-family="Times,serif" font-size="14.00" fill="#000000">train_awesome_researchers</text>
</g>
<!-- diversify_comp_bio -->
<g id="node45" class="node">
<title>diversify_comp_bio</title>
<polygon fill="none" stroke="#000000" points="1910.8084,-937.8619 1784.8572,-937.8619 1745.9361,-1057.5909 1707.0151,-937.8619 1581.0638,-937.8619 1682.9605,-863.8653 1644.0395,-744.1363 1745.9361,-818.1329 1847.8328,-744.1363 1808.9118,-863.8653 1910.8084,-937.8619"/>
<text text-anchor="middle" x="1745.9361" y="-897.1636" font-family="Times,serif" font-size="14.00" fill="#000000">diversify_comp_bio</text>
</g>
<!-- eradicate_disease -->
<g id="node46" class="node">
<title>eradicate_disease</title>
<polygon fill="none" stroke="#000000" points="848.4029,-1565.8562 737.5548,-1565.8562 703.3009,-1671.5683 669.0469,-1565.8562 558.1988,-1565.8562 647.8768,-1500.5225 613.6229,-1394.8104 703.3009,-1460.1441 792.9789,-1394.8104 758.7249,-1500.5225 848.4029,-1565.8562"/>
<text text-anchor="middle" x="703.3009" y="-1529.4894" font-family="Times,serif" font-size="14.00" fill="#000000">eradicate_disease</text>
</g>
</g>
</svg>
